M48
;Layer_Color=9474304
;FILE_FORMAT=4:4
METRIC,LZ
;TYPE=PLATED
T1F00S00C0.4000
T2F00S00C0.7112
T3F00S00C0.8636
T4F00S00C0.9000
T5F00S00C1.0000
T6F00S00C1.0668
T7F00S00C1.2000
T8F00S00C1.3000
T9F00S00C1.3716
T10F00S00C1.4000
T11F00S00C1.6000
T12F00S00C1.7001
T13F00S00C2.0000
T14F00S00C3.2004
%
T01
X00173Y00028
X0016875Y0005175
Y0008975
X0027325Y001005
X00273Y00063
X00276Y0004
X0029075Y000285
X00294Y00072
X0033475Y00117
X0046675Y00136
X011475Y-000875
X00465Y00171
X003075Y00145
X00274Y0015375
X00188Y00169
X002885Y00953
T02
X00112Y00039
X0011Y001325
X0015225Y0008975
X0027075Y0001575
X0034225Y0001325
X003935Y0002525
X003865Y00047
X00401Y0008375
X0036425Y00086
X003805Y0014075
X0040825Y-0002925
X00494Y-0007325
X0025675Y-000795
X0023Y-000695
X00204Y-00068
X00899Y0001825
X00943Y-00025
X01014Y0003025
X0104325Y000135
X0104925Y0007675
X0120045Y0007655
X011475Y-0001
X0112975Y001475
X0106725Y0018925
X00596Y00485
X0052272Y0045968
X0047192
X0049732Y0048508
X004159Y0045978
X003651
X003905Y0048518
X003315Y0039425
X00322Y0035825
X0028371Y0028621
X0023575Y0028725
X00188Y0026425
X001885Y00241
X0028325Y0021725
X0028525Y0019
X0030225Y001895
X0038475Y0018925
X0048125Y0022075
X002325Y003865
X002585Y0042825
X0021625Y0047275
X0017475Y0042325
X0014975Y00521
X00105Y005025
X0008825Y003795
X0012275Y00315
X001405Y003045
X00124Y0027125
X0013875Y0021725
X0013975Y001555
X0013375Y00594
X00111Y00778
X00068Y00774
X0006875Y007995
X0005525Y00894
X001375Y009125
X0016975Y009255
X002125Y0091
X00218608Y0089
X00198Y00883
X0023375Y0085975
X002275Y007875
X0023Y00765
X00334Y00783
X003325Y008225
X0033Y0084
X003565Y0081925
X003515Y0087275
X0037675Y00884
X00401Y008805
X00392Y0085875
X0029Y009275
X00326Y00727
X00332Y007
X0033Y00675
X00265Y00633
X0022775Y0062125
X0064525Y00589
X0141225Y0083875
X014125Y0086
X003315Y0097079
X0028925Y0097
X00265Y01
X003075Y0102
X00331Y01015
X0032575Y01075
X0013Y00942
T03
X01179Y0022225
X0112475Y0028555
Y0042525
X01179Y0042545
X010793Y005125
X012825
X0047Y0061
X00724
X00713Y0116
X00459
T04
X012275Y001975
Y00445
T05
X00744Y-000719
Y-00049
Y-000261
X008671Y-000126
X0089
X009129
X00941Y000231
Y00046
Y000689
X0134Y0012
X01365Y0017
Y004725
X0134Y005225
X01315Y004725
Y0017
X00418Y002421
Y00265
Y002879
X0041Y006746
Y006975
Y007204
Y007671
Y0079
Y008129
Y009471
Y0097
Y009929
Y010371
Y0106
Y010829
T06
X0030755Y-0005
X0033295
X0035835
X0038375
X0005Y00176
Y002014
Y002268
Y002522
Y002776
Y00303
Y003612
Y003866
Y00412
Y004374
Y004926
Y00518
Y005434
Y005688
T07
X01323Y-0001
T08
X012722Y-000608
Y000408
X013738
Y-000608
T09
X0009127Y-0005
X00091271Y00650108
T10
X005756Y-000237
X0063
X006844
T11
X0006587Y-000754
X0011667
Y-000246
X0006587
X0006587Y00624708
Y00675508
X00116671
Y00624708
T12
X00458Y000162
Y000416
Y00067
Y000924
X005342
Y00067
Y000416
Y000162
X00686Y000176
Y00043
Y000684
Y000938
X007622
Y000684
Y00043
Y000176
T13
X0134Y00589
X0142
T14
X0005Y0005
X0145
X0088Y0029
X0074
X0057
X0065Y0053
X0044Y0035
X0046Y0088
X0145Y0069
Y0117
X0084Y0118
X0005Y0117
M30
