M48
; DRILL file {KiCad (6.0.11)} date Tue Nov  7 13:08:11 2023
; FORMAT={-:-/ absolute / inch / decimal}
; #@! TF.CreationDate,2023-11-07T13:08:11+01:00
; #@! TF.GenerationSoftware,Kicad,Pcbnew,(6.0.11)
; #@! TF.FileFunction,Plated,1,2,PTH
FMAT,2
INCH
; #@! TA.AperFunction,Plated,PTH,ViaDrill
T1C0.0157
; #@! TA.AperFunction,Plated,PTH,ComponentDrill
T2C0.0394
; #@! TA.AperFunction,Plated,PTH,ComponentDrill
T3C0.0591
; #@! TA.AperFunction,Plated,PTH,ComponentDrill
T4C0.2402
%
G90
G05
T1
X5.3937Y-4.685
X5.3937Y-4.685
X5.3937Y-4.685
X5.3937Y-4.7638
X5.8661Y-4.7835
X6.2598Y-4.4488
X7.0571Y-4.8917
X7.0866Y-4.8622
T2
X4.8803Y-4.1388
X4.9803Y-4.1388
X5.0803Y-4.1388
X5.3528Y-3.3317
X5.4528Y-3.3317
X5.5528Y-3.3317
X6.2156Y-4.9197
X6.2156Y-5.0197
X6.2156Y-5.1197
T3
X6.6358Y-3.8118
X6.8504Y-3.8118
X7.065Y-3.8118
T4
X4.0551Y-4.1339
X5.5512Y-4.1929
X6.811Y-5.5512
X7.1654Y-2.7953
X8.2283Y-4.2913
T0
M30
