%TF.GenerationSoftware,KiCad,Pcbnew,(6.0.11)*%
%TF.CreationDate,2023-11-09T10:56:48+01:00*%
%TF.ProjectId,Switch6.0,53776974-6368-4362-9e30-2e6b69636164,rev?*%
%TF.SameCoordinates,Original*%
%TF.FileFunction,Drillmap*%
%TF.FilePolarity,Positive*%
%FSLAX45Y45*%
G04 Gerber Fmt 4.5, Leading zero omitted, Abs format (unit mm)*
G04 Created by KiCad (PCBNEW (6.0.11)) date 2023-11-09 10:56:48*
%MOMM*%
%LPD*%
G01*
G04 APERTURE LIST*
%ADD10C,0.100000*%
%ADD11C,0.200000*%
G04 APERTURE END LIST*
D10*
X11400000Y-4175000D02*
X22100000Y-4175000D01*
X22100000Y-4175000D02*
X22100000Y-15100000D01*
X22100000Y-15100000D02*
X11400000Y-15100000D01*
X11400000Y-15100000D02*
X11400000Y-4175000D01*
D11*
X11652619Y-15415476D02*
X11652619Y-15215476D01*
X11700238Y-15215476D01*
X11728809Y-15225000D01*
X11747857Y-15244048D01*
X11757381Y-15263095D01*
X11766905Y-15301190D01*
X11766905Y-15329762D01*
X11757381Y-15367857D01*
X11747857Y-15386905D01*
X11728809Y-15405952D01*
X11700238Y-15415476D01*
X11652619Y-15415476D01*
X11852619Y-15415476D02*
X11852619Y-15282143D01*
X11852619Y-15320238D02*
X11862143Y-15301190D01*
X11871667Y-15291667D01*
X11890714Y-15282143D01*
X11909762Y-15282143D01*
X11976428Y-15415476D02*
X11976428Y-15282143D01*
X11976428Y-15215476D02*
X11966905Y-15225000D01*
X11976428Y-15234524D01*
X11985952Y-15225000D01*
X11976428Y-15215476D01*
X11976428Y-15234524D01*
X12100238Y-15415476D02*
X12081190Y-15405952D01*
X12071667Y-15386905D01*
X12071667Y-15215476D01*
X12205000Y-15415476D02*
X12185952Y-15405952D01*
X12176428Y-15386905D01*
X12176428Y-15215476D01*
X12433571Y-15415476D02*
X12433571Y-15215476D01*
X12500238Y-15358333D01*
X12566905Y-15215476D01*
X12566905Y-15415476D01*
X12747857Y-15415476D02*
X12747857Y-15310714D01*
X12738333Y-15291667D01*
X12719286Y-15282143D01*
X12681190Y-15282143D01*
X12662143Y-15291667D01*
X12747857Y-15405952D02*
X12728809Y-15415476D01*
X12681190Y-15415476D01*
X12662143Y-15405952D01*
X12652619Y-15386905D01*
X12652619Y-15367857D01*
X12662143Y-15348809D01*
X12681190Y-15339286D01*
X12728809Y-15339286D01*
X12747857Y-15329762D01*
X12843095Y-15282143D02*
X12843095Y-15482143D01*
X12843095Y-15291667D02*
X12862143Y-15282143D01*
X12900238Y-15282143D01*
X12919286Y-15291667D01*
X12928809Y-15301190D01*
X12938333Y-15320238D01*
X12938333Y-15377381D01*
X12928809Y-15396428D01*
X12919286Y-15405952D01*
X12900238Y-15415476D01*
X12862143Y-15415476D01*
X12843095Y-15405952D01*
X13024048Y-15396428D02*
X13033571Y-15405952D01*
X13024048Y-15415476D01*
X13014524Y-15405952D01*
X13024048Y-15396428D01*
X13024048Y-15415476D01*
X13024048Y-15291667D02*
X13033571Y-15301190D01*
X13024048Y-15310714D01*
X13014524Y-15301190D01*
X13024048Y-15291667D01*
X13024048Y-15310714D01*
M02*
