%TF.GenerationSoftware,KiCad,Pcbnew,(6.0.11)*%
%TF.CreationDate,2023-11-09T10:56:48+01:00*%
%TF.ProjectId,Switch6.0,53776974-6368-4362-9e30-2e6b69636164,rev?*%
%TF.SameCoordinates,Original*%
%TF.FileFunction,Drillmap*%
%TF.FilePolarity,Positive*%
%FSLAX45Y45*%
G04 Gerber Fmt 4.5, Leading zero omitted, Abs format (unit mm)*
G04 Created by KiCad (PCBNEW (6.0.11)) date 2023-11-09 10:56:48*
%MOMM*%
%LPD*%
G01*
G04 APERTURE LIST*
%ADD10C,0.100000*%
%ADD11C,0.200000*%
%ADD12C,0.040000*%
%ADD13C,0.150000*%
%ADD14C,0.610000*%
G04 APERTURE END LIST*
D10*
X11400000Y-4175000D02*
X22100000Y-4175000D01*
X22100000Y-4175000D02*
X22100000Y-15100000D01*
X22100000Y-15100000D02*
X11400000Y-15100000D01*
X11400000Y-15100000D02*
X11400000Y-4175000D01*
D11*
D12*
X13680000Y-11880000D02*
X13720000Y-11920000D01*
X13720000Y-11880000D02*
X13680000Y-11920000D01*
X13680000Y-11880000D02*
X13720000Y-11920000D01*
X13720000Y-11880000D02*
X13680000Y-11920000D01*
X13680000Y-11880000D02*
X13720000Y-11920000D01*
X13720000Y-11880000D02*
X13680000Y-11920000D01*
X13680000Y-12080000D02*
X13720000Y-12120000D01*
X13720000Y-12080000D02*
X13680000Y-12120000D01*
X14880000Y-12130000D02*
X14920000Y-12170000D01*
X14920000Y-12130000D02*
X14880000Y-12170000D01*
X15880000Y-11280000D02*
X15920000Y-11320000D01*
X15920000Y-11280000D02*
X15880000Y-11320000D01*
X17905000Y-12405000D02*
X17945000Y-12445000D01*
X17945000Y-12405000D02*
X17905000Y-12445000D01*
X17980000Y-12330000D02*
X18020000Y-12370000D01*
X18020000Y-12330000D02*
X17980000Y-12370000D01*
D10*
X12446000Y-10512500D02*
G75*
G03*
X12446000Y-10512500I-50000J0D01*
G01*
X12700000Y-10512500D02*
G75*
G03*
X12700000Y-10512500I-50000J0D01*
G01*
X12954000Y-10512500D02*
G75*
G03*
X12954000Y-10512500I-50000J0D01*
G01*
X13646000Y-8462500D02*
G75*
G03*
X13646000Y-8462500I-50000J0D01*
G01*
X13900000Y-8462500D02*
G75*
G03*
X13900000Y-8462500I-50000J0D01*
G01*
X14154000Y-8462500D02*
G75*
G03*
X14154000Y-8462500I-50000J0D01*
G01*
X15837500Y-12496000D02*
G75*
G03*
X15837500Y-12496000I-50000J0D01*
G01*
X15837500Y-12750000D02*
G75*
G03*
X15837500Y-12750000I-50000J0D01*
G01*
X15837500Y-13004000D02*
G75*
G03*
X15837500Y-13004000I-50000J0D01*
G01*
X16350000Y-8300000D02*
G75*
G03*
X16350000Y-8300000I-50000J0D01*
G01*
X16350000Y-9200000D02*
G75*
G03*
X16350000Y-9200000I-50000J0D01*
G01*
X16375000Y-10500000D02*
G75*
G03*
X16375000Y-10500000I-50000J0D01*
G01*
D13*
X16855000Y-9607000D02*
X16855000Y-9757000D01*
X16780000Y-9682000D02*
X16930000Y-9682000D01*
X17400000Y-9607000D02*
X17400000Y-9757000D01*
X17325000Y-9682000D02*
X17475000Y-9682000D01*
X17945000Y-9607000D02*
X17945000Y-9757000D01*
X17870000Y-9682000D02*
X18020000Y-9682000D01*
D14*
X12615670Y-9315670D02*
X12615670Y-8884330D01*
X12184330Y-8884330D01*
X12184330Y-9315670D01*
X12615670Y-9315670D01*
X14315670Y-10865670D02*
X14315670Y-10434330D01*
X13884330Y-10434330D01*
X13884330Y-10865670D01*
X14315670Y-10865670D01*
X17515670Y-14315670D02*
X17515670Y-13884330D01*
X17084330Y-13884330D01*
X17084330Y-14315670D01*
X17515670Y-14315670D01*
X18415670Y-7315670D02*
X18415670Y-6884330D01*
X17984330Y-6884330D01*
X17984330Y-7315670D01*
X18415670Y-7315670D01*
X21115670Y-11115670D02*
X21115670Y-10684330D01*
X20684330Y-10684330D01*
X20684330Y-11115670D01*
X21115670Y-11115670D01*
D11*
X11652619Y-15415476D02*
X11652619Y-15215476D01*
X11700238Y-15215476D01*
X11728809Y-15225000D01*
X11747857Y-15244048D01*
X11757381Y-15263095D01*
X11766905Y-15301190D01*
X11766905Y-15329762D01*
X11757381Y-15367857D01*
X11747857Y-15386905D01*
X11728809Y-15405952D01*
X11700238Y-15415476D01*
X11652619Y-15415476D01*
X11852619Y-15415476D02*
X11852619Y-15282143D01*
X11852619Y-15320238D02*
X11862143Y-15301190D01*
X11871667Y-15291667D01*
X11890714Y-15282143D01*
X11909762Y-15282143D01*
X11976428Y-15415476D02*
X11976428Y-15282143D01*
X11976428Y-15215476D02*
X11966905Y-15225000D01*
X11976428Y-15234524D01*
X11985952Y-15225000D01*
X11976428Y-15215476D01*
X11976428Y-15234524D01*
X12100238Y-15415476D02*
X12081190Y-15405952D01*
X12071667Y-15386905D01*
X12071667Y-15215476D01*
X12205000Y-15415476D02*
X12185952Y-15405952D01*
X12176428Y-15386905D01*
X12176428Y-15215476D01*
X12433571Y-15415476D02*
X12433571Y-15215476D01*
X12500238Y-15358333D01*
X12566905Y-15215476D01*
X12566905Y-15415476D01*
X12747857Y-15415476D02*
X12747857Y-15310714D01*
X12738333Y-15291667D01*
X12719286Y-15282143D01*
X12681190Y-15282143D01*
X12662143Y-15291667D01*
X12747857Y-15405952D02*
X12728809Y-15415476D01*
X12681190Y-15415476D01*
X12662143Y-15405952D01*
X12652619Y-15386905D01*
X12652619Y-15367857D01*
X12662143Y-15348809D01*
X12681190Y-15339286D01*
X12728809Y-15339286D01*
X12747857Y-15329762D01*
X12843095Y-15282143D02*
X12843095Y-15482143D01*
X12843095Y-15291667D02*
X12862143Y-15282143D01*
X12900238Y-15282143D01*
X12919286Y-15291667D01*
X12928809Y-15301190D01*
X12938333Y-15320238D01*
X12938333Y-15377381D01*
X12928809Y-15396428D01*
X12919286Y-15405952D01*
X12900238Y-15415476D01*
X12862143Y-15415476D01*
X12843095Y-15405952D01*
X13024048Y-15396428D02*
X13033571Y-15405952D01*
X13024048Y-15415476D01*
X13014524Y-15405952D01*
X13024048Y-15396428D01*
X13024048Y-15415476D01*
X13024048Y-15291667D02*
X13033571Y-15301190D01*
X13024048Y-15310714D01*
X13014524Y-15301190D01*
X13024048Y-15291667D01*
X13024048Y-15310714D01*
D12*
X11355000Y-15725000D02*
X11395000Y-15765000D01*
X11395000Y-15725000D02*
X11355000Y-15765000D01*
D11*
X11690714Y-15635476D02*
X11709762Y-15635476D01*
X11728809Y-15645000D01*
X11738333Y-15654524D01*
X11747857Y-15673571D01*
X11757381Y-15711667D01*
X11757381Y-15759286D01*
X11747857Y-15797381D01*
X11738333Y-15816428D01*
X11728809Y-15825952D01*
X11709762Y-15835476D01*
X11690714Y-15835476D01*
X11671667Y-15825952D01*
X11662143Y-15816428D01*
X11652619Y-15797381D01*
X11643095Y-15759286D01*
X11643095Y-15711667D01*
X11652619Y-15673571D01*
X11662143Y-15654524D01*
X11671667Y-15645000D01*
X11690714Y-15635476D01*
X11843095Y-15816428D02*
X11852619Y-15825952D01*
X11843095Y-15835476D01*
X11833571Y-15825952D01*
X11843095Y-15816428D01*
X11843095Y-15835476D01*
X12024048Y-15702143D02*
X12024048Y-15835476D01*
X11976428Y-15625952D02*
X11928809Y-15768809D01*
X12052619Y-15768809D01*
X12166905Y-15635476D02*
X12185952Y-15635476D01*
X12205000Y-15645000D01*
X12214524Y-15654524D01*
X12224048Y-15673571D01*
X12233571Y-15711667D01*
X12233571Y-15759286D01*
X12224048Y-15797381D01*
X12214524Y-15816428D01*
X12205000Y-15825952D01*
X12185952Y-15835476D01*
X12166905Y-15835476D01*
X12147857Y-15825952D01*
X12138333Y-15816428D01*
X12128809Y-15797381D01*
X12119286Y-15759286D01*
X12119286Y-15711667D01*
X12128809Y-15673571D01*
X12138333Y-15654524D01*
X12147857Y-15645000D01*
X12166905Y-15635476D01*
X12357381Y-15635476D02*
X12376428Y-15635476D01*
X12395476Y-15645000D01*
X12405000Y-15654524D01*
X12414524Y-15673571D01*
X12424048Y-15711667D01*
X12424048Y-15759286D01*
X12414524Y-15797381D01*
X12405000Y-15816428D01*
X12395476Y-15825952D01*
X12376428Y-15835476D01*
X12357381Y-15835476D01*
X12338333Y-15825952D01*
X12328809Y-15816428D01*
X12319286Y-15797381D01*
X12309762Y-15759286D01*
X12309762Y-15711667D01*
X12319286Y-15673571D01*
X12328809Y-15654524D01*
X12338333Y-15645000D01*
X12357381Y-15635476D01*
X12509762Y-15835476D02*
X12509762Y-15702143D01*
X12509762Y-15721190D02*
X12519286Y-15711667D01*
X12538333Y-15702143D01*
X12566905Y-15702143D01*
X12585952Y-15711667D01*
X12595476Y-15730714D01*
X12595476Y-15835476D01*
X12595476Y-15730714D02*
X12605000Y-15711667D01*
X12624048Y-15702143D01*
X12652619Y-15702143D01*
X12671667Y-15711667D01*
X12681190Y-15730714D01*
X12681190Y-15835476D01*
X12776428Y-15835476D02*
X12776428Y-15702143D01*
X12776428Y-15721190D02*
X12785952Y-15711667D01*
X12805000Y-15702143D01*
X12833571Y-15702143D01*
X12852619Y-15711667D01*
X12862143Y-15730714D01*
X12862143Y-15835476D01*
X12862143Y-15730714D02*
X12871667Y-15711667D01*
X12890714Y-15702143D01*
X12919286Y-15702143D01*
X12938333Y-15711667D01*
X12947857Y-15730714D01*
X12947857Y-15835476D01*
X13338333Y-15625952D02*
X13166905Y-15883095D01*
X13595476Y-15635476D02*
X13614524Y-15635476D01*
X13633571Y-15645000D01*
X13643095Y-15654524D01*
X13652619Y-15673571D01*
X13662143Y-15711667D01*
X13662143Y-15759286D01*
X13652619Y-15797381D01*
X13643095Y-15816428D01*
X13633571Y-15825952D01*
X13614524Y-15835476D01*
X13595476Y-15835476D01*
X13576428Y-15825952D01*
X13566905Y-15816428D01*
X13557381Y-15797381D01*
X13547857Y-15759286D01*
X13547857Y-15711667D01*
X13557381Y-15673571D01*
X13566905Y-15654524D01*
X13576428Y-15645000D01*
X13595476Y-15635476D01*
X13747857Y-15816428D02*
X13757381Y-15825952D01*
X13747857Y-15835476D01*
X13738333Y-15825952D01*
X13747857Y-15816428D01*
X13747857Y-15835476D01*
X13881190Y-15635476D02*
X13900238Y-15635476D01*
X13919286Y-15645000D01*
X13928809Y-15654524D01*
X13938333Y-15673571D01*
X13947857Y-15711667D01*
X13947857Y-15759286D01*
X13938333Y-15797381D01*
X13928809Y-15816428D01*
X13919286Y-15825952D01*
X13900238Y-15835476D01*
X13881190Y-15835476D01*
X13862143Y-15825952D01*
X13852619Y-15816428D01*
X13843095Y-15797381D01*
X13833571Y-15759286D01*
X13833571Y-15711667D01*
X13843095Y-15673571D01*
X13852619Y-15654524D01*
X13862143Y-15645000D01*
X13881190Y-15635476D01*
X14138333Y-15835476D02*
X14024048Y-15835476D01*
X14081190Y-15835476D02*
X14081190Y-15635476D01*
X14062143Y-15664048D01*
X14043095Y-15683095D01*
X14024048Y-15692619D01*
X14319286Y-15635476D02*
X14224048Y-15635476D01*
X14214524Y-15730714D01*
X14224048Y-15721190D01*
X14243095Y-15711667D01*
X14290714Y-15711667D01*
X14309762Y-15721190D01*
X14319286Y-15730714D01*
X14328809Y-15749762D01*
X14328809Y-15797381D01*
X14319286Y-15816428D01*
X14309762Y-15825952D01*
X14290714Y-15835476D01*
X14243095Y-15835476D01*
X14224048Y-15825952D01*
X14214524Y-15816428D01*
X14395476Y-15635476D02*
X14528809Y-15635476D01*
X14443095Y-15835476D01*
X14595476Y-15635476D02*
X14595476Y-15673571D01*
X14671667Y-15635476D02*
X14671667Y-15673571D01*
X14966905Y-15911667D02*
X14957381Y-15902143D01*
X14938333Y-15873571D01*
X14928809Y-15854524D01*
X14919286Y-15825952D01*
X14909762Y-15778333D01*
X14909762Y-15740238D01*
X14919286Y-15692619D01*
X14928809Y-15664048D01*
X14938333Y-15645000D01*
X14957381Y-15616428D01*
X14966905Y-15606905D01*
X15071667Y-15721190D02*
X15052619Y-15711667D01*
X15043095Y-15702143D01*
X15033571Y-15683095D01*
X15033571Y-15673571D01*
X15043095Y-15654524D01*
X15052619Y-15645000D01*
X15071667Y-15635476D01*
X15109762Y-15635476D01*
X15128809Y-15645000D01*
X15138333Y-15654524D01*
X15147857Y-15673571D01*
X15147857Y-15683095D01*
X15138333Y-15702143D01*
X15128809Y-15711667D01*
X15109762Y-15721190D01*
X15071667Y-15721190D01*
X15052619Y-15730714D01*
X15043095Y-15740238D01*
X15033571Y-15759286D01*
X15033571Y-15797381D01*
X15043095Y-15816428D01*
X15052619Y-15825952D01*
X15071667Y-15835476D01*
X15109762Y-15835476D01*
X15128809Y-15825952D01*
X15138333Y-15816428D01*
X15147857Y-15797381D01*
X15147857Y-15759286D01*
X15138333Y-15740238D01*
X15128809Y-15730714D01*
X15109762Y-15721190D01*
X15385952Y-15835476D02*
X15385952Y-15635476D01*
X15471667Y-15835476D02*
X15471667Y-15730714D01*
X15462143Y-15711667D01*
X15443095Y-15702143D01*
X15414524Y-15702143D01*
X15395476Y-15711667D01*
X15385952Y-15721190D01*
X15595476Y-15835476D02*
X15576428Y-15825952D01*
X15566905Y-15816428D01*
X15557381Y-15797381D01*
X15557381Y-15740238D01*
X15566905Y-15721190D01*
X15576428Y-15711667D01*
X15595476Y-15702143D01*
X15624048Y-15702143D01*
X15643095Y-15711667D01*
X15652619Y-15721190D01*
X15662143Y-15740238D01*
X15662143Y-15797381D01*
X15652619Y-15816428D01*
X15643095Y-15825952D01*
X15624048Y-15835476D01*
X15595476Y-15835476D01*
X15776428Y-15835476D02*
X15757381Y-15825952D01*
X15747857Y-15806905D01*
X15747857Y-15635476D01*
X15928809Y-15825952D02*
X15909762Y-15835476D01*
X15871667Y-15835476D01*
X15852619Y-15825952D01*
X15843095Y-15806905D01*
X15843095Y-15730714D01*
X15852619Y-15711667D01*
X15871667Y-15702143D01*
X15909762Y-15702143D01*
X15928809Y-15711667D01*
X15938333Y-15730714D01*
X15938333Y-15749762D01*
X15843095Y-15768809D01*
X16014524Y-15825952D02*
X16033571Y-15835476D01*
X16071667Y-15835476D01*
X16090714Y-15825952D01*
X16100238Y-15806905D01*
X16100238Y-15797381D01*
X16090714Y-15778333D01*
X16071667Y-15768809D01*
X16043095Y-15768809D01*
X16024048Y-15759286D01*
X16014524Y-15740238D01*
X16014524Y-15730714D01*
X16024048Y-15711667D01*
X16043095Y-15702143D01*
X16071667Y-15702143D01*
X16090714Y-15711667D01*
X16166905Y-15911667D02*
X16176428Y-15902143D01*
X16195476Y-15873571D01*
X16205000Y-15854524D01*
X16214524Y-15825952D01*
X16224048Y-15778333D01*
X16224048Y-15740238D01*
X16214524Y-15692619D01*
X16205000Y-15664048D01*
X16195476Y-15645000D01*
X16176428Y-15616428D01*
X16166905Y-15606905D01*
D10*
X11395000Y-16009000D02*
G75*
G03*
X11395000Y-16009000I-50000J0D01*
G01*
D11*
X11757381Y-16099476D02*
X11643095Y-16099476D01*
X11700238Y-16099476D02*
X11700238Y-15899476D01*
X11681190Y-15928048D01*
X11662143Y-15947095D01*
X11643095Y-15956619D01*
X11843095Y-16080428D02*
X11852619Y-16089952D01*
X11843095Y-16099476D01*
X11833571Y-16089952D01*
X11843095Y-16080428D01*
X11843095Y-16099476D01*
X11976428Y-15899476D02*
X11995476Y-15899476D01*
X12014524Y-15909000D01*
X12024048Y-15918524D01*
X12033571Y-15937571D01*
X12043095Y-15975667D01*
X12043095Y-16023286D01*
X12033571Y-16061381D01*
X12024048Y-16080428D01*
X12014524Y-16089952D01*
X11995476Y-16099476D01*
X11976428Y-16099476D01*
X11957381Y-16089952D01*
X11947857Y-16080428D01*
X11938333Y-16061381D01*
X11928809Y-16023286D01*
X11928809Y-15975667D01*
X11938333Y-15937571D01*
X11947857Y-15918524D01*
X11957381Y-15909000D01*
X11976428Y-15899476D01*
X12166905Y-15899476D02*
X12185952Y-15899476D01*
X12205000Y-15909000D01*
X12214524Y-15918524D01*
X12224048Y-15937571D01*
X12233571Y-15975667D01*
X12233571Y-16023286D01*
X12224048Y-16061381D01*
X12214524Y-16080428D01*
X12205000Y-16089952D01*
X12185952Y-16099476D01*
X12166905Y-16099476D01*
X12147857Y-16089952D01*
X12138333Y-16080428D01*
X12128809Y-16061381D01*
X12119286Y-16023286D01*
X12119286Y-15975667D01*
X12128809Y-15937571D01*
X12138333Y-15918524D01*
X12147857Y-15909000D01*
X12166905Y-15899476D01*
X12357381Y-15899476D02*
X12376428Y-15899476D01*
X12395476Y-15909000D01*
X12405000Y-15918524D01*
X12414524Y-15937571D01*
X12424048Y-15975667D01*
X12424048Y-16023286D01*
X12414524Y-16061381D01*
X12405000Y-16080428D01*
X12395476Y-16089952D01*
X12376428Y-16099476D01*
X12357381Y-16099476D01*
X12338333Y-16089952D01*
X12328809Y-16080428D01*
X12319286Y-16061381D01*
X12309762Y-16023286D01*
X12309762Y-15975667D01*
X12319286Y-15937571D01*
X12328809Y-15918524D01*
X12338333Y-15909000D01*
X12357381Y-15899476D01*
X12509762Y-16099476D02*
X12509762Y-15966143D01*
X12509762Y-15985190D02*
X12519286Y-15975667D01*
X12538333Y-15966143D01*
X12566905Y-15966143D01*
X12585952Y-15975667D01*
X12595476Y-15994714D01*
X12595476Y-16099476D01*
X12595476Y-15994714D02*
X12605000Y-15975667D01*
X12624048Y-15966143D01*
X12652619Y-15966143D01*
X12671667Y-15975667D01*
X12681190Y-15994714D01*
X12681190Y-16099476D01*
X12776428Y-16099476D02*
X12776428Y-15966143D01*
X12776428Y-15985190D02*
X12785952Y-15975667D01*
X12805000Y-15966143D01*
X12833571Y-15966143D01*
X12852619Y-15975667D01*
X12862143Y-15994714D01*
X12862143Y-16099476D01*
X12862143Y-15994714D02*
X12871667Y-15975667D01*
X12890714Y-15966143D01*
X12919286Y-15966143D01*
X12938333Y-15975667D01*
X12947857Y-15994714D01*
X12947857Y-16099476D01*
X13338333Y-15889952D02*
X13166905Y-16147095D01*
X13595476Y-15899476D02*
X13614524Y-15899476D01*
X13633571Y-15909000D01*
X13643095Y-15918524D01*
X13652619Y-15937571D01*
X13662143Y-15975667D01*
X13662143Y-16023286D01*
X13652619Y-16061381D01*
X13643095Y-16080428D01*
X13633571Y-16089952D01*
X13614524Y-16099476D01*
X13595476Y-16099476D01*
X13576428Y-16089952D01*
X13566905Y-16080428D01*
X13557381Y-16061381D01*
X13547857Y-16023286D01*
X13547857Y-15975667D01*
X13557381Y-15937571D01*
X13566905Y-15918524D01*
X13576428Y-15909000D01*
X13595476Y-15899476D01*
X13747857Y-16080428D02*
X13757381Y-16089952D01*
X13747857Y-16099476D01*
X13738333Y-16089952D01*
X13747857Y-16080428D01*
X13747857Y-16099476D01*
X13881190Y-15899476D02*
X13900238Y-15899476D01*
X13919286Y-15909000D01*
X13928809Y-15918524D01*
X13938333Y-15937571D01*
X13947857Y-15975667D01*
X13947857Y-16023286D01*
X13938333Y-16061381D01*
X13928809Y-16080428D01*
X13919286Y-16089952D01*
X13900238Y-16099476D01*
X13881190Y-16099476D01*
X13862143Y-16089952D01*
X13852619Y-16080428D01*
X13843095Y-16061381D01*
X13833571Y-16023286D01*
X13833571Y-15975667D01*
X13843095Y-15937571D01*
X13852619Y-15918524D01*
X13862143Y-15909000D01*
X13881190Y-15899476D01*
X14014524Y-15899476D02*
X14138333Y-15899476D01*
X14071667Y-15975667D01*
X14100238Y-15975667D01*
X14119286Y-15985190D01*
X14128809Y-15994714D01*
X14138333Y-16013762D01*
X14138333Y-16061381D01*
X14128809Y-16080428D01*
X14119286Y-16089952D01*
X14100238Y-16099476D01*
X14043095Y-16099476D01*
X14024048Y-16089952D01*
X14014524Y-16080428D01*
X14233571Y-16099476D02*
X14271667Y-16099476D01*
X14290714Y-16089952D01*
X14300238Y-16080428D01*
X14319286Y-16051857D01*
X14328809Y-16013762D01*
X14328809Y-15937571D01*
X14319286Y-15918524D01*
X14309762Y-15909000D01*
X14290714Y-15899476D01*
X14252619Y-15899476D01*
X14233571Y-15909000D01*
X14224048Y-15918524D01*
X14214524Y-15937571D01*
X14214524Y-15985190D01*
X14224048Y-16004238D01*
X14233571Y-16013762D01*
X14252619Y-16023286D01*
X14290714Y-16023286D01*
X14309762Y-16013762D01*
X14319286Y-16004238D01*
X14328809Y-15985190D01*
X14500238Y-15966143D02*
X14500238Y-16099476D01*
X14452619Y-15889952D02*
X14405000Y-16032809D01*
X14528809Y-16032809D01*
X14595476Y-15899476D02*
X14595476Y-15937571D01*
X14671667Y-15899476D02*
X14671667Y-15937571D01*
X14966905Y-16175667D02*
X14957381Y-16166143D01*
X14938333Y-16137571D01*
X14928809Y-16118524D01*
X14919286Y-16089952D01*
X14909762Y-16042333D01*
X14909762Y-16004238D01*
X14919286Y-15956619D01*
X14928809Y-15928048D01*
X14938333Y-15909000D01*
X14957381Y-15880428D01*
X14966905Y-15870905D01*
X15147857Y-16099476D02*
X15033571Y-16099476D01*
X15090714Y-16099476D02*
X15090714Y-15899476D01*
X15071667Y-15928048D01*
X15052619Y-15947095D01*
X15033571Y-15956619D01*
X15224048Y-15918524D02*
X15233571Y-15909000D01*
X15252619Y-15899476D01*
X15300238Y-15899476D01*
X15319286Y-15909000D01*
X15328809Y-15918524D01*
X15338333Y-15937571D01*
X15338333Y-15956619D01*
X15328809Y-15985190D01*
X15214524Y-16099476D01*
X15338333Y-16099476D01*
X15576428Y-16099476D02*
X15576428Y-15899476D01*
X15662143Y-16099476D02*
X15662143Y-15994714D01*
X15652619Y-15975667D01*
X15633571Y-15966143D01*
X15605000Y-15966143D01*
X15585952Y-15975667D01*
X15576428Y-15985190D01*
X15785952Y-16099476D02*
X15766905Y-16089952D01*
X15757381Y-16080428D01*
X15747857Y-16061381D01*
X15747857Y-16004238D01*
X15757381Y-15985190D01*
X15766905Y-15975667D01*
X15785952Y-15966143D01*
X15814524Y-15966143D01*
X15833571Y-15975667D01*
X15843095Y-15985190D01*
X15852619Y-16004238D01*
X15852619Y-16061381D01*
X15843095Y-16080428D01*
X15833571Y-16089952D01*
X15814524Y-16099476D01*
X15785952Y-16099476D01*
X15966905Y-16099476D02*
X15947857Y-16089952D01*
X15938333Y-16070905D01*
X15938333Y-15899476D01*
X16119286Y-16089952D02*
X16100238Y-16099476D01*
X16062143Y-16099476D01*
X16043095Y-16089952D01*
X16033571Y-16070905D01*
X16033571Y-15994714D01*
X16043095Y-15975667D01*
X16062143Y-15966143D01*
X16100238Y-15966143D01*
X16119286Y-15975667D01*
X16128809Y-15994714D01*
X16128809Y-16013762D01*
X16033571Y-16032809D01*
X16205000Y-16089952D02*
X16224048Y-16099476D01*
X16262143Y-16099476D01*
X16281190Y-16089952D01*
X16290714Y-16070905D01*
X16290714Y-16061381D01*
X16281190Y-16042333D01*
X16262143Y-16032809D01*
X16233571Y-16032809D01*
X16214524Y-16023286D01*
X16205000Y-16004238D01*
X16205000Y-15994714D01*
X16214524Y-15975667D01*
X16233571Y-15966143D01*
X16262143Y-15966143D01*
X16281190Y-15975667D01*
X16357381Y-16175667D02*
X16366905Y-16166143D01*
X16385952Y-16137571D01*
X16395476Y-16118524D01*
X16405000Y-16089952D01*
X16414524Y-16042333D01*
X16414524Y-16004238D01*
X16405000Y-15956619D01*
X16395476Y-15928048D01*
X16385952Y-15909000D01*
X16366905Y-15880428D01*
X16357381Y-15870905D01*
D13*
X11320000Y-16198000D02*
X11320000Y-16348000D01*
X11245000Y-16273000D02*
X11395000Y-16273000D01*
D11*
X11757381Y-16363476D02*
X11643095Y-16363476D01*
X11700238Y-16363476D02*
X11700238Y-16163476D01*
X11681190Y-16192048D01*
X11662143Y-16211095D01*
X11643095Y-16220619D01*
X11843095Y-16344428D02*
X11852619Y-16353952D01*
X11843095Y-16363476D01*
X11833571Y-16353952D01*
X11843095Y-16344428D01*
X11843095Y-16363476D01*
X12033571Y-16163476D02*
X11938333Y-16163476D01*
X11928809Y-16258714D01*
X11938333Y-16249190D01*
X11957381Y-16239667D01*
X12005000Y-16239667D01*
X12024048Y-16249190D01*
X12033571Y-16258714D01*
X12043095Y-16277762D01*
X12043095Y-16325381D01*
X12033571Y-16344428D01*
X12024048Y-16353952D01*
X12005000Y-16363476D01*
X11957381Y-16363476D01*
X11938333Y-16353952D01*
X11928809Y-16344428D01*
X12166905Y-16163476D02*
X12185952Y-16163476D01*
X12205000Y-16173000D01*
X12214524Y-16182524D01*
X12224048Y-16201571D01*
X12233571Y-16239667D01*
X12233571Y-16287286D01*
X12224048Y-16325381D01*
X12214524Y-16344428D01*
X12205000Y-16353952D01*
X12185952Y-16363476D01*
X12166905Y-16363476D01*
X12147857Y-16353952D01*
X12138333Y-16344428D01*
X12128809Y-16325381D01*
X12119286Y-16287286D01*
X12119286Y-16239667D01*
X12128809Y-16201571D01*
X12138333Y-16182524D01*
X12147857Y-16173000D01*
X12166905Y-16163476D01*
X12357381Y-16163476D02*
X12376428Y-16163476D01*
X12395476Y-16173000D01*
X12405000Y-16182524D01*
X12414524Y-16201571D01*
X12424048Y-16239667D01*
X12424048Y-16287286D01*
X12414524Y-16325381D01*
X12405000Y-16344428D01*
X12395476Y-16353952D01*
X12376428Y-16363476D01*
X12357381Y-16363476D01*
X12338333Y-16353952D01*
X12328809Y-16344428D01*
X12319286Y-16325381D01*
X12309762Y-16287286D01*
X12309762Y-16239667D01*
X12319286Y-16201571D01*
X12328809Y-16182524D01*
X12338333Y-16173000D01*
X12357381Y-16163476D01*
X12509762Y-16363476D02*
X12509762Y-16230143D01*
X12509762Y-16249190D02*
X12519286Y-16239667D01*
X12538333Y-16230143D01*
X12566905Y-16230143D01*
X12585952Y-16239667D01*
X12595476Y-16258714D01*
X12595476Y-16363476D01*
X12595476Y-16258714D02*
X12605000Y-16239667D01*
X12624048Y-16230143D01*
X12652619Y-16230143D01*
X12671667Y-16239667D01*
X12681190Y-16258714D01*
X12681190Y-16363476D01*
X12776428Y-16363476D02*
X12776428Y-16230143D01*
X12776428Y-16249190D02*
X12785952Y-16239667D01*
X12805000Y-16230143D01*
X12833571Y-16230143D01*
X12852619Y-16239667D01*
X12862143Y-16258714D01*
X12862143Y-16363476D01*
X12862143Y-16258714D02*
X12871667Y-16239667D01*
X12890714Y-16230143D01*
X12919286Y-16230143D01*
X12938333Y-16239667D01*
X12947857Y-16258714D01*
X12947857Y-16363476D01*
X13338333Y-16153952D02*
X13166905Y-16411095D01*
X13595476Y-16163476D02*
X13614524Y-16163476D01*
X13633571Y-16173000D01*
X13643095Y-16182524D01*
X13652619Y-16201571D01*
X13662143Y-16239667D01*
X13662143Y-16287286D01*
X13652619Y-16325381D01*
X13643095Y-16344428D01*
X13633571Y-16353952D01*
X13614524Y-16363476D01*
X13595476Y-16363476D01*
X13576428Y-16353952D01*
X13566905Y-16344428D01*
X13557381Y-16325381D01*
X13547857Y-16287286D01*
X13547857Y-16239667D01*
X13557381Y-16201571D01*
X13566905Y-16182524D01*
X13576428Y-16173000D01*
X13595476Y-16163476D01*
X13747857Y-16344428D02*
X13757381Y-16353952D01*
X13747857Y-16363476D01*
X13738333Y-16353952D01*
X13747857Y-16344428D01*
X13747857Y-16363476D01*
X13881190Y-16163476D02*
X13900238Y-16163476D01*
X13919286Y-16173000D01*
X13928809Y-16182524D01*
X13938333Y-16201571D01*
X13947857Y-16239667D01*
X13947857Y-16287286D01*
X13938333Y-16325381D01*
X13928809Y-16344428D01*
X13919286Y-16353952D01*
X13900238Y-16363476D01*
X13881190Y-16363476D01*
X13862143Y-16353952D01*
X13852619Y-16344428D01*
X13843095Y-16325381D01*
X13833571Y-16287286D01*
X13833571Y-16239667D01*
X13843095Y-16201571D01*
X13852619Y-16182524D01*
X13862143Y-16173000D01*
X13881190Y-16163476D01*
X14128809Y-16163476D02*
X14033571Y-16163476D01*
X14024048Y-16258714D01*
X14033571Y-16249190D01*
X14052619Y-16239667D01*
X14100238Y-16239667D01*
X14119286Y-16249190D01*
X14128809Y-16258714D01*
X14138333Y-16277762D01*
X14138333Y-16325381D01*
X14128809Y-16344428D01*
X14119286Y-16353952D01*
X14100238Y-16363476D01*
X14052619Y-16363476D01*
X14033571Y-16353952D01*
X14024048Y-16344428D01*
X14233571Y-16363476D02*
X14271667Y-16363476D01*
X14290714Y-16353952D01*
X14300238Y-16344428D01*
X14319286Y-16315857D01*
X14328809Y-16277762D01*
X14328809Y-16201571D01*
X14319286Y-16182524D01*
X14309762Y-16173000D01*
X14290714Y-16163476D01*
X14252619Y-16163476D01*
X14233571Y-16173000D01*
X14224048Y-16182524D01*
X14214524Y-16201571D01*
X14214524Y-16249190D01*
X14224048Y-16268238D01*
X14233571Y-16277762D01*
X14252619Y-16287286D01*
X14290714Y-16287286D01*
X14309762Y-16277762D01*
X14319286Y-16268238D01*
X14328809Y-16249190D01*
X14519286Y-16363476D02*
X14405000Y-16363476D01*
X14462143Y-16363476D02*
X14462143Y-16163476D01*
X14443095Y-16192048D01*
X14424048Y-16211095D01*
X14405000Y-16220619D01*
X14595476Y-16163476D02*
X14595476Y-16201571D01*
X14671667Y-16163476D02*
X14671667Y-16201571D01*
X14966905Y-16439667D02*
X14957381Y-16430143D01*
X14938333Y-16401571D01*
X14928809Y-16382524D01*
X14919286Y-16353952D01*
X14909762Y-16306333D01*
X14909762Y-16268238D01*
X14919286Y-16220619D01*
X14928809Y-16192048D01*
X14938333Y-16173000D01*
X14957381Y-16144428D01*
X14966905Y-16134905D01*
X15024048Y-16163476D02*
X15147857Y-16163476D01*
X15081190Y-16239667D01*
X15109762Y-16239667D01*
X15128809Y-16249190D01*
X15138333Y-16258714D01*
X15147857Y-16277762D01*
X15147857Y-16325381D01*
X15138333Y-16344428D01*
X15128809Y-16353952D01*
X15109762Y-16363476D01*
X15052619Y-16363476D01*
X15033571Y-16353952D01*
X15024048Y-16344428D01*
X15385952Y-16363476D02*
X15385952Y-16163476D01*
X15471667Y-16363476D02*
X15471667Y-16258714D01*
X15462143Y-16239667D01*
X15443095Y-16230143D01*
X15414524Y-16230143D01*
X15395476Y-16239667D01*
X15385952Y-16249190D01*
X15595476Y-16363476D02*
X15576428Y-16353952D01*
X15566905Y-16344428D01*
X15557381Y-16325381D01*
X15557381Y-16268238D01*
X15566905Y-16249190D01*
X15576428Y-16239667D01*
X15595476Y-16230143D01*
X15624048Y-16230143D01*
X15643095Y-16239667D01*
X15652619Y-16249190D01*
X15662143Y-16268238D01*
X15662143Y-16325381D01*
X15652619Y-16344428D01*
X15643095Y-16353952D01*
X15624048Y-16363476D01*
X15595476Y-16363476D01*
X15776428Y-16363476D02*
X15757381Y-16353952D01*
X15747857Y-16334905D01*
X15747857Y-16163476D01*
X15928809Y-16353952D02*
X15909762Y-16363476D01*
X15871667Y-16363476D01*
X15852619Y-16353952D01*
X15843095Y-16334905D01*
X15843095Y-16258714D01*
X15852619Y-16239667D01*
X15871667Y-16230143D01*
X15909762Y-16230143D01*
X15928809Y-16239667D01*
X15938333Y-16258714D01*
X15938333Y-16277762D01*
X15843095Y-16296809D01*
X16014524Y-16353952D02*
X16033571Y-16363476D01*
X16071667Y-16363476D01*
X16090714Y-16353952D01*
X16100238Y-16334905D01*
X16100238Y-16325381D01*
X16090714Y-16306333D01*
X16071667Y-16296809D01*
X16043095Y-16296809D01*
X16024048Y-16287286D01*
X16014524Y-16268238D01*
X16014524Y-16258714D01*
X16024048Y-16239667D01*
X16043095Y-16230143D01*
X16071667Y-16230143D01*
X16090714Y-16239667D01*
X16166905Y-16439667D02*
X16176428Y-16430143D01*
X16195476Y-16401571D01*
X16205000Y-16382524D01*
X16214524Y-16353952D01*
X16224048Y-16306333D01*
X16224048Y-16268238D01*
X16214524Y-16220619D01*
X16205000Y-16192048D01*
X16195476Y-16173000D01*
X16176428Y-16144428D01*
X16166905Y-16134905D01*
X11365711Y-16613711D02*
X11365711Y-16472289D01*
X11224289Y-16472289D01*
X11224289Y-16613711D01*
X11365711Y-16613711D01*
X11738333Y-16433476D02*
X11700238Y-16433476D01*
X11681190Y-16443000D01*
X11671667Y-16452524D01*
X11652619Y-16481095D01*
X11643095Y-16519190D01*
X11643095Y-16595381D01*
X11652619Y-16614428D01*
X11662143Y-16623952D01*
X11681190Y-16633476D01*
X11719286Y-16633476D01*
X11738333Y-16623952D01*
X11747857Y-16614428D01*
X11757381Y-16595381D01*
X11757381Y-16547762D01*
X11747857Y-16528714D01*
X11738333Y-16519190D01*
X11719286Y-16509667D01*
X11681190Y-16509667D01*
X11662143Y-16519190D01*
X11652619Y-16528714D01*
X11643095Y-16547762D01*
X11843095Y-16614428D02*
X11852619Y-16623952D01*
X11843095Y-16633476D01*
X11833571Y-16623952D01*
X11843095Y-16614428D01*
X11843095Y-16633476D01*
X12043095Y-16633476D02*
X11928809Y-16633476D01*
X11985952Y-16633476D02*
X11985952Y-16433476D01*
X11966905Y-16462048D01*
X11947857Y-16481095D01*
X11928809Y-16490619D01*
X12166905Y-16433476D02*
X12185952Y-16433476D01*
X12205000Y-16443000D01*
X12214524Y-16452524D01*
X12224048Y-16471571D01*
X12233571Y-16509667D01*
X12233571Y-16557286D01*
X12224048Y-16595381D01*
X12214524Y-16614428D01*
X12205000Y-16623952D01*
X12185952Y-16633476D01*
X12166905Y-16633476D01*
X12147857Y-16623952D01*
X12138333Y-16614428D01*
X12128809Y-16595381D01*
X12119286Y-16557286D01*
X12119286Y-16509667D01*
X12128809Y-16471571D01*
X12138333Y-16452524D01*
X12147857Y-16443000D01*
X12166905Y-16433476D01*
X12357381Y-16433476D02*
X12376428Y-16433476D01*
X12395476Y-16443000D01*
X12405000Y-16452524D01*
X12414524Y-16471571D01*
X12424048Y-16509667D01*
X12424048Y-16557286D01*
X12414524Y-16595381D01*
X12405000Y-16614428D01*
X12395476Y-16623952D01*
X12376428Y-16633476D01*
X12357381Y-16633476D01*
X12338333Y-16623952D01*
X12328809Y-16614428D01*
X12319286Y-16595381D01*
X12309762Y-16557286D01*
X12309762Y-16509667D01*
X12319286Y-16471571D01*
X12328809Y-16452524D01*
X12338333Y-16443000D01*
X12357381Y-16433476D01*
X12509762Y-16633476D02*
X12509762Y-16500143D01*
X12509762Y-16519190D02*
X12519286Y-16509667D01*
X12538333Y-16500143D01*
X12566905Y-16500143D01*
X12585952Y-16509667D01*
X12595476Y-16528714D01*
X12595476Y-16633476D01*
X12595476Y-16528714D02*
X12605000Y-16509667D01*
X12624048Y-16500143D01*
X12652619Y-16500143D01*
X12671667Y-16509667D01*
X12681190Y-16528714D01*
X12681190Y-16633476D01*
X12776428Y-16633476D02*
X12776428Y-16500143D01*
X12776428Y-16519190D02*
X12785952Y-16509667D01*
X12805000Y-16500143D01*
X12833571Y-16500143D01*
X12852619Y-16509667D01*
X12862143Y-16528714D01*
X12862143Y-16633476D01*
X12862143Y-16528714D02*
X12871667Y-16509667D01*
X12890714Y-16500143D01*
X12919286Y-16500143D01*
X12938333Y-16509667D01*
X12947857Y-16528714D01*
X12947857Y-16633476D01*
X13338333Y-16423952D02*
X13166905Y-16681095D01*
X13595476Y-16433476D02*
X13614524Y-16433476D01*
X13633571Y-16443000D01*
X13643095Y-16452524D01*
X13652619Y-16471571D01*
X13662143Y-16509667D01*
X13662143Y-16557286D01*
X13652619Y-16595381D01*
X13643095Y-16614428D01*
X13633571Y-16623952D01*
X13614524Y-16633476D01*
X13595476Y-16633476D01*
X13576428Y-16623952D01*
X13566905Y-16614428D01*
X13557381Y-16595381D01*
X13547857Y-16557286D01*
X13547857Y-16509667D01*
X13557381Y-16471571D01*
X13566905Y-16452524D01*
X13576428Y-16443000D01*
X13595476Y-16433476D01*
X13747857Y-16614428D02*
X13757381Y-16623952D01*
X13747857Y-16633476D01*
X13738333Y-16623952D01*
X13747857Y-16614428D01*
X13747857Y-16633476D01*
X13833571Y-16452524D02*
X13843095Y-16443000D01*
X13862143Y-16433476D01*
X13909762Y-16433476D01*
X13928809Y-16443000D01*
X13938333Y-16452524D01*
X13947857Y-16471571D01*
X13947857Y-16490619D01*
X13938333Y-16519190D01*
X13824048Y-16633476D01*
X13947857Y-16633476D01*
X14119286Y-16500143D02*
X14119286Y-16633476D01*
X14071667Y-16423952D02*
X14024048Y-16566809D01*
X14147857Y-16566809D01*
X14262143Y-16433476D02*
X14281190Y-16433476D01*
X14300238Y-16443000D01*
X14309762Y-16452524D01*
X14319286Y-16471571D01*
X14328809Y-16509667D01*
X14328809Y-16557286D01*
X14319286Y-16595381D01*
X14309762Y-16614428D01*
X14300238Y-16623952D01*
X14281190Y-16633476D01*
X14262143Y-16633476D01*
X14243095Y-16623952D01*
X14233571Y-16614428D01*
X14224048Y-16595381D01*
X14214524Y-16557286D01*
X14214524Y-16509667D01*
X14224048Y-16471571D01*
X14233571Y-16452524D01*
X14243095Y-16443000D01*
X14262143Y-16433476D01*
X14405000Y-16452524D02*
X14414524Y-16443000D01*
X14433571Y-16433476D01*
X14481190Y-16433476D01*
X14500238Y-16443000D01*
X14509762Y-16452524D01*
X14519286Y-16471571D01*
X14519286Y-16490619D01*
X14509762Y-16519190D01*
X14395476Y-16633476D01*
X14519286Y-16633476D01*
X14595476Y-16433476D02*
X14595476Y-16471571D01*
X14671667Y-16433476D02*
X14671667Y-16471571D01*
X14966905Y-16709667D02*
X14957381Y-16700143D01*
X14938333Y-16671571D01*
X14928809Y-16652524D01*
X14919286Y-16623952D01*
X14909762Y-16576333D01*
X14909762Y-16538238D01*
X14919286Y-16490619D01*
X14928809Y-16462048D01*
X14938333Y-16443000D01*
X14957381Y-16414428D01*
X14966905Y-16404905D01*
X15138333Y-16433476D02*
X15043095Y-16433476D01*
X15033571Y-16528714D01*
X15043095Y-16519190D01*
X15062143Y-16509667D01*
X15109762Y-16509667D01*
X15128809Y-16519190D01*
X15138333Y-16528714D01*
X15147857Y-16547762D01*
X15147857Y-16595381D01*
X15138333Y-16614428D01*
X15128809Y-16623952D01*
X15109762Y-16633476D01*
X15062143Y-16633476D01*
X15043095Y-16623952D01*
X15033571Y-16614428D01*
X15385952Y-16633476D02*
X15385952Y-16433476D01*
X15471667Y-16633476D02*
X15471667Y-16528714D01*
X15462143Y-16509667D01*
X15443095Y-16500143D01*
X15414524Y-16500143D01*
X15395476Y-16509667D01*
X15385952Y-16519190D01*
X15595476Y-16633476D02*
X15576428Y-16623952D01*
X15566905Y-16614428D01*
X15557381Y-16595381D01*
X15557381Y-16538238D01*
X15566905Y-16519190D01*
X15576428Y-16509667D01*
X15595476Y-16500143D01*
X15624048Y-16500143D01*
X15643095Y-16509667D01*
X15652619Y-16519190D01*
X15662143Y-16538238D01*
X15662143Y-16595381D01*
X15652619Y-16614428D01*
X15643095Y-16623952D01*
X15624048Y-16633476D01*
X15595476Y-16633476D01*
X15776428Y-16633476D02*
X15757381Y-16623952D01*
X15747857Y-16604905D01*
X15747857Y-16433476D01*
X15928809Y-16623952D02*
X15909762Y-16633476D01*
X15871667Y-16633476D01*
X15852619Y-16623952D01*
X15843095Y-16604905D01*
X15843095Y-16528714D01*
X15852619Y-16509667D01*
X15871667Y-16500143D01*
X15909762Y-16500143D01*
X15928809Y-16509667D01*
X15938333Y-16528714D01*
X15938333Y-16547762D01*
X15843095Y-16566809D01*
X16014524Y-16623952D02*
X16033571Y-16633476D01*
X16071667Y-16633476D01*
X16090714Y-16623952D01*
X16100238Y-16604905D01*
X16100238Y-16595381D01*
X16090714Y-16576333D01*
X16071667Y-16566809D01*
X16043095Y-16566809D01*
X16024048Y-16557286D01*
X16014524Y-16538238D01*
X16014524Y-16528714D01*
X16024048Y-16509667D01*
X16043095Y-16500143D01*
X16071667Y-16500143D01*
X16090714Y-16509667D01*
X16166905Y-16709667D02*
X16176428Y-16700143D01*
X16195476Y-16671571D01*
X16205000Y-16652524D01*
X16214524Y-16623952D01*
X16224048Y-16576333D01*
X16224048Y-16538238D01*
X16214524Y-16490619D01*
X16205000Y-16462048D01*
X16195476Y-16443000D01*
X16176428Y-16414428D01*
X16166905Y-16404905D01*
M02*
