%TF.GenerationSoftware,KiCad,Pcbnew,(6.0.11)*%
%TF.CreationDate,2023-11-07T13:08:13+01:00*%
%TF.ProjectId,Switch6.0,53776974-6368-4362-9e30-2e6b69636164,rev?*%
%TF.SameCoordinates,Original*%
%TF.FileFunction,Drillmap*%
%TF.FilePolarity,Positive*%
%FSLAX45Y45*%
G04 Gerber Fmt 4.5, Leading zero omitted, Abs format (unit mm)*
G04 Created by KiCad (PCBNEW (6.0.11)) date 2023-11-07 13:08:13*
%MOMM*%
%LPD*%
G01*
G04 APERTURE LIST*
%ADD10C,0.100000*%
%ADD11C,0.200000*%
%ADD12C,0.040000*%
%ADD13C,0.150000*%
%ADD14C,0.610000*%
G04 APERTURE END LIST*
D10*
X9400000Y-6100000D02*
X22200000Y-6100000D01*
X22200000Y-6100000D02*
X22200000Y-15100000D01*
X22200000Y-15100000D02*
X9400000Y-15100000D01*
X9400000Y-15100000D02*
X9400000Y-6100000D01*
D11*
D12*
X13680000Y-11880000D02*
X13720000Y-11920000D01*
X13720000Y-11880000D02*
X13680000Y-11920000D01*
X13680000Y-11880000D02*
X13720000Y-11920000D01*
X13720000Y-11880000D02*
X13680000Y-11920000D01*
X13680000Y-11880000D02*
X13720000Y-11920000D01*
X13720000Y-11880000D02*
X13680000Y-11920000D01*
X13680000Y-12080000D02*
X13720000Y-12120000D01*
X13720000Y-12080000D02*
X13680000Y-12120000D01*
X14880000Y-12130000D02*
X14920000Y-12170000D01*
X14920000Y-12130000D02*
X14880000Y-12170000D01*
X15880000Y-11280000D02*
X15920000Y-11320000D01*
X15920000Y-11280000D02*
X15880000Y-11320000D01*
X17905000Y-12405000D02*
X17945000Y-12445000D01*
X17945000Y-12405000D02*
X17905000Y-12445000D01*
X17980000Y-12330000D02*
X18020000Y-12370000D01*
X18020000Y-12330000D02*
X17980000Y-12370000D01*
D10*
X12446000Y-10512500D02*
G75*
G03*
X12446000Y-10512500I-50000J0D01*
G01*
X12700000Y-10512500D02*
G75*
G03*
X12700000Y-10512500I-50000J0D01*
G01*
X12954000Y-10512500D02*
G75*
G03*
X12954000Y-10512500I-50000J0D01*
G01*
X13646000Y-8462500D02*
G75*
G03*
X13646000Y-8462500I-50000J0D01*
G01*
X13900000Y-8462500D02*
G75*
G03*
X13900000Y-8462500I-50000J0D01*
G01*
X14154000Y-8462500D02*
G75*
G03*
X14154000Y-8462500I-50000J0D01*
G01*
X15837500Y-12496000D02*
G75*
G03*
X15837500Y-12496000I-50000J0D01*
G01*
X15837500Y-12750000D02*
G75*
G03*
X15837500Y-12750000I-50000J0D01*
G01*
X15837500Y-13004000D02*
G75*
G03*
X15837500Y-13004000I-50000J0D01*
G01*
D13*
X16855000Y-9607000D02*
X16855000Y-9757000D01*
X16780000Y-9682000D02*
X16930000Y-9682000D01*
X17400000Y-9607000D02*
X17400000Y-9757000D01*
X17325000Y-9682000D02*
X17475000Y-9682000D01*
X17945000Y-9607000D02*
X17945000Y-9757000D01*
X17870000Y-9682000D02*
X18020000Y-9682000D01*
D14*
X10515670Y-10715670D02*
X10515670Y-10284330D01*
X10084330Y-10284330D01*
X10084330Y-10715670D01*
X10515670Y-10715670D01*
X14315670Y-10865670D02*
X14315670Y-10434330D01*
X13884330Y-10434330D01*
X13884330Y-10865670D01*
X14315670Y-10865670D01*
X17515670Y-14315670D02*
X17515670Y-13884330D01*
X17084330Y-13884330D01*
X17084330Y-14315670D01*
X17515670Y-14315670D01*
X18415670Y-7315670D02*
X18415670Y-6884330D01*
X17984330Y-6884330D01*
X17984330Y-7315670D01*
X18415670Y-7315670D01*
X21115670Y-11115670D02*
X21115670Y-10684330D01*
X20684330Y-10684330D01*
X20684330Y-11115670D01*
X21115670Y-11115670D01*
D11*
X9652619Y-15415476D02*
X9652619Y-15215476D01*
X9700238Y-15215476D01*
X9728810Y-15225000D01*
X9747857Y-15244048D01*
X9757381Y-15263095D01*
X9766905Y-15301190D01*
X9766905Y-15329762D01*
X9757381Y-15367857D01*
X9747857Y-15386905D01*
X9728810Y-15405952D01*
X9700238Y-15415476D01*
X9652619Y-15415476D01*
X9852619Y-15415476D02*
X9852619Y-15282143D01*
X9852619Y-15320238D02*
X9862143Y-15301190D01*
X9871667Y-15291667D01*
X9890714Y-15282143D01*
X9909762Y-15282143D01*
X9976429Y-15415476D02*
X9976429Y-15282143D01*
X9976429Y-15215476D02*
X9966905Y-15225000D01*
X9976429Y-15234524D01*
X9985952Y-15225000D01*
X9976429Y-15215476D01*
X9976429Y-15234524D01*
X10100238Y-15415476D02*
X10081190Y-15405952D01*
X10071667Y-15386905D01*
X10071667Y-15215476D01*
X10205000Y-15415476D02*
X10185952Y-15405952D01*
X10176429Y-15386905D01*
X10176429Y-15215476D01*
X10433571Y-15415476D02*
X10433571Y-15215476D01*
X10500238Y-15358333D01*
X10566905Y-15215476D01*
X10566905Y-15415476D01*
X10747857Y-15415476D02*
X10747857Y-15310714D01*
X10738333Y-15291667D01*
X10719286Y-15282143D01*
X10681190Y-15282143D01*
X10662143Y-15291667D01*
X10747857Y-15405952D02*
X10728810Y-15415476D01*
X10681190Y-15415476D01*
X10662143Y-15405952D01*
X10652619Y-15386905D01*
X10652619Y-15367857D01*
X10662143Y-15348809D01*
X10681190Y-15339286D01*
X10728810Y-15339286D01*
X10747857Y-15329762D01*
X10843095Y-15282143D02*
X10843095Y-15482143D01*
X10843095Y-15291667D02*
X10862143Y-15282143D01*
X10900238Y-15282143D01*
X10919286Y-15291667D01*
X10928810Y-15301190D01*
X10938333Y-15320238D01*
X10938333Y-15377381D01*
X10928810Y-15396428D01*
X10919286Y-15405952D01*
X10900238Y-15415476D01*
X10862143Y-15415476D01*
X10843095Y-15405952D01*
X11024048Y-15396428D02*
X11033571Y-15405952D01*
X11024048Y-15415476D01*
X11014524Y-15405952D01*
X11024048Y-15396428D01*
X11024048Y-15415476D01*
X11024048Y-15291667D02*
X11033571Y-15301190D01*
X11024048Y-15310714D01*
X11014524Y-15301190D01*
X11024048Y-15291667D01*
X11024048Y-15310714D01*
D12*
X9355000Y-15725000D02*
X9395000Y-15765000D01*
X9395000Y-15725000D02*
X9355000Y-15765000D01*
D11*
X9690714Y-15635476D02*
X9709762Y-15635476D01*
X9728810Y-15645000D01*
X9738333Y-15654524D01*
X9747857Y-15673571D01*
X9757381Y-15711667D01*
X9757381Y-15759286D01*
X9747857Y-15797381D01*
X9738333Y-15816428D01*
X9728810Y-15825952D01*
X9709762Y-15835476D01*
X9690714Y-15835476D01*
X9671667Y-15825952D01*
X9662143Y-15816428D01*
X9652619Y-15797381D01*
X9643095Y-15759286D01*
X9643095Y-15711667D01*
X9652619Y-15673571D01*
X9662143Y-15654524D01*
X9671667Y-15645000D01*
X9690714Y-15635476D01*
X9843095Y-15816428D02*
X9852619Y-15825952D01*
X9843095Y-15835476D01*
X9833571Y-15825952D01*
X9843095Y-15816428D01*
X9843095Y-15835476D01*
X10024048Y-15702143D02*
X10024048Y-15835476D01*
X9976429Y-15625952D02*
X9928810Y-15768809D01*
X10052619Y-15768809D01*
X10166905Y-15635476D02*
X10185952Y-15635476D01*
X10205000Y-15645000D01*
X10214524Y-15654524D01*
X10224048Y-15673571D01*
X10233571Y-15711667D01*
X10233571Y-15759286D01*
X10224048Y-15797381D01*
X10214524Y-15816428D01*
X10205000Y-15825952D01*
X10185952Y-15835476D01*
X10166905Y-15835476D01*
X10147857Y-15825952D01*
X10138333Y-15816428D01*
X10128810Y-15797381D01*
X10119286Y-15759286D01*
X10119286Y-15711667D01*
X10128810Y-15673571D01*
X10138333Y-15654524D01*
X10147857Y-15645000D01*
X10166905Y-15635476D01*
X10357381Y-15635476D02*
X10376429Y-15635476D01*
X10395476Y-15645000D01*
X10405000Y-15654524D01*
X10414524Y-15673571D01*
X10424048Y-15711667D01*
X10424048Y-15759286D01*
X10414524Y-15797381D01*
X10405000Y-15816428D01*
X10395476Y-15825952D01*
X10376429Y-15835476D01*
X10357381Y-15835476D01*
X10338333Y-15825952D01*
X10328810Y-15816428D01*
X10319286Y-15797381D01*
X10309762Y-15759286D01*
X10309762Y-15711667D01*
X10319286Y-15673571D01*
X10328810Y-15654524D01*
X10338333Y-15645000D01*
X10357381Y-15635476D01*
X10509762Y-15835476D02*
X10509762Y-15702143D01*
X10509762Y-15721190D02*
X10519286Y-15711667D01*
X10538333Y-15702143D01*
X10566905Y-15702143D01*
X10585952Y-15711667D01*
X10595476Y-15730714D01*
X10595476Y-15835476D01*
X10595476Y-15730714D02*
X10605000Y-15711667D01*
X10624048Y-15702143D01*
X10652619Y-15702143D01*
X10671667Y-15711667D01*
X10681190Y-15730714D01*
X10681190Y-15835476D01*
X10776429Y-15835476D02*
X10776429Y-15702143D01*
X10776429Y-15721190D02*
X10785952Y-15711667D01*
X10805000Y-15702143D01*
X10833571Y-15702143D01*
X10852619Y-15711667D01*
X10862143Y-15730714D01*
X10862143Y-15835476D01*
X10862143Y-15730714D02*
X10871667Y-15711667D01*
X10890714Y-15702143D01*
X10919286Y-15702143D01*
X10938333Y-15711667D01*
X10947857Y-15730714D01*
X10947857Y-15835476D01*
X11338333Y-15625952D02*
X11166905Y-15883095D01*
X11595476Y-15635476D02*
X11614524Y-15635476D01*
X11633571Y-15645000D01*
X11643095Y-15654524D01*
X11652619Y-15673571D01*
X11662143Y-15711667D01*
X11662143Y-15759286D01*
X11652619Y-15797381D01*
X11643095Y-15816428D01*
X11633571Y-15825952D01*
X11614524Y-15835476D01*
X11595476Y-15835476D01*
X11576428Y-15825952D01*
X11566905Y-15816428D01*
X11557381Y-15797381D01*
X11547857Y-15759286D01*
X11547857Y-15711667D01*
X11557381Y-15673571D01*
X11566905Y-15654524D01*
X11576428Y-15645000D01*
X11595476Y-15635476D01*
X11747857Y-15816428D02*
X11757381Y-15825952D01*
X11747857Y-15835476D01*
X11738333Y-15825952D01*
X11747857Y-15816428D01*
X11747857Y-15835476D01*
X11881190Y-15635476D02*
X11900238Y-15635476D01*
X11919286Y-15645000D01*
X11928809Y-15654524D01*
X11938333Y-15673571D01*
X11947857Y-15711667D01*
X11947857Y-15759286D01*
X11938333Y-15797381D01*
X11928809Y-15816428D01*
X11919286Y-15825952D01*
X11900238Y-15835476D01*
X11881190Y-15835476D01*
X11862143Y-15825952D01*
X11852619Y-15816428D01*
X11843095Y-15797381D01*
X11833571Y-15759286D01*
X11833571Y-15711667D01*
X11843095Y-15673571D01*
X11852619Y-15654524D01*
X11862143Y-15645000D01*
X11881190Y-15635476D01*
X12138333Y-15835476D02*
X12024048Y-15835476D01*
X12081190Y-15835476D02*
X12081190Y-15635476D01*
X12062143Y-15664048D01*
X12043095Y-15683095D01*
X12024048Y-15692619D01*
X12319286Y-15635476D02*
X12224048Y-15635476D01*
X12214524Y-15730714D01*
X12224048Y-15721190D01*
X12243095Y-15711667D01*
X12290714Y-15711667D01*
X12309762Y-15721190D01*
X12319286Y-15730714D01*
X12328809Y-15749762D01*
X12328809Y-15797381D01*
X12319286Y-15816428D01*
X12309762Y-15825952D01*
X12290714Y-15835476D01*
X12243095Y-15835476D01*
X12224048Y-15825952D01*
X12214524Y-15816428D01*
X12395476Y-15635476D02*
X12528809Y-15635476D01*
X12443095Y-15835476D01*
X12595476Y-15635476D02*
X12595476Y-15673571D01*
X12671667Y-15635476D02*
X12671667Y-15673571D01*
X12966905Y-15911667D02*
X12957381Y-15902143D01*
X12938333Y-15873571D01*
X12928809Y-15854524D01*
X12919286Y-15825952D01*
X12909762Y-15778333D01*
X12909762Y-15740238D01*
X12919286Y-15692619D01*
X12928809Y-15664048D01*
X12938333Y-15645000D01*
X12957381Y-15616428D01*
X12966905Y-15606905D01*
X13071667Y-15721190D02*
X13052619Y-15711667D01*
X13043095Y-15702143D01*
X13033571Y-15683095D01*
X13033571Y-15673571D01*
X13043095Y-15654524D01*
X13052619Y-15645000D01*
X13071667Y-15635476D01*
X13109762Y-15635476D01*
X13128809Y-15645000D01*
X13138333Y-15654524D01*
X13147857Y-15673571D01*
X13147857Y-15683095D01*
X13138333Y-15702143D01*
X13128809Y-15711667D01*
X13109762Y-15721190D01*
X13071667Y-15721190D01*
X13052619Y-15730714D01*
X13043095Y-15740238D01*
X13033571Y-15759286D01*
X13033571Y-15797381D01*
X13043095Y-15816428D01*
X13052619Y-15825952D01*
X13071667Y-15835476D01*
X13109762Y-15835476D01*
X13128809Y-15825952D01*
X13138333Y-15816428D01*
X13147857Y-15797381D01*
X13147857Y-15759286D01*
X13138333Y-15740238D01*
X13128809Y-15730714D01*
X13109762Y-15721190D01*
X13385952Y-15835476D02*
X13385952Y-15635476D01*
X13471667Y-15835476D02*
X13471667Y-15730714D01*
X13462143Y-15711667D01*
X13443095Y-15702143D01*
X13414524Y-15702143D01*
X13395476Y-15711667D01*
X13385952Y-15721190D01*
X13595476Y-15835476D02*
X13576428Y-15825952D01*
X13566905Y-15816428D01*
X13557381Y-15797381D01*
X13557381Y-15740238D01*
X13566905Y-15721190D01*
X13576428Y-15711667D01*
X13595476Y-15702143D01*
X13624048Y-15702143D01*
X13643095Y-15711667D01*
X13652619Y-15721190D01*
X13662143Y-15740238D01*
X13662143Y-15797381D01*
X13652619Y-15816428D01*
X13643095Y-15825952D01*
X13624048Y-15835476D01*
X13595476Y-15835476D01*
X13776428Y-15835476D02*
X13757381Y-15825952D01*
X13747857Y-15806905D01*
X13747857Y-15635476D01*
X13928809Y-15825952D02*
X13909762Y-15835476D01*
X13871667Y-15835476D01*
X13852619Y-15825952D01*
X13843095Y-15806905D01*
X13843095Y-15730714D01*
X13852619Y-15711667D01*
X13871667Y-15702143D01*
X13909762Y-15702143D01*
X13928809Y-15711667D01*
X13938333Y-15730714D01*
X13938333Y-15749762D01*
X13843095Y-15768809D01*
X14014524Y-15825952D02*
X14033571Y-15835476D01*
X14071667Y-15835476D01*
X14090714Y-15825952D01*
X14100238Y-15806905D01*
X14100238Y-15797381D01*
X14090714Y-15778333D01*
X14071667Y-15768809D01*
X14043095Y-15768809D01*
X14024048Y-15759286D01*
X14014524Y-15740238D01*
X14014524Y-15730714D01*
X14024048Y-15711667D01*
X14043095Y-15702143D01*
X14071667Y-15702143D01*
X14090714Y-15711667D01*
X14166905Y-15911667D02*
X14176428Y-15902143D01*
X14195476Y-15873571D01*
X14205000Y-15854524D01*
X14214524Y-15825952D01*
X14224048Y-15778333D01*
X14224048Y-15740238D01*
X14214524Y-15692619D01*
X14205000Y-15664048D01*
X14195476Y-15645000D01*
X14176428Y-15616428D01*
X14166905Y-15606905D01*
D10*
X9395000Y-16009000D02*
G75*
G03*
X9395000Y-16009000I-50000J0D01*
G01*
D11*
X9757381Y-16099476D02*
X9643095Y-16099476D01*
X9700238Y-16099476D02*
X9700238Y-15899476D01*
X9681190Y-15928048D01*
X9662143Y-15947095D01*
X9643095Y-15956619D01*
X9843095Y-16080428D02*
X9852619Y-16089952D01*
X9843095Y-16099476D01*
X9833571Y-16089952D01*
X9843095Y-16080428D01*
X9843095Y-16099476D01*
X9976429Y-15899476D02*
X9995476Y-15899476D01*
X10014524Y-15909000D01*
X10024048Y-15918524D01*
X10033571Y-15937571D01*
X10043095Y-15975667D01*
X10043095Y-16023286D01*
X10033571Y-16061381D01*
X10024048Y-16080428D01*
X10014524Y-16089952D01*
X9995476Y-16099476D01*
X9976429Y-16099476D01*
X9957381Y-16089952D01*
X9947857Y-16080428D01*
X9938333Y-16061381D01*
X9928810Y-16023286D01*
X9928810Y-15975667D01*
X9938333Y-15937571D01*
X9947857Y-15918524D01*
X9957381Y-15909000D01*
X9976429Y-15899476D01*
X10166905Y-15899476D02*
X10185952Y-15899476D01*
X10205000Y-15909000D01*
X10214524Y-15918524D01*
X10224048Y-15937571D01*
X10233571Y-15975667D01*
X10233571Y-16023286D01*
X10224048Y-16061381D01*
X10214524Y-16080428D01*
X10205000Y-16089952D01*
X10185952Y-16099476D01*
X10166905Y-16099476D01*
X10147857Y-16089952D01*
X10138333Y-16080428D01*
X10128810Y-16061381D01*
X10119286Y-16023286D01*
X10119286Y-15975667D01*
X10128810Y-15937571D01*
X10138333Y-15918524D01*
X10147857Y-15909000D01*
X10166905Y-15899476D01*
X10357381Y-15899476D02*
X10376429Y-15899476D01*
X10395476Y-15909000D01*
X10405000Y-15918524D01*
X10414524Y-15937571D01*
X10424048Y-15975667D01*
X10424048Y-16023286D01*
X10414524Y-16061381D01*
X10405000Y-16080428D01*
X10395476Y-16089952D01*
X10376429Y-16099476D01*
X10357381Y-16099476D01*
X10338333Y-16089952D01*
X10328810Y-16080428D01*
X10319286Y-16061381D01*
X10309762Y-16023286D01*
X10309762Y-15975667D01*
X10319286Y-15937571D01*
X10328810Y-15918524D01*
X10338333Y-15909000D01*
X10357381Y-15899476D01*
X10509762Y-16099476D02*
X10509762Y-15966143D01*
X10509762Y-15985190D02*
X10519286Y-15975667D01*
X10538333Y-15966143D01*
X10566905Y-15966143D01*
X10585952Y-15975667D01*
X10595476Y-15994714D01*
X10595476Y-16099476D01*
X10595476Y-15994714D02*
X10605000Y-15975667D01*
X10624048Y-15966143D01*
X10652619Y-15966143D01*
X10671667Y-15975667D01*
X10681190Y-15994714D01*
X10681190Y-16099476D01*
X10776429Y-16099476D02*
X10776429Y-15966143D01*
X10776429Y-15985190D02*
X10785952Y-15975667D01*
X10805000Y-15966143D01*
X10833571Y-15966143D01*
X10852619Y-15975667D01*
X10862143Y-15994714D01*
X10862143Y-16099476D01*
X10862143Y-15994714D02*
X10871667Y-15975667D01*
X10890714Y-15966143D01*
X10919286Y-15966143D01*
X10938333Y-15975667D01*
X10947857Y-15994714D01*
X10947857Y-16099476D01*
X11338333Y-15889952D02*
X11166905Y-16147095D01*
X11595476Y-15899476D02*
X11614524Y-15899476D01*
X11633571Y-15909000D01*
X11643095Y-15918524D01*
X11652619Y-15937571D01*
X11662143Y-15975667D01*
X11662143Y-16023286D01*
X11652619Y-16061381D01*
X11643095Y-16080428D01*
X11633571Y-16089952D01*
X11614524Y-16099476D01*
X11595476Y-16099476D01*
X11576428Y-16089952D01*
X11566905Y-16080428D01*
X11557381Y-16061381D01*
X11547857Y-16023286D01*
X11547857Y-15975667D01*
X11557381Y-15937571D01*
X11566905Y-15918524D01*
X11576428Y-15909000D01*
X11595476Y-15899476D01*
X11747857Y-16080428D02*
X11757381Y-16089952D01*
X11747857Y-16099476D01*
X11738333Y-16089952D01*
X11747857Y-16080428D01*
X11747857Y-16099476D01*
X11881190Y-15899476D02*
X11900238Y-15899476D01*
X11919286Y-15909000D01*
X11928809Y-15918524D01*
X11938333Y-15937571D01*
X11947857Y-15975667D01*
X11947857Y-16023286D01*
X11938333Y-16061381D01*
X11928809Y-16080428D01*
X11919286Y-16089952D01*
X11900238Y-16099476D01*
X11881190Y-16099476D01*
X11862143Y-16089952D01*
X11852619Y-16080428D01*
X11843095Y-16061381D01*
X11833571Y-16023286D01*
X11833571Y-15975667D01*
X11843095Y-15937571D01*
X11852619Y-15918524D01*
X11862143Y-15909000D01*
X11881190Y-15899476D01*
X12014524Y-15899476D02*
X12138333Y-15899476D01*
X12071667Y-15975667D01*
X12100238Y-15975667D01*
X12119286Y-15985190D01*
X12128809Y-15994714D01*
X12138333Y-16013762D01*
X12138333Y-16061381D01*
X12128809Y-16080428D01*
X12119286Y-16089952D01*
X12100238Y-16099476D01*
X12043095Y-16099476D01*
X12024048Y-16089952D01*
X12014524Y-16080428D01*
X12233571Y-16099476D02*
X12271667Y-16099476D01*
X12290714Y-16089952D01*
X12300238Y-16080428D01*
X12319286Y-16051857D01*
X12328809Y-16013762D01*
X12328809Y-15937571D01*
X12319286Y-15918524D01*
X12309762Y-15909000D01*
X12290714Y-15899476D01*
X12252619Y-15899476D01*
X12233571Y-15909000D01*
X12224048Y-15918524D01*
X12214524Y-15937571D01*
X12214524Y-15985190D01*
X12224048Y-16004238D01*
X12233571Y-16013762D01*
X12252619Y-16023286D01*
X12290714Y-16023286D01*
X12309762Y-16013762D01*
X12319286Y-16004238D01*
X12328809Y-15985190D01*
X12500238Y-15966143D02*
X12500238Y-16099476D01*
X12452619Y-15889952D02*
X12405000Y-16032809D01*
X12528809Y-16032809D01*
X12595476Y-15899476D02*
X12595476Y-15937571D01*
X12671667Y-15899476D02*
X12671667Y-15937571D01*
X12966905Y-16175667D02*
X12957381Y-16166143D01*
X12938333Y-16137571D01*
X12928809Y-16118524D01*
X12919286Y-16089952D01*
X12909762Y-16042333D01*
X12909762Y-16004238D01*
X12919286Y-15956619D01*
X12928809Y-15928048D01*
X12938333Y-15909000D01*
X12957381Y-15880428D01*
X12966905Y-15870905D01*
X13052619Y-16099476D02*
X13090714Y-16099476D01*
X13109762Y-16089952D01*
X13119286Y-16080428D01*
X13138333Y-16051857D01*
X13147857Y-16013762D01*
X13147857Y-15937571D01*
X13138333Y-15918524D01*
X13128809Y-15909000D01*
X13109762Y-15899476D01*
X13071667Y-15899476D01*
X13052619Y-15909000D01*
X13043095Y-15918524D01*
X13033571Y-15937571D01*
X13033571Y-15985190D01*
X13043095Y-16004238D01*
X13052619Y-16013762D01*
X13071667Y-16023286D01*
X13109762Y-16023286D01*
X13128809Y-16013762D01*
X13138333Y-16004238D01*
X13147857Y-15985190D01*
X13385952Y-16099476D02*
X13385952Y-15899476D01*
X13471667Y-16099476D02*
X13471667Y-15994714D01*
X13462143Y-15975667D01*
X13443095Y-15966143D01*
X13414524Y-15966143D01*
X13395476Y-15975667D01*
X13385952Y-15985190D01*
X13595476Y-16099476D02*
X13576428Y-16089952D01*
X13566905Y-16080428D01*
X13557381Y-16061381D01*
X13557381Y-16004238D01*
X13566905Y-15985190D01*
X13576428Y-15975667D01*
X13595476Y-15966143D01*
X13624048Y-15966143D01*
X13643095Y-15975667D01*
X13652619Y-15985190D01*
X13662143Y-16004238D01*
X13662143Y-16061381D01*
X13652619Y-16080428D01*
X13643095Y-16089952D01*
X13624048Y-16099476D01*
X13595476Y-16099476D01*
X13776428Y-16099476D02*
X13757381Y-16089952D01*
X13747857Y-16070905D01*
X13747857Y-15899476D01*
X13928809Y-16089952D02*
X13909762Y-16099476D01*
X13871667Y-16099476D01*
X13852619Y-16089952D01*
X13843095Y-16070905D01*
X13843095Y-15994714D01*
X13852619Y-15975667D01*
X13871667Y-15966143D01*
X13909762Y-15966143D01*
X13928809Y-15975667D01*
X13938333Y-15994714D01*
X13938333Y-16013762D01*
X13843095Y-16032809D01*
X14014524Y-16089952D02*
X14033571Y-16099476D01*
X14071667Y-16099476D01*
X14090714Y-16089952D01*
X14100238Y-16070905D01*
X14100238Y-16061381D01*
X14090714Y-16042333D01*
X14071667Y-16032809D01*
X14043095Y-16032809D01*
X14024048Y-16023286D01*
X14014524Y-16004238D01*
X14014524Y-15994714D01*
X14024048Y-15975667D01*
X14043095Y-15966143D01*
X14071667Y-15966143D01*
X14090714Y-15975667D01*
X14166905Y-16175667D02*
X14176428Y-16166143D01*
X14195476Y-16137571D01*
X14205000Y-16118524D01*
X14214524Y-16089952D01*
X14224048Y-16042333D01*
X14224048Y-16004238D01*
X14214524Y-15956619D01*
X14205000Y-15928048D01*
X14195476Y-15909000D01*
X14176428Y-15880428D01*
X14166905Y-15870905D01*
D13*
X9320000Y-16198000D02*
X9320000Y-16348000D01*
X9245000Y-16273000D02*
X9395000Y-16273000D01*
D11*
X9757381Y-16363476D02*
X9643095Y-16363476D01*
X9700238Y-16363476D02*
X9700238Y-16163476D01*
X9681190Y-16192048D01*
X9662143Y-16211095D01*
X9643095Y-16220619D01*
X9843095Y-16344428D02*
X9852619Y-16353952D01*
X9843095Y-16363476D01*
X9833571Y-16353952D01*
X9843095Y-16344428D01*
X9843095Y-16363476D01*
X10033571Y-16163476D02*
X9938333Y-16163476D01*
X9928810Y-16258714D01*
X9938333Y-16249190D01*
X9957381Y-16239667D01*
X10005000Y-16239667D01*
X10024048Y-16249190D01*
X10033571Y-16258714D01*
X10043095Y-16277762D01*
X10043095Y-16325381D01*
X10033571Y-16344428D01*
X10024048Y-16353952D01*
X10005000Y-16363476D01*
X9957381Y-16363476D01*
X9938333Y-16353952D01*
X9928810Y-16344428D01*
X10166905Y-16163476D02*
X10185952Y-16163476D01*
X10205000Y-16173000D01*
X10214524Y-16182524D01*
X10224048Y-16201571D01*
X10233571Y-16239667D01*
X10233571Y-16287286D01*
X10224048Y-16325381D01*
X10214524Y-16344428D01*
X10205000Y-16353952D01*
X10185952Y-16363476D01*
X10166905Y-16363476D01*
X10147857Y-16353952D01*
X10138333Y-16344428D01*
X10128810Y-16325381D01*
X10119286Y-16287286D01*
X10119286Y-16239667D01*
X10128810Y-16201571D01*
X10138333Y-16182524D01*
X10147857Y-16173000D01*
X10166905Y-16163476D01*
X10357381Y-16163476D02*
X10376429Y-16163476D01*
X10395476Y-16173000D01*
X10405000Y-16182524D01*
X10414524Y-16201571D01*
X10424048Y-16239667D01*
X10424048Y-16287286D01*
X10414524Y-16325381D01*
X10405000Y-16344428D01*
X10395476Y-16353952D01*
X10376429Y-16363476D01*
X10357381Y-16363476D01*
X10338333Y-16353952D01*
X10328810Y-16344428D01*
X10319286Y-16325381D01*
X10309762Y-16287286D01*
X10309762Y-16239667D01*
X10319286Y-16201571D01*
X10328810Y-16182524D01*
X10338333Y-16173000D01*
X10357381Y-16163476D01*
X10509762Y-16363476D02*
X10509762Y-16230143D01*
X10509762Y-16249190D02*
X10519286Y-16239667D01*
X10538333Y-16230143D01*
X10566905Y-16230143D01*
X10585952Y-16239667D01*
X10595476Y-16258714D01*
X10595476Y-16363476D01*
X10595476Y-16258714D02*
X10605000Y-16239667D01*
X10624048Y-16230143D01*
X10652619Y-16230143D01*
X10671667Y-16239667D01*
X10681190Y-16258714D01*
X10681190Y-16363476D01*
X10776429Y-16363476D02*
X10776429Y-16230143D01*
X10776429Y-16249190D02*
X10785952Y-16239667D01*
X10805000Y-16230143D01*
X10833571Y-16230143D01*
X10852619Y-16239667D01*
X10862143Y-16258714D01*
X10862143Y-16363476D01*
X10862143Y-16258714D02*
X10871667Y-16239667D01*
X10890714Y-16230143D01*
X10919286Y-16230143D01*
X10938333Y-16239667D01*
X10947857Y-16258714D01*
X10947857Y-16363476D01*
X11338333Y-16153952D02*
X11166905Y-16411095D01*
X11595476Y-16163476D02*
X11614524Y-16163476D01*
X11633571Y-16173000D01*
X11643095Y-16182524D01*
X11652619Y-16201571D01*
X11662143Y-16239667D01*
X11662143Y-16287286D01*
X11652619Y-16325381D01*
X11643095Y-16344428D01*
X11633571Y-16353952D01*
X11614524Y-16363476D01*
X11595476Y-16363476D01*
X11576428Y-16353952D01*
X11566905Y-16344428D01*
X11557381Y-16325381D01*
X11547857Y-16287286D01*
X11547857Y-16239667D01*
X11557381Y-16201571D01*
X11566905Y-16182524D01*
X11576428Y-16173000D01*
X11595476Y-16163476D01*
X11747857Y-16344428D02*
X11757381Y-16353952D01*
X11747857Y-16363476D01*
X11738333Y-16353952D01*
X11747857Y-16344428D01*
X11747857Y-16363476D01*
X11881190Y-16163476D02*
X11900238Y-16163476D01*
X11919286Y-16173000D01*
X11928809Y-16182524D01*
X11938333Y-16201571D01*
X11947857Y-16239667D01*
X11947857Y-16287286D01*
X11938333Y-16325381D01*
X11928809Y-16344428D01*
X11919286Y-16353952D01*
X11900238Y-16363476D01*
X11881190Y-16363476D01*
X11862143Y-16353952D01*
X11852619Y-16344428D01*
X11843095Y-16325381D01*
X11833571Y-16287286D01*
X11833571Y-16239667D01*
X11843095Y-16201571D01*
X11852619Y-16182524D01*
X11862143Y-16173000D01*
X11881190Y-16163476D01*
X12128809Y-16163476D02*
X12033571Y-16163476D01*
X12024048Y-16258714D01*
X12033571Y-16249190D01*
X12052619Y-16239667D01*
X12100238Y-16239667D01*
X12119286Y-16249190D01*
X12128809Y-16258714D01*
X12138333Y-16277762D01*
X12138333Y-16325381D01*
X12128809Y-16344428D01*
X12119286Y-16353952D01*
X12100238Y-16363476D01*
X12052619Y-16363476D01*
X12033571Y-16353952D01*
X12024048Y-16344428D01*
X12233571Y-16363476D02*
X12271667Y-16363476D01*
X12290714Y-16353952D01*
X12300238Y-16344428D01*
X12319286Y-16315857D01*
X12328809Y-16277762D01*
X12328809Y-16201571D01*
X12319286Y-16182524D01*
X12309762Y-16173000D01*
X12290714Y-16163476D01*
X12252619Y-16163476D01*
X12233571Y-16173000D01*
X12224048Y-16182524D01*
X12214524Y-16201571D01*
X12214524Y-16249190D01*
X12224048Y-16268238D01*
X12233571Y-16277762D01*
X12252619Y-16287286D01*
X12290714Y-16287286D01*
X12309762Y-16277762D01*
X12319286Y-16268238D01*
X12328809Y-16249190D01*
X12519286Y-16363476D02*
X12405000Y-16363476D01*
X12462143Y-16363476D02*
X12462143Y-16163476D01*
X12443095Y-16192048D01*
X12424048Y-16211095D01*
X12405000Y-16220619D01*
X12595476Y-16163476D02*
X12595476Y-16201571D01*
X12671667Y-16163476D02*
X12671667Y-16201571D01*
X12966905Y-16439667D02*
X12957381Y-16430143D01*
X12938333Y-16401571D01*
X12928809Y-16382524D01*
X12919286Y-16353952D01*
X12909762Y-16306333D01*
X12909762Y-16268238D01*
X12919286Y-16220619D01*
X12928809Y-16192048D01*
X12938333Y-16173000D01*
X12957381Y-16144428D01*
X12966905Y-16134905D01*
X13024048Y-16163476D02*
X13147857Y-16163476D01*
X13081190Y-16239667D01*
X13109762Y-16239667D01*
X13128809Y-16249190D01*
X13138333Y-16258714D01*
X13147857Y-16277762D01*
X13147857Y-16325381D01*
X13138333Y-16344428D01*
X13128809Y-16353952D01*
X13109762Y-16363476D01*
X13052619Y-16363476D01*
X13033571Y-16353952D01*
X13024048Y-16344428D01*
X13385952Y-16363476D02*
X13385952Y-16163476D01*
X13471667Y-16363476D02*
X13471667Y-16258714D01*
X13462143Y-16239667D01*
X13443095Y-16230143D01*
X13414524Y-16230143D01*
X13395476Y-16239667D01*
X13385952Y-16249190D01*
X13595476Y-16363476D02*
X13576428Y-16353952D01*
X13566905Y-16344428D01*
X13557381Y-16325381D01*
X13557381Y-16268238D01*
X13566905Y-16249190D01*
X13576428Y-16239667D01*
X13595476Y-16230143D01*
X13624048Y-16230143D01*
X13643095Y-16239667D01*
X13652619Y-16249190D01*
X13662143Y-16268238D01*
X13662143Y-16325381D01*
X13652619Y-16344428D01*
X13643095Y-16353952D01*
X13624048Y-16363476D01*
X13595476Y-16363476D01*
X13776428Y-16363476D02*
X13757381Y-16353952D01*
X13747857Y-16334905D01*
X13747857Y-16163476D01*
X13928809Y-16353952D02*
X13909762Y-16363476D01*
X13871667Y-16363476D01*
X13852619Y-16353952D01*
X13843095Y-16334905D01*
X13843095Y-16258714D01*
X13852619Y-16239667D01*
X13871667Y-16230143D01*
X13909762Y-16230143D01*
X13928809Y-16239667D01*
X13938333Y-16258714D01*
X13938333Y-16277762D01*
X13843095Y-16296809D01*
X14014524Y-16353952D02*
X14033571Y-16363476D01*
X14071667Y-16363476D01*
X14090714Y-16353952D01*
X14100238Y-16334905D01*
X14100238Y-16325381D01*
X14090714Y-16306333D01*
X14071667Y-16296809D01*
X14043095Y-16296809D01*
X14024048Y-16287286D01*
X14014524Y-16268238D01*
X14014524Y-16258714D01*
X14024048Y-16239667D01*
X14043095Y-16230143D01*
X14071667Y-16230143D01*
X14090714Y-16239667D01*
X14166905Y-16439667D02*
X14176428Y-16430143D01*
X14195476Y-16401571D01*
X14205000Y-16382524D01*
X14214524Y-16353952D01*
X14224048Y-16306333D01*
X14224048Y-16268238D01*
X14214524Y-16220619D01*
X14205000Y-16192048D01*
X14195476Y-16173000D01*
X14176428Y-16144428D01*
X14166905Y-16134905D01*
X9365711Y-16613711D02*
X9365711Y-16472289D01*
X9224289Y-16472289D01*
X9224289Y-16613711D01*
X9365711Y-16613711D01*
X9738333Y-16433476D02*
X9700238Y-16433476D01*
X9681190Y-16443000D01*
X9671667Y-16452524D01*
X9652619Y-16481095D01*
X9643095Y-16519190D01*
X9643095Y-16595381D01*
X9652619Y-16614428D01*
X9662143Y-16623952D01*
X9681190Y-16633476D01*
X9719286Y-16633476D01*
X9738333Y-16623952D01*
X9747857Y-16614428D01*
X9757381Y-16595381D01*
X9757381Y-16547762D01*
X9747857Y-16528714D01*
X9738333Y-16519190D01*
X9719286Y-16509667D01*
X9681190Y-16509667D01*
X9662143Y-16519190D01*
X9652619Y-16528714D01*
X9643095Y-16547762D01*
X9843095Y-16614428D02*
X9852619Y-16623952D01*
X9843095Y-16633476D01*
X9833571Y-16623952D01*
X9843095Y-16614428D01*
X9843095Y-16633476D01*
X10043095Y-16633476D02*
X9928810Y-16633476D01*
X9985952Y-16633476D02*
X9985952Y-16433476D01*
X9966905Y-16462048D01*
X9947857Y-16481095D01*
X9928810Y-16490619D01*
X10166905Y-16433476D02*
X10185952Y-16433476D01*
X10205000Y-16443000D01*
X10214524Y-16452524D01*
X10224048Y-16471571D01*
X10233571Y-16509667D01*
X10233571Y-16557286D01*
X10224048Y-16595381D01*
X10214524Y-16614428D01*
X10205000Y-16623952D01*
X10185952Y-16633476D01*
X10166905Y-16633476D01*
X10147857Y-16623952D01*
X10138333Y-16614428D01*
X10128810Y-16595381D01*
X10119286Y-16557286D01*
X10119286Y-16509667D01*
X10128810Y-16471571D01*
X10138333Y-16452524D01*
X10147857Y-16443000D01*
X10166905Y-16433476D01*
X10357381Y-16433476D02*
X10376429Y-16433476D01*
X10395476Y-16443000D01*
X10405000Y-16452524D01*
X10414524Y-16471571D01*
X10424048Y-16509667D01*
X10424048Y-16557286D01*
X10414524Y-16595381D01*
X10405000Y-16614428D01*
X10395476Y-16623952D01*
X10376429Y-16633476D01*
X10357381Y-16633476D01*
X10338333Y-16623952D01*
X10328810Y-16614428D01*
X10319286Y-16595381D01*
X10309762Y-16557286D01*
X10309762Y-16509667D01*
X10319286Y-16471571D01*
X10328810Y-16452524D01*
X10338333Y-16443000D01*
X10357381Y-16433476D01*
X10509762Y-16633476D02*
X10509762Y-16500143D01*
X10509762Y-16519190D02*
X10519286Y-16509667D01*
X10538333Y-16500143D01*
X10566905Y-16500143D01*
X10585952Y-16509667D01*
X10595476Y-16528714D01*
X10595476Y-16633476D01*
X10595476Y-16528714D02*
X10605000Y-16509667D01*
X10624048Y-16500143D01*
X10652619Y-16500143D01*
X10671667Y-16509667D01*
X10681190Y-16528714D01*
X10681190Y-16633476D01*
X10776429Y-16633476D02*
X10776429Y-16500143D01*
X10776429Y-16519190D02*
X10785952Y-16509667D01*
X10805000Y-16500143D01*
X10833571Y-16500143D01*
X10852619Y-16509667D01*
X10862143Y-16528714D01*
X10862143Y-16633476D01*
X10862143Y-16528714D02*
X10871667Y-16509667D01*
X10890714Y-16500143D01*
X10919286Y-16500143D01*
X10938333Y-16509667D01*
X10947857Y-16528714D01*
X10947857Y-16633476D01*
X11338333Y-16423952D02*
X11166905Y-16681095D01*
X11595476Y-16433476D02*
X11614524Y-16433476D01*
X11633571Y-16443000D01*
X11643095Y-16452524D01*
X11652619Y-16471571D01*
X11662143Y-16509667D01*
X11662143Y-16557286D01*
X11652619Y-16595381D01*
X11643095Y-16614428D01*
X11633571Y-16623952D01*
X11614524Y-16633476D01*
X11595476Y-16633476D01*
X11576428Y-16623952D01*
X11566905Y-16614428D01*
X11557381Y-16595381D01*
X11547857Y-16557286D01*
X11547857Y-16509667D01*
X11557381Y-16471571D01*
X11566905Y-16452524D01*
X11576428Y-16443000D01*
X11595476Y-16433476D01*
X11747857Y-16614428D02*
X11757381Y-16623952D01*
X11747857Y-16633476D01*
X11738333Y-16623952D01*
X11747857Y-16614428D01*
X11747857Y-16633476D01*
X11833571Y-16452524D02*
X11843095Y-16443000D01*
X11862143Y-16433476D01*
X11909762Y-16433476D01*
X11928809Y-16443000D01*
X11938333Y-16452524D01*
X11947857Y-16471571D01*
X11947857Y-16490619D01*
X11938333Y-16519190D01*
X11824048Y-16633476D01*
X11947857Y-16633476D01*
X12119286Y-16500143D02*
X12119286Y-16633476D01*
X12071667Y-16423952D02*
X12024048Y-16566809D01*
X12147857Y-16566809D01*
X12262143Y-16433476D02*
X12281190Y-16433476D01*
X12300238Y-16443000D01*
X12309762Y-16452524D01*
X12319286Y-16471571D01*
X12328809Y-16509667D01*
X12328809Y-16557286D01*
X12319286Y-16595381D01*
X12309762Y-16614428D01*
X12300238Y-16623952D01*
X12281190Y-16633476D01*
X12262143Y-16633476D01*
X12243095Y-16623952D01*
X12233571Y-16614428D01*
X12224048Y-16595381D01*
X12214524Y-16557286D01*
X12214524Y-16509667D01*
X12224048Y-16471571D01*
X12233571Y-16452524D01*
X12243095Y-16443000D01*
X12262143Y-16433476D01*
X12405000Y-16452524D02*
X12414524Y-16443000D01*
X12433571Y-16433476D01*
X12481190Y-16433476D01*
X12500238Y-16443000D01*
X12509762Y-16452524D01*
X12519286Y-16471571D01*
X12519286Y-16490619D01*
X12509762Y-16519190D01*
X12395476Y-16633476D01*
X12519286Y-16633476D01*
X12595476Y-16433476D02*
X12595476Y-16471571D01*
X12671667Y-16433476D02*
X12671667Y-16471571D01*
X12966905Y-16709667D02*
X12957381Y-16700143D01*
X12938333Y-16671571D01*
X12928809Y-16652524D01*
X12919286Y-16623952D01*
X12909762Y-16576333D01*
X12909762Y-16538238D01*
X12919286Y-16490619D01*
X12928809Y-16462048D01*
X12938333Y-16443000D01*
X12957381Y-16414428D01*
X12966905Y-16404905D01*
X13138333Y-16433476D02*
X13043095Y-16433476D01*
X13033571Y-16528714D01*
X13043095Y-16519190D01*
X13062143Y-16509667D01*
X13109762Y-16509667D01*
X13128809Y-16519190D01*
X13138333Y-16528714D01*
X13147857Y-16547762D01*
X13147857Y-16595381D01*
X13138333Y-16614428D01*
X13128809Y-16623952D01*
X13109762Y-16633476D01*
X13062143Y-16633476D01*
X13043095Y-16623952D01*
X13033571Y-16614428D01*
X13385952Y-16633476D02*
X13385952Y-16433476D01*
X13471667Y-16633476D02*
X13471667Y-16528714D01*
X13462143Y-16509667D01*
X13443095Y-16500143D01*
X13414524Y-16500143D01*
X13395476Y-16509667D01*
X13385952Y-16519190D01*
X13595476Y-16633476D02*
X13576428Y-16623952D01*
X13566905Y-16614428D01*
X13557381Y-16595381D01*
X13557381Y-16538238D01*
X13566905Y-16519190D01*
X13576428Y-16509667D01*
X13595476Y-16500143D01*
X13624048Y-16500143D01*
X13643095Y-16509667D01*
X13652619Y-16519190D01*
X13662143Y-16538238D01*
X13662143Y-16595381D01*
X13652619Y-16614428D01*
X13643095Y-16623952D01*
X13624048Y-16633476D01*
X13595476Y-16633476D01*
X13776428Y-16633476D02*
X13757381Y-16623952D01*
X13747857Y-16604905D01*
X13747857Y-16433476D01*
X13928809Y-16623952D02*
X13909762Y-16633476D01*
X13871667Y-16633476D01*
X13852619Y-16623952D01*
X13843095Y-16604905D01*
X13843095Y-16528714D01*
X13852619Y-16509667D01*
X13871667Y-16500143D01*
X13909762Y-16500143D01*
X13928809Y-16509667D01*
X13938333Y-16528714D01*
X13938333Y-16547762D01*
X13843095Y-16566809D01*
X14014524Y-16623952D02*
X14033571Y-16633476D01*
X14071667Y-16633476D01*
X14090714Y-16623952D01*
X14100238Y-16604905D01*
X14100238Y-16595381D01*
X14090714Y-16576333D01*
X14071667Y-16566809D01*
X14043095Y-16566809D01*
X14024048Y-16557286D01*
X14014524Y-16538238D01*
X14014524Y-16528714D01*
X14024048Y-16509667D01*
X14043095Y-16500143D01*
X14071667Y-16500143D01*
X14090714Y-16509667D01*
X14166905Y-16709667D02*
X14176428Y-16700143D01*
X14195476Y-16671571D01*
X14205000Y-16652524D01*
X14214524Y-16623952D01*
X14224048Y-16576333D01*
X14224048Y-16538238D01*
X14214524Y-16490619D01*
X14205000Y-16462048D01*
X14195476Y-16443000D01*
X14176428Y-16414428D01*
X14166905Y-16404905D01*
M02*
