G04 Layer_Physical_Order=1*
G04 Layer_Color=255*
%FSLAX44Y44*%
%MOMM*%
G71*
G01*
G75*
%ADD10R,5.0800X43.8150*%
%ADD11R,5.0800X20.3200*%
%ADD12R,1.2700X1.2700*%
%ADD13R,1.2700X1.2700*%
%ADD14R,1.5240X1.5240*%
%ADD15R,1.4000X1.0000*%
%ADD16R,1.5240X1.5240*%
%ADD17R,1.6256X2.5400*%
%ADD18R,1.0000X1.4000*%
%ADD19R,2.5400X1.6256*%
G04:AMPARAMS|DCode=20|XSize=0.6mm|YSize=1.45mm|CornerRadius=0.051mm|HoleSize=0mm|Usage=FLASHONLY|Rotation=90.000|XOffset=0mm|YOffset=0mm|HoleType=Round|Shape=RoundedRectangle|*
%AMROUNDEDRECTD20*
21,1,0.6000,1.3480,0,0,90.0*
21,1,0.4980,1.4500,0,0,90.0*
1,1,0.1020,0.6740,0.2490*
1,1,0.1020,0.6740,-0.2490*
1,1,0.1020,-0.6740,-0.2490*
1,1,0.1020,-0.6740,0.2490*
%
%ADD20ROUNDEDRECTD20*%
%ADD21R,0.4800X0.4000*%
%ADD22O,2.5000X0.7000*%
%ADD23R,3.5500X1.5500*%
%ADD24R,4.2400X3.8100*%
%ADD25O,2.2000X0.6000*%
%ADD26R,1.3500X3.4000*%
%ADD27R,0.7000X0.9000*%
%ADD28O,0.6000X1.9000*%
%ADD29R,0.9000X0.7000*%
%ADD30R,3.4000X1.3500*%
G04:AMPARAMS|DCode=31|XSize=0.55mm|YSize=1.25mm|CornerRadius=0.0495mm|HoleSize=0mm|Usage=FLASHONLY|Rotation=90.000|XOffset=0mm|YOffset=0mm|HoleType=Round|Shape=RoundedRectangle|*
%AMROUNDEDRECTD31*
21,1,0.5500,1.1510,0,0,90.0*
21,1,0.4510,1.2500,0,0,90.0*
1,1,0.0990,0.5755,0.2255*
1,1,0.0990,0.5755,-0.2255*
1,1,0.0990,-0.5755,-0.2255*
1,1,0.0990,-0.5755,0.2255*
%
%ADD31ROUNDEDRECTD31*%
%ADD32R,2.2860X2.5400*%
%ADD33C,0.5000*%
%ADD34C,1.0000*%
%ADD35C,3.0000*%
%ADD36C,0.3000*%
%ADD37C,2.0000*%
%ADD38C,0.2540*%
%ADD39R,2.1000X2.1000*%
%ADD40C,2.1000*%
%ADD41C,1.6000*%
%ADD42R,1.6000X1.6000*%
%ADD43R,1.5748X1.5748*%
%ADD44C,1.5748*%
%ADD45R,1.5748X1.5748*%
%ADD46C,1.3970*%
%ADD47C,2.4994*%
%ADD48C,2.2000*%
%ADD49C,3.0000*%
%ADD50C,2.0000*%
%ADD51O,3.0000X5.0000*%
%ADD52C,6.9994*%
%ADD53C,1.9050*%
%ADD54O,3.9996X2.4000*%
%ADD55C,1.2446*%
%ADD56R,1.2446X1.2446*%
%ADD57R,1.6000X1.6000*%
%ADD58C,1.2700*%
%ADD59C,0.8000*%
G36*
X785000Y1000D02*
X668224Y1000D01*
X655000Y-35000D01*
X645000Y-45000D01*
X615000Y-45000D01*
X607500Y-37500D01*
Y15000D01*
D01*
X607500Y110000D01*
X784000Y110000D01*
X785000D01*
Y1000D01*
D02*
G37*
G36*
X1276000Y1111526D02*
Y673250D01*
X1276750Y672500D01*
Y604500D01*
X1086500D01*
X938750Y456750D01*
Y252500D01*
X890037D01*
X889887Y253770D01*
X891635Y254190D01*
X897094Y256451D01*
X902132Y259538D01*
X906625Y263375D01*
X910462Y267868D01*
X913549Y272906D01*
X915810Y278365D01*
X917189Y284110D01*
X917553Y288730D01*
X842447D01*
X842811Y284110D01*
X844190Y278365D01*
X846451Y272906D01*
X849538Y267868D01*
X853375Y263375D01*
X857868Y259538D01*
X862906Y256451D01*
X868365Y254190D01*
X870113Y253770D01*
X869963Y252500D01*
X750037D01*
X749887Y253770D01*
X751635Y254190D01*
X757094Y256451D01*
X762132Y259538D01*
X766625Y263375D01*
X770462Y267868D01*
X773549Y272906D01*
X775810Y278365D01*
X777189Y284110D01*
X777553Y288730D01*
X702447D01*
X702811Y284110D01*
X704190Y278365D01*
X706451Y272906D01*
X709538Y267868D01*
X713375Y263375D01*
X717868Y259538D01*
X722906Y256451D01*
X728365Y254190D01*
X730113Y253770D01*
X729963Y252500D01*
X688209D01*
X687250Y253459D01*
X687250Y366000D01*
X810500Y489250D01*
Y575500D01*
X786000Y600000D01*
X786000Y626250D01*
X785750D01*
X785750Y1114096D01*
X1272461Y1115058D01*
X1276000Y1111526D01*
D02*
G37*
G36*
X560000Y108000D02*
Y35000D01*
X591000Y4000D01*
Y-38000D01*
X582000Y-47000D01*
X483000D01*
X435000Y1000D01*
Y110000D01*
X558000D01*
X560000Y108000D01*
D02*
G37*
G36*
X502920Y933595D02*
X477520D01*
Y1050145D01*
X502920D01*
Y933595D01*
D02*
G37*
G36*
Y720725D02*
X477520D01*
Y828675D01*
X502920D01*
Y720725D01*
D02*
G37*
%LPC*%
G36*
X738730Y327553D02*
X734110Y327189D01*
X728365Y325810D01*
X722906Y323549D01*
X717868Y320462D01*
X713375Y316625D01*
X709538Y312132D01*
X706451Y307094D01*
X704190Y301635D01*
X702811Y295890D01*
X702447Y291270D01*
X738730D01*
Y327553D01*
D02*
G37*
G36*
X881270D02*
Y291270D01*
X917553D01*
X917189Y295890D01*
X915810Y301635D01*
X913549Y307094D01*
X910462Y312132D01*
X906625Y316625D01*
X902132Y320462D01*
X897094Y323549D01*
X891635Y325810D01*
X885890Y327189D01*
X881270Y327553D01*
D02*
G37*
G36*
X950000Y592590D02*
X890000D01*
X889009Y592393D01*
X888169Y591831D01*
X887607Y590991D01*
X887410Y590000D01*
Y570000D01*
X887607Y569009D01*
X888169Y568169D01*
X889009Y567607D01*
X890000Y567410D01*
X950000D01*
X950991Y567607D01*
X951831Y568169D01*
X952393Y569009D01*
X952590Y570000D01*
Y590000D01*
X952393Y590991D01*
X951831Y591831D01*
X950991Y592393D01*
X950000Y592590D01*
D02*
G37*
G36*
X741270Y327553D02*
Y291270D01*
X777553D01*
X777189Y295890D01*
X775810Y301635D01*
X773549Y307094D01*
X770462Y312132D01*
X766625Y316625D01*
X762132Y320462D01*
X757094Y323549D01*
X751635Y325810D01*
X745890Y327189D01*
X741270Y327553D01*
D02*
G37*
G36*
X878730D02*
X874110Y327189D01*
X868365Y325810D01*
X862906Y323549D01*
X857868Y320462D01*
X853375Y316625D01*
X849538Y312132D01*
X846451Y307094D01*
X844190Y301635D01*
X842811Y295890D01*
X842447Y291270D01*
X878730D01*
Y327553D01*
D02*
G37*
%LPD*%
D10*
X1330960Y880110D02*
D03*
D11*
X721360Y996950D02*
D03*
Y763270D02*
D03*
D12*
X290500Y155500D02*
D03*
Y134164D02*
D03*
X450000Y702500D02*
D03*
Y681164D02*
D03*
X349384Y687500D02*
D03*
Y666164D02*
D03*
X164750Y154500D02*
D03*
Y133164D02*
D03*
X188000Y154500D02*
D03*
Y133164D02*
D03*
X1086500Y404500D02*
D03*
Y425836D02*
D03*
X224750Y-52000D02*
D03*
Y-30664D02*
D03*
X109000Y332000D02*
D03*
Y353336D02*
D03*
X1412000Y991000D02*
D03*
Y969664D02*
D03*
X250000Y812336D02*
D03*
Y833672D02*
D03*
X327522Y764000D02*
D03*
Y742664D02*
D03*
X454384Y1070000D02*
D03*
Y1091336D02*
D03*
X417000Y210294D02*
D03*
Y188958D02*
D03*
X633000Y245336D02*
D03*
Y224000D02*
D03*
Y292000D02*
D03*
Y270664D02*
D03*
X41000Y680000D02*
D03*
Y658664D02*
D03*
X69000Y815750D02*
D03*
Y837086D02*
D03*
X96000Y813750D02*
D03*
Y792414D02*
D03*
X552000Y463336D02*
D03*
Y442000D02*
D03*
X575117Y485000D02*
D03*
Y463664D02*
D03*
X498000Y541836D02*
D03*
Y520500D02*
D03*
X378000Y539336D02*
D03*
Y518000D02*
D03*
X477500Y702500D02*
D03*
Y681164D02*
D03*
X351000Y912000D02*
D03*
Y890664D02*
D03*
X307500Y955000D02*
D03*
Y933664D02*
D03*
X401000Y895000D02*
D03*
Y916336D02*
D03*
X477500Y1070000D02*
D03*
Y1091336D02*
D03*
X373380Y1070610D02*
D03*
Y1091946D02*
D03*
X350000D02*
D03*
Y1070610D02*
D03*
X372500Y666164D02*
D03*
Y687500D02*
D03*
X351750Y859000D02*
D03*
Y837664D02*
D03*
X375000Y791164D02*
D03*
Y812500D02*
D03*
X275000Y751015D02*
D03*
Y772352D02*
D03*
X250000Y765294D02*
D03*
Y786629D02*
D03*
X226884Y834336D02*
D03*
Y813000D02*
D03*
X265000Y916360D02*
D03*
Y937696D02*
D03*
Y982403D02*
D03*
Y961067D02*
D03*
X307500Y1002500D02*
D03*
Y981164D02*
D03*
X375000Y922750D02*
D03*
Y901414D02*
D03*
X374000Y946164D02*
D03*
Y967500D02*
D03*
X375000Y837500D02*
D03*
Y858836D02*
D03*
D13*
X335250Y130000D02*
D03*
X313914D02*
D03*
X232500Y428000D02*
D03*
X211164D02*
D03*
X232500Y404000D02*
D03*
X211164D02*
D03*
X271250Y-250D02*
D03*
X249914D02*
D03*
X334207Y101000D02*
D03*
X355542D02*
D03*
X335000Y65000D02*
D03*
X356336D02*
D03*
X211000Y102000D02*
D03*
X232336D02*
D03*
X211000Y52000D02*
D03*
X232336D02*
D03*
X232664Y125117D02*
D03*
X211328D02*
D03*
X232336Y77000D02*
D03*
X211000D02*
D03*
X1157164Y148500D02*
D03*
X1178500D02*
D03*
Y124500D02*
D03*
X1157164D02*
D03*
X1178500Y99500D02*
D03*
X1157164D02*
D03*
X1067500Y12500D02*
D03*
X1088836D02*
D03*
X1067500Y38500D02*
D03*
X1088836D02*
D03*
X1067500Y63500D02*
D03*
X1088836D02*
D03*
X1067500Y89500D02*
D03*
X1088836D02*
D03*
X1088500Y116000D02*
D03*
X1067164D02*
D03*
X1088500Y142250D02*
D03*
X1067164D02*
D03*
Y168500D02*
D03*
X1088500D02*
D03*
X142500Y-52000D02*
D03*
X163836D02*
D03*
X575243Y439757D02*
D03*
X596580D02*
D03*
X845000Y33000D02*
D03*
X823664D02*
D03*
X450000Y730000D02*
D03*
X471336D02*
D03*
X450000Y760000D02*
D03*
X471336D02*
D03*
X450000Y790000D02*
D03*
X471336D02*
D03*
X450000Y820000D02*
D03*
X471336D02*
D03*
X374000Y993140D02*
D03*
X352664D02*
D03*
X373836Y1047366D02*
D03*
X352500D02*
D03*
X449580Y941070D02*
D03*
X470916D02*
D03*
X449580Y974090D02*
D03*
X470916D02*
D03*
X449580Y1007110D02*
D03*
X470916D02*
D03*
X449580Y1040130D02*
D03*
X470916D02*
D03*
X372500Y711200D02*
D03*
X351164D02*
D03*
X372500Y767500D02*
D03*
X351164D02*
D03*
X268293Y870000D02*
D03*
X246957D02*
D03*
X268293Y893117D02*
D03*
X246957D02*
D03*
X157706Y906117D02*
D03*
X179042D02*
D03*
Y883000D02*
D03*
X157706D02*
D03*
X91164Y918380D02*
D03*
X112500D02*
D03*
X112000Y943000D02*
D03*
X90664D02*
D03*
X117750Y837250D02*
D03*
X96414D02*
D03*
X1178500Y172500D02*
D03*
X1157164D02*
D03*
D14*
X106000Y704000D02*
D03*
X72980D02*
D03*
X106000Y732000D02*
D03*
X72980D02*
D03*
X187750Y540500D02*
D03*
X154730D02*
D03*
X188000Y488500D02*
D03*
X154980D02*
D03*
X1204750Y557250D02*
D03*
X1237770D02*
D03*
X944000Y-48000D02*
D03*
X910980D02*
D03*
D15*
X91750Y113750D02*
D03*
X69750Y123250D02*
D03*
X91750Y132750D02*
D03*
X133500Y559000D02*
D03*
X111500Y568500D02*
D03*
X133500Y578000D02*
D03*
X132750Y510250D02*
D03*
X110750Y519750D02*
D03*
X132750Y529250D02*
D03*
D16*
X1177500Y-23020D02*
D03*
Y10000D02*
D03*
X42500Y830520D02*
D03*
Y797500D02*
D03*
Y760000D02*
D03*
Y726980D02*
D03*
X302500Y797500D02*
D03*
Y830520D02*
D03*
X275574D02*
D03*
Y797500D02*
D03*
X302500Y736980D02*
D03*
Y770000D02*
D03*
X108000Y381000D02*
D03*
Y414020D02*
D03*
D17*
X190250Y-250D02*
D03*
X224540D02*
D03*
X347000Y269000D02*
D03*
X381290D02*
D03*
X347000Y231000D02*
D03*
X381290D02*
D03*
X380290Y307000D02*
D03*
X346000D02*
D03*
X826000Y-51000D02*
D03*
X791710D02*
D03*
D18*
X185000Y-52000D02*
D03*
X194500Y-30000D02*
D03*
X204000Y-52000D02*
D03*
D19*
X257000Y-26000D02*
D03*
Y-60290D02*
D03*
X898000Y39710D02*
D03*
Y74000D02*
D03*
D20*
X256750Y114100D02*
D03*
Y101400D02*
D03*
Y88700D02*
D03*
Y76000D02*
D03*
Y63300D02*
D03*
Y50600D02*
D03*
Y37900D02*
D03*
X311250Y114100D02*
D03*
Y101400D02*
D03*
Y88700D02*
D03*
Y76000D02*
D03*
Y63300D02*
D03*
Y50600D02*
D03*
Y37900D02*
D03*
X131544Y115100D02*
D03*
Y102400D02*
D03*
Y89700D02*
D03*
Y77000D02*
D03*
Y64300D02*
D03*
Y51600D02*
D03*
Y38900D02*
D03*
X186043Y115100D02*
D03*
Y102400D02*
D03*
Y89700D02*
D03*
Y77000D02*
D03*
Y64300D02*
D03*
Y51600D02*
D03*
Y38900D02*
D03*
D21*
X443400Y234207D02*
D03*
X456600D02*
D03*
X1132100Y171500D02*
D03*
X1118900D02*
D03*
X794800Y-20000D02*
D03*
X808000D02*
D03*
D22*
X1175000Y38450D02*
D03*
Y51150D02*
D03*
Y63850D02*
D03*
Y76550D02*
D03*
X1126000Y38450D02*
D03*
Y51150D02*
D03*
Y63850D02*
D03*
Y76550D02*
D03*
X78000Y894050D02*
D03*
Y881350D02*
D03*
Y868650D02*
D03*
Y855950D02*
D03*
X127000Y894050D02*
D03*
Y881350D02*
D03*
Y868650D02*
D03*
Y855950D02*
D03*
D23*
X749830Y526500D02*
D03*
Y555500D02*
D03*
X709750Y526500D02*
D03*
Y555500D02*
D03*
X782700Y1190500D02*
D03*
Y1161500D02*
D03*
X742620Y1190500D02*
D03*
Y1161500D02*
D03*
D24*
X604850Y182000D02*
D03*
X541150D02*
D03*
D25*
X506000Y250950D02*
D03*
Y263650D02*
D03*
Y276350D02*
D03*
Y289050D02*
D03*
X458000Y250950D02*
D03*
Y263650D02*
D03*
Y276350D02*
D03*
Y289050D02*
D03*
D26*
X805250Y69000D02*
D03*
X864750D02*
D03*
D27*
X95500Y772250D02*
D03*
X82500D02*
D03*
X89000Y753250D02*
D03*
D28*
X288450Y859000D02*
D03*
X301150D02*
D03*
X313850D02*
D03*
X326550D02*
D03*
X288450Y906000D02*
D03*
X301150D02*
D03*
X313850D02*
D03*
X326550D02*
D03*
D29*
X369500Y735529D02*
D03*
Y748530D02*
D03*
X350500Y742030D02*
D03*
X369500Y1013500D02*
D03*
Y1026500D02*
D03*
X350500Y1020000D02*
D03*
D30*
X1412500Y939750D02*
D03*
Y880250D02*
D03*
D31*
X189250Y327900D02*
D03*
Y340600D02*
D03*
Y353300D02*
D03*
Y366000D02*
D03*
Y378700D02*
D03*
Y391400D02*
D03*
Y404100D02*
D03*
X136750Y327900D02*
D03*
Y340600D02*
D03*
Y353300D02*
D03*
Y366000D02*
D03*
Y378700D02*
D03*
Y391400D02*
D03*
Y404100D02*
D03*
D32*
X982550Y29820D02*
D03*
Y73000D02*
D03*
D33*
X230206Y908956D02*
X258946Y937696D01*
X230206Y901598D02*
Y908956D01*
X258946Y937696D02*
X265000Y937696D01*
X218608Y890000D02*
X230206Y901598D01*
X230206D01*
X867250Y-64750D02*
Y-12600D01*
X876250Y2750D02*
X889250Y-10250D01*
X832750Y2750D02*
X876250D01*
X816000Y-14000D02*
X832750Y2750D01*
X432050Y250950D02*
X458000D01*
X844000Y-88000D02*
X867250Y-64750D01*
X889250Y-13850D02*
Y-10250D01*
X375000Y812500D02*
Y837500D01*
X377500Y812500D02*
X400000Y790000D01*
X375000Y812500D02*
X377500D01*
X334750Y117000D02*
Y127000D01*
X336500Y128750D01*
X356336Y41164D02*
X485500Y-88000D01*
X356336Y41164D02*
Y65000D01*
X485500Y-88000D02*
X844000D01*
X257000Y-79250D02*
Y-60290D01*
X227500Y-66750D02*
Y-51750D01*
X204000Y-52000D02*
X227500Y-51750D01*
X249914Y-18914D02*
Y-250D01*
X224540D02*
X249914D01*
X224750Y-30664D02*
Y-460D01*
X163836Y-52000D02*
X185000D01*
X91270Y-50000D02*
X140500D01*
X178321Y906229D02*
X178599Y908014D01*
X178200Y905450D02*
X178321Y906229D01*
X179795Y909210D02*
Y915704D01*
X178599Y908014D02*
Y908014D01*
X173492Y922008D02*
X179795Y915704D01*
X169893Y922008D02*
X173492D01*
X1088836Y89500D02*
Y91914D01*
X1067164Y113586D02*
X1088836Y91914D01*
X1067164Y113586D02*
Y116000D01*
X136750Y306750D02*
Y327900D01*
X68750Y799500D02*
Y810208D01*
X69000Y810458D01*
X70750Y837000D02*
X96000D01*
X91750Y132750D02*
X104750D01*
X25500Y140500D02*
X42750Y123250D01*
X69750D01*
X386500Y123500D02*
X434000Y171000D01*
X465000D01*
X107750Y330500D02*
X122750Y315500D01*
X272750Y453500D02*
X331500Y394750D01*
X186150Y453500D02*
X272750D01*
X331500Y394250D02*
Y394750D01*
X136750Y404100D02*
X186150Y453500D01*
X174500Y425000D02*
X174750Y425250D01*
X189250Y378700D02*
X197050D01*
X89500Y353336D02*
X109000D01*
X57864D02*
X89500D01*
Y323250D02*
Y353336D01*
X157000Y319500D02*
X178100Y340600D01*
X189250D01*
X136714Y353336D02*
X136750Y353300D01*
X109000Y353336D02*
X136714D01*
X136750Y391400D02*
X148350D01*
X154500Y385250D01*
Y349250D02*
Y385250D01*
X145850Y340600D02*
X154500Y349250D01*
X136750Y340600D02*
X145850D01*
X189250Y327900D02*
X197900D01*
X204750Y334750D01*
X172500Y462750D02*
Y548750D01*
X126000Y366000D02*
X136750D01*
X125250Y366750D02*
X126000Y366000D01*
X125250Y366750D02*
Y378700D01*
X136750D01*
X174750Y362500D02*
Y425250D01*
X132750Y529250D02*
X136413D01*
X162250Y559000D02*
X172500Y548750D01*
X133500Y559000D02*
X162250D01*
X50000Y543400D02*
X150750D01*
X178250Y366000D02*
X189250D01*
X174750Y362500D02*
X178250Y366000D01*
X174750Y358250D02*
Y362500D01*
Y358250D02*
X179700Y353300D01*
X189250D01*
X211164Y404000D02*
Y428000D01*
X51750Y519750D02*
X110750D01*
X163000Y133164D02*
X186250D01*
Y115100D02*
Y133164D01*
X1067500Y76750D02*
Y89500D01*
Y63500D02*
Y76750D01*
X1049000Y77000D02*
X1049250Y76750D01*
X1067500D01*
Y38500D02*
Y63500D01*
X1067164Y168500D02*
Y185586D01*
Y142250D02*
Y168500D01*
Y185586D02*
X1067250Y185500D01*
X1175000Y76550D02*
X1200450D01*
X1178500Y99500D02*
Y124500D01*
Y80050D02*
Y99500D01*
X1147500Y-10000D02*
Y46000D01*
X1142000Y51500D02*
X1147500Y46000D01*
X1128650Y51500D02*
X1142000D01*
X1178500Y172500D02*
Y204000D01*
X1177500Y10000D02*
Y35950D01*
X1088836Y63500D02*
Y89500D01*
Y63500D02*
X1174650D01*
X1147500Y-87500D02*
X1177500Y-57500D01*
Y-23020D01*
X744000Y-71900D02*
X747100Y-75000D01*
X820000D01*
X826000Y-69000D01*
Y-51000D01*
X307500Y145000D02*
X346085D01*
X355542Y135542D01*
X408957Y188958D02*
X417000D01*
X355542Y135542D02*
X408957Y188958D01*
X355542Y101000D02*
Y135542D01*
X352500Y97957D02*
X355542Y101000D01*
X231668Y101332D02*
X232000Y101000D01*
X231668Y101332D02*
X231668D01*
X231000Y102000D02*
X231668Y101332D01*
X186444Y102000D02*
X211000D01*
X186043Y102400D02*
X186444Y102000D01*
X211000Y77000D02*
Y80664D01*
X186043Y64300D02*
X198700D01*
X211000Y52000D01*
X50000Y361200D02*
X57864Y353336D01*
X417000Y241100D02*
X418000Y242100D01*
X417000Y210294D02*
Y241100D01*
X418000Y265000D02*
X432050Y250950D01*
X425892Y234207D02*
X443400D01*
X418000Y242100D02*
X425892Y234207D01*
X456600Y249550D02*
X458000Y250950D01*
X456600Y234207D02*
Y249550D01*
X816000Y-20000D02*
Y-14000D01*
X943000Y-26000D02*
Y-25000D01*
Y-48000D02*
Y-26000D01*
X942000Y-25000D02*
X943000Y-26000D01*
X942000Y-25000D02*
Y-24000D01*
X943000Y-25000D01*
X741900Y-27000D02*
X746100D01*
X753100Y-20000D01*
X826000Y-51000D02*
Y-30000D01*
X816000Y-20000D02*
X826000Y-30000D01*
X808000Y-20000D02*
X816000D01*
X753100D02*
X794800D01*
X42500Y858500D02*
X45912Y861913D01*
X42500Y830520D02*
Y858500D01*
X52650Y868650D02*
X78000D01*
X49237Y865238D02*
X52650Y868650D01*
X45912Y861913D02*
X49237Y865238D01*
X268293Y863294D02*
Y870000D01*
X260000Y855000D02*
X268293Y863294D01*
X250000Y833672D02*
X272421D01*
X275574Y830520D01*
X226884Y813000D02*
X227500Y812383D01*
Y787500D02*
Y812383D01*
X326000Y727000D02*
X327522Y728521D01*
Y742664D01*
X308460Y731020D02*
X321980D01*
X302500Y736980D02*
X308460Y731020D01*
X321980D02*
X326000Y727000D01*
X179042Y883000D02*
X198000D01*
X157706Y910000D02*
X158000Y909706D01*
Y886883D02*
Y909706D01*
X127000Y881350D02*
X152466D01*
X158000Y886883D01*
X265000Y633000D02*
X323000Y575000D01*
X464836D01*
X498000Y541836D01*
X375336Y542000D02*
X378000Y539336D01*
X575117Y485000D02*
X596000D01*
X575117Y463664D02*
X575243Y463537D01*
Y439757D02*
Y463537D01*
X573000Y442000D02*
X575243Y439757D01*
X552000Y442000D02*
X573000D01*
X522720Y459680D02*
X526376Y463336D01*
X552000D01*
X508000Y440500D02*
X522720Y455220D01*
X127500Y905000D02*
X135000Y912500D01*
X127500Y894550D02*
Y905000D01*
X127000Y894050D02*
X127500Y894550D01*
X51056Y650108D02*
X91271D01*
X42500Y658664D02*
X51056Y650108D01*
X105520Y686658D02*
X116671Y675508D01*
X105520Y686658D02*
Y727710D01*
X72500Y700783D02*
Y727710D01*
X71770Y726980D02*
X72500Y727710D01*
X42500Y726980D02*
X71770D01*
X42500Y680000D02*
Y726980D01*
X90000Y919544D02*
X91164Y918380D01*
X90000Y919544D02*
Y942500D01*
X197500Y770000D02*
Y867500D01*
Y770000D02*
X216485Y751015D01*
X230000Y765000D02*
X232500D01*
X232794Y765294D01*
X250000D01*
X265000Y937696D02*
Y961067D01*
Y896410D02*
X268293Y893117D01*
X265000Y896410D02*
Y916360D01*
X349504Y993140D02*
X352500Y996136D01*
X307500Y955000D02*
Y981164D01*
X216485Y751015D02*
X275000D01*
Y772352D02*
X275574Y772925D01*
Y797500D01*
X307500Y1002500D02*
Y1020000D01*
X327500Y840000D02*
X330000D01*
X326550Y840950D02*
X327500Y840000D01*
X326550Y840950D02*
Y859000D01*
X288450Y925950D02*
X290000Y927500D01*
X288450Y906000D02*
Y925950D01*
X369500Y1026500D02*
X373380Y1030380D01*
X409760Y993140D02*
X410000Y992900D01*
X352500Y1022000D02*
Y1047366D01*
X350500Y1020000D02*
X352500Y1022000D01*
Y996136D02*
Y1018000D01*
X350500Y1020000D02*
X352500Y1018000D01*
X372500Y967500D02*
X375000Y970000D01*
Y993140D01*
X409760D01*
X374000D02*
Y1009000D01*
X369500Y1013500D02*
X374000Y1009000D01*
X470916Y1007110D02*
X482890D01*
X485000Y1005000D01*
Y977500D02*
Y1005000D01*
X481590Y974090D02*
X485000Y977500D01*
X470916Y941070D02*
X481070D01*
X482500Y942500D01*
Y973180D01*
X481590Y974090D02*
X482500Y973180D01*
X470916Y974090D02*
X481590D01*
X372500Y711200D02*
Y732530D01*
X369500Y735529D02*
X372500Y732530D01*
X369500Y748530D02*
X372500Y751529D01*
Y767100D01*
X410000D01*
X372500Y687500D02*
Y711200D01*
X349384Y666164D02*
X372500D01*
X375000Y921336D02*
Y943664D01*
X372500Y946164D02*
X374000D01*
X372500D02*
X375000Y943664D01*
Y769600D02*
Y791164D01*
X372500Y767100D02*
X375000Y769600D01*
X351164Y711200D02*
Y767500D01*
X373380Y1030380D02*
Y1070610D01*
X410000Y1060000D02*
X422500D01*
X430000Y1067500D01*
Y1095000D01*
X417500Y1107500D02*
X430000Y1095000D01*
X265000Y982403D02*
Y1000000D01*
X127000Y868650D02*
X218650D01*
X243117Y893117D02*
X246957D01*
X228370Y786629D02*
X250000D01*
X227500Y787500D02*
X228370Y786629D01*
X390500Y485180D02*
X391870Y483810D01*
X417270Y458410D02*
X435180Y440500D01*
X498000Y486900D02*
Y520500D01*
Y486900D02*
X499820Y485080D01*
X391870Y483810D02*
Y504130D01*
X378000Y518000D02*
X391870Y504130D01*
X435180Y440500D02*
X508000D01*
X522720Y455220D02*
Y459680D01*
X42500Y760000D02*
Y797500D01*
X73000Y772750D02*
X82000D01*
X399400Y674600D02*
X410000D01*
X390000Y684000D02*
X399400Y674600D01*
X376000Y684000D02*
X390000D01*
X372500Y687500D02*
X376000Y684000D01*
X372500Y666164D02*
X386836D01*
X397000Y656000D01*
X420000D01*
X431000Y667000D01*
Y690000D01*
X423500Y697500D02*
X431000Y690000D01*
X410000Y697500D02*
X423500D01*
X236957Y860000D02*
X246957Y870000D01*
X394664Y916336D02*
X401000D01*
X389664Y921336D02*
X394664Y916336D01*
X375000Y921336D02*
X389664D01*
X350000Y1091946D02*
X371620D01*
X94730Y889703D02*
X95000Y889433D01*
X94730Y889703D02*
X94730D01*
X94730D02*
X95540Y890513D01*
X91164Y904836D02*
Y918380D01*
Y904836D02*
X95540Y900460D01*
Y890513D02*
Y900460D01*
X109460D02*
X112500Y903500D01*
Y918380D01*
X109460Y872840D02*
Y900460D01*
Y872840D02*
X114000Y868300D01*
Y868650D02*
X127000D01*
X114000Y868300D02*
Y868650D01*
X78000Y881350D02*
X86917D01*
X95000Y889433D01*
X111836Y942000D02*
X130000D01*
X82725Y837458D02*
Y855164D01*
X522500Y459900D02*
X522720Y459680D01*
X326550Y906000D02*
Y943550D01*
X352550Y969550D01*
X352550Y991450D02*
X352550Y969550D01*
X268293Y870000D02*
X277450D01*
X288450Y859000D01*
X226884Y834336D02*
X247547Y855000D01*
X260000D01*
X374000Y946164D02*
X378164D01*
X402000Y970000D01*
X410000D01*
X373380Y1070610D02*
X388610D01*
X400900Y1082900D01*
X410000D01*
X1126000Y76550D02*
X1148950Y99500D01*
X1157164D01*
Y124500D01*
Y127164D01*
X1178500Y148500D01*
X1132100Y171500D02*
X1156164D01*
X1157164Y172500D01*
X1091500Y171500D02*
X1118900D01*
X1088500Y142250D02*
Y168500D01*
Y116000D02*
Y142250D01*
X1087836Y38500D02*
X1125950D01*
X1087836Y13500D02*
Y38500D01*
X1174650Y63500D02*
X1175000Y63850D01*
Y38450D02*
Y51150D01*
X50000Y568800D02*
X111500D01*
X131544Y102400D02*
X139900D01*
X145500Y108000D01*
X35000Y346750D02*
X70250Y311500D01*
X50000Y412000D02*
X108000D01*
X25500Y140500D02*
Y427000D01*
X35900Y437400D01*
X50000D01*
X35000Y346750D02*
Y393000D01*
X41250Y399250D01*
X70250Y203739D02*
Y311500D01*
Y203739D02*
X145500Y128489D01*
Y108000D02*
Y128489D01*
X189350Y404000D02*
X211164D01*
X189250Y391400D02*
X200850D01*
X234000Y358250D02*
X322000D01*
X204750Y334750D02*
Y371000D01*
X197050Y378700D02*
X204750Y371000D01*
X200850Y391400D02*
X234000Y358250D01*
X1129750Y147500D02*
X1156164D01*
X386500Y47000D02*
Y123500D01*
X352500Y65750D02*
Y97957D01*
Y65750D02*
X353250Y65000D01*
X356336D01*
X132750Y529250D02*
X138250D01*
X146500Y521000D01*
X77950Y894000D02*
X78000Y894050D01*
X55250Y894000D02*
X77950D01*
X399750Y879250D02*
X400250D01*
X399750D02*
X401000Y880500D01*
Y895000D01*
X330000Y675000D02*
X342500Y687500D01*
X349384D01*
X50000Y492600D02*
X54100Y488500D01*
X154980D01*
X128500Y502500D02*
X134500Y508500D01*
X105000Y502500D02*
X128500D01*
X157000Y300750D02*
Y319500D01*
X89500Y323250D02*
X122000Y290750D01*
X147000D01*
X157000Y300750D01*
X1178500Y204000D02*
Y220750D01*
X125250Y378700D02*
Y415500D01*
X172500Y462750D01*
X335250Y130000D02*
X336500Y128750D01*
X227750Y621250D02*
X307000Y542000D01*
X375336D01*
X204000Y-68000D02*
Y-52000D01*
X227500Y-51750D02*
X240750Y-52000D01*
X249040Y-60290D01*
X257000D01*
X127000Y846500D02*
Y855950D01*
X117750Y837250D02*
X127000Y846500D01*
X42500Y760000D02*
X46750Y755750D01*
X86250D01*
X95500Y772250D02*
X105250D01*
X111000Y778000D01*
X95500Y772250D02*
Y791914D01*
X69000Y837086D02*
X69918Y836168D01*
X69000Y835250D02*
X69918Y836168D01*
X70750Y837000D01*
X69918Y836168D02*
X73582D01*
X96000Y813750D01*
X295000Y887500D02*
X301150Y893650D01*
Y906000D01*
X268293Y893117D02*
X273633D01*
X279250Y887500D01*
X295000D01*
X218650Y868650D02*
X243117Y893117D01*
X250000Y812336D02*
X256664D01*
X271500Y797500D01*
X275574D01*
X313500Y843000D02*
Y857500D01*
Y843000D02*
X318000Y838500D01*
Y820500D02*
Y838500D01*
Y820500D02*
X351164Y787336D01*
Y767500D02*
Y787336D01*
X400000Y790000D02*
X410000D01*
X375000Y858836D02*
X391914D01*
X392000Y858750D01*
X351750Y837664D02*
X374836D01*
X135000Y912500D02*
X137500D01*
X381250Y1107500D02*
X417500D01*
X374250Y1100500D02*
X381250Y1107500D01*
X374250Y1094576D02*
Y1100500D01*
X371620Y1091946D02*
X374250Y1094576D01*
D34*
X188000Y157250D02*
Y169000D01*
Y157250D02*
X188500Y156750D01*
X446750Y283300D02*
Y289050D01*
X444750Y281300D02*
X446750Y283300D01*
Y266050D02*
Y271800D01*
X444750Y273800D02*
X446750Y271800D01*
X429550Y283250D02*
X438400D01*
X429550D02*
X446750Y266050D01*
X444750Y273800D02*
Y281300D01*
X419150Y289050D02*
X446750D01*
X440000Y350000D02*
X443000Y347000D01*
X911500Y-6400D02*
X941000Y23100D01*
X911500Y-46480D02*
Y-6400D01*
X909980Y-48000D02*
X911500Y-46480D01*
X290500Y155820D02*
Y160000D01*
X267000Y183500D02*
X290500Y160000D01*
X194250Y183500D02*
X267000D01*
X1204250Y220750D02*
X1227500Y197500D01*
X713250Y1158750D02*
X714500Y1160000D01*
X713250Y1005060D02*
Y1158750D01*
Y1005060D02*
X721360Y996950D01*
X454384Y1153884D02*
X460500Y1160000D01*
X454384Y1091336D02*
Y1153884D01*
X1124750Y288050D02*
Y371000D01*
X1090250Y405500D02*
X1124750Y371000D01*
X1207950Y425450D02*
X1227500Y445000D01*
X1179000Y425450D02*
X1207950D01*
X1088836Y425500D02*
X1177550D01*
X1079300Y512500D02*
X1160000D01*
X88250Y379500D02*
X106500D01*
X133500Y578000D02*
Y590500D01*
X232500Y386500D02*
Y404000D01*
X346000Y307000D02*
Y360000D01*
X397000Y411000D01*
X581000D01*
X596580Y426580D01*
Y439757D01*
X1227500Y445000D02*
Y449000D01*
X1164000Y512500D02*
X1227500Y449000D01*
X1160000Y512500D02*
X1164000D01*
X1160000D02*
X1204750Y557250D01*
X1237770Y557230D02*
X1282500Y512500D01*
X1339500Y523000D02*
X1340000Y522500D01*
X1293000Y523000D02*
X1339500D01*
X1282500Y512500D02*
X1293000Y523000D01*
X633000Y245336D02*
Y270664D01*
X604850Y182000D02*
X633000Y210150D01*
Y224000D01*
X346000Y307000D02*
X347000Y306000D01*
Y269000D02*
Y306000D01*
Y231000D02*
Y269000D01*
X381290Y231000D02*
Y269000D01*
X380290Y307000D02*
X381290Y306000D01*
Y269000D02*
Y306000D01*
Y269000D02*
X385290Y265000D01*
X418000D01*
Y287900D02*
X419150Y289050D01*
X676200Y84000D02*
X686000Y93800D01*
X616000Y84000D02*
X676200D01*
X616000D02*
Y170850D01*
X604850Y182000D02*
X616000Y170850D01*
X522000Y251000D02*
Y264000D01*
Y201150D02*
Y251000D01*
X521950Y250950D02*
X522000Y251000D01*
X506000Y250950D02*
X521950D01*
X522000Y264000D02*
Y276000D01*
X521650Y263650D02*
X522000Y264000D01*
X506000Y263650D02*
X521650D01*
X522000Y276000D02*
Y290000D01*
X521650Y276350D02*
X522000Y276000D01*
X506000Y276350D02*
X521650D01*
X522000Y201150D02*
X541150Y182000D01*
X521050Y289050D02*
X522000Y290000D01*
X506000Y289050D02*
X521050D01*
X1010000Y30000D02*
X1011180Y29820D01*
X983549D02*
X1011180D01*
X941000Y68900D02*
X945100Y73000D01*
X982550D01*
X804650Y68400D02*
X805250Y69000D01*
X762200Y68400D02*
X804650D01*
X812000Y33000D02*
X823664D01*
X805250Y39750D02*
X812000Y33000D01*
X805250Y39750D02*
Y69000D01*
X845000Y33000D02*
X855000D01*
X864750Y42750D01*
Y69000D01*
X899000Y22000D02*
Y38710D01*
X898000Y39710D02*
X899000Y38710D01*
X864750Y69000D02*
X869750Y74000D01*
X898000D01*
X935900D01*
X941000Y68900D01*
X789710Y-49000D02*
X791710Y-51000D01*
X731000Y-49000D02*
X789710D01*
X719000Y-61000D02*
X731000Y-49000D01*
X686610Y-27000D02*
X741900D01*
X684610Y-29000D02*
X686610Y-27000D01*
X575390Y-40390D02*
Y-29000D01*
Y-40390D02*
X596000Y-61000D01*
X719000D01*
X734000Y1160500D02*
X772000D01*
X713875Y1160000D02*
X733500D01*
X1412000Y940250D02*
X1412500Y939750D01*
X1412000Y940250D02*
Y969664D01*
X1348000Y991000D02*
X1412000D01*
X1330960Y973960D02*
X1348000Y991000D01*
X1330960Y880110D02*
Y973960D01*
X829500Y1190500D02*
X840000Y1180000D01*
X773000Y1190500D02*
X829500D01*
X772000Y1189500D02*
X773000Y1190500D01*
X733750Y1189500D02*
X772000D01*
Y1160500D02*
X773000Y1161500D01*
X720000Y555500D02*
X724000Y559500D01*
Y610000D01*
X720000Y555500D02*
X756500D01*
X720000Y526500D02*
X753000D01*
X650000Y530000D02*
X653500Y526500D01*
X720000D01*
X470000Y610000D02*
X477500Y617500D01*
X410000Y1037100D02*
X446550D01*
X449580Y1007110D02*
Y1034070D01*
X446550Y1037100D02*
X449580Y1034070D01*
Y974090D02*
Y1007110D01*
Y941070D02*
Y974090D01*
X470916Y820420D02*
X487080D01*
X490000Y817500D01*
Y797500D02*
Y817500D01*
X482500Y790000D02*
X490000Y797500D01*
X471336Y790000D02*
X482500D01*
X485000Y737500D02*
Y757500D01*
X482500Y760000D02*
X485000Y757500D01*
X471336Y760000D02*
X482500D01*
X477500Y702500D02*
Y723836D01*
X471336Y730000D02*
X477500Y723836D01*
X450000Y702500D02*
X477500D01*
Y1046714D02*
Y1070000D01*
X470916Y1040130D02*
X477500Y1046714D01*
X454384Y1070000D02*
X477500D01*
X454384Y1091336D02*
X477500D01*
X449580Y790420D02*
Y820420D01*
Y790420D02*
X450000Y790000D01*
Y760000D02*
Y790000D01*
Y730000D02*
Y760000D01*
X419600Y730000D02*
X450000D01*
X410000Y720400D02*
X419600Y730000D01*
X410000Y812900D02*
X442060D01*
X449580Y820420D01*
X450000Y681164D02*
X477500D01*
Y617500D02*
Y681164D01*
X1412500Y860000D02*
Y880250D01*
Y845000D02*
Y860000D01*
X331000Y1051610D02*
X350000Y1070610D01*
X331000Y1015000D02*
Y1051610D01*
X724000Y610000D02*
Y760630D01*
X829670Y1169670D02*
X840000Y1180000D01*
X232500Y428000D02*
X258250D01*
X258500Y428250D01*
X187750Y488750D02*
Y540500D01*
Y488750D02*
X188000Y488500D01*
X164750Y154500D02*
Y176000D01*
X172250Y183500D01*
X124000Y271250D02*
X194250Y201000D01*
Y183500D02*
Y201000D01*
X172250Y183500D02*
X194250D01*
X1043250Y13500D02*
X1066500D01*
X375000Y885750D02*
X376750Y884000D01*
X375000Y885750D02*
Y900000D01*
X188000Y488500D02*
X204000Y472500D01*
X215750Y472250D01*
X217250Y473750D01*
X270750Y250D02*
Y15750D01*
X1178500Y220750D02*
X1204250D01*
X305500Y189500D02*
X347000Y231000D01*
X305000Y190000D02*
X305500Y189500D01*
X285250Y190000D02*
X305000D01*
X412500Y944600D02*
X416030Y941070D01*
X449580D01*
X351750Y859000D02*
Y872500D01*
D35*
X441500Y293800D02*
Y324750D01*
D36*
X192400Y51600D02*
X207000Y37000D01*
X190250Y20250D02*
X207000Y37000D01*
X190250Y-250D02*
Y20250D01*
X194500Y-30000D02*
Y-4500D01*
X294664Y130000D02*
X313914D01*
Y116764D02*
Y130000D01*
X168750Y51750D02*
X185893D01*
X168800Y89700D02*
X186043D01*
X257650Y100500D02*
X273250D01*
X125150Y115100D02*
X131544D01*
X116000Y108000D02*
X121750Y113750D01*
X125150D01*
X91750D02*
X121750D01*
X222500Y145000D02*
X307500D01*
X211328Y133828D02*
X222500Y145000D01*
X211328Y125117D02*
Y133828D01*
X173000Y28000D02*
Y38500D01*
X333300Y63300D02*
X335000Y65000D01*
X311250Y63300D02*
X333300D01*
X333806Y101400D02*
X334207Y101000D01*
X311250Y101400D02*
X333806D01*
X131544Y89700D02*
X149250D01*
X116000Y70000D02*
Y108000D01*
Y70000D02*
X121700Y64300D01*
X131544D01*
Y77000D02*
X186043D01*
X146000Y54000D02*
Y61000D01*
X142700Y64300D02*
X146000Y61000D01*
X131544Y64300D02*
X142700D01*
X143600Y51600D02*
X146000Y54000D01*
X131544Y51600D02*
X143600D01*
X115000Y39000D02*
X115100Y38900D01*
X131544D01*
X256750Y37900D02*
X273900D01*
X294000Y72000D02*
X298000Y76000D01*
X311250D01*
X283000Y82000D02*
X289700Y88700D01*
X311250D01*
X283000Y50600D02*
Y82000D01*
X186043Y38900D02*
X189100D01*
X231668Y101332D02*
X232336Y102000D01*
X211000Y80664D02*
X231668Y101332D01*
X211000Y77000D02*
X232336Y55664D01*
Y52000D02*
Y55664D01*
X211328Y123008D02*
Y125117D01*
Y123008D02*
X232336Y102000D01*
X243680Y114100D02*
X256750D01*
X232664Y125117D02*
X243680Y114100D01*
X276300Y88700D02*
X283000Y82000D01*
X256750Y88700D02*
X276300D01*
X233336Y76000D02*
X256750D01*
X232336Y77000D02*
X233336Y76000D01*
X272700Y63300D02*
X273000Y63000D01*
X256750Y63300D02*
X272700D01*
X186043Y51600D02*
X192400D01*
X302500Y772500D02*
Y797500D01*
X300000Y772500D02*
X302500D01*
X300000D02*
X302500Y770000D01*
X275574Y830520D02*
X302500D01*
X301150Y831870D02*
X302500Y830520D01*
X301150Y831870D02*
Y859000D01*
X313850Y906000D02*
Y921150D01*
X307500Y927500D02*
X313850Y921150D01*
X307500Y927500D02*
Y933664D01*
X332500Y887500D02*
X337500Y892500D01*
X320000Y887500D02*
X332500D01*
X313850Y893650D02*
X320000Y887500D01*
X313850Y893650D02*
Y906000D01*
X410000Y947100D02*
X413000Y944100D01*
X337500Y892500D02*
Y899500D01*
X346000Y908000D01*
Y911000D01*
X41250Y399250D02*
X123500D01*
X168750Y89750D02*
X168800Y89700D01*
X164600Y38900D02*
X186043D01*
X155000Y48500D02*
X164600Y38900D01*
X155000Y48500D02*
Y68500D01*
X162750Y76250D01*
X413000Y876500D02*
Y944100D01*
X350379Y893621D02*
X373890Y870110D01*
X406610D02*
X413000Y876500D01*
X373890Y870110D02*
X406610D01*
X256750Y50600D02*
X311250D01*
X273900Y37900D02*
X276000Y40000D01*
X250600Y50600D02*
X256750D01*
X207000Y37000D02*
X237000D01*
X250600Y50600D01*
X291750Y28000D02*
X301650Y37900D01*
X311250D01*
X302500Y770000D02*
X306500Y766000D01*
X325522D01*
X327522Y764000D01*
D37*
X1340000Y88750D02*
Y120000D01*
X1323000Y71750D02*
X1340000Y88750D01*
X1323000Y-10000D02*
Y71750D01*
X443000Y347000D02*
X443000Y347000D01*
X610000D01*
X633000Y324000D01*
Y303250D02*
Y324000D01*
X721360Y763270D02*
X724000Y760630D01*
X1340000Y522500D02*
Y589000D01*
D38*
X1127150Y50000D02*
X1128650Y51500D01*
X1500000Y-100000D02*
Y1220000D01*
X0Y-101000D02*
X1500000D01*
X0Y-100000D02*
Y1220000D01*
X1500000D01*
D39*
X684400Y-23700D02*
D03*
D40*
X630000D02*
D03*
X575600D02*
D03*
D41*
X410000Y674600D02*
D03*
Y697500D02*
D03*
X418000Y242100D02*
D03*
Y265000D02*
D03*
X941000Y68900D02*
D03*
Y46000D02*
D03*
X744000Y-71900D02*
D03*
Y-49000D02*
D03*
X410000Y1082900D02*
D03*
Y1060000D02*
D03*
Y767100D02*
D03*
Y790000D02*
D03*
Y992900D02*
D03*
Y970000D02*
D03*
X867100Y-12600D02*
D03*
X890000D02*
D03*
D42*
X410000Y720400D02*
D03*
X418000Y287900D02*
D03*
X941000Y23100D02*
D03*
X744000Y-26100D02*
D03*
X410000Y1037100D02*
D03*
Y812900D02*
D03*
Y947100D02*
D03*
D43*
X383750Y-50000D02*
D03*
D44*
X358350D02*
D03*
X332950D02*
D03*
X307550D02*
D03*
X50000Y386600D02*
D03*
Y412000D02*
D03*
Y437400D02*
D03*
Y518000D02*
D03*
Y543400D02*
D03*
Y568800D02*
D03*
Y201400D02*
D03*
Y226800D02*
D03*
Y252200D02*
D03*
Y277600D02*
D03*
Y303000D02*
D03*
D45*
Y361200D02*
D03*
Y492600D02*
D03*
Y176000D02*
D03*
D46*
X1179000Y222250D02*
D03*
Y425450D02*
D03*
X1282500Y512500D02*
D03*
X1079300D02*
D03*
X1124750Y425250D02*
D03*
Y285550D02*
D03*
X459000Y1160000D02*
D03*
X713000D02*
D03*
X470000Y610000D02*
D03*
X724000D02*
D03*
D47*
X1373800Y-60800D02*
D03*
X1272200D02*
D03*
Y40800D02*
D03*
X1373800D02*
D03*
D48*
X1323000Y-10000D02*
D03*
X65870Y624708D02*
D03*
Y675508D02*
D03*
X116671D02*
D03*
Y624708D02*
D03*
X116670Y-75400D02*
D03*
X65870D02*
D03*
Y-24600D02*
D03*
X116670D02*
D03*
D49*
X1340000Y120000D02*
D03*
X1365000Y170000D02*
D03*
X1315000D02*
D03*
X1340000Y522500D02*
D03*
X1365000Y472500D02*
D03*
X1315000D02*
D03*
D50*
X1227500Y197500D02*
D03*
Y445000D02*
D03*
D51*
X1420000Y589000D02*
D03*
X1340000D02*
D03*
D52*
X1450000Y50000D02*
D03*
X880000Y290000D02*
D03*
X50000Y1170000D02*
D03*
X840000Y1180000D02*
D03*
X1450000Y1170000D02*
D03*
X570000Y290000D02*
D03*
X440000Y350000D02*
D03*
X650000Y530000D02*
D03*
X460000Y880000D02*
D03*
X50000Y50000D02*
D03*
X740000Y290000D02*
D03*
X1450000Y690000D02*
D03*
D53*
X91271Y650108D02*
D03*
X91270Y-50000D02*
D03*
D54*
X686000Y93800D02*
D03*
Y68400D02*
D03*
Y43000D02*
D03*
Y17600D02*
D03*
X762200D02*
D03*
Y43000D02*
D03*
Y68400D02*
D03*
Y93800D02*
D03*
X534200Y92400D02*
D03*
Y67000D02*
D03*
Y41600D02*
D03*
Y16200D02*
D03*
X458000D02*
D03*
Y41600D02*
D03*
Y67000D02*
D03*
Y92400D02*
D03*
D55*
X471920Y459680D02*
D03*
X497320Y485080D02*
D03*
X365100Y459780D02*
D03*
X390500Y485180D02*
D03*
D56*
X522720Y459680D02*
D03*
X415900Y459780D02*
D03*
D57*
X912900Y-12600D02*
D03*
D58*
X68000Y774000D02*
D03*
X356500Y819250D02*
D03*
X149750Y521000D02*
D03*
X138750Y217250D02*
D03*
X139750Y155500D02*
D03*
X283250Y217250D02*
D03*
X256750Y-79500D02*
D03*
X122750Y315000D02*
D03*
X169750Y925500D02*
D03*
X331500Y970790D02*
D03*
X364250Y86000D02*
D03*
X401000Y83750D02*
D03*
X494000Y-73250D02*
D03*
X1014000Y30250D02*
D03*
X283710Y286210D02*
D03*
X265000Y633000D02*
D03*
X227750Y621250D02*
D03*
X68750Y799500D02*
D03*
X232500Y386500D02*
D03*
X332000Y700000D02*
D03*
X233750Y859750D02*
D03*
X326000Y727000D02*
D03*
X198000Y883000D02*
D03*
X218608Y890000D02*
D03*
X230000Y765000D02*
D03*
X265000Y1000000D02*
D03*
X332500Y822500D02*
D03*
X307500Y1020000D02*
D03*
X330000Y840000D02*
D03*
X290000Y927500D02*
D03*
X330000Y675000D02*
D03*
X227500Y787500D02*
D03*
X596000Y485000D02*
D03*
X111000Y778000D02*
D03*
X212500Y910000D02*
D03*
X130000Y942000D02*
D03*
X334000Y783000D02*
D03*
X124000Y271250D02*
D03*
X376750Y884000D02*
D03*
X55250Y894000D02*
D03*
X133750Y594000D02*
D03*
X105000Y502500D02*
D03*
X88250Y379500D02*
D03*
X235750Y287250D02*
D03*
X140500Y304500D02*
D03*
X110000Y132500D02*
D03*
X152250Y89750D02*
D03*
X112000Y39000D02*
D03*
X331500Y394250D02*
D03*
X322000Y358250D02*
D03*
X645250Y589000D02*
D03*
X481250Y220750D02*
D03*
X384750Y189250D02*
D03*
X380500Y140750D02*
D03*
X386500Y47000D02*
D03*
X393500Y25250D02*
D03*
X342250Y13250D02*
D03*
X408250Y-29250D02*
D03*
X899000Y18250D02*
D03*
X1043250Y13500D02*
D03*
X1049250Y76750D02*
D03*
X1147500Y-10000D02*
D03*
X1200450Y76550D02*
D03*
X1129750Y147500D02*
D03*
X1067250Y189250D02*
D03*
X1412500Y860000D02*
D03*
X1412250Y838750D02*
D03*
X174750Y423250D02*
D03*
X258500Y428250D02*
D03*
X216250Y472750D02*
D03*
X401000Y880500D02*
D03*
X331000Y1015000D02*
D03*
X270750Y15750D02*
D03*
X943000Y-25000D02*
D03*
X188500Y241000D02*
D03*
X188000Y264250D02*
D03*
X285250Y190000D02*
D03*
X302250Y189500D02*
D03*
X204000Y-68000D02*
D03*
X230000Y-69500D02*
D03*
X289250Y970000D02*
D03*
X351500Y872750D02*
D03*
X392000Y858750D02*
D03*
X137500Y912500D02*
D03*
X325750Y1075000D02*
D03*
D59*
X188000Y169000D02*
D03*
X288500Y953000D02*
D03*
X334750Y117000D02*
D03*
X274000Y153750D02*
D03*
X465000Y171000D02*
D03*
X1147500Y-87500D02*
D03*
X307500Y145000D02*
D03*
X466750Y136000D02*
D03*
X294000Y72000D02*
D03*
X273000Y63000D02*
D03*
X168750Y89750D02*
D03*
X276000Y40000D02*
D03*
X290750Y28500D02*
D03*
X168750Y51750D02*
D03*
X273250Y100500D02*
D03*
X173000Y28000D02*
D03*
M02*
