G04 Layer_Color=16711935*
%FSLAX44Y44*%
%MOMM*%
G71*
G01*
G75*
%ADD36C,0.3000*%
%ADD38C,0.2540*%
%ADD70C,0.1524*%
%ADD71C,0.2032*%
%ADD118C,0.0254*%
D36*
X1470000Y462404D02*
Y465000D01*
X1210000Y457404D02*
Y465000D01*
X1470000D01*
Y177500D02*
Y462404D01*
X1210000Y177500D02*
X1470000D01*
X1210000D02*
Y457404D01*
X0Y0D02*
X1500000D01*
D38*
X743773Y55404D02*
G03*
X743773Y55404I-19974J0D01*
G01*
X515773Y54004D02*
G03*
X515773Y54004I-19974J0D01*
G01*
X1288007Y44991D02*
X1357993D01*
X1377991Y-44993D02*
Y24993D01*
X1288007Y-64991D02*
X1357993D01*
X1268009Y-44993D02*
Y24993D01*
X675002Y104798D02*
X676001D01*
X675002Y6801D02*
Y104798D01*
Y6801D02*
X772999D01*
Y104798D01*
X675002D02*
X772999D01*
X447002Y103398D02*
X544999D01*
Y5401D02*
Y103398D01*
X447002Y5401D02*
X544999D01*
X447002D02*
Y103398D01*
X448001D01*
X1501000Y-101000D02*
X1501750Y-100250D01*
X1500000Y-100000D02*
Y1220000D01*
X0D02*
X1500000D01*
X0Y-100000D02*
Y1220000D01*
X-1000Y1000D02*
X0Y0D01*
Y-100000D02*
X1500000D01*
X1222500Y162383D02*
X1237735D01*
X1230117Y170000D01*
Y159843D01*
X1230196Y482500D02*
X1232735Y479961D01*
Y474883D01*
X1230196Y472343D01*
X1227657D01*
X1225117Y474883D01*
Y477422D01*
Y474883D01*
X1222578Y472343D01*
X1220039D01*
X1217500Y474883D01*
Y479961D01*
X1220039Y482500D01*
D70*
X178510Y275153D02*
Y332938D01*
Y332303D02*
Y332938D01*
X145490Y332303D02*
X178510D01*
X145490Y275153D02*
Y332303D01*
Y275153D02*
X178510D01*
X301762Y-83775D02*
X342402D01*
Y-64725D01*
X301762D02*
X342402D01*
X301762Y-83775D02*
Y-64725D01*
X931525Y200012D02*
Y240652D01*
X912475D02*
X931525D01*
X912475Y200012D02*
Y240652D01*
Y200012D02*
X931525D01*
X886636D02*
Y240652D01*
X867586D02*
X886636D01*
X867586Y200012D02*
Y240652D01*
Y200012D02*
X886636D01*
X841747D02*
Y240652D01*
X822697D02*
X841747D01*
X822697Y200012D02*
Y240652D01*
Y200012D02*
X841747D01*
X796858D02*
Y240652D01*
X777808D02*
X796858D01*
X777808Y200012D02*
Y240652D01*
Y200012D02*
X796858D01*
X751969D02*
Y240652D01*
X732919D02*
X751969D01*
X732919Y200012D02*
Y240652D01*
Y200012D02*
X751969D01*
X707081D02*
Y240652D01*
X688031D02*
X707081D01*
X688031Y200012D02*
Y240652D01*
Y200012D02*
X707081D01*
X662192D02*
Y240652D01*
X643142D02*
X662192D01*
X643142Y200012D02*
Y240652D01*
Y200012D02*
X662192D01*
X617303D02*
Y240652D01*
X598253D02*
X617303D01*
X598253Y200012D02*
Y240652D01*
Y200012D02*
X617303D01*
X572414D02*
Y240652D01*
X553364D02*
X572414D01*
X553364Y200012D02*
Y240652D01*
Y200012D02*
X572414D01*
X280975Y124512D02*
Y165152D01*
X300025D01*
Y124512D02*
Y165152D01*
X280975Y124512D02*
X300025D01*
X304262Y139525D02*
X344902D01*
Y120475D02*
Y139525D01*
X304262Y120475D02*
X344902D01*
X304262D02*
Y139525D01*
X440475Y671512D02*
Y712152D01*
X459525D01*
Y671512D02*
Y712152D01*
X440475Y671512D02*
X459525D01*
X339859Y656512D02*
Y697152D01*
X358909D01*
Y656512D02*
Y697152D01*
X339859Y656512D02*
X358909D01*
X61550Y692570D02*
Y715430D01*
Y692570D02*
X117430D01*
Y715430D01*
X61550D02*
X117430D01*
X61550Y720570D02*
Y743430D01*
Y720570D02*
X117430D01*
Y743430D01*
X61550D02*
X117430D01*
X143300Y529070D02*
Y551930D01*
Y529070D02*
X199180D01*
Y551930D01*
X143300D02*
X199180D01*
X143550Y477070D02*
Y499930D01*
Y477070D02*
X199430D01*
Y499930D01*
X143550D02*
X199430D01*
X201512Y437525D02*
X242152D01*
Y418475D02*
Y437525D01*
X201512Y418475D02*
X242152D01*
X201512D02*
Y437525D01*
Y413525D02*
X242152D01*
Y394475D02*
Y413525D01*
X201512Y394475D02*
X242152D01*
X201512D02*
Y413525D01*
X155225Y123512D02*
Y164152D01*
X174275D01*
Y123512D02*
Y164152D01*
X155225Y123512D02*
X174275D01*
X178475D02*
Y164152D01*
X197525D01*
Y123512D02*
Y164152D01*
X178475Y123512D02*
X197525D01*
X1166070Y21430D02*
X1188930D01*
X1166070Y-34450D02*
Y21430D01*
Y-34450D02*
X1188930D01*
Y21430D01*
X1096025Y394848D02*
Y435488D01*
X1076975Y394848D02*
X1096025D01*
X1076975D02*
Y435488D01*
X1096025D01*
X350512Y-83275D02*
X391152D01*
Y-64225D01*
X350512D02*
X391152D01*
X350512Y-83275D02*
Y-64225D01*
X316775Y-34238D02*
Y6402D01*
X297725D02*
X316775D01*
X297725Y-34238D02*
Y6402D01*
Y-34238D02*
X316775D01*
X446348Y-66475D02*
X486988D01*
X446348Y-85525D02*
Y-66475D01*
Y-85525D02*
X486988D01*
Y-66475D01*
X367225Y91598D02*
Y132238D01*
Y91598D02*
X386275D01*
Y132238D01*
X367225D02*
X386275D01*
X178312Y-16760D02*
X236097D01*
X178312D02*
X178947D01*
Y16260D01*
X236097D01*
Y-16760D02*
Y16260D01*
X234275Y-61652D02*
Y-21012D01*
X215225Y-61652D02*
X234275D01*
X215225D02*
Y-21012D01*
X234275D01*
X240490Y-71847D02*
Y-14062D01*
Y-14697D02*
Y-14062D01*
Y-14697D02*
X273510D01*
Y-71847D02*
Y-14697D01*
X240490Y-71847D02*
X273510D01*
X240262Y9275D02*
X280902D01*
Y-9775D02*
Y9275D01*
X240262Y-9775D02*
X280902D01*
X240262D02*
Y9275D01*
X118525Y322348D02*
Y362988D01*
X99475Y322348D02*
X118525D01*
X99475D02*
Y362988D01*
X118525D01*
X490525Y171348D02*
Y211988D01*
X471475D02*
X490525D01*
X471475Y171348D02*
Y211988D01*
Y171348D02*
X490525D01*
X410348Y215525D02*
X450988D01*
X410348Y196475D02*
Y215525D01*
Y196475D02*
X450988D01*
Y215525D01*
X343225Y105348D02*
Y145988D01*
Y105348D02*
X362275D01*
Y145988D01*
X343225D02*
X362275D01*
X324554Y91475D02*
X365195D01*
X324554D02*
Y110525D01*
X365195D01*
Y91475D02*
Y110525D01*
X325348Y55475D02*
X365988D01*
X325348D02*
Y74525D01*
X365988D01*
Y55475D02*
Y74525D01*
X201348Y92475D02*
X241988D01*
X201348D02*
Y111525D01*
X241988D01*
Y92475D02*
Y111525D01*
X201348Y42475D02*
X241988D01*
X201348D02*
Y61525D01*
X241988D01*
Y42475D02*
Y61525D01*
X201676Y134642D02*
X242316D01*
Y115591D02*
Y134642D01*
X201676Y115591D02*
X242316D01*
X201676D02*
Y134642D01*
X201348Y86525D02*
X241988D01*
Y67475D02*
Y86525D01*
X201348Y67475D02*
X241988D01*
X201348D02*
Y86525D01*
X1147512Y138975D02*
X1188152D01*
X1147512D02*
Y158025D01*
X1188152D01*
Y138975D02*
Y158025D01*
X1147512Y134025D02*
X1188152D01*
Y114975D02*
Y134025D01*
X1147512Y114975D02*
X1188152D01*
X1147512D02*
Y134025D01*
Y109025D02*
X1188152D01*
Y89975D02*
Y109025D01*
X1147512Y89975D02*
X1188152D01*
X1147512D02*
Y109025D01*
X1057848Y2975D02*
X1098488D01*
X1057848D02*
Y22025D01*
X1098488D01*
Y2975D02*
Y22025D01*
X1057848Y28975D02*
X1098488D01*
X1057848D02*
Y48025D01*
X1098488D01*
Y28975D02*
Y48025D01*
X1249200Y545820D02*
Y568680D01*
X1193320D02*
X1249200D01*
X1193320Y545820D02*
Y568680D01*
Y545820D02*
X1249200D01*
X1057848Y53975D02*
X1098488D01*
X1057848D02*
Y73025D01*
X1098488D01*
Y53975D02*
Y73025D01*
X1057848Y79975D02*
X1098488D01*
X1057848D02*
Y99025D01*
X1098488D01*
Y79975D02*
Y99025D01*
X1057512Y125525D02*
X1098152D01*
Y106475D02*
Y125525D01*
X1057512Y106475D02*
X1098152D01*
X1057512D02*
Y125525D01*
Y151775D02*
X1098152D01*
Y132725D02*
Y151775D01*
X1057512Y132725D02*
X1098152D01*
X1057512D02*
Y151775D01*
Y158975D02*
X1098152D01*
X1057512D02*
Y178025D01*
X1098152D01*
Y158975D02*
Y178025D01*
X132848Y-61525D02*
X173488D01*
X132848D02*
Y-42475D01*
X173488D01*
Y-61525D02*
Y-42475D01*
X272260Y143153D02*
Y200938D01*
Y200303D02*
Y200938D01*
X239240Y200303D02*
X272260D01*
X239240Y143153D02*
Y200303D01*
Y143153D02*
X272260D01*
X230260Y142653D02*
Y200438D01*
Y199803D02*
Y200438D01*
X197240Y199803D02*
X230260D01*
X197240Y142653D02*
Y199803D01*
Y142653D02*
X230260D01*
X178510Y143653D02*
Y201438D01*
Y200803D02*
Y201438D01*
X145490Y200803D02*
X178510D01*
X145490Y143653D02*
Y200803D01*
Y143653D02*
X178510D01*
X273510Y206153D02*
Y263938D01*
Y263303D02*
Y263938D01*
X240490Y263303D02*
X273510D01*
X240490Y206153D02*
Y263303D01*
Y206153D02*
X273510D01*
X233260D02*
Y263938D01*
Y263303D02*
Y263938D01*
X200240Y263303D02*
X233260D01*
X200240Y206153D02*
Y263303D01*
Y206153D02*
X233260D01*
X175510D02*
Y263938D01*
Y263303D02*
Y263938D01*
X142490Y263303D02*
X175510D01*
X142490Y206153D02*
Y263303D01*
Y206153D02*
X175510D01*
X275010Y274653D02*
Y332438D01*
Y331803D02*
Y332438D01*
X241990Y331803D02*
X275010D01*
X241990Y274653D02*
Y331803D01*
Y274653D02*
X275010D01*
X229010Y275153D02*
Y332938D01*
Y332303D02*
Y332938D01*
X195990Y332303D02*
X229010D01*
X195990Y275153D02*
Y332303D01*
Y275153D02*
X229010D01*
X1402475Y960012D02*
Y1000652D01*
X1421525D01*
Y960012D02*
Y1000652D01*
X1402475Y960012D02*
X1421525D01*
X240475Y802684D02*
X259525D01*
Y843324D01*
X240475D02*
X259525D01*
X240475Y802684D02*
Y843324D01*
X317997Y773652D02*
X337047D01*
X317997Y733012D02*
Y773652D01*
Y733012D02*
X337047D01*
Y773652D01*
X335443Y252490D02*
Y285510D01*
Y252490D02*
X392593D01*
Y285510D01*
X393228D01*
X335443D02*
X393228D01*
X335443Y214490D02*
Y247510D01*
Y214490D02*
X392593D01*
Y247510D01*
X393228D01*
X335443D02*
X393228D01*
X463909Y1060348D02*
Y1100988D01*
X444859Y1060348D02*
X463909D01*
X444859D02*
Y1100988D01*
X463909D01*
X565592Y430232D02*
X606231D01*
X565592D02*
Y449282D01*
X606231D01*
Y430232D02*
Y449282D01*
X527525Y200012D02*
Y240652D01*
X508475D02*
X527525D01*
X508475Y200012D02*
Y240652D01*
Y200012D02*
X527525D01*
X339153Y683490D02*
Y716510D01*
X396303D01*
Y683490D02*
Y716510D01*
Y683490D02*
X396938D01*
X339153D02*
X396938D01*
X300475Y807848D02*
Y848488D01*
Y807848D02*
X319525D01*
Y848488D01*
X300475D02*
X319525D01*
X338312Y1076510D02*
X396097D01*
X338312D02*
X338947D01*
Y1043490D02*
Y1076510D01*
Y1043490D02*
X396097D01*
Y1076510D01*
X339153Y951490D02*
X396938D01*
X396303D02*
X396938D01*
X396303D02*
Y984510D01*
X339153D02*
X396303D01*
X339153Y951490D02*
Y984510D01*
X334443Y323510D02*
X392228D01*
X391593D02*
X392228D01*
X391593Y290490D02*
Y323510D01*
X334443Y290490D02*
X391593D01*
X334443D02*
Y323510D01*
X407475Y179305D02*
Y219946D01*
X426525D01*
Y179305D02*
Y219946D01*
X407475Y179305D02*
X426525D01*
X623475Y214348D02*
Y254988D01*
X642525D01*
Y214348D02*
Y254988D01*
X623475Y214348D02*
X642525D01*
X623475Y261012D02*
Y301652D01*
X642525D01*
Y261012D02*
Y301652D01*
X623475Y261012D02*
X642525D01*
X914510Y27772D02*
Y85557D01*
Y27772D02*
Y28407D01*
X881490D02*
X914510D01*
X881490D02*
Y85557D01*
X914510D01*
X780153Y-34490D02*
X837938D01*
X837303D02*
X837938D01*
X837303Y-67510D02*
Y-34490D01*
X780153Y-67510D02*
X837303D01*
X780153D02*
Y-34490D01*
X814012Y42525D02*
X854652D01*
Y23475D02*
Y42525D01*
X814012Y23475D02*
X854652D01*
X814012D02*
Y42525D01*
X31475Y649012D02*
Y689652D01*
X50525D01*
Y649012D02*
Y689652D01*
X31475Y649012D02*
X50525D01*
X78525Y806098D02*
Y846738D01*
X59475Y806098D02*
X78525D01*
X59475D02*
Y846738D01*
X78525D01*
X31070Y786070D02*
X53930D01*
Y841950D01*
X31070D02*
X53930D01*
X31070Y786070D02*
Y841950D01*
Y715550D02*
X53930D01*
Y771430D01*
X31070D02*
X53930D01*
X31070Y715550D02*
Y771430D01*
X86475Y782762D02*
Y823402D01*
X105525D01*
Y782762D02*
Y823402D01*
X86475Y782762D02*
X105525D01*
X542475Y432348D02*
Y472988D01*
X561525D01*
Y432348D02*
Y472988D01*
X542475Y432348D02*
X561525D01*
X565592Y454012D02*
Y494652D01*
X584641D01*
Y454012D02*
Y494652D01*
X565592Y454012D02*
X584641D01*
X488475Y510848D02*
Y551488D01*
X507525D01*
Y510848D02*
Y551488D01*
X488475Y510848D02*
X507525D01*
X368475Y508348D02*
Y548988D01*
X387525D01*
Y508348D02*
Y548988D01*
X368475Y508348D02*
X387525D01*
X467975Y671512D02*
Y712152D01*
X487025D01*
Y671512D02*
Y712152D01*
X467975Y671512D02*
X487025D01*
X440348Y720475D02*
X480988D01*
X440348D02*
Y739525D01*
X480988D01*
Y720475D02*
Y739525D01*
X440348Y750475D02*
X480988D01*
X440348D02*
Y769525D01*
X480988D01*
Y750475D02*
Y769525D01*
X440348Y780475D02*
X480988D01*
X440348D02*
Y799525D01*
X480988D01*
Y780475D02*
Y799525D01*
X440348Y810475D02*
X480988D01*
X440348D02*
Y829525D01*
X480988D01*
Y810475D02*
Y829525D01*
X341475Y881012D02*
Y921652D01*
X360525D01*
Y881012D02*
Y921652D01*
X341475Y881012D02*
X360525D01*
X343012Y1002665D02*
X383652D01*
Y983615D02*
Y1002665D01*
X343012Y983615D02*
X383652D01*
X343012D02*
Y1002665D01*
X297975Y924012D02*
Y964652D01*
X317025D01*
Y924012D02*
Y964652D01*
X297975Y924012D02*
X317025D01*
X342848Y1056891D02*
X383488D01*
Y1037841D02*
Y1056891D01*
X342848Y1037841D02*
X383488D01*
X342848D02*
Y1056891D01*
X439928Y931545D02*
X480568D01*
X439928D02*
Y950595D01*
X480568D01*
Y931545D02*
Y950595D01*
X410525Y885348D02*
Y925988D01*
X391475Y885348D02*
X410525D01*
X391475D02*
Y925988D01*
X410525D01*
X439928Y964565D02*
X480568D01*
X439928D02*
Y983615D01*
X480568D01*
Y964565D02*
Y983615D01*
X439928Y997585D02*
X480568D01*
X439928D02*
Y1016635D01*
X480568D01*
Y997585D02*
Y1016635D01*
X439928Y1030605D02*
X480568D01*
X439928D02*
Y1049655D01*
X480568D01*
Y1030605D02*
Y1049655D01*
X487025Y1060348D02*
Y1100988D01*
X467975Y1060348D02*
X487025D01*
X467975D02*
Y1100988D01*
X487025D01*
X382905Y1060958D02*
Y1101598D01*
X363855Y1060958D02*
X382905D01*
X363855D02*
Y1101598D01*
X382905D01*
X340475Y1060958D02*
Y1101598D01*
X359525D01*
Y1060958D02*
Y1101598D01*
X340475Y1060958D02*
X359525D01*
X382025Y656512D02*
Y697152D01*
X362975Y656512D02*
X382025D01*
X362975D02*
Y697152D01*
X382025D01*
X341512Y720725D02*
X382152D01*
Y701675D02*
Y720725D01*
X341512Y701675D02*
X382152D01*
X341512D02*
Y720725D01*
X342225Y828012D02*
Y868652D01*
X361275D01*
Y828012D02*
Y868652D01*
X342225Y828012D02*
X361275D01*
X384525Y781512D02*
Y822152D01*
X365475Y781512D02*
X384525D01*
X365475D02*
Y822152D01*
X384525D01*
X341512Y777025D02*
X382152D01*
Y757975D02*
Y777025D01*
X341512Y757975D02*
X382152D01*
X341512D02*
Y777025D01*
X291070Y841950D02*
X313930D01*
X291070Y786070D02*
Y841950D01*
Y786070D02*
X313930D01*
Y841950D01*
X264144Y786070D02*
X287003D01*
Y841950D01*
X264144D02*
X287003D01*
X264144Y786070D02*
Y841950D01*
X291070Y781430D02*
X313930D01*
X291070Y725550D02*
Y781430D01*
Y725550D02*
X313930D01*
Y781430D01*
X284525Y741364D02*
Y782003D01*
X265475Y741364D02*
X284525D01*
X265475D02*
Y782003D01*
X284525D01*
X259525Y755641D02*
Y796282D01*
X240475Y755641D02*
X259525D01*
X240475D02*
Y796282D01*
X259525D01*
X217358Y803348D02*
Y843988D01*
X236409D01*
Y803348D02*
Y843988D01*
X217358Y803348D02*
X236409D01*
X237306Y879525D02*
X277945D01*
Y860475D02*
Y879525D01*
X237306Y860475D02*
X277945D01*
X237306D02*
Y879525D01*
Y902642D02*
X277945D01*
Y883592D02*
Y902642D01*
X237306Y883592D02*
X277945D01*
X237306D02*
Y902642D01*
X274525Y906708D02*
Y947348D01*
X255475Y906708D02*
X274525D01*
X255475D02*
Y947348D01*
X274525D01*
X255475Y951415D02*
Y992055D01*
X274525D01*
Y951415D02*
Y992055D01*
X255475Y951415D02*
X274525D01*
X148055Y896592D02*
X188694D01*
X148055D02*
Y915642D01*
X188694D01*
Y896592D02*
Y915642D01*
X148055Y892525D02*
X188694D01*
Y873475D02*
Y892525D01*
X148055Y873475D02*
X188694D01*
X148055D02*
Y892525D01*
X81512Y908855D02*
X122152D01*
X81512D02*
Y927905D01*
X122152D01*
Y908855D02*
Y927905D01*
X81012Y952525D02*
X121652D01*
Y933475D02*
Y952525D01*
X81012Y933475D02*
X121652D01*
X81012D02*
Y952525D01*
X200943Y915990D02*
X258728D01*
X258093D02*
X258728D01*
X258093D02*
Y949010D01*
X200943D02*
X258093D01*
X200943Y915990D02*
Y949010D01*
X235943Y820990D02*
X293728D01*
X293093D02*
X293728D01*
X293093D02*
Y854010D01*
X235943D02*
X293093D01*
X235943Y820990D02*
Y854010D01*
X342231Y847025D02*
X382872D01*
X342231Y827975D02*
Y847025D01*
Y827975D02*
X382872D01*
Y847025D01*
X297975Y920348D02*
Y960988D01*
Y920348D02*
X317025D01*
Y960988D01*
X297975D02*
X317025D01*
X297975Y971512D02*
Y1012152D01*
X317025D01*
Y971512D02*
Y1012152D01*
X297975Y971512D02*
X317025D01*
X262975Y923076D02*
Y963717D01*
Y923076D02*
X282025D01*
Y963717D01*
X262975D02*
X282025D01*
X365475Y891762D02*
Y932402D01*
X384525D01*
Y891762D02*
Y932402D01*
X365475Y891762D02*
X384525D01*
X383525Y936512D02*
Y977152D01*
X364475Y936512D02*
X383525D01*
X364475D02*
Y977152D01*
X383525D01*
X398847Y775490D02*
Y808510D01*
X341697Y775490D02*
X398847D01*
X341697D02*
Y808510D01*
X341062D02*
X341697D01*
X341062D02*
X398847D01*
X384525Y827848D02*
Y868488D01*
X365475Y827848D02*
X384525D01*
X365475D02*
Y868488D01*
X384525D01*
X86762Y846775D02*
X127402D01*
Y827725D02*
Y846775D01*
X86762Y827725D02*
X127402D01*
X86762D02*
Y846775D01*
X899550Y-59430D02*
Y-36570D01*
Y-59430D02*
X955430D01*
Y-36570D01*
X899550D02*
X955430D01*
X1147512Y182025D02*
X1188152D01*
Y162975D02*
Y182025D01*
X1147512Y162975D02*
X1188152D01*
X1147512D02*
Y182025D01*
X96570Y425450D02*
X119430D01*
X96570Y369570D02*
Y425450D01*
Y369570D02*
X119430D01*
Y425450D01*
X472475Y126642D02*
Y167281D01*
Y126642D02*
X491525D01*
Y167281D01*
X472475D02*
X491525D01*
X409408Y91005D02*
Y131645D01*
X390359D02*
X409408D01*
X390359Y91005D02*
Y131645D01*
Y91005D02*
X409408D01*
X413475D02*
Y131645D01*
Y91005D02*
X432525D01*
Y131645D01*
X413475D02*
X432525D01*
X401348Y-66475D02*
X441988D01*
X401348Y-85525D02*
Y-66475D01*
Y-85525D02*
X441988D01*
Y-66475D01*
X401348Y-60525D02*
X441988D01*
Y-41475D01*
X401348D02*
X441988D01*
X401348Y-60525D02*
Y-41475D01*
X997790Y29185D02*
Y74270D01*
Y29185D02*
X999695Y27280D01*
X967563Y28804D02*
Y74270D01*
X966040Y27280D02*
X967563Y28804D01*
X70225Y352988D02*
X89275D01*
Y312348D02*
Y352988D01*
X70225Y312348D02*
X89275D01*
X70225D02*
Y352988D01*
X347512Y1083975D02*
X388152D01*
Y1103025D01*
X347512D02*
X388152D01*
X347512Y1083975D02*
Y1103025D01*
X351848Y675775D02*
X392488D01*
X351848Y656725D02*
Y675775D01*
Y656725D02*
X392488D01*
Y675775D01*
D71*
X399625Y-88100D02*
Y-11900D01*
X291675D02*
X399625D01*
X291675Y-88100D02*
Y-11900D01*
Y-88100D02*
X399625D01*
X291675Y-30950D02*
X399625D01*
Y-11900D02*
Y-11875D01*
X401200Y-10300D01*
X11900Y345325D02*
X88100D01*
Y453275D01*
X11900D02*
X88100D01*
X11900Y345325D02*
Y453275D01*
X69050Y345325D02*
Y453275D01*
X88100Y345325D02*
X88125D01*
X89700Y343750D01*
X11900Y476725D02*
X88100D01*
Y584675D01*
X11900D02*
X88100D01*
X11900Y476725D02*
Y584675D01*
X69050Y476725D02*
Y584675D01*
X88100Y476725D02*
X88125D01*
X89700Y475150D01*
X1153600Y247650D02*
X1204400D01*
Y400050D01*
X1153600D02*
X1204400D01*
X1153600Y247650D02*
Y400050D01*
X1179000Y234950D02*
Y247650D01*
Y400050D02*
Y412750D01*
X1257100Y487100D02*
Y537900D01*
X1104700D02*
X1257100D01*
X1104700Y487100D02*
Y537900D01*
Y487100D02*
X1257100D01*
Y512500D02*
X1269800D01*
X1092000D02*
X1104700D01*
X1105700Y307775D02*
X1143800D01*
Y403025D01*
X1105700D02*
X1143800D01*
X1105700Y307775D02*
Y403025D01*
X1124750Y298250D02*
Y307775D01*
Y403025D02*
Y412550D01*
X11900Y160125D02*
X88100D01*
Y318875D01*
X11900D02*
X88100D01*
X11900Y160125D02*
Y318875D01*
X69050Y160125D02*
Y318875D01*
X88100Y160125D02*
X88125D01*
X89700Y158550D01*
X123020Y637408D02*
Y662808D01*
X78570Y618358D02*
X103970D01*
X59521Y637408D02*
Y662808D01*
X78570Y681858D02*
X103970D01*
X78570Y-18250D02*
X103970D01*
X123020Y-62700D02*
Y-37300D01*
X78570Y-81750D02*
X103970D01*
X59520Y-62700D02*
Y-37300D01*
X471700Y1160000D02*
X481225D01*
X690775D02*
X700300D01*
X481225Y1131425D02*
X690775D01*
X481225D02*
Y1188575D01*
X690775D01*
Y1131425D02*
Y1188575D01*
X482700Y610000D02*
X492225D01*
X701775D02*
X711300D01*
X492225Y581425D02*
X701775D01*
X492225D02*
Y638575D01*
X701775D01*
Y581425D02*
Y638575D01*
X462395Y446980D02*
Y453330D01*
Y446980D02*
X481445D01*
Y450155D01*
X513195D01*
Y446980D02*
Y450155D01*
Y446980D02*
X532245D01*
Y450155D01*
Y469205D02*
Y497780D01*
X462395D02*
X532245D01*
X462395Y466030D02*
Y497780D01*
X355575Y447080D02*
Y453430D01*
Y447080D02*
X374625D01*
Y450255D01*
X406375D01*
Y447080D02*
Y450255D01*
Y447080D02*
X425425D01*
Y450255D01*
Y469305D02*
Y497880D01*
X355575D02*
X425425D01*
X355575Y466130D02*
Y497880D01*
X412676Y-42219D02*
X409502D01*
X411089D01*
Y-51741D01*
X412676Y-50154D01*
X57781Y332274D02*
Y335448D01*
Y333861D01*
X48259D01*
X49846Y332274D01*
X57781Y463674D02*
Y466848D01*
Y465261D01*
X48259D01*
X49846Y463674D01*
X57781Y147074D02*
Y150248D01*
Y148661D01*
X48259D01*
X49846Y147074D01*
D118*
X446003Y102399D02*
X447002D01*
X446003D02*
X543996D01*
Y4402D02*
Y102399D01*
X446003Y4402D02*
X543996D01*
X446003D02*
Y102399D01*
X447002D01*
X446003D02*
X447002D01*
X446003D02*
X543996D01*
Y4402D02*
Y102399D01*
X446003Y4402D02*
X543996D01*
X446003D02*
Y102399D01*
X447002D01*
M02*
