G04 Layer_Color=65535*
%FSLAX44Y44*%
%MOMM*%
G71*
G01*
G75*
%ADD36C,0.3000*%
%ADD38C,0.2540*%
%ADD65C,0.2500*%
%ADD66C,0.6000*%
%ADD67C,0.1000*%
%ADD68C,0.4000*%
%ADD69C,0.2000*%
%ADD70C,0.1524*%
%ADD71C,0.2032*%
G36*
X139194Y1034543D02*
X139234Y1034446D01*
Y1029584D01*
X142098D01*
X142195Y1029544D01*
X142235Y1029446D01*
Y1027448D01*
X142195Y1027351D01*
X142098Y1027311D01*
X139234D01*
Y1019463D01*
X139324Y1018923D01*
X139786Y1017918D01*
X140564Y1017140D01*
X141569Y1016677D01*
X142109Y1016588D01*
X143097Y1016592D01*
X143097Y1016591D01*
X143097Y1016592D01*
X143146Y1016572D01*
X143194Y1016552D01*
X143194Y1016552D01*
X143194Y1016551D01*
X143214Y1016504D01*
X143235Y1016455D01*
X143235Y1016454D01*
X143235Y1016454D01*
Y1014452D01*
X143194Y1014355D01*
X143097Y1014314D01*
X141099D01*
X141082Y1014322D01*
X141063Y1014319D01*
X140345Y1014515D01*
X140330Y1014526D01*
X140312Y1014529D01*
X139025Y1015275D01*
X139013Y1015290D01*
X138996Y1015297D01*
X137944Y1016350D01*
X137937Y1016367D01*
X137922Y1016378D01*
X137175Y1017665D01*
X137173Y1017683D01*
X137162Y1017698D01*
X136966Y1018416D01*
X136968Y1018435D01*
X136961Y1018452D01*
Y1027311D01*
X134097D01*
X134000Y1027351D01*
X133960Y1027448D01*
Y1029446D01*
X134000Y1029544D01*
X134097Y1029584D01*
X136961D01*
Y1034446D01*
X137001Y1034543D01*
X137099Y1034583D01*
X139097D01*
X139194Y1034543D01*
D02*
G37*
G36*
X112316Y1028578D02*
X112343D01*
X114548Y1027665D01*
X114567Y1027646D01*
X114593Y1027635D01*
X116280Y1025948D01*
X116290Y1025923D01*
X116310Y1025903D01*
X117223Y1023699D01*
Y1023671D01*
X117233Y1023646D01*
Y1022453D01*
Y1021454D01*
X117193Y1021357D01*
X117096Y1021316D01*
X107234D01*
Y1020457D01*
X107301Y1019728D01*
X107837Y1018366D01*
X108832Y1017303D01*
X110150Y1016682D01*
X111604Y1016591D01*
X112988Y1017043D01*
X114109Y1017974D01*
X114810Y1019259D01*
X114968Y1019980D01*
X114990Y1020012D01*
X115005Y1020048D01*
X115005Y1020048D01*
X115019Y1020053D01*
X115028Y1020066D01*
X115066Y1020073D01*
X115102Y1020088D01*
X117096Y1020088D01*
X117096D01*
X117136Y1020072D01*
X117193Y1020048D01*
Y1020048D01*
X117193D01*
X117217Y1019991D01*
X117233Y1019951D01*
Y1019951D01*
X117233Y1019451D01*
X117229Y1019441D01*
X117232Y1019430D01*
X117139Y1018830D01*
X117131Y1018817D01*
X117132Y1018803D01*
X116707Y1017664D01*
X116697Y1017653D01*
X116695Y1017639D01*
X116050Y1016608D01*
X116039Y1016600D01*
X116033Y1016586D01*
X115195Y1015706D01*
X115181Y1015700D01*
X115174Y1015688D01*
X114674Y1015341D01*
X114666Y1015340D01*
X114660Y1015332D01*
X114468Y1015232D01*
X113831Y1014894D01*
X113816Y1014892D01*
X113803Y1014883D01*
X112413Y1014500D01*
X112397Y1014502D01*
X112383Y1014495D01*
X110943Y1014425D01*
X110928Y1014431D01*
X110913Y1014427D01*
X109492Y1014673D01*
X109479Y1014681D01*
X109463Y1014681D01*
X108130Y1015230D01*
X108119Y1015242D01*
X108104Y1015245D01*
X106922Y1016072D01*
X106914Y1016085D01*
X106900Y1016092D01*
X105927Y1017156D01*
X105922Y1017171D01*
X105909Y1017181D01*
X105192Y1018432D01*
X105190Y1018447D01*
X105180Y1018459D01*
X104967Y1019148D01*
X104969Y1019169D01*
X104961Y1019189D01*
X104961Y1019189D01*
X104961Y1022453D01*
X104961Y1022453D01*
Y1023646D01*
X104972Y1023671D01*
Y1023699D01*
X105885Y1025903D01*
X105904Y1025923D01*
X105915Y1025948D01*
X107602Y1027635D01*
X107627Y1027646D01*
X107647Y1027665D01*
X109852Y1028578D01*
X109879D01*
X109904Y1028589D01*
X112291D01*
X112316Y1028578D01*
D02*
G37*
G36*
X83695Y1034543D02*
X83735Y1034446D01*
Y1019451D01*
X83723Y1019422D01*
X83721Y1019390D01*
X83163Y1018276D01*
X83149Y1018263D01*
X83142Y1018244D01*
X81461Y1016405D01*
X81443Y1016397D01*
X81432Y1016381D01*
X79313Y1015071D01*
X79293Y1015068D01*
X79278Y1015055D01*
X76881Y1014374D01*
X76862Y1014377D01*
X76843Y1014369D01*
X74352Y1014369D01*
X74334Y1014376D01*
X74314Y1014374D01*
X71917Y1015055D01*
X71902Y1015067D01*
X71883Y1015070D01*
X69763Y1016380D01*
X69751Y1016395D01*
X69734Y1016404D01*
X68052Y1018243D01*
X68046Y1018261D01*
X68031Y1018274D01*
X67474Y1019388D01*
X67471Y1019420D01*
X67459Y1019450D01*
Y1019450D01*
X67462Y1034446D01*
X67479Y1034486D01*
X67503Y1034543D01*
X67503D01*
Y1034543D01*
X67560Y1034567D01*
X67600Y1034583D01*
X71596D01*
X71693Y1034543D01*
X71734Y1034446D01*
Y1020498D01*
X72058Y1020082D01*
X72913Y1019323D01*
X73921Y1018793D01*
X75027Y1018520D01*
X76166D01*
X77272Y1018793D01*
X78280Y1019323D01*
X79135Y1020082D01*
X79460Y1020498D01*
Y1034446D01*
X79500Y1034543D01*
X79597Y1034583D01*
X83598D01*
X83695Y1034543D01*
D02*
G37*
G36*
X189194Y1034044D02*
X189234Y1033946D01*
Y1031948D01*
X189194Y1031851D01*
X189097Y1031811D01*
X179734D01*
Y1025587D01*
X189097D01*
X189194Y1025547D01*
X189234Y1025450D01*
Y1023452D01*
X189194Y1023355D01*
X189097Y1023314D01*
X179734D01*
Y1016088D01*
X189097D01*
X189194Y1016048D01*
X189234Y1015950D01*
Y1013952D01*
X189194Y1013855D01*
X189097Y1013815D01*
X177599D01*
X177502Y1013855D01*
X177461Y1013952D01*
Y1033946D01*
X177502Y1034044D01*
X177599Y1034084D01*
X189097D01*
X189194Y1034044D01*
D02*
G37*
G36*
X64696Y1034543D02*
X64736Y1034446D01*
Y1031449D01*
X64696Y1031351D01*
X64598Y1031311D01*
X58737D01*
Y1014452D01*
X58697Y1014355D01*
X58600Y1014314D01*
X53596D01*
X53499Y1014355D01*
X53458Y1014452D01*
Y1031311D01*
X47597D01*
X47500Y1031351D01*
X47460Y1031449D01*
Y1034446D01*
X47500Y1034543D01*
X47597Y1034583D01*
X64598D01*
X64696Y1034543D01*
D02*
G37*
G36*
X122197D02*
X122237Y1034446D01*
Y1014452D01*
X122197Y1014355D01*
X122100Y1014314D01*
X120097D01*
X120000Y1014355D01*
X119960Y1014452D01*
Y1034446D01*
X120000Y1034543D01*
X120097Y1034583D01*
X122100D01*
X122197Y1034543D01*
D02*
G37*
G36*
X95613Y1034577D02*
X95628Y1034580D01*
X96762Y1034332D01*
X96775Y1034323D01*
X96791Y1034322D01*
X98890Y1033330D01*
X98901Y1033318D01*
X98916Y1033314D01*
X100739Y1031878D01*
X100747Y1031863D01*
X100761Y1031856D01*
X102217Y1030047D01*
X102221Y1030032D01*
X102233Y1030021D01*
X103246Y1027933D01*
X103247Y1027917D01*
X103257Y1027904D01*
X103776Y1025642D01*
X103774Y1025626D01*
X103780Y1025611D01*
X103780Y1023290D01*
X103773Y1023275D01*
X103776Y1023259D01*
X103256Y1020997D01*
X103247Y1020984D01*
X103246Y1020968D01*
X102233Y1018880D01*
X102220Y1018869D01*
X102216Y1018854D01*
X100761Y1017046D01*
X100747Y1017038D01*
X100739Y1017024D01*
X98916Y1015587D01*
X98900Y1015583D01*
X98889Y1015571D01*
X96791Y1014580D01*
X96775Y1014579D01*
X96761Y1014570D01*
X95628Y1014322D01*
X95612Y1014324D01*
X95598Y1014318D01*
X88597Y1014314D01*
X88597Y1014314D01*
X88597Y1014314D01*
X88547Y1014335D01*
X88500Y1014354D01*
X88500Y1014355D01*
X88500Y1014355D01*
X88481Y1014402D01*
X88460Y1014452D01*
X88460Y1014452D01*
X88460Y1014452D01*
Y1017453D01*
Y1034446D01*
X88477Y1034488D01*
X88490Y1034532D01*
X88497Y1034536D01*
X88500Y1034543D01*
X88531Y1034556D01*
X88542Y1034560D01*
X88582Y1034583D01*
X88590Y1034580D01*
X88597Y1034583D01*
X95599D01*
X95613Y1034577D01*
D02*
G37*
G36*
X219562Y1034123D02*
X219580Y1034126D01*
X221416Y1033656D01*
X221430Y1033645D01*
X221448Y1033643D01*
X223109Y1032732D01*
X223120Y1032718D01*
X223137Y1032712D01*
X224521Y1031417D01*
X224528Y1031401D01*
X224543Y1031391D01*
X225562Y1029794D01*
X225565Y1029776D01*
X225577Y1029763D01*
X226168Y1027962D01*
X226166Y1027945D01*
X226174Y1027929D01*
X226237Y1026983D01*
X226236Y1026979D01*
X226238Y1026974D01*
Y1026974D01*
X226233Y1026964D01*
Y1020460D01*
X226238Y1020450D01*
Y1020450D01*
X226236Y1020446D01*
X226237Y1020441D01*
X226174Y1019496D01*
X226166Y1019480D01*
X226167Y1019462D01*
X225575Y1017663D01*
X225564Y1017649D01*
X225561Y1017632D01*
X224541Y1016035D01*
X224527Y1016025D01*
X224519Y1016009D01*
X223136Y1014715D01*
X223119Y1014709D01*
X223108Y1014695D01*
X221447Y1013785D01*
X221429Y1013783D01*
X221415Y1013772D01*
X219580Y1013303D01*
X219562Y1013305D01*
X219546Y1013298D01*
X217651Y1013298D01*
X217635Y1013305D01*
X217617Y1013303D01*
X215782Y1013773D01*
X215768Y1013783D01*
X215750Y1013785D01*
X214089Y1014695D01*
X214078Y1014709D01*
X214061Y1014715D01*
X212678Y1016009D01*
X212670Y1016025D01*
X212656Y1016036D01*
X211637Y1017632D01*
X211633Y1017650D01*
X211622Y1017663D01*
X211030Y1019463D01*
X211031Y1019480D01*
X211024Y1019496D01*
X210960Y1020441D01*
X210962Y1020446D01*
X210960Y1020450D01*
X210960Y1026974D01*
X210962Y1026979D01*
X210960Y1026983D01*
X211023Y1027928D01*
X211031Y1027944D01*
X211029Y1027962D01*
X211621Y1029762D01*
X211632Y1029776D01*
X211635Y1029793D01*
X212654Y1031391D01*
X212669Y1031401D01*
X212676Y1031417D01*
X214060Y1032712D01*
X214077Y1032718D01*
X214088Y1032732D01*
X215749Y1033643D01*
X215767Y1033645D01*
X215781Y1033655D01*
X217617Y1034126D01*
X217635Y1034123D01*
X217651Y1034130D01*
X219546Y1034130D01*
X219562Y1034123D01*
D02*
G37*
G36*
X167096Y1034084D02*
X167110Y1034078D01*
X167125Y1034081D01*
X168259Y1033833D01*
X168272Y1033823D01*
X168289Y1033823D01*
X170388Y1032832D01*
X170399Y1032820D01*
X170414Y1032815D01*
X172238Y1031379D01*
X172246Y1031365D01*
X172260Y1031357D01*
X173716Y1029549D01*
X173720Y1029533D01*
X173732Y1029523D01*
X174746Y1027434D01*
X174747Y1027418D01*
X174756Y1027405D01*
X175276Y1025143D01*
X175274Y1025127D01*
X175280Y1025112D01*
X175280Y1022790D01*
X175273Y1022775D01*
X175276Y1022759D01*
X174756Y1020497D01*
X174747Y1020484D01*
X174746Y1020468D01*
X173732Y1018379D01*
X173720Y1018369D01*
X173715Y1018353D01*
X172259Y1016545D01*
X172245Y1016537D01*
X172237Y1016523D01*
X170413Y1015087D01*
X170398Y1015083D01*
X170387Y1015071D01*
X168288Y1014080D01*
X168272Y1014079D01*
X168258Y1014070D01*
X167124Y1013822D01*
X167109Y1013825D01*
X167105Y1013823D01*
X167095Y1013819D01*
X167095D01*
X167095Y1013819D01*
X167095Y1013819D01*
X160098Y1013815D01*
X160098Y1013815D01*
X160098Y1013815D01*
X160048Y1013836D01*
X160001Y1013855D01*
X160001Y1013855D01*
X160001Y1013855D01*
X159981Y1013902D01*
X159961Y1013952D01*
X159961Y1013952D01*
X159961Y1013952D01*
Y1016954D01*
Y1033946D01*
X159978Y1033988D01*
X159991Y1034032D01*
X159998Y1034036D01*
X160001Y1034044D01*
X160043Y1034061D01*
X160083Y1034083D01*
X160091Y1034081D01*
X160098Y1034084D01*
X162096D01*
X167096Y1034084D01*
D02*
G37*
G36*
X69620Y1054577D02*
X69639Y1054577D01*
X69645Y1054578D01*
X69645D01*
X69645Y1054577D01*
X69646Y1054577D01*
X69668Y1054557D01*
X69696Y1054545D01*
X69705Y1054522D01*
X69723Y1054505D01*
X69724Y1054475D01*
X69735Y1054448D01*
X69726Y1054425D01*
X69727Y1054400D01*
X69724Y1054398D01*
X69377Y1053466D01*
X69369Y1053458D01*
X69367Y1053446D01*
X68366Y1051721D01*
X68356Y1051713D01*
X68352Y1051702D01*
X67076Y1050169D01*
X67065Y1050164D01*
X67060Y1050153D01*
X65544Y1048857D01*
X65532Y1048853D01*
X65525Y1048843D01*
X64670Y1048332D01*
X64227Y1047994D01*
X63475Y1047143D01*
X62969Y1046131D01*
X62739Y1045019D01*
X62734Y1044500D01*
X62949Y1044191D01*
X63610Y1043718D01*
X64404Y1043585D01*
X65183Y1043817D01*
X65516Y1044060D01*
X67513Y1045558D01*
X67556Y1045569D01*
X67596Y1045586D01*
X67596D01*
X67597Y1045585D01*
X67598Y1045586D01*
X67607Y1045582D01*
X67615Y1045584D01*
X67653Y1045562D01*
X67693Y1045546D01*
X67694Y1045544D01*
X67695Y1045544D01*
X67698Y1045535D01*
X67706Y1045531D01*
X67717Y1045489D01*
X67733Y1045448D01*
X67733Y1045447D01*
X67733Y1045446D01*
X67722Y1044805D01*
X67720Y1044799D01*
X67721Y1044792D01*
X67584Y1043518D01*
X67581Y1043512D01*
X67582Y1043505D01*
X67331Y1042248D01*
X67327Y1042242D01*
X67328Y1042236D01*
X66965Y1041006D01*
X66960Y1041001D01*
X66961Y1040994D01*
X66724Y1040398D01*
X66723Y1040397D01*
X66723Y1040389D01*
X66722Y1040389D01*
X66722Y1040389D01*
X66489Y1039900D01*
X66480Y1039892D01*
X66477Y1039880D01*
X65851Y1038995D01*
X65841Y1038988D01*
X65836Y1038977D01*
X65070Y1038210D01*
X65059Y1038206D01*
X65052Y1038195D01*
X64168Y1037569D01*
X64156Y1037566D01*
X64148Y1037557D01*
X63667Y1037327D01*
X60675Y1035334D01*
X60643Y1035328D01*
X60614Y1035312D01*
X60606Y1035314D01*
X60598Y1035311D01*
X60598D01*
X60585Y1035317D01*
X60571Y1035314D01*
X60544Y1035332D01*
X60513Y1035341D01*
X60509Y1035348D01*
X60501Y1035351D01*
X60496Y1035365D01*
X60484Y1035372D01*
X60478Y1035404D01*
X60462Y1035433D01*
X60464Y1035441D01*
X60461Y1035449D01*
X60466Y1035462D01*
X60464Y1035476D01*
X60482Y1035503D01*
X60491Y1035534D01*
X60988Y1036162D01*
X61783Y1037548D01*
X62287Y1039061D01*
X62481Y1040647D01*
X62469Y1041088D01*
X62328Y1040923D01*
X62315Y1040917D01*
X62308Y1040904D01*
X61401Y1040196D01*
X61387Y1040192D01*
X61377Y1040181D01*
X60347Y1039666D01*
X60333Y1039665D01*
X60322Y1039656D01*
X59210Y1039355D01*
X59196Y1039356D01*
X59183Y1039350D01*
X58638Y1039314D01*
X58632Y1039310D01*
X58631Y1039310D01*
X58631Y1039310D01*
X58631D01*
X58242Y1039222D01*
X58198Y1039229D01*
X58153Y1039231D01*
X57432Y1039573D01*
X57401Y1039606D01*
X57367Y1039636D01*
X57010Y1040350D01*
X57007Y1040394D01*
X56999Y1040439D01*
X57158Y1041221D01*
X57183Y1041258D01*
X57203Y1041298D01*
X57507Y1041557D01*
X57519Y1041560D01*
X57906Y1041940D01*
X58587Y1042830D01*
X59087Y1043829D01*
X59389Y1044908D01*
X59390Y1044914D01*
X59328Y1044826D01*
X59325Y1044823D01*
X59324Y1044819D01*
X58504Y1043771D01*
X58500Y1043769D01*
X58499Y1043765D01*
X57623Y1042763D01*
X57619Y1042761D01*
X57618Y1042757D01*
X56687Y1041805D01*
X56683Y1041804D01*
X56682Y1041800D01*
X56191Y1041351D01*
X56180Y1041347D01*
X56174Y1041338D01*
X54685Y1040343D01*
X54291Y1039959D01*
X53609Y1039068D01*
X53109Y1038068D01*
X52807Y1036989D01*
X52733Y1036430D01*
X52711Y1036392D01*
X52694Y1036351D01*
X52685Y1036347D01*
X52681Y1036339D01*
X52638Y1036328D01*
X52597Y1036311D01*
X52588Y1036314D01*
X52579Y1036312D01*
X52541Y1036334D01*
X52500Y1036351D01*
X52496Y1036360D01*
X52488Y1036365D01*
X52476Y1036407D01*
X52460Y1036448D01*
X52460Y1038942D01*
X52393Y1040348D01*
X52400Y1040368D01*
X52397Y1040389D01*
X53096Y1043121D01*
X53108Y1043138D01*
X53112Y1043159D01*
X54582Y1045566D01*
X54599Y1045578D01*
X54608Y1045597D01*
X56721Y1047466D01*
X56741Y1047473D01*
X56755Y1047488D01*
X58039Y1048071D01*
X58042Y1048071D01*
X58045Y1048074D01*
X60547Y1049077D01*
X60548Y1049077D01*
X60550Y1049078D01*
X64536Y1050572D01*
X65197Y1050995D01*
X66502Y1051916D01*
X67748Y1052913D01*
X68933Y1053984D01*
X69501Y1054546D01*
X69521Y1054554D01*
X69539Y1054574D01*
X69540D01*
X69540Y1054574D01*
X69572Y1054575D01*
X69599Y1054586D01*
X69620Y1054577D01*
D02*
G37*
G36*
X208197Y1034044D02*
X208237Y1033946D01*
Y1013453D01*
X208197Y1013355D01*
X208100Y1013315D01*
X206098D01*
X206000Y1013355D01*
X205960Y1013453D01*
Y1030516D01*
X200211Y1022374D01*
X200189Y1022359D01*
X200174Y1022337D01*
X200146Y1022332D01*
X200122Y1022317D01*
X200096Y1022323D01*
X200070Y1022318D01*
X200047Y1022334D01*
X200020Y1022340D01*
X200005Y1022363D01*
X199984Y1022378D01*
X194737Y1030484D01*
Y1013453D01*
X194697Y1013355D01*
X194600Y1013315D01*
X192598D01*
X192500Y1013355D01*
X192460Y1013453D01*
Y1033946D01*
X192500Y1034044D01*
X192598Y1034084D01*
X194600D01*
X194614Y1034078D01*
X194629Y1034081D01*
X194661Y1034059D01*
X194697Y1034044D01*
X194703Y1034030D01*
X194715Y1034021D01*
X200104Y1025695D01*
X205985Y1034026D01*
X205996Y1034032D01*
X206000Y1034044D01*
X206039Y1034060D01*
X206074Y1034082D01*
X206086Y1034079D01*
X206098Y1034084D01*
X208100D01*
X208197Y1034044D01*
D02*
G37*
G36*
X133195Y1036545D02*
X133236Y1036448D01*
Y1034446D01*
X133235Y1034446D01*
X133236Y1034445D01*
X133215Y1034397D01*
X133195Y1034349D01*
X133195Y1034349D01*
X133195Y1034348D01*
X133146Y1034329D01*
X133098Y1034308D01*
X133098Y1034308D01*
X133097Y1034308D01*
X132114Y1034312D01*
X131590Y1034194D01*
X130612Y1033705D01*
X129842Y1032935D01*
X129353Y1031956D01*
X129235Y1031433D01*
Y1029584D01*
X132099D01*
X132196Y1029544D01*
X132236Y1029446D01*
Y1027448D01*
X132196Y1027351D01*
X132099Y1027311D01*
X129235D01*
X129235Y1014452D01*
X129195Y1014355D01*
X129097Y1014314D01*
X127099D01*
X127002Y1014355D01*
X126962Y1014452D01*
Y1027311D01*
X124098D01*
X124001Y1027351D01*
X123961Y1027448D01*
Y1029446D01*
X124001Y1029544D01*
X124098Y1029584D01*
X126962D01*
Y1032442D01*
X126959Y1032449D01*
Y1032449D01*
X126967Y1032468D01*
X126965Y1032488D01*
X127181Y1033197D01*
X127192Y1033210D01*
X127194Y1033227D01*
X127956Y1034497D01*
X127970Y1034507D01*
X127977Y1034523D01*
X129024Y1035570D01*
X129040Y1035576D01*
X129051Y1035590D01*
X130321Y1036351D01*
X130338Y1036354D01*
X130352Y1036365D01*
X131060Y1036580D01*
X131081Y1036578D01*
X131100Y1036586D01*
X133098Y1036586D01*
X133195Y1036545D01*
D02*
G37*
%LPC*%
G36*
X111755Y1026382D02*
X110440D01*
X109197Y1025954D01*
X108161Y1025145D01*
X107441Y1024038D01*
X107234Y1023429D01*
Y1023090D01*
X114960D01*
Y1023429D01*
X114754Y1024038D01*
X114034Y1025145D01*
X112998Y1025954D01*
X111755Y1026382D01*
D02*
G37*
G36*
X95574Y1032310D02*
X90737D01*
Y1016592D01*
X95574Y1016592D01*
X96789Y1017050D01*
X98959Y1018544D01*
X100539Y1020644D01*
X101372Y1023137D01*
Y1025765D01*
X100539Y1028258D01*
X98959Y1030358D01*
X96789Y1031851D01*
X95574Y1032310D01*
D02*
G37*
G36*
X219531Y1031756D02*
X217666D01*
X215909Y1031130D01*
X214464Y1029949D01*
X213497Y1028347D01*
X213237Y1027462D01*
Y1020450D01*
Y1019970D01*
X213497Y1019085D01*
X214464Y1017482D01*
X215908Y1016300D01*
X217666Y1015673D01*
X219532D01*
X221289Y1016300D01*
X222734Y1017482D01*
X223700Y1019085D01*
X223960Y1019971D01*
Y1020450D01*
Y1020451D01*
Y1027462D01*
X223700Y1028347D01*
X222733Y1029949D01*
X221288Y1031130D01*
X219531Y1031756D01*
D02*
G37*
G36*
X167072Y1031815D02*
X162234Y1031811D01*
Y1016088D01*
X167071Y1016088D01*
X168287Y1016546D01*
X170459Y1018040D01*
X172042Y1020141D01*
X172876Y1022636D01*
X172876Y1025266D01*
X172042Y1027761D01*
X170460Y1029862D01*
X168288Y1031356D01*
X167072Y1031815D01*
D02*
G37*
%LPD*%
D36*
X1470000Y177500D02*
Y462404D01*
X1210000Y177500D02*
Y457404D01*
Y177500D02*
X1470000D01*
Y462404D02*
Y465000D01*
X1210000D02*
X1470000D01*
X1210000Y457404D02*
Y465000D01*
D38*
X1119790Y177500D02*
G03*
X1119790Y177500I-790J0D01*
G01*
X459652Y228207D02*
G03*
X459652Y228207I-2152J0D01*
G01*
X810653Y-26000D02*
G03*
X810653Y-26000I-1753J0D01*
G01*
X459750Y297750D02*
G03*
X459750Y297750I-2500J0D01*
G01*
X743773Y55404D02*
G03*
X743773Y55404I-19974J0D01*
G01*
X515773Y54004D02*
G03*
X515773Y54004I-19974J0D01*
G01*
X229750Y851250D02*
X244500D01*
X248500Y847250D01*
Y844000D02*
Y847250D01*
X758190Y620014D02*
Y1140206D01*
Y620014D02*
X1294130D01*
Y1140206D01*
X758190D02*
X1294130D01*
X49500Y853750D02*
X57250Y846000D01*
X59475D01*
X1288007Y44991D02*
X1357993D01*
X1377991Y-44993D02*
Y24993D01*
X1288007Y-64991D02*
X1357993D01*
X1268009Y-44993D02*
Y24993D01*
X1315000Y559000D02*
X1445000D01*
Y619000D01*
X1315000D02*
X1445000D01*
X1315000Y559000D02*
Y619000D01*
X675002Y104798D02*
X676001D01*
X675002Y6801D02*
Y104798D01*
Y6801D02*
X772999D01*
Y104798D01*
X675002D02*
X772999D01*
X447002Y103398D02*
X544999D01*
Y5401D02*
Y103398D01*
X447002Y5401D02*
X544999D01*
X447002D02*
Y103398D01*
X448001D01*
X321750Y774250D02*
Y784250D01*
X334750Y797250D01*
X384525Y880475D02*
Y891762D01*
Y880475D02*
X391250Y873750D01*
X656185Y201000D02*
X640950Y190843D01*
X656185D02*
X640950Y201000D01*
X656185Y175608D02*
Y185765D01*
X648568D01*
Y180687D01*
Y185765D01*
X640950D01*
Y170530D02*
Y165452D01*
Y167991D01*
X656185D01*
X653646Y170530D01*
X1139500Y25496D02*
Y15499D01*
X1141499Y13500D01*
X1145498D01*
X1147497Y15499D01*
Y25496D01*
X1159493D02*
X1155495Y23497D01*
X1151496Y19498D01*
Y15499D01*
X1153495Y13500D01*
X1157494D01*
X1159493Y15499D01*
Y17499D01*
X1157494Y19498D01*
X1151496D01*
X115996Y91250D02*
X105999D01*
X104000Y89251D01*
Y85252D01*
X105999Y83253D01*
X115996D01*
Y71256D02*
Y79254D01*
X109998D01*
X111997Y75255D01*
Y73256D01*
X109998Y71256D01*
X105999D01*
X104000Y73256D01*
Y77255D01*
X105999Y79254D01*
X153750Y314746D02*
Y304749D01*
X155749Y302750D01*
X159748D01*
X161747Y304749D01*
Y314746D01*
X171744Y302750D02*
Y314746D01*
X165746Y308748D01*
X173743D01*
X255000Y139746D02*
Y129749D01*
X256999Y127750D01*
X260998D01*
X262997Y129749D01*
Y139746D01*
X266996Y137747D02*
X268995Y139746D01*
X272994D01*
X274993Y137747D01*
Y135747D01*
X272994Y133748D01*
X270995D01*
X272994D01*
X274993Y131749D01*
Y129749D01*
X272994Y127750D01*
X268995D01*
X266996Y129749D01*
X1194000Y119000D02*
Y130996D01*
X1199998D01*
X1201997Y128997D01*
Y124998D01*
X1199998Y122999D01*
X1194000D01*
X1197999D02*
X1201997Y119000D01*
X1205996Y120999D02*
X1207996Y119000D01*
X1211994D01*
X1213994Y120999D01*
Y128997D01*
X1211994Y130996D01*
X1207996D01*
X1205996Y128997D01*
Y126997D01*
X1207996Y124998D01*
X1213994D01*
X1225990Y130996D02*
X1221991Y128997D01*
X1217992Y124998D01*
Y120999D01*
X1219992Y119000D01*
X1223990D01*
X1225990Y120999D01*
Y122999D01*
X1223990Y124998D01*
X1217992D01*
X1022250Y56500D02*
Y68496D01*
X1028248D01*
X1030247Y66497D01*
Y62498D01*
X1028248Y60499D01*
X1022250D01*
X1026249D02*
X1030247Y56500D01*
X1034246Y58499D02*
X1036245Y56500D01*
X1040244D01*
X1042243Y58499D01*
Y66497D01*
X1040244Y68496D01*
X1036245D01*
X1034246Y66497D01*
Y64497D01*
X1036245Y62498D01*
X1042243D01*
X1054240Y68496D02*
X1046242D01*
Y62498D01*
X1050241Y64497D01*
X1052240D01*
X1054240Y62498D01*
Y58499D01*
X1052240Y56500D01*
X1048242D01*
X1046242Y58499D01*
X1023000Y135500D02*
Y147496D01*
X1028998D01*
X1030997Y145497D01*
Y141498D01*
X1028998Y139499D01*
X1023000D01*
X1026999D02*
X1030997Y135500D01*
X1034996Y137499D02*
X1036995Y135500D01*
X1040994D01*
X1042993Y137499D01*
Y145497D01*
X1040994Y147496D01*
X1036995D01*
X1034996Y145497D01*
Y143497D01*
X1036995Y141498D01*
X1042993D01*
X1052990Y135500D02*
Y147496D01*
X1046992Y141498D01*
X1054990D01*
X158750Y205500D02*
X170746D01*
Y199502D01*
X168747Y197503D01*
X164748D01*
X162749Y199502D01*
Y205500D01*
Y201501D02*
X158750Y197503D01*
X160749Y193504D02*
X158750Y191504D01*
Y187506D01*
X160749Y185506D01*
X168747D01*
X170746Y187506D01*
Y191504D01*
X168747Y193504D01*
X166747D01*
X164748Y191504D01*
Y185506D01*
X168747Y181508D02*
X170746Y179508D01*
Y175510D01*
X168747Y173510D01*
X166747D01*
X164748Y175510D01*
Y177509D01*
Y175510D01*
X162749Y173510D01*
X160749D01*
X158750Y175510D01*
Y179508D01*
X160749Y181508D01*
X1194000Y141750D02*
Y153746D01*
X1199998D01*
X1201997Y151747D01*
Y147748D01*
X1199998Y145749D01*
X1194000D01*
X1197999D02*
X1201997Y141750D01*
X1205996Y143749D02*
X1207996Y141750D01*
X1211994D01*
X1213994Y143749D01*
Y151747D01*
X1211994Y153746D01*
X1207996D01*
X1205996Y151747D01*
Y149747D01*
X1207996Y147748D01*
X1213994D01*
X1217992Y141750D02*
X1221991D01*
X1219992D01*
Y153746D01*
X1217992Y151747D01*
X1022250Y109250D02*
Y121246D01*
X1028248D01*
X1030247Y119247D01*
Y115248D01*
X1028248Y113249D01*
X1022250D01*
X1026249D02*
X1030247Y109250D01*
X1034246Y111249D02*
X1036245Y109250D01*
X1040244D01*
X1042243Y111249D01*
Y119247D01*
X1040244Y121246D01*
X1036245D01*
X1034246Y119247D01*
Y117247D01*
X1036245Y115248D01*
X1042243D01*
X1046242Y119247D02*
X1048242Y121246D01*
X1052240D01*
X1054240Y119247D01*
Y111249D01*
X1052240Y109250D01*
X1048242D01*
X1046242Y111249D01*
Y119247D01*
X1151750Y184500D02*
Y196496D01*
X1157748D01*
X1159747Y194497D01*
Y190498D01*
X1157748Y188499D01*
X1151750D01*
X1155749D02*
X1159747Y184500D01*
X1163746Y194497D02*
X1165745Y196496D01*
X1169744D01*
X1171743Y194497D01*
Y192497D01*
X1169744Y190498D01*
X1171743Y188499D01*
Y186499D01*
X1169744Y184500D01*
X1165745D01*
X1163746Y186499D01*
Y188499D01*
X1165745Y190498D01*
X1163746Y192497D01*
Y194497D01*
X1165745Y190498D02*
X1169744D01*
X1175742Y186499D02*
X1177742Y184500D01*
X1181740D01*
X1183740Y186499D01*
Y194497D01*
X1181740Y196496D01*
X1177742D01*
X1175742Y194497D01*
Y192497D01*
X1177742Y190498D01*
X1183740D01*
X208500Y440000D02*
Y451996D01*
X214498D01*
X216497Y449997D01*
Y445998D01*
X214498Y443999D01*
X208500D01*
X212499D02*
X216497Y440000D01*
X220496Y449997D02*
X222495Y451996D01*
X226494D01*
X228493Y449997D01*
Y447997D01*
X226494Y445998D01*
X228493Y443999D01*
Y441999D01*
X226494Y440000D01*
X222495D01*
X220496Y441999D01*
Y443999D01*
X222495Y445998D01*
X220496Y447997D01*
Y449997D01*
X222495Y445998D02*
X226494D01*
X232492Y451996D02*
X240490D01*
Y449997D01*
X232492Y441999D01*
Y440000D01*
X1085000Y370750D02*
X1096996D01*
Y364752D01*
X1094997Y362753D01*
X1090998D01*
X1088999Y364752D01*
Y370750D01*
Y366751D02*
X1085000Y362753D01*
X1094997Y358754D02*
X1096996Y356754D01*
Y352756D01*
X1094997Y350756D01*
X1092997D01*
X1090998Y352756D01*
X1088999Y350756D01*
X1086999D01*
X1085000Y352756D01*
Y356754D01*
X1086999Y358754D01*
X1088999D01*
X1090998Y356754D01*
X1092997Y358754D01*
X1094997D01*
X1090998Y356754D02*
Y352756D01*
X1096996Y338760D02*
X1094997Y342759D01*
X1090998Y346758D01*
X1086999D01*
X1085000Y344758D01*
Y340760D01*
X1086999Y338760D01*
X1088999D01*
X1090998Y340760D01*
Y346758D01*
X1195000Y8250D02*
X1206996D01*
Y2252D01*
X1204997Y253D01*
X1200998D01*
X1198999Y2252D01*
Y8250D01*
Y4251D02*
X1195000Y253D01*
X1204997Y-3746D02*
X1206996Y-5745D01*
Y-9744D01*
X1204997Y-11744D01*
X1202997D01*
X1200998Y-9744D01*
X1198999Y-11744D01*
X1196999D01*
X1195000Y-9744D01*
Y-5745D01*
X1196999Y-3746D01*
X1198999D01*
X1200998Y-5745D01*
X1202997Y-3746D01*
X1204997D01*
X1200998Y-5745D02*
Y-9744D01*
X1195000Y-21740D02*
X1206996D01*
X1200998Y-15742D01*
Y-23740D01*
X1135750Y271250D02*
X1147746D01*
Y265252D01*
X1145747Y263253D01*
X1141748D01*
X1139749Y265252D01*
Y271250D01*
Y267251D02*
X1135750Y263253D01*
X1145747Y259254D02*
X1147746Y257255D01*
Y253256D01*
X1145747Y251257D01*
X1143747D01*
X1141748Y253256D01*
X1139749Y251257D01*
X1137749D01*
X1135750Y253256D01*
Y257255D01*
X1137749Y259254D01*
X1139749D01*
X1141748Y257255D01*
X1143747Y259254D01*
X1145747D01*
X1141748Y257255D02*
Y253256D01*
X1145747Y247258D02*
X1147746Y245258D01*
Y241260D01*
X1145747Y239260D01*
X1143747D01*
X1141748Y241260D01*
Y243259D01*
Y241260D01*
X1139749Y239260D01*
X1137749D01*
X1135750Y241260D01*
Y245258D01*
X1137749Y247258D01*
X278000Y169000D02*
Y180996D01*
X283998D01*
X285997Y178997D01*
Y174998D01*
X283998Y172999D01*
X278000D01*
X281999D02*
X285997Y169000D01*
X289996Y178997D02*
X291996Y180996D01*
X295994D01*
X297994Y178997D01*
Y176997D01*
X295994Y174998D01*
X297994Y172999D01*
Y170999D01*
X295994Y169000D01*
X291996D01*
X289996Y170999D01*
Y172999D01*
X291996Y174998D01*
X289996Y176997D01*
Y178997D01*
X291996Y174998D02*
X295994D01*
X301992Y169000D02*
X305991D01*
X303992D01*
Y180996D01*
X301992Y178997D01*
X1124750Y544750D02*
Y556746D01*
X1130748D01*
X1132747Y554747D01*
Y550748D01*
X1130748Y548749D01*
X1124750D01*
X1128749D02*
X1132747Y544750D01*
X1136746Y554747D02*
X1138745Y556746D01*
X1142744D01*
X1144743Y554747D01*
Y552747D01*
X1142744Y550748D01*
X1144743Y548749D01*
Y546749D01*
X1142744Y544750D01*
X1138745D01*
X1136746Y546749D01*
Y548749D01*
X1138745Y550748D01*
X1136746Y552747D01*
Y554747D01*
X1138745Y550748D02*
X1142744D01*
X1148742Y554747D02*
X1150742Y556746D01*
X1154740D01*
X1156740Y554747D01*
Y546749D01*
X1154740Y544750D01*
X1150742D01*
X1148742Y546749D01*
Y554747D01*
X1062000Y-15000D02*
Y-3004D01*
X1067998D01*
X1069997Y-5003D01*
Y-9002D01*
X1067998Y-11001D01*
X1062000D01*
X1065999D02*
X1069997Y-15000D01*
X1073996Y-3004D02*
X1081993D01*
Y-5003D01*
X1073996Y-13001D01*
Y-15000D01*
X1085992Y-13001D02*
X1087992Y-15000D01*
X1091990D01*
X1093990Y-13001D01*
Y-5003D01*
X1091990Y-3004D01*
X1087992D01*
X1085992Y-5003D01*
Y-7003D01*
X1087992Y-9002D01*
X1093990D01*
X135750Y-38250D02*
Y-26254D01*
X141748D01*
X143747Y-28253D01*
Y-32252D01*
X141748Y-34251D01*
X135750D01*
X139749D02*
X143747Y-38250D01*
X147746Y-26254D02*
X155744D01*
Y-28253D01*
X147746Y-36251D01*
Y-38250D01*
X159742Y-28253D02*
X161742Y-26254D01*
X165740D01*
X167740Y-28253D01*
Y-30253D01*
X165740Y-32252D01*
X167740Y-34251D01*
Y-36251D01*
X165740Y-38250D01*
X161742D01*
X159742Y-36251D01*
Y-34251D01*
X161742Y-32252D01*
X159742Y-30253D01*
Y-28253D01*
X161742Y-32252D02*
X165740D01*
X202250Y534500D02*
Y546496D01*
X208248D01*
X210247Y544497D01*
Y540498D01*
X208248Y538499D01*
X202250D01*
X206249D02*
X210247Y534500D01*
X214246Y546496D02*
X222243D01*
Y544497D01*
X214246Y536499D01*
Y534500D01*
X226242Y546496D02*
X234240D01*
Y544497D01*
X226242Y536499D01*
Y534500D01*
X203000Y481750D02*
Y493746D01*
X208998D01*
X210997Y491747D01*
Y487748D01*
X208998Y485749D01*
X203000D01*
X206999D02*
X210997Y481750D01*
X214996Y493746D02*
X222994D01*
Y491747D01*
X214996Y483749D01*
Y481750D01*
X234990Y493746D02*
X230991Y491747D01*
X226992Y487748D01*
Y483749D01*
X228992Y481750D01*
X232990D01*
X234990Y483749D01*
Y485749D01*
X232990Y487748D01*
X226992D01*
X370500Y95750D02*
Y107746D01*
X376498D01*
X378497Y105747D01*
Y101748D01*
X376498Y99749D01*
X370500D01*
X374499D02*
X378497Y95750D01*
X382496Y107746D02*
X390494D01*
Y105747D01*
X382496Y97749D01*
Y95750D01*
X402490Y107746D02*
X394492D01*
Y101748D01*
X398491Y103747D01*
X400490D01*
X402490Y101748D01*
Y97749D01*
X400490Y95750D01*
X396492D01*
X394492Y97749D01*
X369000Y58000D02*
Y69996D01*
X374998D01*
X376997Y67997D01*
Y63998D01*
X374998Y61999D01*
X369000D01*
X372999D02*
X376997Y58000D01*
X380996Y69996D02*
X388993D01*
Y67997D01*
X380996Y59999D01*
Y58000D01*
X400990D02*
X392992D01*
X400990Y65997D01*
Y67997D01*
X398990Y69996D01*
X394992D01*
X392992Y67997D01*
X206000Y157500D02*
Y169496D01*
X211998D01*
X213997Y167497D01*
Y163498D01*
X211998Y161499D01*
X206000D01*
X209999D02*
X213997Y157500D01*
X225993Y169496D02*
X221995Y167497D01*
X217996Y163498D01*
Y159499D01*
X219995Y157500D01*
X223994D01*
X225993Y159499D01*
Y161499D01*
X223994Y163498D01*
X217996D01*
X229992Y159499D02*
X231992Y157500D01*
X235990D01*
X237990Y159499D01*
Y167497D01*
X235990Y169496D01*
X231992D01*
X229992Y167497D01*
Y165497D01*
X231992Y163498D01*
X237990D01*
X103250Y313500D02*
X115246D01*
Y307502D01*
X113247Y305503D01*
X109248D01*
X107249Y307502D01*
Y313500D01*
Y309501D02*
X103250Y305503D01*
X115246Y293507D02*
X113247Y297505D01*
X109248Y301504D01*
X105249D01*
X103250Y299505D01*
Y295506D01*
X105249Y293507D01*
X107249D01*
X109248Y295506D01*
Y301504D01*
X113247Y289508D02*
X115246Y287508D01*
Y283510D01*
X113247Y281510D01*
X111247D01*
X109248Y283510D01*
X107249Y281510D01*
X105249D01*
X103250Y283510D01*
Y287508D01*
X105249Y289508D01*
X107249D01*
X109248Y287508D01*
X111247Y289508D01*
X113247D01*
X109248Y287508D02*
Y283510D01*
X127750Y420500D02*
Y432496D01*
X133748D01*
X135747Y430497D01*
Y426498D01*
X133748Y424499D01*
X127750D01*
X131749D02*
X135747Y420500D01*
X147744Y432496D02*
X143745Y430497D01*
X139746Y426498D01*
Y422499D01*
X141746Y420500D01*
X145744D01*
X147744Y422499D01*
Y424499D01*
X145744Y426498D01*
X139746D01*
X151742Y432496D02*
X159740D01*
Y430497D01*
X151742Y422499D01*
Y420500D01*
X206500Y196250D02*
Y208246D01*
X212498D01*
X214497Y206247D01*
Y202248D01*
X212498Y200249D01*
X206500D01*
X210499D02*
X214497Y196250D01*
X226493Y208246D02*
X222495Y206247D01*
X218496Y202248D01*
Y198249D01*
X220495Y196250D01*
X224494D01*
X226493Y198249D01*
Y200249D01*
X224494Y202248D01*
X218496D01*
X236490Y196250D02*
Y208246D01*
X230492Y202248D01*
X238490D01*
X206250Y176500D02*
Y188496D01*
X212248D01*
X214247Y186497D01*
Y182498D01*
X212248Y180499D01*
X206250D01*
X210249D02*
X214247Y176500D01*
X226243Y188496D02*
X222245Y186497D01*
X218246Y182498D01*
Y178499D01*
X220245Y176500D01*
X224244D01*
X226243Y178499D01*
Y180499D01*
X224244Y182498D01*
X218246D01*
X230242Y186497D02*
X232242Y188496D01*
X236240D01*
X238240Y186497D01*
Y184497D01*
X236240Y182498D01*
X234241D01*
X236240D01*
X238240Y180499D01*
Y178499D01*
X236240Y176500D01*
X232242D01*
X230242Y178499D01*
X144250Y4250D02*
Y16246D01*
X150248D01*
X152247Y14247D01*
Y10248D01*
X150248Y8249D01*
X144250D01*
X148249D02*
X152247Y4250D01*
X164244Y16246D02*
X160245Y14247D01*
X156246Y10248D01*
Y6249D01*
X158245Y4250D01*
X162244D01*
X164244Y6249D01*
Y8249D01*
X162244Y10248D01*
X156246D01*
X176240Y4250D02*
X168242D01*
X176240Y12247D01*
Y14247D01*
X174240Y16246D01*
X170242D01*
X168242Y14247D01*
X207500Y140500D02*
Y152496D01*
X213498D01*
X215497Y150497D01*
Y146498D01*
X213498Y144499D01*
X207500D01*
X211499D02*
X215497Y140500D01*
X227493Y152496D02*
X223495Y150497D01*
X219496Y146498D01*
Y142499D01*
X221495Y140500D01*
X225494D01*
X227493Y142499D01*
Y144499D01*
X225494Y146498D01*
X219496D01*
X231492Y140500D02*
X235491D01*
X233492D01*
Y152496D01*
X231492Y150497D01*
X281750Y11250D02*
Y23246D01*
X287748D01*
X289747Y21247D01*
Y17248D01*
X287748Y15249D01*
X281750D01*
X285749D02*
X289747Y11250D01*
X301744Y23246D02*
X297745Y21247D01*
X293746Y17248D01*
Y13249D01*
X295746Y11250D01*
X299744D01*
X301744Y13249D01*
Y15249D01*
X299744Y17248D01*
X293746D01*
X305742Y21247D02*
X307742Y23246D01*
X311740D01*
X313740Y21247D01*
Y13249D01*
X311740Y11250D01*
X307742D01*
X305742Y13249D01*
Y21247D01*
X173497Y-79001D02*
Y-71003D01*
X171498Y-69004D01*
X167499D01*
X165500Y-71003D01*
Y-79001D01*
X167499Y-81000D01*
X171498D01*
X169499Y-77001D02*
X173497Y-81000D01*
X171498D02*
X173497Y-79001D01*
X177496Y-81000D02*
X181495D01*
X179496D01*
Y-69004D01*
X177496Y-71003D01*
X195490Y-69004D02*
X191492Y-71003D01*
X187493Y-75002D01*
Y-79001D01*
X189492Y-81000D01*
X193491D01*
X195490Y-79001D01*
Y-77001D01*
X193491Y-75002D01*
X187493D01*
X85747Y144999D02*
Y152997D01*
X83748Y154996D01*
X79749D01*
X77750Y152997D01*
Y144999D01*
X79749Y143000D01*
X83748D01*
X81749Y146999D02*
X85747Y143000D01*
X83748D02*
X85747Y144999D01*
X89746Y143000D02*
X93745D01*
X91746D01*
Y154996D01*
X89746Y152997D01*
X107740Y154996D02*
X99743D01*
Y148998D01*
X103742Y150997D01*
X105741D01*
X107740Y148998D01*
Y144999D01*
X105741Y143000D01*
X101742D01*
X99743Y144999D01*
X112247Y482749D02*
Y490747D01*
X110248Y492746D01*
X106249D01*
X104250Y490747D01*
Y482749D01*
X106249Y480750D01*
X110248D01*
X108249Y484749D02*
X112247Y480750D01*
X110248D02*
X112247Y482749D01*
X116246Y480750D02*
X120245D01*
X118245D01*
Y492746D01*
X116246Y490747D01*
X132241Y480750D02*
Y492746D01*
X126243Y486748D01*
X134240D01*
X155997Y566749D02*
Y574747D01*
X153998Y576746D01*
X149999D01*
X148000Y574747D01*
Y566749D01*
X149999Y564750D01*
X153998D01*
X151999Y568749D02*
X155997Y564750D01*
X153998D02*
X155997Y566749D01*
X159996Y564750D02*
X163995D01*
X161996D01*
Y576746D01*
X159996Y574747D01*
X169993Y564750D02*
X173992D01*
X171992D01*
Y576746D01*
X169993Y574747D01*
X1459000Y605000D02*
X1474235D01*
Y597383D01*
X1471696Y594843D01*
X1466617D01*
X1464078Y597383D01*
Y605000D01*
X1474235Y579608D02*
Y589765D01*
X1466617D01*
X1469157Y584687D01*
Y582147D01*
X1466617Y579608D01*
X1461539D01*
X1459000Y582147D01*
Y587226D01*
X1461539Y589765D01*
X20000Y590000D02*
Y601996D01*
X25998D01*
X27997Y599997D01*
Y595998D01*
X25998Y593999D01*
X20000D01*
X37994Y590000D02*
Y601996D01*
X31996Y595998D01*
X39994D01*
X15750Y455750D02*
Y467746D01*
X21748D01*
X23747Y465747D01*
Y461748D01*
X21748Y459749D01*
X15750D01*
X27746Y465747D02*
X29746Y467746D01*
X33744D01*
X35744Y465747D01*
Y463747D01*
X33744Y461748D01*
X31745D01*
X33744D01*
X35744Y459749D01*
Y457749D01*
X33744Y455750D01*
X29746D01*
X27746Y457749D01*
X408200Y-82000D02*
Y-70004D01*
X414198D01*
X416197Y-72003D01*
Y-76002D01*
X414198Y-78001D01*
X408200D01*
X428194Y-82000D02*
X420196D01*
X428194Y-74003D01*
Y-72003D01*
X426194Y-70004D01*
X422196D01*
X420196Y-72003D01*
X1426000Y108000D02*
Y119996D01*
X1429999Y115997D01*
X1433997Y119996D01*
Y108000D01*
X1437996Y119996D02*
Y108000D01*
Y113998D01*
X1445993D01*
Y119996D01*
Y108000D01*
X1457990Y119996D02*
X1453991Y117997D01*
X1449992Y113998D01*
Y109999D01*
X1451992Y108000D01*
X1455990D01*
X1457990Y109999D01*
Y111999D01*
X1455990Y113998D01*
X1449992D01*
X1409157Y-7765D02*
X1404078D01*
X1406617D01*
Y-20461D01*
X1404078Y-23000D01*
X1401539D01*
X1399000Y-20461D01*
X1424392Y-7765D02*
X1414235D01*
Y-15382D01*
X1419313Y-12843D01*
X1421853D01*
X1424392Y-15382D01*
Y-20461D01*
X1421853Y-23000D01*
X1416774D01*
X1414235Y-20461D01*
X1108000Y202496D02*
Y190500D01*
X1113998D01*
X1115997Y192499D01*
Y200497D01*
X1113998Y202496D01*
X1108000D01*
X1119996Y190500D02*
X1123995D01*
X1121995D01*
Y202496D01*
X1119996Y200497D01*
X1129993D02*
X1131992Y202496D01*
X1135991D01*
X1137990Y200497D01*
Y192499D01*
X1135991Y190500D01*
X1131992D01*
X1129993Y192499D01*
Y200497D01*
X1434157Y495696D02*
X1431617Y498235D01*
X1426539D01*
X1424000Y495696D01*
Y485539D01*
X1426539Y483000D01*
X1431617D01*
X1434157Y485539D01*
X1439235Y498235D02*
X1449392D01*
X1444313D01*
Y483000D01*
X1454470D02*
X1459548D01*
X1457009D01*
Y498235D01*
X1454470Y495696D01*
X190997Y200003D02*
X192996Y202002D01*
Y206001D01*
X190997Y208000D01*
X182999D01*
X181000Y206001D01*
Y202002D01*
X182999Y200003D01*
X192996Y188006D02*
X190997Y192005D01*
X186998Y196004D01*
X182999D01*
X181000Y194004D01*
Y190006D01*
X182999Y188006D01*
X184999D01*
X186998Y190006D01*
Y196004D01*
X192996Y176010D02*
X190997Y180009D01*
X186998Y184008D01*
X182999D01*
X181000Y182008D01*
Y178010D01*
X182999Y176010D01*
X184999D01*
X186998Y178010D01*
Y184008D01*
X1200247Y103497D02*
X1198248Y105496D01*
X1194249D01*
X1192250Y103497D01*
Y95499D01*
X1194249Y93500D01*
X1198248D01*
X1200247Y95499D01*
X1212243Y105496D02*
X1208245Y103497D01*
X1204246Y99498D01*
Y95499D01*
X1206245Y93500D01*
X1210244D01*
X1212243Y95499D01*
Y97499D01*
X1210244Y99498D01*
X1204246D01*
X1224240Y105496D02*
X1216242D01*
Y99498D01*
X1220241Y101497D01*
X1222240D01*
X1224240Y99498D01*
Y95499D01*
X1222240Y93500D01*
X1218242D01*
X1216242Y95499D01*
X1031497Y93497D02*
X1029498Y95496D01*
X1025499D01*
X1023500Y93497D01*
Y85499D01*
X1025499Y83500D01*
X1029498D01*
X1031497Y85499D01*
X1043493Y95496D02*
X1039495Y93497D01*
X1035496Y89498D01*
Y85499D01*
X1037495Y83500D01*
X1041494D01*
X1043493Y85499D01*
Y87499D01*
X1041494Y89498D01*
X1035496D01*
X1053490Y83500D02*
Y95496D01*
X1047492Y89498D01*
X1055490D01*
X1030247Y171997D02*
X1028248Y173996D01*
X1024249D01*
X1022250Y171997D01*
Y163999D01*
X1024249Y162000D01*
X1028248D01*
X1030247Y163999D01*
X1042243Y173996D02*
X1038245Y171997D01*
X1034246Y167998D01*
Y163999D01*
X1036245Y162000D01*
X1040244D01*
X1042243Y163999D01*
Y165999D01*
X1040244Y167998D01*
X1034246D01*
X1046242Y171997D02*
X1048242Y173996D01*
X1052240D01*
X1054240Y171997D01*
Y169997D01*
X1052240Y167998D01*
X1050241D01*
X1052240D01*
X1054240Y165999D01*
Y163999D01*
X1052240Y162000D01*
X1048242D01*
X1046242Y163999D01*
X218997Y375497D02*
X216998Y377496D01*
X212999D01*
X211000Y375497D01*
Y367499D01*
X212999Y365500D01*
X216998D01*
X218997Y367499D01*
X230993Y377496D02*
X226995Y375497D01*
X222996Y371498D01*
Y367499D01*
X224995Y365500D01*
X228994D01*
X230993Y367499D01*
Y369499D01*
X228994Y371498D01*
X222996D01*
X234992Y365500D02*
X238991D01*
X236992D01*
Y377496D01*
X234992Y375497D01*
X1068997Y424003D02*
X1070996Y426002D01*
Y430001D01*
X1068997Y432000D01*
X1060999D01*
X1059000Y430001D01*
Y426002D01*
X1060999Y424003D01*
X1070996Y412006D02*
X1068997Y416005D01*
X1064998Y420004D01*
X1060999D01*
X1059000Y418004D01*
Y414006D01*
X1060999Y412006D01*
X1062999D01*
X1064998Y414006D01*
Y420004D01*
X1068997Y408008D02*
X1070996Y406008D01*
Y402010D01*
X1068997Y400010D01*
X1060999D01*
X1059000Y402010D01*
Y406008D01*
X1060999Y408008D01*
X1068997D01*
X321997Y152997D02*
X319998Y154996D01*
X315999D01*
X314000Y152997D01*
Y144999D01*
X315999Y143000D01*
X319998D01*
X321997Y144999D01*
X333993Y154996D02*
X325996D01*
Y148998D01*
X329995Y150997D01*
X331994D01*
X333993Y148998D01*
Y144999D01*
X331994Y143000D01*
X327995D01*
X325996Y144999D01*
X337992Y152997D02*
X339992Y154996D01*
X343990D01*
X345990Y152997D01*
Y150997D01*
X343990Y148998D01*
X345990Y146999D01*
Y144999D01*
X343990Y143000D01*
X339992D01*
X337992Y144999D01*
Y146999D01*
X339992Y148998D01*
X337992Y150997D01*
Y152997D01*
X339992Y148998D02*
X343990D01*
X1265747Y561247D02*
X1263748Y563246D01*
X1259749D01*
X1257750Y561247D01*
Y553249D01*
X1259749Y551250D01*
X1263748D01*
X1265747Y553249D01*
X1277744Y563246D02*
X1269746D01*
Y557248D01*
X1273745Y559247D01*
X1275744D01*
X1277744Y557248D01*
Y553249D01*
X1275744Y551250D01*
X1271746D01*
X1269746Y553249D01*
X1281742Y563246D02*
X1289740D01*
Y561247D01*
X1281742Y553249D01*
Y551250D01*
X1030747Y42747D02*
X1028748Y44746D01*
X1024749D01*
X1022750Y42747D01*
Y34749D01*
X1024749Y32750D01*
X1028748D01*
X1030747Y34749D01*
X1042744Y44746D02*
X1034746D01*
Y38748D01*
X1038745Y40747D01*
X1040744D01*
X1042744Y38748D01*
Y34749D01*
X1040744Y32750D01*
X1036746D01*
X1034746Y34749D01*
X1054740Y44746D02*
X1050741Y42747D01*
X1046742Y38748D01*
Y34749D01*
X1048742Y32750D01*
X1052740D01*
X1054740Y34749D01*
Y36749D01*
X1052740Y38748D01*
X1046742D01*
X213247Y-79003D02*
X211248Y-77004D01*
X207249D01*
X205250Y-79003D01*
Y-87001D01*
X207249Y-89000D01*
X211248D01*
X213247Y-87001D01*
X225243Y-77004D02*
X217246D01*
Y-83002D01*
X221245Y-81003D01*
X223244D01*
X225243Y-83002D01*
Y-87001D01*
X223244Y-89000D01*
X219245D01*
X217246Y-87001D01*
X237240Y-77004D02*
X229242D01*
Y-83002D01*
X233241Y-81003D01*
X235240D01*
X237240Y-83002D01*
Y-87001D01*
X235240Y-89000D01*
X231242D01*
X229242Y-87001D01*
X250747Y-86503D02*
X248748Y-84504D01*
X244749D01*
X242750Y-86503D01*
Y-94501D01*
X244749Y-96500D01*
X248748D01*
X250747Y-94501D01*
X262743Y-84504D02*
X254746D01*
Y-90502D01*
X258745Y-88503D01*
X260744D01*
X262743Y-90502D01*
Y-94501D01*
X260744Y-96500D01*
X256745D01*
X254746Y-94501D01*
X272740Y-96500D02*
Y-84504D01*
X266742Y-90502D01*
X274740D01*
X346581Y814585D02*
X348247Y816252D01*
Y819584D01*
X346581Y821250D01*
X339916D01*
X338250Y819584D01*
Y816252D01*
X339916Y814585D01*
X338250Y811253D02*
Y807921D01*
Y809587D01*
X348247D01*
X346581Y811253D01*
X338250Y797924D02*
X348247D01*
X343248Y802923D01*
Y796258D01*
X338250Y792926D02*
Y789594D01*
Y791260D01*
X348247D01*
X346581Y792926D01*
X742285Y503997D02*
X740285Y505996D01*
X736287D01*
X734287Y503997D01*
Y495999D01*
X736287Y494000D01*
X740285D01*
X742285Y495999D01*
X746284Y494000D02*
X750282D01*
X748283D01*
Y505996D01*
X746284Y503997D01*
X762278Y494000D02*
Y505996D01*
X756280Y499998D01*
X764278D01*
X774275Y494000D02*
Y505996D01*
X768277Y499998D01*
X776274D01*
X727867Y1211247D02*
X725868Y1213246D01*
X721869D01*
X719870Y1211247D01*
Y1203249D01*
X721869Y1201250D01*
X725868D01*
X727867Y1203249D01*
X731866Y1201250D02*
X735865D01*
X733866D01*
Y1213246D01*
X731866Y1211247D01*
X747861Y1201250D02*
Y1213246D01*
X741863Y1207248D01*
X749860D01*
X753859Y1211247D02*
X755858Y1213246D01*
X759857D01*
X761856Y1211247D01*
Y1209247D01*
X759857Y1207248D01*
X757858D01*
X759857D01*
X761856Y1205249D01*
Y1203249D01*
X759857Y1201250D01*
X755858D01*
X753859Y1203249D01*
X17250Y322500D02*
Y334496D01*
X23248D01*
X25247Y332497D01*
Y328498D01*
X23248Y326499D01*
X17250D01*
X29246Y322500D02*
X33245D01*
X31246D01*
Y334496D01*
X29246Y332497D01*
X24000Y1108000D02*
Y1119996D01*
X27999Y1115997D01*
X31997Y1119996D01*
Y1108000D01*
X35996Y1119996D02*
Y1108000D01*
Y1113998D01*
X43994D01*
Y1119996D01*
Y1108000D01*
X47992D02*
X51991D01*
X49992D01*
Y1119996D01*
X47992Y1117997D01*
X65986Y1108000D02*
X57989D01*
X65986Y1115997D01*
Y1117997D01*
X63987Y1119996D01*
X59988D01*
X57989Y1117997D01*
X357000Y344556D02*
Y356552D01*
X360999Y352553D01*
X364997Y356552D01*
Y344556D01*
X368996Y356552D02*
Y344556D01*
Y350554D01*
X376993D01*
Y356552D01*
Y344556D01*
X380992Y354552D02*
X382992Y356552D01*
X386990D01*
X388990Y354552D01*
Y352553D01*
X386990Y350554D01*
X388990Y348554D01*
Y346555D01*
X386990Y344556D01*
X382992D01*
X380992Y346555D01*
Y348554D01*
X382992Y350554D01*
X380992Y352553D01*
Y354552D01*
X382992Y350554D02*
X386990D01*
X493000Y928000D02*
X502997D01*
X499664Y924668D01*
X502997Y921336D01*
X493000D01*
X502997Y918003D02*
X493000D01*
X497998D01*
Y911339D01*
X502997D01*
X493000D01*
X502997Y908006D02*
Y901342D01*
X501331D01*
X494666Y908006D01*
X493000D01*
X632500Y475250D02*
Y487246D01*
X636499Y483247D01*
X640497Y487246D01*
Y475250D01*
X644496Y487246D02*
Y475250D01*
Y481248D01*
X652494D01*
Y487246D01*
Y475250D01*
X664490Y487246D02*
X656492D01*
Y481248D01*
X660491Y483247D01*
X662490D01*
X664490Y481248D01*
Y477249D01*
X662490Y475250D01*
X658492D01*
X656492Y477249D01*
X876000Y1197000D02*
Y1208996D01*
X879999Y1204997D01*
X883997Y1208996D01*
Y1197000D01*
X887996Y1208996D02*
Y1197000D01*
Y1202998D01*
X895993D01*
Y1208996D01*
Y1197000D01*
X905990D02*
Y1208996D01*
X899992Y1202998D01*
X907990D01*
X866000Y335000D02*
Y346996D01*
X869999Y342997D01*
X873997Y346996D01*
Y335000D01*
X877996Y346996D02*
Y335000D01*
Y340998D01*
X885993D01*
Y346996D01*
Y335000D01*
X889992Y344997D02*
X891992Y346996D01*
X895990D01*
X897990Y344997D01*
Y342997D01*
X895990Y340998D01*
X893991D01*
X895990D01*
X897990Y338999D01*
Y336999D01*
X895990Y335000D01*
X891992D01*
X889992Y336999D01*
X727000Y334000D02*
Y345996D01*
X730999Y341997D01*
X734997Y345996D01*
Y334000D01*
X738996Y345996D02*
Y334000D01*
Y339998D01*
X746993D01*
Y345996D01*
Y334000D01*
X758990D02*
X750992D01*
X758990Y341997D01*
Y343997D01*
X756990Y345996D01*
X752992D01*
X750992Y343997D01*
X557000Y330000D02*
Y341996D01*
X560999Y337997D01*
X564997Y341996D01*
Y330000D01*
X568996Y341996D02*
Y330000D01*
Y335998D01*
X576993D01*
Y341996D01*
Y330000D01*
X580992D02*
X584991D01*
X582992D01*
Y341996D01*
X580992Y339997D01*
X654746Y55503D02*
Y59501D01*
Y57502D01*
X644749D01*
X642750Y59501D01*
Y61501D01*
X644749Y63500D01*
X652747Y51504D02*
X654746Y49504D01*
Y45506D01*
X652747Y43506D01*
X650747D01*
X648748Y45506D01*
Y47505D01*
Y45506D01*
X646749Y43506D01*
X644749D01*
X642750Y45506D01*
Y49504D01*
X644749Y51504D01*
X582746Y55503D02*
Y59501D01*
Y57502D01*
X572749D01*
X570750Y59501D01*
Y61501D01*
X572749Y63500D01*
X570750Y51504D02*
Y47505D01*
Y49504D01*
X582746D01*
X580747Y51504D01*
X545500Y508000D02*
X557496D01*
Y502002D01*
X555497Y500003D01*
X551498D01*
X549499Y502002D01*
Y508000D01*
Y504001D02*
X545500Y500003D01*
Y496004D02*
Y492005D01*
Y494005D01*
X557496D01*
X555497Y496004D01*
Y486007D02*
X557496Y484008D01*
Y480009D01*
X555497Y478010D01*
X553497D01*
X551498Y480009D01*
Y482008D01*
Y480009D01*
X549499Y478010D01*
X547499D01*
X545500Y480009D01*
Y484008D01*
X547499Y486007D01*
X453996Y490000D02*
X445999D01*
X442000Y486001D01*
X445999Y482003D01*
X453996D01*
X442000Y478004D02*
X453996D01*
Y472006D01*
X451997Y470006D01*
X447998D01*
X445999Y472006D01*
Y478004D01*
Y474005D02*
X442000Y470006D01*
Y458010D02*
Y466008D01*
X449997Y458010D01*
X451997D01*
X453996Y460010D01*
Y464008D01*
X451997Y466008D01*
X345996Y490000D02*
X337999D01*
X334000Y486001D01*
X337999Y482003D01*
X345996D01*
X334000Y478004D02*
X345996D01*
Y472006D01*
X343997Y470006D01*
X339998D01*
X337999Y472006D01*
Y478004D01*
Y474005D02*
X334000Y470006D01*
Y466008D02*
Y462009D01*
Y464008D01*
X345996D01*
X343997Y466008D01*
X61246Y883000D02*
X51249D01*
X49250Y881001D01*
Y877002D01*
X51249Y875003D01*
X61246D01*
X49250Y863007D02*
Y871004D01*
X57247Y863007D01*
X59247D01*
X61246Y865006D01*
Y869005D01*
X59247Y871004D01*
X299250Y889246D02*
Y879249D01*
X301249Y877250D01*
X305248D01*
X307247Y879249D01*
Y889246D01*
X311246Y877250D02*
X315245D01*
X313246D01*
Y889246D01*
X311246Y887247D01*
X45000Y937000D02*
Y948996D01*
X50998D01*
X52997Y946997D01*
Y942998D01*
X50998Y940999D01*
X45000D01*
X48999D02*
X52997Y937000D01*
X64994Y948996D02*
X56996D01*
Y942998D01*
X60995Y944997D01*
X62994D01*
X64994Y942998D01*
Y938999D01*
X62994Y937000D01*
X58995D01*
X56996Y938999D01*
X68992Y948996D02*
X76990D01*
Y946997D01*
X68992Y938999D01*
Y937000D01*
X332250Y877000D02*
X342247D01*
Y872002D01*
X340581Y870335D01*
X337248D01*
X335582Y872002D01*
Y877000D01*
Y873668D02*
X332250Y870335D01*
X342247Y860339D02*
Y867003D01*
X337248D01*
X338914Y863671D01*
Y862005D01*
X337248Y860339D01*
X333916D01*
X332250Y862005D01*
Y865337D01*
X333916Y867003D01*
X342247Y850342D02*
X340581Y853674D01*
X337248Y857006D01*
X333916D01*
X332250Y855340D01*
Y852008D01*
X333916Y850342D01*
X335582D01*
X337248Y852008D01*
Y857006D01*
X344250Y1138500D02*
X356246D01*
Y1132502D01*
X354247Y1130503D01*
X350248D01*
X348249Y1132502D01*
Y1138500D01*
Y1134501D02*
X344250Y1130503D01*
X356246Y1118506D02*
Y1126504D01*
X350248D01*
X352247Y1122505D01*
Y1120506D01*
X350248Y1118506D01*
X346249D01*
X344250Y1120506D01*
Y1124504D01*
X346249Y1126504D01*
X356246Y1106510D02*
Y1114508D01*
X350248D01*
X352247Y1110509D01*
Y1108510D01*
X350248Y1106510D01*
X346249D01*
X344250Y1108510D01*
Y1112508D01*
X346249Y1114508D01*
X352500Y810750D02*
X362497D01*
Y805752D01*
X360831Y804085D01*
X357498D01*
X355832Y805752D01*
Y810750D01*
Y807418D02*
X352500Y804085D01*
X362497Y794089D02*
Y800753D01*
X357498D01*
X359165Y797421D01*
Y795755D01*
X357498Y794089D01*
X354166D01*
X352500Y795755D01*
Y799087D01*
X354166Y800753D01*
X352500Y785758D02*
X362497D01*
X357498Y790756D01*
Y784092D01*
X367250Y1154250D02*
X379246D01*
Y1148252D01*
X377247Y1146253D01*
X373248D01*
X371249Y1148252D01*
Y1154250D01*
Y1150251D02*
X367250Y1146253D01*
X379246Y1134257D02*
Y1142254D01*
X373248D01*
X375247Y1138255D01*
Y1136256D01*
X373248Y1134257D01*
X369249D01*
X367250Y1136256D01*
Y1140255D01*
X369249Y1142254D01*
X377247Y1130258D02*
X379246Y1128258D01*
Y1124260D01*
X377247Y1122260D01*
X375247D01*
X373248Y1124260D01*
Y1126259D01*
Y1124260D01*
X371249Y1122260D01*
X369249D01*
X367250Y1124260D01*
Y1128258D01*
X369249Y1130258D01*
X47500Y912500D02*
Y924496D01*
X53498D01*
X55497Y922497D01*
Y918498D01*
X53498Y916499D01*
X47500D01*
X51499D02*
X55497Y912500D01*
X67494Y924496D02*
X59496D01*
Y918498D01*
X63495Y920497D01*
X65494D01*
X67494Y918498D01*
Y914499D01*
X65494Y912500D01*
X61495D01*
X59496Y914499D01*
X71492Y912500D02*
X75491D01*
X73492D01*
Y924496D01*
X71492Y922497D01*
X111500Y822000D02*
X123496D01*
Y816002D01*
X121497Y814003D01*
X117498D01*
X115499Y816002D01*
Y822000D01*
Y818001D02*
X111500Y814003D01*
X123496Y802007D02*
Y810004D01*
X117498D01*
X119497Y806005D01*
Y804006D01*
X117498Y802007D01*
X113499D01*
X111500Y804006D01*
Y808005D01*
X113499Y810004D01*
X121497Y798008D02*
X123496Y796008D01*
Y792010D01*
X121497Y790010D01*
X113499D01*
X111500Y792010D01*
Y796008D01*
X113499Y798008D01*
X121497D01*
X122250Y697000D02*
Y708996D01*
X128248D01*
X130247Y706997D01*
Y702998D01*
X128248Y700999D01*
X122250D01*
X126249D02*
X130247Y697000D01*
X140244D02*
Y708996D01*
X134246Y702998D01*
X142243D01*
X146242Y698999D02*
X148242Y697000D01*
X152240D01*
X154240Y698999D01*
Y706997D01*
X152240Y708996D01*
X148242D01*
X146242Y706997D01*
Y704997D01*
X148242Y702998D01*
X154240D01*
X122500Y726500D02*
Y738496D01*
X128498D01*
X130497Y736497D01*
Y732498D01*
X128498Y730499D01*
X122500D01*
X126499D02*
X130497Y726500D01*
X140494D02*
Y738496D01*
X134496Y732498D01*
X142493D01*
X146492Y736497D02*
X148492Y738496D01*
X152490D01*
X154490Y736497D01*
Y734497D01*
X152490Y732498D01*
X154490Y730499D01*
Y728499D01*
X152490Y726500D01*
X148492D01*
X146492Y728499D01*
Y730499D01*
X148492Y732498D01*
X146492Y734497D01*
Y736497D01*
X148492Y732498D02*
X152490D01*
X257750Y844500D02*
Y854497D01*
X262748D01*
X264415Y852831D01*
Y849498D01*
X262748Y847832D01*
X257750D01*
X261082D02*
X264415Y844500D01*
X272745D02*
Y854497D01*
X267747Y849498D01*
X274411D01*
X277744Y854497D02*
X284408D01*
Y852831D01*
X277744Y846166D01*
Y844500D01*
X14500Y829750D02*
X26496D01*
Y823752D01*
X24497Y821753D01*
X20498D01*
X18499Y823752D01*
Y829750D01*
Y825751D02*
X14500Y821753D01*
Y811756D02*
X26496D01*
X20498Y817754D01*
Y809756D01*
X26496Y797760D02*
X24497Y801759D01*
X20498Y805758D01*
X16499D01*
X14500Y803758D01*
Y799760D01*
X16499Y797760D01*
X18499D01*
X20498Y799760D01*
Y805758D01*
X15000Y759500D02*
X26996D01*
Y753502D01*
X24997Y751503D01*
X20998D01*
X18999Y753502D01*
Y759500D01*
Y755501D02*
X15000Y751503D01*
Y741506D02*
X26996D01*
X20998Y747504D01*
Y739507D01*
X26996Y727510D02*
Y735508D01*
X20998D01*
X22997Y731509D01*
Y729510D01*
X20998Y727510D01*
X16999D01*
X15000Y729510D01*
Y733508D01*
X16999Y735508D01*
X428000Y740000D02*
X437997D01*
Y735002D01*
X436331Y733335D01*
X432998D01*
X431332Y735002D01*
Y740000D01*
Y736668D02*
X428000Y733335D01*
Y725005D02*
X437997D01*
X432998Y730003D01*
Y723339D01*
X428000Y715008D02*
X437997D01*
X432998Y720006D01*
Y713342D01*
X428000Y954000D02*
X437997D01*
Y949002D01*
X436331Y947336D01*
X432998D01*
X431332Y949002D01*
Y954000D01*
Y950668D02*
X428000Y947336D01*
Y939005D02*
X437997D01*
X432998Y944003D01*
Y937339D01*
X436331Y934006D02*
X437997Y932340D01*
Y929008D01*
X436331Y927342D01*
X434664D01*
X432998Y929008D01*
Y930674D01*
Y929008D01*
X431332Y927342D01*
X429666D01*
X428000Y929008D01*
Y932340D01*
X429666Y934006D01*
X315160Y823732D02*
X325157D01*
Y818734D01*
X323491Y817068D01*
X320158D01*
X318492Y818734D01*
Y823732D01*
Y820400D02*
X315160Y817068D01*
Y808737D02*
X325157D01*
X320158Y813735D01*
Y807071D01*
X315160Y797074D02*
Y803739D01*
X321824Y797074D01*
X323491D01*
X325157Y798740D01*
Y802072D01*
X323491Y803739D01*
X428000Y771000D02*
X437997D01*
Y766002D01*
X436331Y764335D01*
X432998D01*
X431332Y766002D01*
Y771000D01*
Y767668D02*
X428000Y764335D01*
Y756005D02*
X437997D01*
X432998Y761003D01*
Y754339D01*
X428000Y751006D02*
Y747674D01*
Y749340D01*
X437997D01*
X436331Y751006D01*
X427000Y988000D02*
X436997D01*
Y983002D01*
X435331Y981336D01*
X431998D01*
X430332Y983002D01*
Y988000D01*
Y984668D02*
X427000Y981336D01*
Y973005D02*
X436997D01*
X431998Y978003D01*
Y971339D01*
X435331Y968006D02*
X436997Y966340D01*
Y963008D01*
X435331Y961342D01*
X428666D01*
X427000Y963008D01*
Y966340D01*
X428666Y968006D01*
X435331D01*
X363750Y651000D02*
X375746D01*
Y645002D01*
X373747Y643003D01*
X369748D01*
X367749Y645002D01*
Y651000D01*
Y647001D02*
X363750Y643003D01*
X373747Y639004D02*
X375746Y637005D01*
Y633006D01*
X373747Y631007D01*
X371747D01*
X369748Y633006D01*
Y635005D01*
Y633006D01*
X367749Y631007D01*
X365749D01*
X363750Y633006D01*
Y637005D01*
X365749Y639004D01*
Y627008D02*
X363750Y625008D01*
Y621010D01*
X365749Y619010D01*
X373747D01*
X375746Y621010D01*
Y625008D01*
X373747Y627008D01*
X371747D01*
X369748Y625008D01*
Y619010D01*
X348500Y973250D02*
X360496D01*
Y967252D01*
X358497Y965253D01*
X354498D01*
X352499Y967252D01*
Y973250D01*
Y969251D02*
X348500Y965253D01*
X358497Y961254D02*
X360496Y959255D01*
Y955256D01*
X358497Y953257D01*
X356497D01*
X354498Y955256D01*
Y957255D01*
Y955256D01*
X352499Y953257D01*
X350499D01*
X348500Y955256D01*
Y959255D01*
X350499Y961254D01*
X358497Y949258D02*
X360496Y947258D01*
Y943260D01*
X358497Y941260D01*
X356497D01*
X354498Y943260D01*
X352499Y941260D01*
X350499D01*
X348500Y943260D01*
Y947258D01*
X350499Y949258D01*
X352499D01*
X354498Y947258D01*
X356497Y949258D01*
X358497D01*
X354498Y947258D02*
Y943260D01*
X428000Y804000D02*
X437997D01*
Y799002D01*
X436331Y797336D01*
X432998D01*
X431332Y799002D01*
Y804000D01*
Y800668D02*
X428000Y797336D01*
X436331Y794003D02*
X437997Y792337D01*
Y789005D01*
X436331Y787339D01*
X434664D01*
X432998Y789005D01*
Y790671D01*
Y789005D01*
X431332Y787339D01*
X429666D01*
X428000Y789005D01*
Y792337D01*
X429666Y794003D01*
X437997Y784006D02*
Y777342D01*
X436331D01*
X429666Y784006D01*
X428000D01*
X153000Y935000D02*
Y946996D01*
X158998D01*
X160997Y944997D01*
Y940998D01*
X158998Y938999D01*
X153000D01*
X156999D02*
X160997Y935000D01*
X164996Y944997D02*
X166996Y946996D01*
X170994D01*
X172994Y944997D01*
Y942997D01*
X170994Y940998D01*
X168995D01*
X170994D01*
X172994Y938999D01*
Y936999D01*
X170994Y935000D01*
X166996D01*
X164996Y936999D01*
X184990Y946996D02*
X180991Y944997D01*
X176992Y940998D01*
Y936999D01*
X178992Y935000D01*
X182990D01*
X184990Y936999D01*
Y938999D01*
X182990Y940998D01*
X176992D01*
X294500Y721250D02*
X306496D01*
Y715252D01*
X304497Y713253D01*
X300498D01*
X298499Y715252D01*
Y721250D01*
Y717251D02*
X294500Y713253D01*
X304497Y709254D02*
X306496Y707254D01*
Y703256D01*
X304497Y701256D01*
X302497D01*
X300498Y703256D01*
Y705255D01*
Y703256D01*
X298499Y701256D01*
X296499D01*
X294500Y703256D01*
Y707254D01*
X296499Y709254D01*
X306496Y689260D02*
Y697258D01*
X300498D01*
X302497Y693259D01*
Y691260D01*
X300498Y689260D01*
X296499D01*
X294500Y691260D01*
Y695258D01*
X296499Y697258D01*
X427000Y1020000D02*
X436997D01*
Y1015002D01*
X435331Y1013335D01*
X431998D01*
X430332Y1015002D01*
Y1020000D01*
Y1016668D02*
X427000Y1013335D01*
X435331Y1010003D02*
X436997Y1008337D01*
Y1005005D01*
X435331Y1003339D01*
X433665D01*
X431998Y1005005D01*
Y1006671D01*
Y1005005D01*
X430332Y1003339D01*
X428666D01*
X427000Y1005005D01*
Y1008337D01*
X428666Y1010003D01*
X427000Y995008D02*
X436997D01*
X431998Y1000006D01*
Y993342D01*
X341750Y649750D02*
X353746D01*
Y643752D01*
X351747Y641753D01*
X347748D01*
X345749Y643752D01*
Y649750D01*
Y645751D02*
X341750Y641753D01*
X351747Y637754D02*
X353746Y635755D01*
Y631756D01*
X351747Y629757D01*
X349747D01*
X347748Y631756D01*
Y633755D01*
Y631756D01*
X345749Y629757D01*
X343749D01*
X341750Y631756D01*
Y635755D01*
X343749Y637754D01*
X341750Y617760D02*
Y625758D01*
X349747Y617760D01*
X351747D01*
X353746Y619760D01*
Y623758D01*
X351747Y625758D01*
X396000Y865000D02*
Y874997D01*
X400998D01*
X402664Y873331D01*
Y869998D01*
X400998Y868332D01*
X396000D01*
X399332D02*
X402664Y865000D01*
X405997Y873331D02*
X407663Y874997D01*
X410995D01*
X412661Y873331D01*
Y871665D01*
X410995Y869998D01*
X409329D01*
X410995D01*
X412661Y868332D01*
Y866666D01*
X410995Y865000D01*
X407663D01*
X405997Y866666D01*
X415994Y865000D02*
X419326D01*
X417660D01*
Y874997D01*
X415994Y873331D01*
X427420Y837580D02*
X437417D01*
Y832582D01*
X435751Y830916D01*
X432418D01*
X430752Y832582D01*
Y837580D01*
Y834248D02*
X427420Y830916D01*
X435751Y827583D02*
X437417Y825917D01*
Y822585D01*
X435751Y820919D01*
X434085D01*
X432418Y822585D01*
Y824251D01*
Y822585D01*
X430752Y820919D01*
X429086D01*
X427420Y822585D01*
Y825917D01*
X429086Y827583D01*
X435751Y817587D02*
X437417Y815920D01*
Y812588D01*
X435751Y810922D01*
X429086D01*
X427420Y812588D01*
Y815920D01*
X429086Y817587D01*
X435751D01*
X428000Y1054000D02*
X437997D01*
Y1049002D01*
X436331Y1047336D01*
X432998D01*
X431332Y1049002D01*
Y1054000D01*
Y1050668D02*
X428000Y1047336D01*
Y1037339D02*
Y1044003D01*
X434664Y1037339D01*
X436331D01*
X437997Y1039005D01*
Y1042337D01*
X436331Y1044003D01*
X429666Y1034006D02*
X428000Y1032340D01*
Y1029008D01*
X429666Y1027342D01*
X436331D01*
X437997Y1029008D01*
Y1032340D01*
X436331Y1034006D01*
X434664D01*
X432998Y1032340D01*
Y1027342D01*
X329250Y923750D02*
Y935246D01*
X334998D01*
X336914Y933330D01*
Y929498D01*
X334998Y927582D01*
X329250D01*
X333082D02*
X336914Y923750D01*
X348410D02*
X340746D01*
X348410Y931414D01*
Y933330D01*
X346494Y935246D01*
X342662D01*
X340746Y933330D01*
X352243D02*
X354159Y935246D01*
X357991D01*
X359907Y933330D01*
Y931414D01*
X357991Y929498D01*
X359907Y927582D01*
Y925666D01*
X357991Y923750D01*
X354159D01*
X352243Y925666D01*
Y927582D01*
X354159Y929498D01*
X352243Y931414D01*
Y933330D01*
X354159Y929498D02*
X357991D01*
X318500Y960500D02*
X328497D01*
Y955502D01*
X326831Y953836D01*
X323498D01*
X321832Y955502D01*
Y960500D01*
Y957168D02*
X318500Y953836D01*
Y943839D02*
Y950503D01*
X325164Y943839D01*
X326831D01*
X328497Y945505D01*
Y948837D01*
X326831Y950503D01*
X328497Y940507D02*
Y933842D01*
X326831D01*
X320166Y940507D01*
X318500D01*
X564000Y1197000D02*
Y1208996D01*
X569998D01*
X571997Y1206997D01*
Y1202998D01*
X569998Y1200999D01*
X564000D01*
X567999D02*
X571997Y1197000D01*
X583993D02*
X575996D01*
X583993Y1204997D01*
Y1206997D01*
X581994Y1208996D01*
X577995D01*
X575996Y1206997D01*
X595990Y1208996D02*
X591991Y1206997D01*
X587992Y1202998D01*
Y1198999D01*
X589992Y1197000D01*
X593990D01*
X595990Y1198999D01*
Y1200999D01*
X593990Y1202998D01*
X587992D01*
X410500Y176000D02*
X422496D01*
Y170002D01*
X420497Y168003D01*
X416498D01*
X414499Y170002D01*
Y176000D01*
Y172001D02*
X410500Y168003D01*
Y156006D02*
Y164004D01*
X418497Y156006D01*
X420497D01*
X422496Y158006D01*
Y162005D01*
X420497Y164004D01*
X422496Y144010D02*
Y152008D01*
X416498D01*
X418497Y148009D01*
Y146010D01*
X416498Y144010D01*
X412499D01*
X410500Y146010D01*
Y150008D01*
X412499Y152008D01*
X576250Y564000D02*
Y575996D01*
X582248D01*
X584247Y573997D01*
Y569998D01*
X582248Y567999D01*
X576250D01*
X580249D02*
X584247Y564000D01*
X596244D02*
X588246D01*
X596244Y571997D01*
Y573997D01*
X594244Y575996D01*
X590246D01*
X588246Y573997D01*
X606240Y564000D02*
Y575996D01*
X600242Y569998D01*
X608240D01*
X650250Y253500D02*
X665485D01*
Y245882D01*
X662946Y243343D01*
X657868D01*
X655328Y245882D01*
Y253500D01*
Y248422D02*
X650250Y243343D01*
Y228108D02*
Y238265D01*
X660407Y228108D01*
X662946D01*
X665485Y230647D01*
Y235726D01*
X662946Y238265D01*
Y223030D02*
X665485Y220491D01*
Y215412D01*
X662946Y212873D01*
X660407D01*
X657868Y215412D01*
Y217952D01*
Y215412D01*
X655328Y212873D01*
X652789D01*
X650250Y215412D01*
Y220491D01*
X652789Y223030D01*
X295290Y300000D02*
Y311996D01*
X301288D01*
X303287Y309997D01*
Y305998D01*
X301288Y303999D01*
X295290D01*
X299289D02*
X303287Y300000D01*
X315284D02*
X307286D01*
X315284Y307997D01*
Y309997D01*
X313284Y311996D01*
X309286D01*
X307286Y309997D01*
X327280Y300000D02*
X319282D01*
X327280Y307997D01*
Y309997D01*
X325280Y311996D01*
X321282D01*
X319282Y309997D01*
X1443000Y925000D02*
X1458235D01*
Y917383D01*
X1455696Y914843D01*
X1450618D01*
X1448078Y917383D01*
Y925000D01*
Y919922D02*
X1443000Y914843D01*
Y899608D02*
Y909765D01*
X1453157Y899608D01*
X1455696D01*
X1458235Y902147D01*
Y907226D01*
X1455696Y909765D01*
X1443000Y894530D02*
Y889452D01*
Y891991D01*
X1458235D01*
X1455696Y894530D01*
X893250Y124750D02*
X905246D01*
Y118752D01*
X903247Y116753D01*
X899248D01*
X897249Y118752D01*
Y124750D01*
Y120751D02*
X893250Y116753D01*
Y104756D02*
Y112754D01*
X901247Y104756D01*
X903247D01*
X905246Y106756D01*
Y110754D01*
X903247Y112754D01*
Y100758D02*
X905246Y98758D01*
Y94760D01*
X903247Y92760D01*
X895249D01*
X893250Y94760D01*
Y98758D01*
X895249Y100758D01*
X903247D01*
X961000Y-52750D02*
Y-40754D01*
X966998D01*
X968997Y-42753D01*
Y-46752D01*
X966998Y-48751D01*
X961000D01*
X964999D02*
X968997Y-52750D01*
X972996D02*
X976995D01*
X974995D01*
Y-40754D01*
X972996Y-42753D01*
X982993Y-50751D02*
X984992Y-52750D01*
X988991D01*
X990990Y-50751D01*
Y-42753D01*
X988991Y-40754D01*
X984992D01*
X982993Y-42753D01*
Y-44753D01*
X984992Y-46752D01*
X990990D01*
X199750Y840000D02*
X211746D01*
Y834002D01*
X209747Y832003D01*
X205748D01*
X203749Y834002D01*
Y840000D01*
Y836001D02*
X199750Y832003D01*
Y828004D02*
Y824005D01*
Y826004D01*
X211746D01*
X209747Y828004D01*
Y818007D02*
X211746Y816008D01*
Y812009D01*
X209747Y810010D01*
X207747D01*
X205748Y812009D01*
X203749Y810010D01*
X201749D01*
X199750Y812009D01*
Y816008D01*
X201749Y818007D01*
X203749D01*
X205748Y816008D01*
X207747Y818007D01*
X209747D01*
X205748Y816008D02*
Y812009D01*
X514750Y544750D02*
X526746D01*
Y538752D01*
X524747Y536753D01*
X520748D01*
X518749Y538752D01*
Y544750D01*
Y540751D02*
X514750Y536753D01*
Y532754D02*
Y528755D01*
Y530755D01*
X526746D01*
X524747Y532754D01*
X526746Y522757D02*
Y514760D01*
X524747D01*
X516749Y522757D01*
X514750D01*
X824000Y94000D02*
Y105996D01*
X829998D01*
X831997Y103997D01*
Y99998D01*
X829998Y97999D01*
X824000D01*
X827999D02*
X831997Y94000D01*
X835996D02*
X839995D01*
X837996D01*
Y105996D01*
X835996Y103997D01*
X853990Y105996D02*
X849992Y103997D01*
X845993Y99998D01*
Y95999D01*
X847992Y94000D01*
X851991D01*
X853990Y95999D01*
Y97999D01*
X851991Y99998D01*
X845993D01*
X239500Y943500D02*
X251496D01*
Y937502D01*
X249497Y935503D01*
X245498D01*
X243499Y937502D01*
Y943500D01*
Y939501D02*
X239500Y935503D01*
Y931504D02*
Y927505D01*
Y929504D01*
X251496D01*
X249497Y931504D01*
X251496Y913510D02*
Y921507D01*
X245498D01*
X247497Y917508D01*
Y915509D01*
X245498Y913510D01*
X241499D01*
X239500Y915509D01*
Y919508D01*
X241499Y921507D01*
X392500Y544000D02*
X404496D01*
Y538002D01*
X402497Y536003D01*
X398498D01*
X396499Y538002D01*
Y544000D01*
Y540001D02*
X392500Y536003D01*
Y532004D02*
Y528005D01*
Y530005D01*
X404496D01*
X402497Y532004D01*
X392500Y516009D02*
X404496D01*
X398498Y522007D01*
Y514010D01*
X799500Y-84500D02*
Y-72504D01*
X805498D01*
X807497Y-74503D01*
Y-78502D01*
X805498Y-80501D01*
X799500D01*
X803499D02*
X807497Y-84500D01*
X819493D02*
X811496D01*
X819493Y-76503D01*
Y-74503D01*
X817494Y-72504D01*
X813495D01*
X811496Y-74503D01*
X613000Y432000D02*
Y443996D01*
X618998D01*
X620997Y441997D01*
Y437998D01*
X618998Y435999D01*
X613000D01*
X616999D02*
X620997Y432000D01*
X624996D02*
X628995D01*
X626996D01*
Y443996D01*
X624996Y441997D01*
X429499Y1099503D02*
X437497D01*
X439496Y1101502D01*
Y1105501D01*
X437497Y1107500D01*
X429499D01*
X427500Y1105501D01*
Y1101502D01*
X431499Y1103501D02*
X427500Y1099503D01*
Y1101502D02*
X429499Y1099503D01*
X427500Y1095504D02*
Y1091505D01*
Y1093504D01*
X439496D01*
X437497Y1095504D01*
Y1085507D02*
X439496Y1083508D01*
Y1079509D01*
X437497Y1077510D01*
X429499D01*
X427500Y1079509D01*
Y1083508D01*
X429499Y1085507D01*
X437497D01*
X410664Y740666D02*
Y747331D01*
X408998Y748997D01*
X405666D01*
X404000Y747331D01*
Y740666D01*
X405666Y739000D01*
X408998D01*
X407332Y742332D02*
X410664Y739000D01*
X408998D02*
X410664Y740666D01*
X413997D02*
X415663Y739000D01*
X418995D01*
X420661Y740666D01*
Y747331D01*
X418995Y748997D01*
X415663D01*
X413997Y747331D01*
Y745665D01*
X415663Y743998D01*
X420661D01*
X386166Y1007085D02*
X392831D01*
X394497Y1008752D01*
Y1012084D01*
X392831Y1013750D01*
X386166D01*
X384500Y1012084D01*
Y1008752D01*
X387832Y1010418D02*
X384500Y1007085D01*
Y1008752D02*
X386166Y1007085D01*
X392831Y1003753D02*
X394497Y1002087D01*
Y998755D01*
X392831Y997089D01*
X391165D01*
X389498Y998755D01*
X387832Y997089D01*
X386166D01*
X384500Y998755D01*
Y1002087D01*
X386166Y1003753D01*
X387832D01*
X389498Y1002087D01*
X391165Y1003753D01*
X392831D01*
X389498Y1002087D02*
Y998755D01*
X435747Y656749D02*
Y664747D01*
X433748Y666746D01*
X429749D01*
X427750Y664747D01*
Y656749D01*
X429749Y654750D01*
X433748D01*
X431749Y658749D02*
X435747Y654750D01*
X433748D02*
X435747Y656749D01*
X439746Y666746D02*
X447743D01*
Y664747D01*
X439746Y656749D01*
Y654750D01*
X398249Y323003D02*
X406247D01*
X408246Y325002D01*
Y329001D01*
X406247Y331000D01*
X398249D01*
X396250Y329001D01*
Y325002D01*
X400249Y327001D02*
X396250Y323003D01*
Y325002D02*
X398249Y323003D01*
X408246Y311007D02*
X406247Y315005D01*
X402248Y319004D01*
X398249D01*
X396250Y317005D01*
Y313006D01*
X398249Y311007D01*
X400249D01*
X402248Y313006D01*
Y319004D01*
X480657Y306539D02*
Y316696D01*
X478117Y319235D01*
X473039D01*
X470500Y316696D01*
Y306539D01*
X473039Y304000D01*
X478117D01*
X475578Y309078D02*
X480657Y304000D01*
X478117D02*
X480657Y306539D01*
X495892Y319235D02*
X485735D01*
Y311618D01*
X490813Y314157D01*
X493353D01*
X495892Y311618D01*
Y306539D01*
X493353Y304000D01*
X488274D01*
X485735Y306539D01*
X939499Y104253D02*
X947497D01*
X949496Y106252D01*
Y110251D01*
X947497Y112250D01*
X939499D01*
X937500Y110251D01*
Y106252D01*
X941499Y108251D02*
X937500Y104253D01*
Y106252D02*
X939499Y104253D01*
X947497Y100254D02*
X949496Y98254D01*
Y94256D01*
X947497Y92256D01*
X945497D01*
X943498Y94256D01*
Y96255D01*
Y94256D01*
X941499Y92256D01*
X939499D01*
X937500Y94256D01*
Y98254D01*
X939499Y100254D01*
X764999Y-16997D02*
X772997D01*
X774996Y-14998D01*
Y-10999D01*
X772997Y-9000D01*
X764999D01*
X763000Y-10999D01*
Y-14998D01*
X766999Y-12999D02*
X763000Y-16997D01*
Y-14998D02*
X764999Y-16997D01*
X763000Y-20996D02*
Y-24995D01*
Y-22996D01*
X774996D01*
X772997Y-20996D01*
X85997Y608996D02*
X81999D01*
X83998D01*
Y598999D01*
X81999Y597000D01*
X79999D01*
X78000Y598999D01*
X95994Y597000D02*
Y608996D01*
X89996Y602998D01*
X97993D01*
X25997Y-43504D02*
X21999D01*
X23998D01*
Y-53501D01*
X21999Y-55500D01*
X19999D01*
X18000Y-53501D01*
X37994Y-55500D02*
X29996D01*
X37994Y-47503D01*
Y-45503D01*
X35994Y-43504D01*
X31995D01*
X29996Y-45503D01*
X376250Y738996D02*
Y727000D01*
X382248D01*
X384247Y728999D01*
Y736997D01*
X382248Y738996D01*
X376250D01*
X388246D02*
X396244D01*
Y736997D01*
X388246Y728999D01*
Y727000D01*
X320250Y1034996D02*
Y1023000D01*
X326248D01*
X328247Y1024999D01*
Y1032997D01*
X326248Y1034996D01*
X320250D01*
X340243D02*
X336245Y1032997D01*
X332246Y1028998D01*
Y1024999D01*
X334245Y1023000D01*
X338244D01*
X340243Y1024999D01*
Y1026999D01*
X338244Y1028998D01*
X332246D01*
X106500Y756496D02*
Y744500D01*
X112498D01*
X114497Y746499D01*
Y754497D01*
X112498Y756496D01*
X106500D01*
X126494D02*
X118496D01*
Y750498D01*
X122495Y752497D01*
X124494D01*
X126494Y750498D01*
Y746499D01*
X124494Y744500D01*
X120496D01*
X118496Y746499D01*
X395415Y847331D02*
X393748Y848997D01*
X390416D01*
X388750Y847331D01*
Y840666D01*
X390416Y839000D01*
X393748D01*
X395415Y840666D01*
X403745Y839000D02*
Y848997D01*
X398747Y843998D01*
X405411D01*
X413742Y839000D02*
Y848997D01*
X408744Y843998D01*
X415408D01*
X140247Y841497D02*
X138248Y843496D01*
X134249D01*
X132250Y841497D01*
Y833499D01*
X134249Y831500D01*
X138248D01*
X140247Y833499D01*
X150244Y831500D02*
Y843496D01*
X144246Y837498D01*
X152243D01*
X164240Y831500D02*
X156242D01*
X164240Y839497D01*
Y841497D01*
X162240Y843496D01*
X158242D01*
X156242Y841497D01*
X24997Y863997D02*
X22998Y865996D01*
X18999D01*
X17000Y863997D01*
Y855999D01*
X18999Y854000D01*
X22998D01*
X24997Y855999D01*
X34994Y854000D02*
Y865996D01*
X28996Y859998D01*
X36994D01*
X40992Y854000D02*
X44991D01*
X42992D01*
Y865996D01*
X40992Y863997D01*
X279747Y727503D02*
X281746Y729502D01*
Y733501D01*
X279747Y735500D01*
X271749D01*
X269750Y733501D01*
Y729502D01*
X271749Y727503D01*
X279747Y723504D02*
X281746Y721505D01*
Y717506D01*
X279747Y715507D01*
X277747D01*
X275748Y717506D01*
Y719505D01*
Y717506D01*
X273749Y715507D01*
X271749D01*
X269750Y717506D01*
Y721505D01*
X271749Y723504D01*
X279747Y711508D02*
X281746Y709508D01*
Y705510D01*
X279747Y703510D01*
X277747D01*
X275748Y705510D01*
X273749Y703510D01*
X271749D01*
X269750Y705510D01*
Y709508D01*
X271749Y711508D01*
X273749D01*
X275748Y709508D01*
X277747Y711508D01*
X279747D01*
X275748Y709508D02*
Y705510D01*
X390483Y770360D02*
X392149Y772027D01*
Y775359D01*
X390483Y777025D01*
X383818D01*
X382152Y775359D01*
Y772027D01*
X383818Y770360D01*
X390483Y767028D02*
X392149Y765362D01*
Y762030D01*
X390483Y760364D01*
X388816D01*
X387150Y762030D01*
Y763696D01*
Y762030D01*
X385484Y760364D01*
X383818D01*
X382152Y762030D01*
Y765362D01*
X383818Y767028D01*
X392149Y750367D02*
X390483Y753699D01*
X387150Y757031D01*
X383818D01*
X382152Y755365D01*
Y752033D01*
X383818Y750367D01*
X385484D01*
X387150Y752033D01*
Y757031D01*
X315247Y1049997D02*
X313248Y1051996D01*
X309249D01*
X307250Y1049997D01*
Y1041999D01*
X309249Y1040000D01*
X313248D01*
X315247Y1041999D01*
X319246Y1049997D02*
X321245Y1051996D01*
X325244D01*
X327243Y1049997D01*
Y1047997D01*
X325244Y1045998D01*
X323245D01*
X325244D01*
X327243Y1043999D01*
Y1041999D01*
X325244Y1040000D01*
X321245D01*
X319246Y1041999D01*
X339240Y1051996D02*
X331242D01*
Y1045998D01*
X335241Y1047997D01*
X337240D01*
X339240Y1045998D01*
Y1041999D01*
X337240Y1040000D01*
X333242D01*
X331242Y1041999D01*
X21497Y681003D02*
X23496Y683002D01*
Y687001D01*
X21497Y689000D01*
X13499D01*
X11500Y687001D01*
Y683002D01*
X13499Y681003D01*
X21497Y677004D02*
X23496Y675005D01*
Y671006D01*
X21497Y669007D01*
X19497D01*
X17498Y671006D01*
Y673005D01*
Y671006D01*
X15499Y669007D01*
X13499D01*
X11500Y671006D01*
Y675005D01*
X13499Y677004D01*
X11500Y659010D02*
X23496D01*
X17498Y665008D01*
Y657010D01*
X211665Y874331D02*
X209998Y875997D01*
X206666D01*
X205000Y874331D01*
Y867666D01*
X206666Y866000D01*
X209998D01*
X211665Y867666D01*
X214997Y874331D02*
X216663Y875997D01*
X219995D01*
X221661Y874331D01*
Y872664D01*
X219995Y870998D01*
X218329D01*
X219995D01*
X221661Y869332D01*
Y867666D01*
X219995Y866000D01*
X216663D01*
X214997Y867666D01*
X224994Y874331D02*
X226660Y875997D01*
X229992D01*
X231658Y874331D01*
Y872664D01*
X229992Y870998D01*
X228326D01*
X229992D01*
X231658Y869332D01*
Y867666D01*
X229992Y866000D01*
X226660D01*
X224994Y867666D01*
X233997Y910753D02*
X235996Y912752D01*
Y916751D01*
X233997Y918750D01*
X225999D01*
X224000Y916751D01*
Y912752D01*
X225999Y910753D01*
X233997Y906754D02*
X235996Y904754D01*
Y900756D01*
X233997Y898756D01*
X231997D01*
X229998Y900756D01*
Y902755D01*
Y900756D01*
X227999Y898756D01*
X225999D01*
X224000Y900756D01*
Y904754D01*
X225999Y906754D01*
X224000Y886760D02*
Y894758D01*
X231997Y886760D01*
X233997D01*
X235996Y888760D01*
Y892758D01*
X233997Y894758D01*
X322915Y715831D02*
X321248Y717497D01*
X317916D01*
X316250Y715831D01*
Y709166D01*
X317916Y707500D01*
X321248D01*
X322915Y709166D01*
X326247Y715831D02*
X327913Y717497D01*
X331245D01*
X332911Y715831D01*
Y714165D01*
X331245Y712498D01*
X329579D01*
X331245D01*
X332911Y710832D01*
Y709166D01*
X331245Y707500D01*
X327913D01*
X326247Y709166D01*
X336244Y707500D02*
X339576D01*
X337910D01*
Y717497D01*
X336244Y715831D01*
X342247Y1000503D02*
X344246Y1002502D01*
Y1006501D01*
X342247Y1008500D01*
X334249D01*
X332250Y1006501D01*
Y1002502D01*
X334249Y1000503D01*
X342247Y996504D02*
X344246Y994504D01*
Y990506D01*
X342247Y988506D01*
X340247D01*
X338248Y990506D01*
Y992505D01*
Y990506D01*
X336249Y988506D01*
X334249D01*
X332250Y990506D01*
Y994504D01*
X334249Y996504D01*
X342247Y984508D02*
X344246Y982508D01*
Y978510D01*
X342247Y976510D01*
X334249D01*
X332250Y978510D01*
Y982508D01*
X334249Y984508D01*
X342247D01*
X159497Y865497D02*
X157498Y867496D01*
X153499D01*
X151500Y865497D01*
Y857499D01*
X153499Y855500D01*
X157498D01*
X159497Y857499D01*
X171493Y855500D02*
X163496D01*
X171493Y863497D01*
Y865497D01*
X169494Y867496D01*
X165495D01*
X163496Y865497D01*
X175492D02*
X177492Y867496D01*
X181490D01*
X183490Y865497D01*
Y863497D01*
X181490Y861498D01*
X183490Y859499D01*
Y857499D01*
X181490Y855500D01*
X177492D01*
X175492Y857499D01*
Y859499D01*
X177492Y861498D01*
X175492Y863497D01*
Y865497D01*
X177492Y861498D02*
X181490D01*
X423331Y916336D02*
X424997Y918002D01*
Y921334D01*
X423331Y923000D01*
X416666D01*
X415000Y921334D01*
Y918002D01*
X416666Y916336D01*
X415000Y906339D02*
Y913003D01*
X421665Y906339D01*
X423331D01*
X424997Y908005D01*
Y911337D01*
X423331Y913003D01*
X415000Y898008D02*
X424997D01*
X419998Y903006D01*
Y896342D01*
X291497Y1011003D02*
X293496Y1013002D01*
Y1017001D01*
X291497Y1019000D01*
X283499D01*
X281500Y1017001D01*
Y1013002D01*
X283499Y1011003D01*
X281500Y999007D02*
Y1007004D01*
X289497Y999007D01*
X291497D01*
X293496Y1001006D01*
Y1005005D01*
X291497Y1007004D01*
Y995008D02*
X293496Y993008D01*
Y989010D01*
X291497Y987010D01*
X289497D01*
X287498Y989010D01*
Y991009D01*
Y989010D01*
X285499Y987010D01*
X283499D01*
X281500Y989010D01*
Y993008D01*
X283499Y995008D01*
X482247Y656253D02*
X484246Y658252D01*
Y662251D01*
X482247Y664250D01*
X474249D01*
X472250Y662251D01*
Y658252D01*
X474249Y656253D01*
X472250Y644257D02*
Y652254D01*
X480247Y644257D01*
X482247D01*
X484246Y646256D01*
Y650255D01*
X482247Y652254D01*
X472250Y632260D02*
Y640258D01*
X480247Y632260D01*
X482247D01*
X484246Y634260D01*
Y638258D01*
X482247Y640258D01*
X499997Y1091003D02*
X501996Y1093002D01*
Y1097001D01*
X499997Y1099000D01*
X491999D01*
X490000Y1097001D01*
Y1093002D01*
X491999Y1091003D01*
X490000Y1079007D02*
Y1087004D01*
X497997Y1079007D01*
X499997D01*
X501996Y1081006D01*
Y1085005D01*
X499997Y1087004D01*
X490000Y1075008D02*
Y1071009D01*
Y1073008D01*
X501996D01*
X499997Y1075008D01*
X457497Y1131003D02*
X459496Y1133002D01*
Y1137001D01*
X457497Y1139000D01*
X449499D01*
X447500Y1137001D01*
Y1133002D01*
X449499Y1131003D01*
X447500Y1119007D02*
Y1127004D01*
X455497Y1119007D01*
X457497D01*
X459496Y1121006D01*
Y1125005D01*
X457497Y1127004D01*
Y1115008D02*
X459496Y1113008D01*
Y1109010D01*
X457497Y1107010D01*
X449499D01*
X447500Y1109010D01*
Y1113008D01*
X449499Y1115008D01*
X457497D01*
X460997Y659003D02*
X462996Y661002D01*
Y665001D01*
X460997Y667000D01*
X452999D01*
X451000Y665001D01*
Y661002D01*
X452999Y659003D01*
X451000Y655004D02*
Y651005D01*
Y653005D01*
X462996D01*
X460997Y655004D01*
X452999Y645007D02*
X451000Y643008D01*
Y639009D01*
X452999Y637010D01*
X460997D01*
X462996Y639009D01*
Y643008D01*
X460997Y645007D01*
X458997D01*
X456998Y643008D01*
Y637010D01*
X662446Y297343D02*
X664985Y299883D01*
Y304961D01*
X662446Y307500D01*
X652289D01*
X649750Y304961D01*
Y299883D01*
X652289Y297343D01*
X649750Y292265D02*
Y287187D01*
Y289726D01*
X664985D01*
X662446Y292265D01*
Y279569D02*
X664985Y277030D01*
Y271952D01*
X662446Y269412D01*
X659907D01*
X657367Y271952D01*
X654828Y269412D01*
X652289D01*
X649750Y271952D01*
Y277030D01*
X652289Y279569D01*
X654828D01*
X657367Y277030D01*
X659907Y279569D01*
X662446D01*
X657367Y277030D02*
Y271952D01*
X778031Y1211164D02*
X776198Y1212997D01*
X772533D01*
X770700Y1211164D01*
Y1203833D01*
X772533Y1202000D01*
X776198D01*
X778031Y1203833D01*
X781696Y1202000D02*
X785362D01*
X783529D01*
Y1212997D01*
X781696Y1211164D01*
X790860Y1212997D02*
X798191D01*
Y1211164D01*
X790860Y1203833D01*
Y1202000D01*
X699747Y503247D02*
X697748Y505246D01*
X693749D01*
X691750Y503247D01*
Y495249D01*
X693749Y493250D01*
X697748D01*
X699747Y495249D01*
X703746Y493250D02*
X707745D01*
X705745D01*
Y505246D01*
X703746Y503247D01*
X721740Y505246D02*
X717742Y503247D01*
X713743Y499248D01*
Y495249D01*
X715742Y493250D01*
X719741D01*
X721740Y495249D01*
Y497249D01*
X719741Y499248D01*
X713743D01*
X1442696Y990843D02*
X1445235Y993382D01*
Y998461D01*
X1442696Y1001000D01*
X1432539D01*
X1430000Y998461D01*
Y993382D01*
X1432539Y990843D01*
X1430000Y985765D02*
Y980687D01*
Y983226D01*
X1445235D01*
X1442696Y985765D01*
X1445235Y962912D02*
Y973069D01*
X1437617D01*
X1440157Y967991D01*
Y965452D01*
X1437617Y962912D01*
X1432539D01*
X1430000Y965452D01*
Y970530D01*
X1432539Y973069D01*
X253747Y739253D02*
X255746Y741252D01*
Y745251D01*
X253747Y747250D01*
X245749D01*
X243750Y745251D01*
Y741252D01*
X245749Y739253D01*
X243750Y735254D02*
Y731255D01*
Y733254D01*
X255746D01*
X253747Y735254D01*
X243750Y719259D02*
X255746D01*
X249748Y725257D01*
Y717260D01*
X828747Y15747D02*
X826748Y17746D01*
X822749D01*
X820750Y15747D01*
Y7749D01*
X822749Y5750D01*
X826748D01*
X828747Y7749D01*
X832746Y5750D02*
X836745D01*
X834745D01*
Y17746D01*
X832746Y15747D01*
X842743D02*
X844742Y17746D01*
X848741D01*
X850740Y15747D01*
Y13747D01*
X848741Y11748D01*
X846742D01*
X848741D01*
X850740Y9749D01*
Y7749D01*
X848741Y5750D01*
X844742D01*
X842743Y7749D01*
X246997Y981253D02*
X248996Y983252D01*
Y987251D01*
X246997Y989250D01*
X238999D01*
X237000Y987251D01*
Y983252D01*
X238999Y981253D01*
X237000Y977254D02*
Y973255D01*
Y975255D01*
X248996D01*
X246997Y977254D01*
X237000Y959260D02*
Y967257D01*
X244997Y959260D01*
X246997D01*
X248996Y961259D01*
Y965258D01*
X246997Y967257D01*
X573997Y507997D02*
X571998Y509996D01*
X567999D01*
X566000Y507997D01*
Y499999D01*
X567999Y498000D01*
X571998D01*
X573997Y499999D01*
X577996Y498000D02*
X581995D01*
X579995D01*
Y509996D01*
X577996Y507997D01*
X708250Y884246D02*
X716247D01*
X712249D01*
Y872250D01*
X720246D02*
Y884246D01*
X726244D01*
X728243Y882247D01*
Y878248D01*
X726244Y876249D01*
X720246D01*
X724245D02*
X728243Y872250D01*
X732242D02*
X736241D01*
X734242D01*
Y884246D01*
X732242Y882247D01*
X16510Y93726D02*
Y105722D01*
X20509Y101723D01*
X24507Y105722D01*
Y93726D01*
X28506Y105722D02*
Y93726D01*
Y99724D01*
X36504D01*
Y105722D01*
Y93726D01*
X40502Y95725D02*
X42502Y93726D01*
X46500D01*
X48500Y95725D01*
Y103723D01*
X46500Y105722D01*
X42502D01*
X40502Y103723D01*
Y101723D01*
X42502Y99724D01*
X48500D01*
X1426000Y1104000D02*
Y1115996D01*
X1429999Y1111997D01*
X1433997Y1115996D01*
Y1104000D01*
X1437996Y1115996D02*
Y1104000D01*
Y1109998D01*
X1445993D01*
Y1115996D01*
Y1104000D01*
X1449992D02*
X1453991D01*
X1451992D01*
Y1115996D01*
X1449992Y1113997D01*
X1459989Y1104000D02*
X1463988D01*
X1461988D01*
Y1115996D01*
X1459989Y1113997D01*
X196665Y859081D02*
X194998Y860747D01*
X191666D01*
X190000Y859081D01*
Y852416D01*
X191666Y850750D01*
X194998D01*
X196665Y852416D01*
X199997Y850750D02*
X203329D01*
X201663D01*
Y860747D01*
X199997Y859081D01*
X213326Y850750D02*
Y860747D01*
X208327Y855748D01*
X214992D01*
X224989Y850750D02*
X218324D01*
X224989Y857414D01*
Y859081D01*
X223323Y860747D01*
X219990D01*
X218324Y859081D01*
X438250Y219985D02*
Y204750D01*
X445868D01*
X448407Y207289D01*
Y217446D01*
X445868Y219985D01*
X438250D01*
X453485Y217446D02*
X456024Y219985D01*
X461103D01*
X463642Y217446D01*
Y214907D01*
X461103Y212367D01*
X463642Y209828D01*
Y207289D01*
X461103Y204750D01*
X456024D01*
X453485Y207289D01*
Y209828D01*
X456024Y212367D01*
X453485Y214907D01*
Y217446D01*
X456024Y212367D02*
X461103D01*
X295290Y262000D02*
Y273996D01*
X301288D01*
X303287Y271997D01*
Y267998D01*
X301288Y265999D01*
X295290D01*
X299289D02*
X303287Y262000D01*
X315284Y273996D02*
X307286D01*
Y267998D01*
X311285Y269997D01*
X313284D01*
X315284Y267998D01*
Y263999D01*
X313284Y262000D01*
X309286D01*
X307286Y263999D01*
X319282Y271997D02*
X321282Y273996D01*
X325280D01*
X327280Y271997D01*
Y269997D01*
X325280Y267998D01*
X327280Y265999D01*
Y263999D01*
X325280Y262000D01*
X321282D01*
X319282Y263999D01*
Y265999D01*
X321282Y267998D01*
X319282Y269997D01*
Y271997D01*
X321282Y267998D02*
X325280D01*
X296290Y225000D02*
Y236996D01*
X302288D01*
X304287Y234997D01*
Y230998D01*
X302288Y228999D01*
X296290D01*
X300289D02*
X304287Y225000D01*
X316283Y236996D02*
X308286D01*
Y230998D01*
X312285Y232997D01*
X314284D01*
X316283Y230998D01*
Y226999D01*
X314284Y225000D01*
X310285D01*
X308286Y226999D01*
X320282D02*
X322282Y225000D01*
X326280D01*
X328280Y226999D01*
Y234997D01*
X326280Y236996D01*
X322282D01*
X320282Y234997D01*
Y232997D01*
X322282Y230998D01*
X328280D01*
X817400Y-16004D02*
Y-28000D01*
X823398D01*
X825397Y-26001D01*
Y-18003D01*
X823398Y-16004D01*
X817400D01*
X829396Y-28000D02*
X833395D01*
X831395D01*
Y-16004D01*
X829396Y-18003D01*
X988996Y113500D02*
X977000D01*
Y107502D01*
X978999Y105503D01*
X986997D01*
X988996Y107502D01*
Y113500D01*
X986997Y101504D02*
X988996Y99504D01*
Y95506D01*
X986997Y93506D01*
X984997D01*
X982998Y95506D01*
Y97505D01*
Y95506D01*
X980999Y93506D01*
X978999D01*
X977000Y95506D01*
Y99504D01*
X978999Y101504D01*
X1428750Y739750D02*
Y751746D01*
X1432749Y747747D01*
X1436747Y751746D01*
Y739750D01*
X1440746Y751746D02*
Y739750D01*
Y745748D01*
X1448743D01*
Y751746D01*
Y739750D01*
X1452742D02*
X1456741D01*
X1454742D01*
Y751746D01*
X1452742Y749747D01*
X1462739D02*
X1464738Y751746D01*
X1468737D01*
X1470736Y749747D01*
Y741749D01*
X1468737Y739750D01*
X1464738D01*
X1462739Y741749D01*
Y749747D01*
X50038Y1077463D02*
X55116D01*
X52577D01*
Y1062228D01*
X50038D01*
X55116D01*
X62734Y1077463D02*
Y1062228D01*
X67812Y1067306D01*
X72891Y1062228D01*
Y1077463D01*
X77969Y1062228D02*
Y1077463D01*
X83047Y1072385D01*
X88126Y1077463D01*
Y1062228D01*
X93204Y1074924D02*
X95743Y1077463D01*
X100822D01*
X103361Y1074924D01*
Y1072385D01*
X100822Y1069846D01*
X98282D01*
X100822D01*
X103361Y1067306D01*
Y1064767D01*
X100822Y1062228D01*
X95743D01*
X93204Y1064767D01*
X108439Y1077463D02*
X118596D01*
Y1074924D01*
X108439Y1064767D01*
Y1062228D01*
X123674Y1077463D02*
Y1062228D01*
Y1069846D01*
X133831D01*
Y1077463D01*
Y1062228D01*
X154144D02*
Y1077463D01*
X159223Y1072385D01*
X164301Y1077463D01*
Y1062228D01*
X169379D02*
Y1077463D01*
X176997D01*
X179536Y1074924D01*
Y1069846D01*
X176997Y1067306D01*
X169379D01*
X174458D02*
X179536Y1062228D01*
X184615Y1077463D02*
X189693D01*
X187154D01*
Y1062228D01*
X184615D01*
X189693D01*
X212545D02*
Y1072385D01*
X217624Y1077463D01*
X222702Y1072385D01*
Y1062228D01*
Y1069846D01*
X212545D01*
X227780Y1062228D02*
Y1077463D01*
X232859Y1072385D01*
X237937Y1077463D01*
Y1062228D01*
X243016D02*
Y1077463D01*
X250633D01*
X253172Y1074924D01*
Y1069846D01*
X250633Y1067306D01*
X243016D01*
X268407Y1062228D02*
X258251D01*
X268407Y1072385D01*
Y1074924D01*
X265868Y1077463D01*
X260790D01*
X258251Y1074924D01*
X700250Y132735D02*
Y122578D01*
X705328Y117500D01*
X710407Y122578D01*
Y132735D01*
X718024Y127657D02*
X723103D01*
X725642Y125118D01*
Y117500D01*
X718024D01*
X715485Y120039D01*
X718024Y122578D01*
X725642D01*
X730720Y117500D02*
Y127657D01*
X733259D01*
X735798Y125118D01*
Y117500D01*
Y125118D01*
X738338Y127657D01*
X740877Y125118D01*
Y117500D01*
X745955Y112422D02*
Y127657D01*
X753573D01*
X756112Y125118D01*
Y120039D01*
X753573Y117500D01*
X745955D01*
X299250Y-7500D02*
Y2657D01*
X301789D01*
X304328Y117D01*
Y-7500D01*
Y117D01*
X306868Y2657D01*
X309407Y117D01*
Y-7500D01*
X317024D02*
X322103D01*
X324642Y-4961D01*
Y117D01*
X322103Y2657D01*
X317024D01*
X314485Y117D01*
Y-4961D01*
X317024Y-7500D01*
X329720D02*
Y2657D01*
X337338D01*
X339877Y117D01*
Y-7500D01*
X344955D02*
X350034D01*
X347494D01*
Y2657D01*
X344955D01*
X360190Y5196D02*
Y2657D01*
X357651D01*
X362729D01*
X360190D01*
Y-4961D01*
X362729Y-7500D01*
X372886D02*
X377965D01*
X380504Y-4961D01*
Y117D01*
X377965Y2657D01*
X372886D01*
X370347Y117D01*
Y-4961D01*
X372886Y-7500D01*
X385582Y2657D02*
Y-7500D01*
Y-2422D01*
X388121Y117D01*
X390660Y2657D01*
X393200D01*
X1332500Y547500D02*
Y542422D01*
Y544961D01*
X1347735D01*
X1345196Y547500D01*
X1332500Y92343D02*
Y102500D01*
X1342657Y92343D01*
X1345196D01*
X1347735Y94882D01*
Y99961D01*
X1345196Y102500D01*
X1222500Y162383D02*
X1237735D01*
X1230117Y170000D01*
Y159843D01*
X1230196Y482500D02*
X1232735Y479961D01*
Y474883D01*
X1230196Y472343D01*
X1227657D01*
X1225117Y474883D01*
Y477422D01*
Y474883D01*
X1222578Y472343D01*
X1220039D01*
X1217500Y474883D01*
Y479961D01*
X1220039Y482500D01*
X1347500Y626500D02*
Y631578D01*
Y629039D01*
X1332265D01*
X1334804Y626500D01*
X1284250Y69750D02*
Y84985D01*
X1291868D01*
X1294407Y82446D01*
Y77368D01*
X1291868Y74828D01*
X1284250D01*
X1289328D02*
X1294407Y69750D01*
X1309642Y84985D02*
X1299485D01*
Y77368D01*
X1304563D01*
X1299485D01*
Y69750D01*
X1332494D02*
X1337573D01*
X1340112Y72289D01*
Y77368D01*
X1337573Y79907D01*
X1332494D01*
X1329955Y77368D01*
Y72289D01*
X1332494Y69750D01*
X1345190Y79907D02*
Y72289D01*
X1347729Y69750D01*
X1355347D01*
Y79907D01*
X1362965Y82446D02*
Y79907D01*
X1360425D01*
X1365504D01*
X1362965D01*
Y72289D01*
X1365504Y69750D01*
X60157Y8485D02*
X50000D01*
Y-6750D01*
X60157D01*
X50000Y868D02*
X55078D01*
X65235Y-6750D02*
Y3407D01*
X72853D01*
X75392Y868D01*
Y-6750D01*
X83009Y3407D02*
X88088D01*
X90627Y868D01*
Y-6750D01*
X83009D01*
X80470Y-4211D01*
X83009Y-1672D01*
X90627D01*
X95705Y8485D02*
Y-6750D01*
X103323D01*
X105862Y-4211D01*
Y-1672D01*
Y868D01*
X103323Y3407D01*
X95705D01*
X110940Y-6750D02*
X116019D01*
X113479D01*
Y8485D01*
X110940D01*
X131254Y-6750D02*
X126175D01*
X123636Y-4211D01*
Y868D01*
X126175Y3407D01*
X131254D01*
X133793Y868D01*
Y-1672D01*
X123636D01*
X145000Y646000D02*
Y661235D01*
X152618D01*
X155157Y658696D01*
Y653617D01*
X152618Y651078D01*
X145000D01*
X150078D02*
X155157Y646000D01*
X170392Y661235D02*
X160235D01*
Y653617D01*
X165313D01*
X160235D01*
Y646000D01*
X190705Y661235D02*
X195784D01*
X193244D01*
Y646000D01*
X190705D01*
X195784D01*
X203401D02*
Y661235D01*
X213558Y646000D01*
Y661235D01*
X461750Y128485D02*
Y113250D01*
X469367D01*
X471907Y115789D01*
Y125946D01*
X469367Y128485D01*
X461750D01*
X487142Y125946D02*
X484603Y128485D01*
X479524D01*
X476985Y125946D01*
Y115789D01*
X479524Y113250D01*
X484603D01*
X487142Y115789D01*
X507455Y128485D02*
X512534D01*
X509994D01*
Y113250D01*
X507455D01*
X512534D01*
X520151D02*
Y128485D01*
X530308Y113250D01*
Y128485D01*
X126235Y257000D02*
X111000D01*
Y249382D01*
X113539Y246843D01*
X123696D01*
X126235Y249382D01*
Y257000D01*
X123696Y231608D02*
X126235Y234147D01*
Y239226D01*
X123696Y241765D01*
X113539D01*
X111000Y239226D01*
Y234147D01*
X113539Y231608D01*
X111000Y211295D02*
Y203677D01*
X113539Y201138D01*
X116078Y203677D01*
Y208756D01*
X118617Y211295D01*
X121157Y208756D01*
Y201138D01*
Y196060D02*
X113539D01*
X111000Y193521D01*
Y185903D01*
X121157D01*
X105922Y180825D02*
X121157D01*
Y173207D01*
X118617Y170668D01*
X113539D01*
X111000Y173207D01*
Y180825D01*
X294235Y424000D02*
X279000D01*
Y413843D01*
X294235Y398608D02*
Y408765D01*
X279000D01*
Y398608D01*
X286618Y408765D02*
Y403687D01*
X294235Y393530D02*
X279000D01*
Y385912D01*
X281539Y383373D01*
X291696D01*
X294235Y385912D01*
Y393530D01*
X291696Y368138D02*
X294235Y370677D01*
Y375756D01*
X291696Y378295D01*
X289157D01*
X286618Y375756D01*
Y370677D01*
X284078Y368138D01*
X281539D01*
X279000Y370677D01*
Y375756D01*
X281539Y378295D01*
X293235Y570000D02*
X278000D01*
Y562383D01*
X280539Y559843D01*
X283078D01*
X285618Y562383D01*
Y570000D01*
Y562383D01*
X288157Y559843D01*
X290696D01*
X293235Y562383D01*
Y570000D01*
Y554765D02*
X280539D01*
X278000Y552226D01*
Y547147D01*
X280539Y544608D01*
X293235D01*
Y539530D02*
Y529373D01*
Y534451D01*
X278000D01*
X293235Y524295D02*
Y514138D01*
Y519216D01*
X278000D01*
X293235Y501442D02*
Y506521D01*
X290696Y509060D01*
X280539D01*
X278000Y506521D01*
Y501442D01*
X280539Y498903D01*
X290696D01*
X293235Y501442D01*
X278000Y493825D02*
X293235D01*
X278000Y483668D01*
X293235D01*
D65*
X411250Y743000D02*
G03*
X411250Y743000I-1250J0D01*
G01*
X93000Y103250D02*
G03*
X93000Y103250I-1250J0D01*
G01*
X134750Y548500D02*
G03*
X134750Y548500I-1250J0D01*
G01*
X134000Y499750D02*
G03*
X134000Y499750I-1250J0D01*
G01*
X175750Y-52000D02*
G03*
X175750Y-52000I-1250J0D01*
G01*
X258000Y122600D02*
G03*
X258000Y122600I-1250J0D01*
G01*
X132794Y123600D02*
G03*
X132794Y123600I-1250J0D01*
G01*
X1176250Y29450D02*
G03*
X1176250Y29450I-1250J0D01*
G01*
X419250Y310500D02*
G03*
X419250Y310500I-1250J0D01*
G01*
X459250Y297550D02*
G03*
X459250Y297550I-1250J0D01*
G01*
X942250Y500D02*
G03*
X942250Y500I-1250J0D01*
G01*
X745250Y-3500D02*
G03*
X745250Y-3500I-1250J0D01*
G01*
X105750Y772250D02*
G03*
X105750Y772250I-1250J0D01*
G01*
X336300Y906000D02*
G03*
X336300Y906000I-1250J0D01*
G01*
X411250Y1014500D02*
G03*
X411250Y1014500I-1250J0D01*
G01*
X370750Y726529D02*
G03*
X370750Y726529I-1250J0D01*
G01*
X411250Y835500D02*
G03*
X411250Y835500I-1250J0D01*
G01*
X79250Y903050D02*
G03*
X79250Y903050I-1250J0D01*
G01*
X411250Y924500D02*
G03*
X411250Y924500I-1250J0D01*
G01*
X370750Y1004500D02*
G03*
X370750Y1004500I-1250J0D01*
G01*
X138000Y412350D02*
G03*
X138000Y412350I-1250J0D01*
G01*
D66*
X281000Y110000D02*
G03*
X281000Y110000I-3000J0D01*
G01*
X155794Y111000D02*
G03*
X155794Y111000I-3000J0D01*
G01*
X160000Y400000D02*
G03*
X160000Y400000I-3000J0D01*
G01*
D67*
X457500Y228207D02*
G03*
X457500Y228207I-500J0D01*
G01*
X1119000Y177500D02*
G03*
X1119000Y177500I-500J0D01*
G01*
X808900Y-26000D02*
G03*
X808900Y-26000I-500J0D01*
G01*
D68*
X326500Y884500D02*
G03*
X326500Y884500I-2000J0D01*
G01*
D69*
X422000Y658500D02*
Y736500D01*
X425100Y658500D02*
Y736500D01*
X395100Y658500D02*
Y736500D01*
Y658500D02*
X425100D01*
X395100Y736500D02*
X425100D01*
X74250Y108650D02*
Y114250D01*
Y108650D02*
X80750D01*
X74250Y137850D02*
X80750D01*
X74250Y132250D02*
Y137850D01*
X116000Y553900D02*
Y559500D01*
Y553900D02*
X122500D01*
X116000Y583100D02*
X122500D01*
X116000Y577500D02*
Y583100D01*
X115250Y505150D02*
Y510750D01*
Y505150D02*
X121750D01*
X115250Y534350D02*
X121750D01*
X115250Y528750D02*
Y534350D01*
X179900Y-34500D02*
X185500D01*
X179900Y-41000D02*
Y-34500D01*
X209100Y-41000D02*
Y-34500D01*
X203500D02*
X209100D01*
X268000Y32250D02*
Y119750D01*
X300000Y32250D02*
Y119750D01*
X268000D02*
X300000D01*
X268000Y32250D02*
X300000D01*
X142794Y33250D02*
Y120750D01*
X174793Y33250D02*
Y120750D01*
X142794D02*
X174793D01*
X142794Y33250D02*
X174793D01*
X449260Y238207D02*
X450740D01*
X449260Y230209D02*
X450740D01*
X1158500Y32500D02*
Y82500D01*
X1142500Y32500D02*
Y82500D01*
Y32500D02*
X1158500D01*
X1142500Y82500D02*
X1158500D01*
X1124760Y167500D02*
X1126240D01*
X1124760Y175498D02*
X1126240D01*
X733080Y538000D02*
Y544000D01*
X766580Y538000D02*
Y544000D01*
X693000Y538000D02*
Y544000D01*
X726500Y538000D02*
Y544000D01*
X621650Y205050D02*
Y207150D01*
X524350Y156850D02*
Y158950D01*
X621650Y156850D02*
Y158950D01*
X524350Y205050D02*
Y207150D01*
X621650D01*
X524350Y156850D02*
X621650D01*
X799450Y1173000D02*
Y1179000D01*
X765950Y1173000D02*
Y1179000D01*
X759370Y1173000D02*
Y1179000D01*
X725870Y1173000D02*
Y1179000D01*
X430000Y226000D02*
Y304000D01*
X433100Y226000D02*
Y304000D01*
X403100Y226000D02*
Y304000D01*
Y226000D02*
X433100D01*
X403100Y304000D02*
X433100D01*
X473000Y245000D02*
X491000D01*
X473000Y295000D02*
X491000D01*
Y245000D02*
Y295000D01*
X473000Y245000D02*
Y295000D01*
X816000Y85000D02*
X854000D01*
X816000Y53000D02*
X854000D01*
X929000Y7000D02*
Y85000D01*
X925900Y7000D02*
Y85000D01*
X955900Y7000D02*
Y85000D01*
X925900D02*
X955900D01*
X925900Y7000D02*
X955900D01*
X756000Y-88000D02*
Y-10000D01*
X759100Y-88000D02*
Y-10000D01*
X729100Y-88000D02*
Y-10000D01*
Y-88000D02*
X759100D01*
X729100Y-10000D02*
X759100D01*
X100000Y756500D02*
Y763880D01*
X96500Y756500D02*
X100000D01*
X78000D02*
Y763880D01*
Y756500D02*
X81500D01*
X282500Y872500D02*
Y892500D01*
X332500Y872500D02*
Y892500D01*
X282500Y872500D02*
X332500D01*
X282500Y892500D02*
X332500D01*
X398000Y1021000D02*
Y1099000D01*
X394900Y1021000D02*
Y1099000D01*
X424900Y1021000D02*
Y1099000D01*
X394900D02*
X424900D01*
X394900Y1021000D02*
X424900D01*
X353750Y731030D02*
X361130D01*
X353750D02*
Y734529D01*
Y753029D02*
X361130D01*
X353750Y749529D02*
Y753029D01*
X422000Y751000D02*
Y829000D01*
X425100Y751000D02*
Y829000D01*
X395100Y751000D02*
Y829000D01*
Y751000D02*
X425100D01*
X395100Y829000D02*
X425100D01*
X94500Y850000D02*
Y900000D01*
X110500Y850000D02*
Y900000D01*
X94500D02*
X110500D01*
X94500Y850000D02*
X110500D01*
X1428500Y891000D02*
Y929000D01*
X1396500Y891000D02*
Y929000D01*
X398000Y931000D02*
Y1009000D01*
X394900Y931000D02*
Y1009000D01*
X424900Y931000D02*
Y1009000D01*
X394900D02*
X424900D01*
X394900Y931000D02*
X424900D01*
X353750Y1009000D02*
X361130D01*
X353750D02*
Y1012500D01*
Y1031000D02*
X361130D01*
X353750Y1027500D02*
Y1031000D01*
X800660Y-16000D02*
X802140D01*
X800660Y-23998D02*
X802140D01*
X147000Y322250D02*
X179000D01*
X147000Y409750D02*
X179000D01*
Y322250D02*
Y409750D01*
X147000Y322250D02*
Y409750D01*
D70*
X280975Y124512D02*
Y165152D01*
X300025D01*
Y124512D02*
Y165152D01*
X280975Y124512D02*
X300025D01*
X304262Y139525D02*
X344902D01*
Y120475D02*
Y139525D01*
X304262Y120475D02*
X344902D01*
X304262D02*
Y139525D01*
X440475Y671512D02*
Y712152D01*
X459525D01*
Y671512D02*
Y712152D01*
X440475Y671512D02*
X459525D01*
X339859Y656512D02*
Y697152D01*
X358909D01*
Y656512D02*
Y697152D01*
X339859Y656512D02*
X358909D01*
X61550Y692570D02*
Y715430D01*
Y692570D02*
X117430D01*
Y715430D01*
X61550D02*
X117430D01*
X61550Y720570D02*
Y743430D01*
Y720570D02*
X117430D01*
Y743430D01*
X61550D02*
X117430D01*
X143300Y529070D02*
Y551930D01*
Y529070D02*
X199180D01*
Y551930D01*
X143300D02*
X199180D01*
X143550Y477070D02*
Y499930D01*
Y477070D02*
X199430D01*
Y499930D01*
X143550D02*
X199430D01*
X201512Y437525D02*
X242152D01*
Y418475D02*
Y437525D01*
X201512Y418475D02*
X242152D01*
X201512D02*
Y437525D01*
Y413525D02*
X242152D01*
Y394475D02*
Y413525D01*
X201512Y394475D02*
X242152D01*
X201512D02*
Y413525D01*
X155225Y123512D02*
Y164152D01*
X174275D01*
Y123512D02*
Y164152D01*
X155225Y123512D02*
X174275D01*
X178475D02*
Y164152D01*
X197525D01*
Y123512D02*
Y164152D01*
X178475Y123512D02*
X197525D01*
X1166070Y21430D02*
X1188930D01*
X1166070Y-34450D02*
Y21430D01*
Y-34450D02*
X1188930D01*
Y21430D01*
X1096025Y394848D02*
Y435488D01*
X1076975Y394848D02*
X1096025D01*
X1076975D02*
Y435488D01*
X1096025D01*
X178312Y-16760D02*
X236097D01*
X178312D02*
X178947D01*
Y16260D01*
X236097D01*
Y-16760D02*
Y16260D01*
X234275Y-61652D02*
Y-21012D01*
X215225Y-61652D02*
X234275D01*
X215225D02*
Y-21012D01*
X234275D01*
X240490Y-71847D02*
Y-14062D01*
Y-14697D02*
Y-14062D01*
Y-14697D02*
X273510D01*
Y-71847D02*
Y-14697D01*
X240490Y-71847D02*
X273510D01*
X240262Y9275D02*
X280902D01*
Y-9775D02*
Y9275D01*
X240262Y-9775D02*
X280902D01*
X240262D02*
Y9275D01*
X118525Y322348D02*
Y362988D01*
X99475Y322348D02*
X118525D01*
X99475D02*
Y362988D01*
X118525D01*
X324554Y91475D02*
X365195D01*
X324554D02*
Y110525D01*
X365195D01*
Y91475D02*
Y110525D01*
X325348Y55475D02*
X365988D01*
X325348D02*
Y74525D01*
X365988D01*
Y55475D02*
Y74525D01*
X201348Y92475D02*
X241988D01*
X201348D02*
Y111525D01*
X241988D01*
Y92475D02*
Y111525D01*
X201348Y42475D02*
X241988D01*
X201348D02*
Y61525D01*
X241988D01*
Y42475D02*
Y61525D01*
X201676Y134642D02*
X242316D01*
Y115591D02*
Y134642D01*
X201676Y115591D02*
X242316D01*
X201676D02*
Y134642D01*
X201348Y86525D02*
X241988D01*
Y67475D02*
Y86525D01*
X201348Y67475D02*
X241988D01*
X201348D02*
Y86525D01*
X1147512Y138975D02*
X1188152D01*
X1147512D02*
Y158025D01*
X1188152D01*
Y138975D02*
Y158025D01*
X1147512Y134025D02*
X1188152D01*
Y114975D02*
Y134025D01*
X1147512Y114975D02*
X1188152D01*
X1147512D02*
Y134025D01*
Y109025D02*
X1188152D01*
Y89975D02*
Y109025D01*
X1147512Y89975D02*
X1188152D01*
X1147512D02*
Y109025D01*
X1057848Y2975D02*
X1098488D01*
X1057848D02*
Y22025D01*
X1098488D01*
Y2975D02*
Y22025D01*
X1057848Y28975D02*
X1098488D01*
X1057848D02*
Y48025D01*
X1098488D01*
Y28975D02*
Y48025D01*
X1249200Y545820D02*
Y568680D01*
X1193320D02*
X1249200D01*
X1193320Y545820D02*
Y568680D01*
Y545820D02*
X1249200D01*
X1057848Y53975D02*
X1098488D01*
X1057848D02*
Y73025D01*
X1098488D01*
Y53975D02*
Y73025D01*
X1057848Y79975D02*
X1098488D01*
X1057848D02*
Y99025D01*
X1098488D01*
Y79975D02*
Y99025D01*
X1057512Y125525D02*
X1098152D01*
Y106475D02*
Y125525D01*
X1057512Y106475D02*
X1098152D01*
X1057512D02*
Y125525D01*
Y151775D02*
X1098152D01*
Y132725D02*
Y151775D01*
X1057512Y132725D02*
X1098152D01*
X1057512D02*
Y151775D01*
Y158975D02*
X1098152D01*
X1057512D02*
Y178025D01*
X1098152D01*
Y158975D02*
Y178025D01*
X132848Y-61525D02*
X173488D01*
X132848D02*
Y-42475D01*
X173488D01*
Y-61525D02*
Y-42475D01*
X1402475Y960012D02*
Y1000652D01*
X1421525D01*
Y960012D02*
Y1000652D01*
X1402475Y960012D02*
X1421525D01*
X240475Y802684D02*
X259525D01*
Y843324D01*
X240475D02*
X259525D01*
X240475Y802684D02*
Y843324D01*
X317997Y773652D02*
X337047D01*
X317997Y733012D02*
Y773652D01*
Y733012D02*
X337047D01*
Y773652D01*
X335443Y252490D02*
Y285510D01*
Y252490D02*
X392593D01*
Y285510D01*
X393228D01*
X335443D02*
X393228D01*
X335443Y214490D02*
Y247510D01*
Y214490D02*
X392593D01*
Y247510D01*
X393228D01*
X335443D02*
X393228D01*
X463909Y1060348D02*
Y1100988D01*
X444859Y1060348D02*
X463909D01*
X444859D02*
Y1100988D01*
X463909D01*
X565592Y430232D02*
X606231D01*
X565592D02*
Y449282D01*
X606231D01*
Y430232D02*
Y449282D01*
X334443Y323510D02*
X392228D01*
X391593D02*
X392228D01*
X391593Y290490D02*
Y323510D01*
X334443Y290490D02*
X391593D01*
X334443D02*
Y323510D01*
X407475Y179305D02*
Y219946D01*
X426525D01*
Y179305D02*
Y219946D01*
X407475Y179305D02*
X426525D01*
X623475Y214348D02*
Y254988D01*
X642525D01*
Y214348D02*
Y254988D01*
X623475Y214348D02*
X642525D01*
X623475Y261012D02*
Y301652D01*
X642525D01*
Y261012D02*
Y301652D01*
X623475Y261012D02*
X642525D01*
X914510Y27772D02*
Y85557D01*
Y27772D02*
Y28407D01*
X881490D02*
X914510D01*
X881490D02*
Y85557D01*
X914510D01*
X780153Y-34490D02*
X837938D01*
X837303D02*
X837938D01*
X837303Y-67510D02*
Y-34490D01*
X780153Y-67510D02*
X837303D01*
X780153D02*
Y-34490D01*
X814012Y42525D02*
X854652D01*
Y23475D02*
Y42525D01*
X814012Y23475D02*
X854652D01*
X814012D02*
Y42525D01*
X31475Y649012D02*
Y689652D01*
X50525D01*
Y649012D02*
Y689652D01*
X31475Y649012D02*
X50525D01*
X78525Y806098D02*
Y846738D01*
X59475Y806098D02*
X78525D01*
X59475D02*
Y846738D01*
X78525D01*
X31070Y786070D02*
X53930D01*
Y841950D01*
X31070D02*
X53930D01*
X31070Y786070D02*
Y841950D01*
Y715550D02*
X53930D01*
Y771430D01*
X31070D02*
X53930D01*
X31070Y715550D02*
Y771430D01*
X86475Y782762D02*
Y823402D01*
X105525D01*
Y782762D02*
Y823402D01*
X86475Y782762D02*
X105525D01*
X542475Y432348D02*
Y472988D01*
X561525D01*
Y432348D02*
Y472988D01*
X542475Y432348D02*
X561525D01*
X565592Y454012D02*
Y494652D01*
X584641D01*
Y454012D02*
Y494652D01*
X565592Y454012D02*
X584641D01*
X488475Y510848D02*
Y551488D01*
X507525D01*
Y510848D02*
Y551488D01*
X488475Y510848D02*
X507525D01*
X368475Y508348D02*
Y548988D01*
X387525D01*
Y508348D02*
Y548988D01*
X368475Y508348D02*
X387525D01*
X467975Y671512D02*
Y712152D01*
X487025D01*
Y671512D02*
Y712152D01*
X467975Y671512D02*
X487025D01*
X440348Y720475D02*
X480988D01*
X440348D02*
Y739525D01*
X480988D01*
Y720475D02*
Y739525D01*
X440348Y750475D02*
X480988D01*
X440348D02*
Y769525D01*
X480988D01*
Y750475D02*
Y769525D01*
X440348Y780475D02*
X480988D01*
X440348D02*
Y799525D01*
X480988D01*
Y780475D02*
Y799525D01*
X440348Y810475D02*
X480988D01*
X440348D02*
Y829525D01*
X480988D01*
Y810475D02*
Y829525D01*
X341475Y881012D02*
Y921652D01*
X360525D01*
Y881012D02*
Y921652D01*
X341475Y881012D02*
X360525D01*
X343012Y1002665D02*
X383652D01*
Y983615D02*
Y1002665D01*
X343012Y983615D02*
X383652D01*
X343012D02*
Y1002665D01*
X297975Y924012D02*
Y964652D01*
X317025D01*
Y924012D02*
Y964652D01*
X297975Y924012D02*
X317025D01*
X342848Y1056891D02*
X383488D01*
Y1037841D02*
Y1056891D01*
X342848Y1037841D02*
X383488D01*
X342848D02*
Y1056891D01*
X439928Y931545D02*
X480568D01*
X439928D02*
Y950595D01*
X480568D01*
Y931545D02*
Y950595D01*
X410525Y885348D02*
Y925988D01*
X391475Y885348D02*
X410525D01*
X391475D02*
Y925988D01*
X410525D01*
X439928Y964565D02*
X480568D01*
X439928D02*
Y983615D01*
X480568D01*
Y964565D02*
Y983615D01*
X439928Y997585D02*
X480568D01*
X439928D02*
Y1016635D01*
X480568D01*
Y997585D02*
Y1016635D01*
X439928Y1030605D02*
X480568D01*
X439928D02*
Y1049655D01*
X480568D01*
Y1030605D02*
Y1049655D01*
X487025Y1060348D02*
Y1100988D01*
X467975Y1060348D02*
X487025D01*
X467975D02*
Y1100988D01*
X487025D01*
X382905Y1060958D02*
Y1101598D01*
X363855Y1060958D02*
X382905D01*
X363855D02*
Y1101598D01*
X382905D01*
X340475Y1060958D02*
Y1101598D01*
X359525D01*
Y1060958D02*
Y1101598D01*
X340475Y1060958D02*
X359525D01*
X382025Y656512D02*
Y697152D01*
X362975Y656512D02*
X382025D01*
X362975D02*
Y697152D01*
X382025D01*
X341512Y720725D02*
X382152D01*
Y701675D02*
Y720725D01*
X341512Y701675D02*
X382152D01*
X341512D02*
Y720725D01*
X342225Y828012D02*
Y868652D01*
X361275D01*
Y828012D02*
Y868652D01*
X342225Y828012D02*
X361275D01*
X384525Y781512D02*
Y822152D01*
X365475Y781512D02*
X384525D01*
X365475D02*
Y822152D01*
X384525D01*
X341512Y777025D02*
X382152D01*
Y757975D02*
Y777025D01*
X341512Y757975D02*
X382152D01*
X341512D02*
Y777025D01*
X291070Y841950D02*
X313930D01*
X291070Y786070D02*
Y841950D01*
Y786070D02*
X313930D01*
Y841950D01*
X264144Y786070D02*
X287003D01*
Y841950D01*
X264144D02*
X287003D01*
X264144Y786070D02*
Y841950D01*
X291070Y781430D02*
X313930D01*
X291070Y725550D02*
Y781430D01*
Y725550D02*
X313930D01*
Y781430D01*
X284525Y741364D02*
Y782003D01*
X265475Y741364D02*
X284525D01*
X265475D02*
Y782003D01*
X284525D01*
X259525Y755641D02*
Y796282D01*
X240475Y755641D02*
X259525D01*
X240475D02*
Y796282D01*
X259525D01*
X217358Y803348D02*
Y843988D01*
X236409D01*
Y803348D02*
Y843988D01*
X217358Y803348D02*
X236409D01*
X237306Y879525D02*
X277945D01*
Y860475D02*
Y879525D01*
X237306Y860475D02*
X277945D01*
X237306D02*
Y879525D01*
Y902642D02*
X277945D01*
Y883592D02*
Y902642D01*
X237306Y883592D02*
X277945D01*
X237306D02*
Y902642D01*
X274525Y906708D02*
Y947348D01*
X255475Y906708D02*
X274525D01*
X255475D02*
Y947348D01*
X274525D01*
X255475Y951415D02*
Y992055D01*
X274525D01*
Y951415D02*
Y992055D01*
X255475Y951415D02*
X274525D01*
X148055Y896592D02*
X188694D01*
X148055D02*
Y915642D01*
X188694D01*
Y896592D02*
Y915642D01*
X148055Y892525D02*
X188694D01*
Y873475D02*
Y892525D01*
X148055Y873475D02*
X188694D01*
X148055D02*
Y892525D01*
X81512Y908855D02*
X122152D01*
X81512D02*
Y927905D01*
X122152D01*
Y908855D02*
Y927905D01*
X81012Y952525D02*
X121652D01*
Y933475D02*
Y952525D01*
X81012Y933475D02*
X121652D01*
X81012D02*
Y952525D01*
X297975Y971512D02*
Y1012152D01*
X317025D01*
Y971512D02*
Y1012152D01*
X297975Y971512D02*
X317025D01*
X365475Y891762D02*
Y932402D01*
X384525D01*
Y891762D02*
Y932402D01*
X365475Y891762D02*
X384525D01*
X383525Y936512D02*
Y977152D01*
X364475Y936512D02*
X383525D01*
X364475D02*
Y977152D01*
X383525D01*
X384525Y827848D02*
Y868488D01*
X365475Y827848D02*
X384525D01*
X365475D02*
Y868488D01*
X384525D01*
X86762Y846775D02*
X127402D01*
Y827725D02*
Y846775D01*
X86762Y827725D02*
X127402D01*
X86762D02*
Y846775D01*
X899550Y-59430D02*
Y-36570D01*
Y-59430D02*
X955430D01*
Y-36570D01*
X899550D02*
X955430D01*
X1147512Y182025D02*
X1188152D01*
Y162975D02*
Y182025D01*
X1147512Y162975D02*
X1188152D01*
X1147512D02*
Y182025D01*
X96570Y425450D02*
X119430D01*
X96570Y369570D02*
Y425450D01*
Y369570D02*
X119430D01*
Y425450D01*
X997790Y29185D02*
Y74270D01*
Y29185D02*
X999695Y27280D01*
X967563Y28804D02*
Y74270D01*
X966040Y27280D02*
X967563Y28804D01*
D71*
X399625Y-88100D02*
Y-11900D01*
X291675D02*
X399625D01*
X291675Y-88100D02*
Y-11900D01*
Y-88100D02*
X399625D01*
X291675Y-30950D02*
X399625D01*
Y-11900D02*
Y-11875D01*
X401200Y-10300D01*
X11900Y345325D02*
X88100D01*
Y453275D01*
X11900D02*
X88100D01*
X11900Y345325D02*
Y453275D01*
X69050Y345325D02*
Y453275D01*
X88100Y345325D02*
X88125D01*
X89700Y343750D01*
X11900Y476725D02*
X88100D01*
Y584675D01*
X11900D02*
X88100D01*
X11900Y476725D02*
Y584675D01*
X69050Y476725D02*
Y584675D01*
X88100Y476725D02*
X88125D01*
X89700Y475150D01*
X1153600Y247650D02*
X1204400D01*
Y400050D01*
X1153600D02*
X1204400D01*
X1153600Y247650D02*
Y400050D01*
X1179000Y234950D02*
Y247650D01*
Y400050D02*
Y412750D01*
X1257100Y487100D02*
Y537900D01*
X1104700D02*
X1257100D01*
X1104700Y487100D02*
Y537900D01*
Y487100D02*
X1257100D01*
Y512500D02*
X1269800D01*
X1092000D02*
X1104700D01*
X1105700Y307775D02*
X1143800D01*
Y403025D01*
X1105700D02*
X1143800D01*
X1105700Y307775D02*
Y403025D01*
X1124750Y298250D02*
Y307775D01*
Y403025D02*
Y412550D01*
X11900Y160125D02*
X88100D01*
Y318875D01*
X11900D02*
X88100D01*
X11900Y160125D02*
Y318875D01*
X69050Y160125D02*
Y318875D01*
X88100Y160125D02*
X88125D01*
X89700Y158550D01*
X123020Y637408D02*
Y662808D01*
X78570Y618358D02*
X103970D01*
X59521Y637408D02*
Y662808D01*
X78570Y681858D02*
X103970D01*
X78570Y-18250D02*
X103970D01*
X123020Y-62700D02*
Y-37300D01*
X78570Y-81750D02*
X103970D01*
X59520Y-62700D02*
Y-37300D01*
X471700Y1160000D02*
X481225D01*
X690775D02*
X700300D01*
X481225Y1131425D02*
X690775D01*
X481225D02*
Y1188575D01*
X690775D01*
Y1131425D02*
Y1188575D01*
X482700Y610000D02*
X492225D01*
X701775D02*
X711300D01*
X492225Y581425D02*
X701775D01*
X492225D02*
Y638575D01*
X701775D01*
Y581425D02*
Y638575D01*
X462395Y446980D02*
Y453330D01*
Y446980D02*
X481445D01*
Y450155D01*
X513195D01*
Y446980D02*
Y450155D01*
Y446980D02*
X532245D01*
Y450155D01*
Y469205D02*
Y497780D01*
X462395D02*
X532245D01*
X462395Y466030D02*
Y497780D01*
X355575Y447080D02*
Y453430D01*
Y447080D02*
X374625D01*
Y450255D01*
X406375D01*
Y447080D02*
Y450255D01*
Y447080D02*
X425425D01*
Y450255D01*
Y469305D02*
Y497880D01*
X355575D02*
X425425D01*
X355575Y466130D02*
Y497880D01*
X412676Y-42219D02*
X409502D01*
X411089D01*
Y-51741D01*
X412676Y-50154D01*
X57781Y332274D02*
Y335448D01*
Y333861D01*
X48259D01*
X49846Y332274D01*
X57781Y463674D02*
Y466848D01*
Y465261D01*
X48259D01*
X49846Y463674D01*
X57781Y147074D02*
Y150248D01*
Y148661D01*
X48259D01*
X49846Y147074D01*
M02*
