G04 Layer_Color=255*
%FSLAX44Y44*%
%MOMM*%
G71*
G01*
G75*
%ADD10R,5.0800X43.8150*%
%ADD11R,5.0800X20.3200*%
%ADD12R,1.2700X1.2700*%
%ADD13R,1.2700X1.2700*%
%ADD14R,1.5240X1.5240*%
%ADD15R,1.4000X1.0000*%
%ADD16R,1.5240X1.5240*%
%ADD17R,1.6256X2.5400*%
%ADD18R,1.0000X1.4000*%
%ADD19R,2.5400X1.6256*%
G04:AMPARAMS|DCode=20|XSize=0.6mm|YSize=1.45mm|CornerRadius=0.051mm|HoleSize=0mm|Usage=FLASHONLY|Rotation=90.000|XOffset=0mm|YOffset=0mm|HoleType=Round|Shape=RoundedRectangle|*
%AMROUNDEDRECTD20*
21,1,0.6000,1.3480,0,0,90.0*
21,1,0.4980,1.4500,0,0,90.0*
1,1,0.1020,0.6740,0.2490*
1,1,0.1020,0.6740,-0.2490*
1,1,0.1020,-0.6740,-0.2490*
1,1,0.1020,-0.6740,0.2490*
%
%ADD20ROUNDEDRECTD20*%
%ADD21R,0.4800X0.4000*%
%ADD22O,2.5000X0.7000*%
%ADD23R,3.5500X1.5500*%
%ADD24R,4.2400X3.8100*%
%ADD25O,2.2000X0.6000*%
%ADD26R,1.3500X3.4000*%
%ADD27R,0.7000X0.9000*%
%ADD28O,0.6000X1.9000*%
%ADD29R,0.9000X0.7000*%
%ADD30R,3.4000X1.3500*%
G04:AMPARAMS|DCode=31|XSize=0.55mm|YSize=1.25mm|CornerRadius=0.0495mm|HoleSize=0mm|Usage=FLASHONLY|Rotation=90.000|XOffset=0mm|YOffset=0mm|HoleType=Round|Shape=RoundedRectangle|*
%AMROUNDEDRECTD31*
21,1,0.5500,1.1510,0,0,90.0*
21,1,0.4510,1.2500,0,0,90.0*
1,1,0.0990,0.5755,0.2255*
1,1,0.0990,0.5755,-0.2255*
1,1,0.0990,-0.5755,-0.2255*
1,1,0.0990,-0.5755,0.2255*
%
%ADD31ROUNDEDRECTD31*%
%ADD32R,2.2860X2.5400*%
%ADD39R,2.1000X2.1000*%
%ADD40C,2.1000*%
%ADD41C,1.6000*%
%ADD42R,1.6000X1.6000*%
%ADD43R,1.5748X1.5748*%
%ADD44C,1.5748*%
%ADD45R,1.5748X1.5748*%
%ADD46C,1.3970*%
%ADD47C,2.4994*%
%ADD48C,2.2000*%
%ADD49C,3.0000*%
%ADD50C,2.0000*%
%ADD51O,3.0000X5.0000*%
%ADD52C,6.9994*%
%ADD53C,1.9050*%
%ADD54O,3.9996X2.4000*%
%ADD55C,1.2446*%
%ADD56R,1.2446X1.2446*%
%ADD57R,1.6000X1.6000*%
D10*
X1330960Y880110D02*
D03*
D11*
X721360Y996950D02*
D03*
Y763270D02*
D03*
D12*
X290500Y155500D02*
D03*
Y134164D02*
D03*
X450000Y702500D02*
D03*
Y681164D02*
D03*
X349384Y687500D02*
D03*
Y666164D02*
D03*
X164750Y154500D02*
D03*
Y133164D02*
D03*
X188000Y154500D02*
D03*
Y133164D02*
D03*
X1086500Y404500D02*
D03*
Y425836D02*
D03*
X224750Y-52000D02*
D03*
Y-30664D02*
D03*
X109000Y332000D02*
D03*
Y353336D02*
D03*
X1412000Y991000D02*
D03*
Y969664D02*
D03*
X250000Y812336D02*
D03*
Y833672D02*
D03*
X327522Y764000D02*
D03*
Y742664D02*
D03*
X454384Y1070000D02*
D03*
Y1091336D02*
D03*
X417000Y210294D02*
D03*
Y188958D02*
D03*
X633000Y245336D02*
D03*
Y224000D02*
D03*
Y292000D02*
D03*
Y270664D02*
D03*
X41000Y680000D02*
D03*
Y658664D02*
D03*
X69000Y815750D02*
D03*
Y837086D02*
D03*
X96000Y813750D02*
D03*
Y792414D02*
D03*
X552000Y463336D02*
D03*
Y442000D02*
D03*
X575117Y485000D02*
D03*
Y463664D02*
D03*
X498000Y541836D02*
D03*
Y520500D02*
D03*
X378000Y539336D02*
D03*
Y518000D02*
D03*
X477500Y702500D02*
D03*
Y681164D02*
D03*
X351000Y912000D02*
D03*
Y890664D02*
D03*
X307500Y955000D02*
D03*
Y933664D02*
D03*
X401000Y895000D02*
D03*
Y916336D02*
D03*
X477500Y1070000D02*
D03*
Y1091336D02*
D03*
X373380Y1070610D02*
D03*
Y1091946D02*
D03*
X350000D02*
D03*
Y1070610D02*
D03*
X372500Y666164D02*
D03*
Y687500D02*
D03*
X351750Y859000D02*
D03*
Y837664D02*
D03*
X375000Y791164D02*
D03*
Y812500D02*
D03*
X275000Y751015D02*
D03*
Y772352D02*
D03*
X250000Y765294D02*
D03*
Y786629D02*
D03*
X226884Y834336D02*
D03*
Y813000D02*
D03*
X265000Y916360D02*
D03*
Y937696D02*
D03*
Y982403D02*
D03*
Y961067D02*
D03*
X307500Y1002500D02*
D03*
Y981164D02*
D03*
X375000Y922750D02*
D03*
Y901414D02*
D03*
X374000Y946164D02*
D03*
Y967500D02*
D03*
X375000Y837500D02*
D03*
Y858836D02*
D03*
D13*
X335250Y130000D02*
D03*
X313914D02*
D03*
X232500Y428000D02*
D03*
X211164D02*
D03*
X232500Y404000D02*
D03*
X211164D02*
D03*
X271250Y-250D02*
D03*
X249914D02*
D03*
X334207Y101000D02*
D03*
X355542D02*
D03*
X335000Y65000D02*
D03*
X356336D02*
D03*
X211000Y102000D02*
D03*
X232336D02*
D03*
X211000Y52000D02*
D03*
X232336D02*
D03*
X232664Y125117D02*
D03*
X211328D02*
D03*
X232336Y77000D02*
D03*
X211000D02*
D03*
X1157164Y148500D02*
D03*
X1178500D02*
D03*
Y124500D02*
D03*
X1157164D02*
D03*
X1178500Y99500D02*
D03*
X1157164D02*
D03*
X1067500Y12500D02*
D03*
X1088836D02*
D03*
X1067500Y38500D02*
D03*
X1088836D02*
D03*
X1067500Y63500D02*
D03*
X1088836D02*
D03*
X1067500Y89500D02*
D03*
X1088836D02*
D03*
X1088500Y116000D02*
D03*
X1067164D02*
D03*
X1088500Y142250D02*
D03*
X1067164D02*
D03*
Y168500D02*
D03*
X1088500D02*
D03*
X142500Y-52000D02*
D03*
X163836D02*
D03*
X575243Y439757D02*
D03*
X596580D02*
D03*
X845000Y33000D02*
D03*
X823664D02*
D03*
X450000Y730000D02*
D03*
X471336D02*
D03*
X450000Y760000D02*
D03*
X471336D02*
D03*
X450000Y790000D02*
D03*
X471336D02*
D03*
X450000Y820000D02*
D03*
X471336D02*
D03*
X374000Y993140D02*
D03*
X352664D02*
D03*
X373836Y1047366D02*
D03*
X352500D02*
D03*
X449580Y941070D02*
D03*
X470916D02*
D03*
X449580Y974090D02*
D03*
X470916D02*
D03*
X449580Y1007110D02*
D03*
X470916D02*
D03*
X449580Y1040130D02*
D03*
X470916D02*
D03*
X372500Y711200D02*
D03*
X351164D02*
D03*
X372500Y767500D02*
D03*
X351164D02*
D03*
X268293Y870000D02*
D03*
X246957D02*
D03*
X268293Y893117D02*
D03*
X246957D02*
D03*
X157706Y906117D02*
D03*
X179042D02*
D03*
Y883000D02*
D03*
X157706D02*
D03*
X91164Y918380D02*
D03*
X112500D02*
D03*
X112000Y943000D02*
D03*
X90664D02*
D03*
X117750Y837250D02*
D03*
X96414D02*
D03*
X1178500Y172500D02*
D03*
X1157164D02*
D03*
D14*
X106000Y704000D02*
D03*
X72980D02*
D03*
X106000Y732000D02*
D03*
X72980D02*
D03*
X187750Y540500D02*
D03*
X154730D02*
D03*
X188000Y488500D02*
D03*
X154980D02*
D03*
X1204750Y557250D02*
D03*
X1237770D02*
D03*
X944000Y-48000D02*
D03*
X910980D02*
D03*
D15*
X91750Y113750D02*
D03*
X69750Y123250D02*
D03*
X91750Y132750D02*
D03*
X133500Y559000D02*
D03*
X111500Y568500D02*
D03*
X133500Y578000D02*
D03*
X132750Y510250D02*
D03*
X110750Y519750D02*
D03*
X132750Y529250D02*
D03*
D16*
X1177500Y-23020D02*
D03*
Y10000D02*
D03*
X42500Y830520D02*
D03*
Y797500D02*
D03*
Y760000D02*
D03*
Y726980D02*
D03*
X302500Y797500D02*
D03*
Y830520D02*
D03*
X275574D02*
D03*
Y797500D02*
D03*
X302500Y736980D02*
D03*
Y770000D02*
D03*
X108000Y381000D02*
D03*
Y414020D02*
D03*
D17*
X190250Y-250D02*
D03*
X224540D02*
D03*
X347000Y269000D02*
D03*
X381290D02*
D03*
X347000Y231000D02*
D03*
X381290D02*
D03*
X380290Y307000D02*
D03*
X346000D02*
D03*
X826000Y-51000D02*
D03*
X791710D02*
D03*
D18*
X185000Y-52000D02*
D03*
X194500Y-30000D02*
D03*
X204000Y-52000D02*
D03*
D19*
X257000Y-26000D02*
D03*
Y-60290D02*
D03*
X898000Y39710D02*
D03*
Y74000D02*
D03*
D20*
X256750Y114100D02*
D03*
Y101400D02*
D03*
Y88700D02*
D03*
Y76000D02*
D03*
Y63300D02*
D03*
Y50600D02*
D03*
Y37900D02*
D03*
X311250Y114100D02*
D03*
Y101400D02*
D03*
Y88700D02*
D03*
Y76000D02*
D03*
Y63300D02*
D03*
Y50600D02*
D03*
Y37900D02*
D03*
X131544Y115100D02*
D03*
Y102400D02*
D03*
Y89700D02*
D03*
Y77000D02*
D03*
Y64300D02*
D03*
Y51600D02*
D03*
Y38900D02*
D03*
X186043Y115100D02*
D03*
Y102400D02*
D03*
Y89700D02*
D03*
Y77000D02*
D03*
Y64300D02*
D03*
Y51600D02*
D03*
Y38900D02*
D03*
D21*
X443400Y234207D02*
D03*
X456600D02*
D03*
X1132100Y171500D02*
D03*
X1118900D02*
D03*
X794800Y-20000D02*
D03*
X808000D02*
D03*
D22*
X1175000Y38450D02*
D03*
Y51150D02*
D03*
Y63850D02*
D03*
Y76550D02*
D03*
X1126000Y38450D02*
D03*
Y51150D02*
D03*
Y63850D02*
D03*
Y76550D02*
D03*
X78000Y894050D02*
D03*
Y881350D02*
D03*
Y868650D02*
D03*
Y855950D02*
D03*
X127000Y894050D02*
D03*
Y881350D02*
D03*
Y868650D02*
D03*
Y855950D02*
D03*
D23*
X749830Y526500D02*
D03*
Y555500D02*
D03*
X709750Y526500D02*
D03*
Y555500D02*
D03*
X782700Y1190500D02*
D03*
Y1161500D02*
D03*
X742620Y1190500D02*
D03*
Y1161500D02*
D03*
D24*
X604850Y182000D02*
D03*
X541150D02*
D03*
D25*
X506000Y250950D02*
D03*
Y263650D02*
D03*
Y276350D02*
D03*
Y289050D02*
D03*
X458000Y250950D02*
D03*
Y263650D02*
D03*
Y276350D02*
D03*
Y289050D02*
D03*
D26*
X805250Y69000D02*
D03*
X864750D02*
D03*
D27*
X95500Y772250D02*
D03*
X82500D02*
D03*
X89000Y753250D02*
D03*
D28*
X288450Y859000D02*
D03*
X301150D02*
D03*
X313850D02*
D03*
X326550D02*
D03*
X288450Y906000D02*
D03*
X301150D02*
D03*
X313850D02*
D03*
X326550D02*
D03*
D29*
X369500Y735529D02*
D03*
Y748530D02*
D03*
X350500Y742030D02*
D03*
X369500Y1013500D02*
D03*
Y1026500D02*
D03*
X350500Y1020000D02*
D03*
D30*
X1412500Y939750D02*
D03*
Y880250D02*
D03*
D31*
X189250Y327900D02*
D03*
Y340600D02*
D03*
Y353300D02*
D03*
Y366000D02*
D03*
Y378700D02*
D03*
Y391400D02*
D03*
Y404100D02*
D03*
X136750Y327900D02*
D03*
Y340600D02*
D03*
Y353300D02*
D03*
Y366000D02*
D03*
Y378700D02*
D03*
Y391400D02*
D03*
Y404100D02*
D03*
D32*
X982550Y29820D02*
D03*
Y73000D02*
D03*
D39*
X684400Y-23700D02*
D03*
D40*
X630000D02*
D03*
X575600D02*
D03*
D41*
X410000Y674600D02*
D03*
Y697500D02*
D03*
X418000Y242100D02*
D03*
Y265000D02*
D03*
X941000Y68900D02*
D03*
Y46000D02*
D03*
X744000Y-71900D02*
D03*
Y-49000D02*
D03*
X410000Y1082900D02*
D03*
Y1060000D02*
D03*
Y767100D02*
D03*
Y790000D02*
D03*
Y992900D02*
D03*
Y970000D02*
D03*
X867100Y-12600D02*
D03*
X890000D02*
D03*
D42*
X410000Y720400D02*
D03*
X418000Y287900D02*
D03*
X941000Y23100D02*
D03*
X744000Y-26100D02*
D03*
X410000Y1037100D02*
D03*
Y812900D02*
D03*
Y947100D02*
D03*
D43*
X383750Y-50000D02*
D03*
D44*
X358350D02*
D03*
X332950D02*
D03*
X307550D02*
D03*
X50000Y386600D02*
D03*
Y412000D02*
D03*
Y437400D02*
D03*
Y518000D02*
D03*
Y543400D02*
D03*
Y568800D02*
D03*
Y201400D02*
D03*
Y226800D02*
D03*
Y252200D02*
D03*
Y277600D02*
D03*
Y303000D02*
D03*
D45*
Y361200D02*
D03*
Y492600D02*
D03*
Y176000D02*
D03*
D46*
X1179000Y222250D02*
D03*
Y425450D02*
D03*
X1282500Y512500D02*
D03*
X1079300D02*
D03*
X1124750Y425250D02*
D03*
Y285550D02*
D03*
X459000Y1160000D02*
D03*
X713000D02*
D03*
X470000Y610000D02*
D03*
X724000D02*
D03*
D47*
X1373800Y-60800D02*
D03*
X1272200D02*
D03*
Y40800D02*
D03*
X1373800D02*
D03*
D48*
X1323000Y-10000D02*
D03*
X65870Y624708D02*
D03*
Y675508D02*
D03*
X116671D02*
D03*
Y624708D02*
D03*
X116670Y-75400D02*
D03*
X65870D02*
D03*
Y-24600D02*
D03*
X116670D02*
D03*
D49*
X1340000Y120000D02*
D03*
X1365000Y170000D02*
D03*
X1315000D02*
D03*
X1340000Y522500D02*
D03*
X1365000Y472500D02*
D03*
X1315000D02*
D03*
D50*
X1227500Y197500D02*
D03*
Y445000D02*
D03*
D51*
X1420000Y589000D02*
D03*
X1340000D02*
D03*
D52*
X1450000Y50000D02*
D03*
X880000Y290000D02*
D03*
X50000Y1170000D02*
D03*
X840000Y1180000D02*
D03*
X1450000Y1170000D02*
D03*
X570000Y290000D02*
D03*
X440000Y350000D02*
D03*
X650000Y530000D02*
D03*
X460000Y880000D02*
D03*
X50000Y50000D02*
D03*
X740000Y290000D02*
D03*
X1450000Y690000D02*
D03*
D53*
X91271Y650108D02*
D03*
X91270Y-50000D02*
D03*
D54*
X686000Y93800D02*
D03*
Y68400D02*
D03*
Y43000D02*
D03*
Y17600D02*
D03*
X762200D02*
D03*
Y43000D02*
D03*
Y68400D02*
D03*
Y93800D02*
D03*
X534200Y92400D02*
D03*
Y67000D02*
D03*
Y41600D02*
D03*
Y16200D02*
D03*
X458000D02*
D03*
Y41600D02*
D03*
Y67000D02*
D03*
Y92400D02*
D03*
D55*
X471920Y459680D02*
D03*
X497320Y485080D02*
D03*
X365100Y459780D02*
D03*
X390500Y485180D02*
D03*
D56*
X522720Y459680D02*
D03*
X415900Y459780D02*
D03*
D57*
X912900Y-12600D02*
D03*
M02*
