G04 Layer_Physical_Order=2*
G04 Layer_Color=36540*
%FSLAX44Y44*%
%MOMM*%
G71*
G01*
G75*
%ADD38C,0.2540*%
%ADD42R,1.6000X1.6000*%
%ADD44C,1.5748*%
%ADD48C,2.2000*%
%ADD55C,1.2446*%
%ADD58C,1.2700*%
%ADD59C,0.8000*%
%ADD60C,3.9996*%
G36*
X1202500Y1210000D02*
Y1198627D01*
X1417903D01*
X1419286Y1195627D01*
X1417541Y1193583D01*
X1414251Y1188215D01*
X1411842Y1182398D01*
X1410372Y1176276D01*
X1409878Y1170000D01*
X1410372Y1163724D01*
X1411842Y1157602D01*
X1414251Y1151785D01*
X1417541Y1146417D01*
X1421629Y1141629D01*
X1426417Y1137541D01*
X1431785Y1134251D01*
X1437602Y1131842D01*
X1443723Y1130372D01*
X1450000Y1129878D01*
X1456277Y1130372D01*
X1462398Y1131842D01*
X1468215Y1134251D01*
X1473583Y1137541D01*
X1475627Y1139286D01*
X1478627Y1137903D01*
Y722097D01*
X1475627Y720714D01*
X1473583Y722459D01*
X1468215Y725749D01*
X1462398Y728158D01*
X1456277Y729628D01*
X1450000Y730122D01*
X1443723Y729628D01*
X1437602Y728158D01*
X1431785Y725749D01*
X1426417Y722459D01*
X1421629Y718371D01*
X1417541Y713583D01*
X1414251Y708215D01*
X1411842Y702398D01*
X1410372Y696276D01*
X1409878Y690000D01*
X1410372Y683724D01*
X1411842Y677602D01*
X1414251Y671785D01*
X1417541Y666417D01*
X1421629Y661629D01*
X1426417Y657541D01*
X1431785Y654251D01*
X1437602Y651842D01*
X1443723Y650372D01*
X1450000Y649878D01*
X1456277Y650372D01*
X1462398Y651842D01*
X1468215Y654251D01*
X1473583Y657541D01*
X1475627Y659286D01*
X1478627Y657903D01*
Y100500D01*
X1372169D01*
X1370703Y103118D01*
X1371282Y104061D01*
X1373390Y109151D01*
X1374676Y114508D01*
X1375108Y120000D01*
X1374676Y125492D01*
X1373390Y130849D01*
X1372326Y133418D01*
X1373688Y136091D01*
X1375849Y136610D01*
X1380939Y138718D01*
X1385636Y141597D01*
X1389825Y145175D01*
X1393403Y149364D01*
X1396282Y154061D01*
X1398390Y159151D01*
X1399676Y164508D01*
X1400108Y170000D01*
X1399676Y175492D01*
X1398390Y180849D01*
X1396282Y185939D01*
X1393403Y190636D01*
X1389825Y194825D01*
X1385636Y198403D01*
X1380939Y201282D01*
X1375849Y203390D01*
X1370492Y204676D01*
X1365000Y205108D01*
X1359508Y204676D01*
X1354151Y203390D01*
X1349061Y201282D01*
X1344364Y198403D01*
X1342254Y196601D01*
X1340000Y194953D01*
X1337746Y196601D01*
X1335636Y198403D01*
X1330939Y201282D01*
X1325849Y203390D01*
X1320492Y204676D01*
X1315000Y205108D01*
X1309508Y204676D01*
X1304151Y203390D01*
X1299061Y201282D01*
X1294364Y198403D01*
X1290175Y194825D01*
X1286597Y190636D01*
X1283718Y185939D01*
X1281610Y180849D01*
X1280324Y175492D01*
X1279892Y170000D01*
X1280324Y164508D01*
X1281610Y159151D01*
X1283718Y154061D01*
X1286597Y149364D01*
X1290175Y145175D01*
X1294364Y141597D01*
X1299061Y138718D01*
X1304151Y136610D01*
X1306312Y136091D01*
X1307674Y133418D01*
X1306610Y130849D01*
X1305324Y125492D01*
X1304892Y120000D01*
X1305324Y114508D01*
X1306610Y109151D01*
X1308718Y104061D01*
X1309297Y103118D01*
X1307831Y100500D01*
X1202500D01*
Y87315D01*
X1200450Y85517D01*
X1198129Y85211D01*
X1195967Y84315D01*
X1194110Y82890D01*
X1193081Y81550D01*
X1200450D01*
Y71550D01*
X1193081D01*
X1194110Y70210D01*
X1195967Y68785D01*
X1198129Y67889D01*
X1200450Y67583D01*
X1202500Y65785D01*
Y-90000D01*
X1159274D01*
X1156578Y-87500D01*
X1156268Y-85150D01*
X1155361Y-82961D01*
X1153919Y-81081D01*
X1152039Y-79639D01*
X1149849Y-78732D01*
X1147500Y-78422D01*
X1145151Y-78732D01*
X1142961Y-79639D01*
X1141081Y-81081D01*
X1139639Y-82961D01*
X1138732Y-85150D01*
X1138422Y-87500D01*
X1135726Y-90000D01*
X262418Y-90000D01*
X261643Y-88210D01*
X261579Y-87000D01*
X263090Y-85840D01*
X264119Y-84500D01*
X249381D01*
X250410Y-85840D01*
X251921Y-87000D01*
X251857Y-88210D01*
X251082Y-90000D01*
X124644Y-90000D01*
X123816Y-87996D01*
X123794Y-87000D01*
X126327Y-85057D01*
X128497Y-82228D01*
X129255Y-80400D01*
X116670D01*
Y-75400D01*
D01*
Y-80400D01*
X104086D01*
X104843Y-82228D01*
X107013Y-85057D01*
X109545Y-87000D01*
X109524Y-87996D01*
X108696Y-90000D01*
X73844D01*
X73016Y-87996D01*
X72994Y-87000D01*
X75527Y-85057D01*
X77697Y-82228D01*
X78454Y-80400D01*
X65870D01*
X53285D01*
X54043Y-82228D01*
X56213Y-85057D01*
X58745Y-87000D01*
X58724Y-87996D01*
X57896Y-90000D01*
X10000D01*
Y1210000D01*
X1202500Y1210000D01*
D02*
G37*
%LPC*%
G36*
X379750Y196619D02*
X378410Y195590D01*
X377381Y194250D01*
X379750D01*
Y196619D01*
D02*
G37*
G36*
X1074619Y184250D02*
X1072250D01*
Y181881D01*
X1073590Y182910D01*
X1074619Y184250D01*
D02*
G37*
G36*
X1062250Y196619D02*
X1060910Y195590D01*
X1059881Y194250D01*
X1062250D01*
Y196619D01*
D02*
G37*
G36*
X389750D02*
Y194250D01*
X392119D01*
X391090Y195590D01*
X389750Y196619D01*
D02*
G37*
G36*
X285250Y201448D02*
X282287Y201058D01*
X279526Y199914D01*
X277155Y198095D01*
X275336Y195724D01*
X274192Y192963D01*
X273802Y190000D01*
X274192Y187037D01*
X275336Y184276D01*
X277155Y181905D01*
X279526Y180086D01*
X282287Y178942D01*
X285250Y178552D01*
X288213Y178942D01*
X290974Y180086D01*
X293345Y181905D01*
X295784Y180155D01*
X296526Y179586D01*
X299287Y178442D01*
X302250Y178052D01*
X305213Y178442D01*
X307974Y179586D01*
X310345Y181405D01*
X312164Y183776D01*
X313308Y186537D01*
X313698Y189500D01*
X313308Y192463D01*
X312164Y195224D01*
X310345Y197595D01*
X307974Y199414D01*
X305213Y200558D01*
X302250Y200948D01*
X299287Y200558D01*
X296526Y199414D01*
X294155Y197595D01*
X291716Y199345D01*
X290974Y199914D01*
X288213Y201058D01*
X285250Y201448D01*
D02*
G37*
G36*
X1202500Y235529D02*
Y180880D01*
X1203154Y179812D01*
X1206221Y176221D01*
X1209812Y173154D01*
X1213838Y170687D01*
X1218201Y168880D01*
X1222792Y167778D01*
X1227500Y167407D01*
X1232208Y167778D01*
X1236799Y168880D01*
X1241162Y170687D01*
X1245188Y173154D01*
X1248779Y176221D01*
X1251846Y179812D01*
X1254313Y183838D01*
X1256120Y188201D01*
X1257222Y192792D01*
X1257593Y197500D01*
X1257222Y202208D01*
X1256120Y206799D01*
X1254313Y211162D01*
X1251846Y215188D01*
X1248779Y218779D01*
X1245188Y221846D01*
X1241162Y224313D01*
X1236799Y226120D01*
X1232208Y227222D01*
X1227500Y227593D01*
X1222792Y227222D01*
X1218201Y226120D01*
X1213838Y224313D01*
X1209812Y221846D01*
X1209024Y221173D01*
X1207022Y221914D01*
X1206081Y222604D01*
X1205595Y227540D01*
X1204052Y232627D01*
X1202500Y235529D01*
D02*
G37*
G36*
X379750Y184250D02*
X377381D01*
X378410Y182910D01*
X379750Y181881D01*
Y184250D01*
D02*
G37*
G36*
X1062250D02*
X1059881D01*
X1060910Y182910D01*
X1062250Y181881D01*
Y184250D01*
D02*
G37*
G36*
X392119D02*
X389750D01*
Y181881D01*
X391090Y182910D01*
X392119Y184250D01*
D02*
G37*
G36*
X1072250Y196619D02*
Y194250D01*
X1074619D01*
X1073590Y195590D01*
X1072250Y196619D01*
D02*
G37*
G36*
X476250Y215750D02*
X473881D01*
X474910Y214410D01*
X476250Y213381D01*
Y215750D01*
D02*
G37*
G36*
X1179000Y234338D02*
X1175871Y233927D01*
X1172956Y232719D01*
X1170452Y230798D01*
X1168531Y228294D01*
X1167324Y225379D01*
X1166912Y222250D01*
X1167324Y219121D01*
X1168531Y216206D01*
X1170452Y213702D01*
X1172956Y211781D01*
X1175871Y210574D01*
X1179000Y210162D01*
X1182129Y210574D01*
X1185044Y211781D01*
X1187548Y213702D01*
X1189469Y216206D01*
X1190676Y219121D01*
X1191088Y222250D01*
X1190676Y225379D01*
X1189469Y228294D01*
X1187548Y230798D01*
X1185044Y232719D01*
X1182129Y233927D01*
X1179000Y234338D01*
D02*
G37*
G36*
X133750Y224619D02*
X132410Y223590D01*
X131381Y222250D01*
X133750D01*
Y224619D01*
D02*
G37*
G36*
X488619Y215750D02*
X486250D01*
Y213381D01*
X487590Y214410D01*
X488619Y215750D01*
D02*
G37*
G36*
X290619Y212250D02*
X288250D01*
Y209881D01*
X289590Y210910D01*
X290619Y212250D01*
D02*
G37*
G36*
X133750D02*
X131381D01*
X132410Y210910D01*
X133750Y209881D01*
Y212250D01*
D02*
G37*
G36*
X59201Y247200D02*
X50000D01*
X40799D01*
X40903Y246948D01*
X42573Y244773D01*
X44748Y243103D01*
X46550Y242357D01*
X46624Y239857D01*
X46494Y239282D01*
X43507Y238045D01*
X40818Y235982D01*
X38755Y233293D01*
X37457Y230161D01*
X37015Y226800D01*
X37457Y223439D01*
X38755Y220308D01*
X40818Y217618D01*
X43507Y215555D01*
X46494Y214318D01*
X46624Y213743D01*
X46550Y211243D01*
X44748Y210497D01*
X42573Y208827D01*
X40903Y206652D01*
X40799Y206400D01*
X50000D01*
X59201D01*
X59097Y206652D01*
X57427Y208827D01*
X55252Y210497D01*
X53450Y211243D01*
X53376Y213743D01*
X53506Y214318D01*
X56493Y215555D01*
X59182Y217618D01*
X61245Y220308D01*
X62543Y223439D01*
X62985Y226800D01*
X62543Y230161D01*
X61245Y233293D01*
X59182Y235982D01*
X56493Y238045D01*
X53506Y239282D01*
X53376Y239857D01*
X53450Y242357D01*
X55252Y243103D01*
X57427Y244773D01*
X59097Y246948D01*
X59201Y247200D01*
D02*
G37*
G36*
X278250Y212250D02*
X275881D01*
X276910Y210910D01*
X278250Y209881D01*
Y212250D01*
D02*
G37*
G36*
X146119D02*
X143750D01*
Y209881D01*
X145090Y210910D01*
X146119Y212250D01*
D02*
G37*
G36*
X117369Y127500D02*
X115000D01*
Y125131D01*
X116340Y126160D01*
X117369Y127500D01*
D02*
G37*
G36*
X105000D02*
X102631D01*
X103660Y126160D01*
X105000Y125131D01*
Y127500D01*
D02*
G37*
G36*
X380500Y152198D02*
X377537Y151808D01*
X374776Y150664D01*
X372405Y148845D01*
X370586Y146474D01*
X369442Y143713D01*
X369052Y140750D01*
X369442Y137787D01*
X370586Y135026D01*
X372405Y132655D01*
X374776Y130836D01*
X377537Y129692D01*
X380500Y129302D01*
X383463Y129692D01*
X386224Y130836D01*
X388595Y132655D01*
X390414Y135026D01*
X391558Y137787D01*
X391948Y140750D01*
X391558Y143713D01*
X390414Y146474D01*
X388595Y148845D01*
X386224Y150664D01*
X383463Y151808D01*
X380500Y152198D01*
D02*
G37*
G36*
X466750Y145078D02*
X464400Y144768D01*
X462211Y143862D01*
X460331Y142419D01*
X458889Y140539D01*
X457982Y138350D01*
X457672Y136000D01*
X457982Y133651D01*
X458889Y131461D01*
X460331Y129581D01*
X462211Y128139D01*
X464400Y127232D01*
X466750Y126922D01*
X469100Y127232D01*
X471289Y128139D01*
X473169Y129581D01*
X474611Y131461D01*
X475518Y133651D01*
X475828Y136000D01*
X475518Y138350D01*
X474611Y140539D01*
X473169Y142419D01*
X471289Y143862D01*
X469100Y144768D01*
X466750Y145078D01*
D02*
G37*
G36*
X273250Y109578D02*
X270900Y109268D01*
X268711Y108362D01*
X266831Y106919D01*
X265389Y105039D01*
X264482Y102850D01*
X264172Y100500D01*
X264482Y98151D01*
X265389Y95961D01*
X266831Y94081D01*
X268711Y92639D01*
X270900Y91732D01*
X273250Y91422D01*
X275599Y91732D01*
X277789Y92639D01*
X279669Y94081D01*
X281112Y95961D01*
X282018Y98151D01*
X282328Y100500D01*
X282018Y102850D01*
X281112Y105039D01*
X279669Y106919D01*
X277789Y108362D01*
X275599Y109268D01*
X273250Y109578D01*
D02*
G37*
G36*
X1054250Y84119D02*
Y81750D01*
X1056619D01*
X1055590Y83090D01*
X1054250Y84119D01*
D02*
G37*
G36*
X1044250D02*
X1042910Y83090D01*
X1041881Y81750D01*
X1044250D01*
Y84119D01*
D02*
G37*
G36*
X406000Y91119D02*
Y88750D01*
X408369D01*
X407340Y90090D01*
X406000Y91119D01*
D02*
G37*
G36*
X396000D02*
X394660Y90090D01*
X393631Y88750D01*
X396000D01*
Y91119D01*
D02*
G37*
G36*
X307500Y154078D02*
X305151Y153768D01*
X302961Y152861D01*
X301081Y151419D01*
X299639Y149539D01*
X298732Y147350D01*
X298422Y145000D01*
X298732Y142650D01*
X299639Y140461D01*
X301081Y138581D01*
X302961Y137139D01*
X305151Y136232D01*
X307500Y135922D01*
X309849Y136232D01*
X312039Y137139D01*
X313919Y138581D01*
X315361Y140461D01*
X316268Y142650D01*
X316578Y145000D01*
X316268Y147350D01*
X315361Y149539D01*
X313919Y151419D01*
X312039Y152861D01*
X309849Y153768D01*
X307500Y154078D01*
D02*
G37*
G36*
X144750Y162869D02*
Y160500D01*
X147119D01*
X146090Y161840D01*
X144750Y162869D01*
D02*
G37*
G36*
X134750D02*
X133410Y161840D01*
X132381Y160500D01*
X134750D01*
Y162869D01*
D02*
G37*
G36*
X59201Y196400D02*
X50000D01*
X40799D01*
X40903Y196148D01*
X42573Y193973D01*
X44748Y192303D01*
X45548Y191972D01*
X44952Y188972D01*
X42126D01*
X40175Y188584D01*
X38521Y187479D01*
X37416Y185825D01*
X37028Y183874D01*
Y168126D01*
X37416Y166175D01*
X38521Y164521D01*
X40175Y163416D01*
X42126Y163028D01*
X57874D01*
X59825Y163416D01*
X61479Y164521D01*
X62584Y166175D01*
X62972Y168126D01*
Y183874D01*
X62584Y185825D01*
X61479Y187479D01*
X59825Y188584D01*
X57874Y188972D01*
X55048D01*
X54452Y191972D01*
X55252Y192303D01*
X57427Y193973D01*
X59097Y196148D01*
X59201Y196400D01*
D02*
G37*
G36*
X465000Y180078D02*
X462650Y179768D01*
X460461Y178861D01*
X458581Y177419D01*
X457139Y175539D01*
X456232Y173349D01*
X455922Y171000D01*
X456232Y168650D01*
X457139Y166461D01*
X458581Y164581D01*
X460461Y163139D01*
X462650Y162232D01*
X465000Y161922D01*
X467350Y162232D01*
X469539Y163139D01*
X471419Y164581D01*
X472862Y166461D01*
X473768Y168650D01*
X474078Y171000D01*
X473768Y173349D01*
X472862Y175539D01*
X471419Y177419D01*
X469539Y178861D01*
X467350Y179768D01*
X465000Y180078D01*
D02*
G37*
G36*
X147119Y150500D02*
X144750D01*
Y148131D01*
X146090Y149160D01*
X147119Y150500D01*
D02*
G37*
G36*
X105000Y139869D02*
X103660Y138840D01*
X102631Y137500D01*
X105000D01*
Y139869D01*
D02*
G37*
G36*
X1129750Y158948D02*
X1126787Y158558D01*
X1124026Y157414D01*
X1121655Y155595D01*
X1119836Y153224D01*
X1118692Y150463D01*
X1118302Y147500D01*
X1118692Y144537D01*
X1119836Y141776D01*
X1121655Y139405D01*
X1124026Y137586D01*
X1126787Y136442D01*
X1129750Y136052D01*
X1132713Y136442D01*
X1135474Y137586D01*
X1137845Y139405D01*
X1139664Y141776D01*
X1140808Y144537D01*
X1141198Y147500D01*
X1140808Y150463D01*
X1139664Y153224D01*
X1137845Y155595D01*
X1135474Y157414D01*
X1132713Y158558D01*
X1129750Y158948D01*
D02*
G37*
G36*
X134750Y150500D02*
X132381D01*
X133410Y149160D01*
X134750Y148131D01*
Y150500D01*
D02*
G37*
G36*
X115000Y139869D02*
Y137500D01*
X117369D01*
X116340Y138840D01*
X115000Y139869D01*
D02*
G37*
G36*
X143750Y224619D02*
Y222250D01*
X146119D01*
X145090Y223590D01*
X143750Y224619D01*
D02*
G37*
G36*
X145500Y311869D02*
Y309500D01*
X147869D01*
X146840Y310840D01*
X145500Y311869D01*
D02*
G37*
G36*
X55000Y312201D02*
Y308000D01*
X59201D01*
X59097Y308252D01*
X57427Y310427D01*
X55252Y312097D01*
X55000Y312201D01*
D02*
G37*
G36*
X462036Y345000D02*
X445000D01*
Y327964D01*
X448667Y329077D01*
X452582Y331170D01*
X456014Y333986D01*
X458831Y337418D01*
X460923Y341333D01*
X462036Y345000D01*
D02*
G37*
G36*
X435000D02*
X417964D01*
X419077Y341333D01*
X421170Y337418D01*
X423986Y333986D01*
X427418Y331170D01*
X431333Y329077D01*
X435000Y327964D01*
Y345000D01*
D02*
G37*
G36*
X45000Y312201D02*
X44748Y312097D01*
X42573Y310427D01*
X40903Y308252D01*
X40799Y308000D01*
X45000D01*
Y312201D01*
D02*
G37*
G36*
X426000Y298490D02*
X423000D01*
Y292900D01*
X428590D01*
Y295900D01*
X428393Y296891D01*
X427831Y297731D01*
X426991Y298293D01*
X426000Y298490D01*
D02*
G37*
G36*
X413000D02*
X410000D01*
X409009Y298293D01*
X408169Y297731D01*
X407607Y296891D01*
X407410Y295900D01*
Y292900D01*
X413000D01*
Y298490D01*
D02*
G37*
G36*
X147869Y299500D02*
X145500D01*
Y297131D01*
X146840Y298160D01*
X147869Y299500D01*
D02*
G37*
G36*
X122750Y326448D02*
X119787Y326058D01*
X117026Y324914D01*
X114655Y323095D01*
X112836Y320724D01*
X111692Y317963D01*
X111302Y315000D01*
X111692Y312037D01*
X112836Y309276D01*
X114655Y306905D01*
X117026Y305086D01*
X119787Y303942D01*
X122750Y303552D01*
X125713Y303942D01*
X128474Y305086D01*
X128597Y305180D01*
X129716Y304921D01*
X131635Y303730D01*
X131839Y302179D01*
X132735Y300017D01*
X134160Y298160D01*
X135500Y297131D01*
Y304500D01*
Y313458D01*
X134693Y313927D01*
X134147Y314612D01*
X134198Y315000D01*
X133808Y317963D01*
X132664Y320724D01*
X130845Y323095D01*
X128474Y324914D01*
X125713Y326058D01*
X122750Y326448D01*
D02*
G37*
G36*
X322000Y369698D02*
X319037Y369308D01*
X316276Y368164D01*
X313905Y366345D01*
X312086Y363974D01*
X310942Y361213D01*
X310552Y358250D01*
X310942Y355287D01*
X312086Y352526D01*
X313905Y350155D01*
X316276Y348336D01*
X319037Y347192D01*
X322000Y346802D01*
X324963Y347192D01*
X327724Y348336D01*
X330095Y350155D01*
X331914Y352526D01*
X333058Y355287D01*
X333448Y358250D01*
X333058Y361213D01*
X331914Y363974D01*
X330095Y366345D01*
X327724Y368164D01*
X324963Y369308D01*
X322000Y369698D01*
D02*
G37*
G36*
X331500Y405698D02*
X328537Y405308D01*
X325776Y404164D01*
X323405Y402345D01*
X321586Y399974D01*
X320442Y397213D01*
X320052Y394250D01*
X320442Y391287D01*
X321586Y388526D01*
X323405Y386155D01*
X325776Y384336D01*
X328537Y383192D01*
X331500Y382802D01*
X334463Y383192D01*
X337224Y384336D01*
X339595Y386155D01*
X341414Y388526D01*
X342558Y391287D01*
X342948Y394250D01*
X342558Y397213D01*
X341414Y399974D01*
X339595Y402345D01*
X337224Y404164D01*
X334463Y405308D01*
X331500Y405698D01*
D02*
G37*
G36*
X239869Y381500D02*
X237500D01*
Y379131D01*
X238840Y380160D01*
X239869Y381500D01*
D02*
G37*
G36*
X237500Y393869D02*
Y391500D01*
X239869D01*
X238840Y392840D01*
X237500Y393869D01*
D02*
G37*
G36*
X227500D02*
X226160Y392840D01*
X225131Y391500D01*
X227500D01*
Y393869D01*
D02*
G37*
G36*
Y381500D02*
X225131D01*
X226160Y380160D01*
X227500Y379131D01*
Y381500D01*
D02*
G37*
G36*
X435000Y372036D02*
X431333Y370923D01*
X427418Y368831D01*
X423986Y366014D01*
X421170Y362582D01*
X419077Y358667D01*
X417964Y355000D01*
X435000D01*
Y372036D01*
D02*
G37*
G36*
X59201Y381600D02*
X50000D01*
X40799D01*
X40903Y381348D01*
X42573Y379173D01*
X44748Y377503D01*
X45548Y377172D01*
X44952Y374172D01*
X42126D01*
X40175Y373784D01*
X38521Y372679D01*
X37416Y371025D01*
X37028Y369074D01*
Y353326D01*
X37416Y351375D01*
X38521Y349721D01*
X40175Y348616D01*
X42126Y348228D01*
X57874D01*
X59825Y348616D01*
X61479Y349721D01*
X62584Y351375D01*
X62972Y353326D01*
Y369074D01*
X62584Y371025D01*
X61479Y372679D01*
X59825Y373784D01*
X57874Y374172D01*
X55048D01*
X54452Y377172D01*
X55252Y377503D01*
X57427Y379173D01*
X59097Y381348D01*
X59201Y381600D01*
D02*
G37*
G36*
X88250Y390948D02*
X85287Y390558D01*
X82526Y389414D01*
X80155Y387595D01*
X78336Y385224D01*
X77192Y382463D01*
X76802Y379500D01*
X77192Y376537D01*
X78336Y373776D01*
X80155Y371405D01*
X82526Y369586D01*
X85287Y368442D01*
X88250Y368052D01*
X91213Y368442D01*
X93974Y369586D01*
X96345Y371405D01*
X98164Y373776D01*
X99308Y376537D01*
X99698Y379500D01*
X99308Y382463D01*
X98164Y385224D01*
X96345Y387595D01*
X93974Y389414D01*
X91213Y390558D01*
X88250Y390948D01*
D02*
G37*
G36*
X445000Y372036D02*
Y355000D01*
X462036D01*
X460923Y358667D01*
X458831Y362582D01*
X456014Y366014D01*
X452582Y368831D01*
X448667Y370923D01*
X445000Y372036D01*
D02*
G37*
G36*
X240750Y294619D02*
Y292250D01*
X243119D01*
X242090Y293590D01*
X240750Y294619D01*
D02*
G37*
G36*
X50000Y303000D02*
D01*
Y298000D01*
X40799D01*
X40903Y297748D01*
X42573Y295573D01*
X44748Y293903D01*
X46550Y293157D01*
X46624Y290657D01*
X46494Y290082D01*
X43507Y288845D01*
X40818Y286782D01*
X38755Y284093D01*
X37457Y280961D01*
X37015Y277600D01*
X37457Y274239D01*
X38755Y271108D01*
X40818Y268418D01*
X43507Y266355D01*
X46494Y265118D01*
X46624Y264543D01*
X46550Y262043D01*
X44748Y261297D01*
X42573Y259627D01*
X40903Y257452D01*
X40799Y257200D01*
X50000D01*
X59201D01*
X59097Y257452D01*
X57427Y259627D01*
X55252Y261297D01*
X53450Y262043D01*
X53376Y264543D01*
X53506Y265118D01*
X56493Y266355D01*
X59182Y268418D01*
X61245Y271108D01*
X62543Y274239D01*
X62985Y277600D01*
X62543Y280961D01*
X61245Y284093D01*
X59182Y286782D01*
X56493Y288845D01*
X53506Y290082D01*
X53376Y290657D01*
X53450Y293157D01*
X55252Y293903D01*
X57427Y295573D01*
X59097Y297748D01*
X59201Y298000D01*
X50000D01*
Y303000D01*
D02*
G37*
G36*
X188000Y275698D02*
X185037Y275308D01*
X182276Y274164D01*
X179905Y272345D01*
X178086Y269974D01*
X176942Y267213D01*
X176552Y264250D01*
X176942Y261287D01*
X178086Y258526D01*
X179905Y256155D01*
X182276Y254336D01*
X182737Y254145D01*
X182776Y250914D01*
X180405Y249095D01*
X178586Y246724D01*
X177442Y243963D01*
X177052Y241000D01*
X177442Y238037D01*
X178586Y235276D01*
X180405Y232905D01*
X182776Y231086D01*
X185537Y229942D01*
X188500Y229552D01*
X191463Y229942D01*
X194224Y231086D01*
X196595Y232905D01*
X198414Y235276D01*
X199558Y238037D01*
X199948Y241000D01*
X199558Y243963D01*
X198414Y246724D01*
X196595Y249095D01*
X194224Y250914D01*
X193763Y251105D01*
X193724Y254336D01*
X196095Y256155D01*
X197914Y258526D01*
X199058Y261287D01*
X199448Y264250D01*
X199058Y267213D01*
X197914Y269974D01*
X196095Y272345D01*
X193724Y274164D01*
X190963Y275308D01*
X188000Y275698D01*
D02*
G37*
G36*
X570000Y315119D02*
X565099Y314637D01*
X560387Y313207D01*
X556045Y310886D01*
X552238Y307762D01*
X549114Y303955D01*
X546793Y299613D01*
X545364Y294900D01*
X544881Y290000D01*
X545364Y285100D01*
X546793Y280387D01*
X549114Y276045D01*
X552238Y272238D01*
X556045Y269114D01*
X560387Y266793D01*
X565099Y265364D01*
X570000Y264881D01*
X574901Y265364D01*
X579613Y266793D01*
X583955Y269114D01*
X587762Y272238D01*
X590886Y276045D01*
X593207Y280387D01*
X594637Y285100D01*
X595119Y290000D01*
X594637Y294900D01*
X593207Y299613D01*
X590886Y303955D01*
X587762Y307762D01*
X583955Y310886D01*
X579613Y313207D01*
X574901Y314637D01*
X570000Y315119D01*
D02*
G37*
G36*
X124000Y282698D02*
X121037Y282308D01*
X118276Y281164D01*
X115905Y279345D01*
X114086Y276974D01*
X112942Y274213D01*
X112552Y271250D01*
X112942Y268287D01*
X114086Y265526D01*
X115905Y263155D01*
X118276Y261336D01*
X121037Y260192D01*
X124000Y259802D01*
X126963Y260192D01*
X129724Y261336D01*
X132095Y263155D01*
X133914Y265526D01*
X135058Y268287D01*
X135448Y271250D01*
X135058Y274213D01*
X133914Y276974D01*
X132095Y279345D01*
X129724Y281164D01*
X126963Y282308D01*
X124000Y282698D01*
D02*
G37*
G36*
X428590Y282900D02*
X407410D01*
Y279900D01*
X407607Y278909D01*
X408169Y278069D01*
X408479Y277862D01*
X408985Y275635D01*
X408969Y274457D01*
X408728Y274272D01*
X406645Y271556D01*
X405335Y268394D01*
X404888Y265000D01*
X405335Y261606D01*
X406645Y258444D01*
X408728Y255728D01*
X409103Y255441D01*
Y251659D01*
X408728Y251372D01*
X406645Y248656D01*
X405335Y245494D01*
X404888Y242100D01*
X405335Y238706D01*
X406645Y235544D01*
X408728Y232828D01*
X411444Y230744D01*
X414606Y229435D01*
X418000Y228988D01*
X421394Y229435D01*
X424556Y230744D01*
X427272Y232828D01*
X429356Y235544D01*
X430665Y238706D01*
X431112Y242100D01*
X430665Y245494D01*
X429356Y248656D01*
X427272Y251372D01*
X426897Y251659D01*
Y255441D01*
X427272Y255728D01*
X429356Y258444D01*
X430665Y261606D01*
X431112Y265000D01*
X430665Y268394D01*
X429356Y271556D01*
X427272Y274272D01*
X427031Y274457D01*
X427015Y275635D01*
X427521Y277862D01*
X427831Y278069D01*
X428393Y278909D01*
X428590Y279900D01*
Y282900D01*
D02*
G37*
G36*
X288250Y224619D02*
Y222250D01*
X290619D01*
X289590Y223590D01*
X288250Y224619D01*
D02*
G37*
G36*
X278250D02*
X276910Y223590D01*
X275881Y222250D01*
X278250D01*
Y224619D01*
D02*
G37*
G36*
X486250Y228119D02*
Y225750D01*
X488619D01*
X487590Y227090D01*
X486250Y228119D01*
D02*
G37*
G36*
X476250D02*
X474910Y227090D01*
X473881Y225750D01*
X476250D01*
Y228119D01*
D02*
G37*
G36*
X740000Y315119D02*
X735099Y314637D01*
X730387Y313207D01*
X726044Y310886D01*
X722238Y307762D01*
X719114Y303955D01*
X716793Y299613D01*
X715363Y294900D01*
X714881Y290000D01*
X715363Y285100D01*
X716793Y280387D01*
X719114Y276045D01*
X722238Y272238D01*
X726044Y269114D01*
X730387Y266793D01*
X735099Y265364D01*
X740000Y264881D01*
X744901Y265364D01*
X749613Y266793D01*
X753956Y269114D01*
X757762Y272238D01*
X760886Y276045D01*
X763207Y280387D01*
X764637Y285100D01*
X765119Y290000D01*
X764637Y294900D01*
X763207Y299613D01*
X760886Y303955D01*
X757762Y307762D01*
X753956Y310886D01*
X749613Y313207D01*
X744901Y314637D01*
X740000Y315119D01*
D02*
G37*
G36*
X278710Y293579D02*
X277370Y292550D01*
X276341Y291210D01*
X278710D01*
Y293579D01*
D02*
G37*
G36*
X243119Y282250D02*
X240750D01*
Y279881D01*
X242090Y280910D01*
X243119Y282250D01*
D02*
G37*
G36*
X230750Y294619D02*
X229410Y293590D01*
X228381Y292250D01*
X230750D01*
Y294619D01*
D02*
G37*
G36*
X288710Y293579D02*
Y291210D01*
X291079D01*
X290050Y292550D01*
X288710Y293579D01*
D02*
G37*
G36*
X230750Y282250D02*
X228381D01*
X229410Y280910D01*
X230750Y279881D01*
Y282250D01*
D02*
G37*
G36*
X1124750Y297638D02*
X1121621Y297227D01*
X1118706Y296019D01*
X1116202Y294098D01*
X1114281Y291594D01*
X1113074Y288679D01*
X1112662Y285550D01*
X1113074Y282421D01*
X1114281Y279506D01*
X1116202Y277002D01*
X1118706Y275081D01*
X1121621Y273874D01*
X1124750Y273462D01*
X1127879Y273874D01*
X1130794Y275081D01*
X1133298Y277002D01*
X1135219Y279506D01*
X1136426Y282421D01*
X1136838Y285550D01*
X1136426Y288679D01*
X1135219Y291594D01*
X1133298Y294098D01*
X1130794Y296019D01*
X1127879Y297227D01*
X1124750Y297638D01*
D02*
G37*
G36*
X880000Y315119D02*
X875099Y314637D01*
X870387Y313207D01*
X866044Y310886D01*
X862238Y307762D01*
X859114Y303955D01*
X856793Y299613D01*
X855363Y294900D01*
X854881Y290000D01*
X855363Y285100D01*
X856793Y280387D01*
X859114Y276045D01*
X862238Y272238D01*
X866044Y269114D01*
X870387Y266793D01*
X875099Y265364D01*
X880000Y264881D01*
X884901Y265364D01*
X889613Y266793D01*
X893956Y269114D01*
X897762Y272238D01*
X900886Y276045D01*
X903207Y280387D01*
X904637Y285100D01*
X905119Y290000D01*
X904637Y294900D01*
X903207Y299613D01*
X900886Y303955D01*
X897762Y307762D01*
X893956Y310886D01*
X889613Y313207D01*
X884901Y314637D01*
X880000Y315119D01*
D02*
G37*
G36*
X291079Y281210D02*
X288710D01*
Y278841D01*
X290050Y279870D01*
X291079Y281210D01*
D02*
G37*
G36*
X278710D02*
X276341D01*
X277370Y279870D01*
X278710Y278841D01*
Y281210D01*
D02*
G37*
G36*
X694900Y-8102D02*
X673900D01*
X671949Y-8490D01*
X670295Y-9595D01*
X669190Y-11249D01*
X668802Y-13200D01*
Y-34200D01*
X669190Y-36151D01*
X670295Y-37805D01*
X671949Y-38910D01*
X673900Y-39298D01*
X694900D01*
X696851Y-38910D01*
X698505Y-37805D01*
X699610Y-36151D01*
X699998Y-34200D01*
Y-13200D01*
X699610Y-11249D01*
X698505Y-9595D01*
X696851Y-8490D01*
X694900Y-8102D01*
D02*
G37*
G36*
X630000Y-8066D02*
X625954Y-8599D01*
X622183Y-10161D01*
X618945Y-12645D01*
X616461Y-15883D01*
X614899Y-19654D01*
X614366Y-23700D01*
X614899Y-27746D01*
X616461Y-31517D01*
X618945Y-34755D01*
X622183Y-37239D01*
X625954Y-38801D01*
X630000Y-39334D01*
X634046Y-38801D01*
X637817Y-37239D01*
X641055Y-34755D01*
X643539Y-31517D01*
X645101Y-27746D01*
X645634Y-23700D01*
X645101Y-19654D01*
X643539Y-15883D01*
X641055Y-12645D01*
X637817Y-10161D01*
X634046Y-8599D01*
X630000Y-8066D01*
D02*
G37*
G36*
X111670Y-29600D02*
X104086D01*
X104843Y-31428D01*
X107013Y-34257D01*
X109842Y-36427D01*
X111670Y-37185D01*
Y-29600D01*
D02*
G37*
G36*
X60870D02*
X53285D01*
X54043Y-31428D01*
X56213Y-34257D01*
X59042Y-36427D01*
X60870Y-37185D01*
Y-29600D01*
D02*
G37*
G36*
X575600Y-8066D02*
X571554Y-8599D01*
X567783Y-10161D01*
X564545Y-12645D01*
X562061Y-15883D01*
X560499Y-19654D01*
X559966Y-23700D01*
X560499Y-27746D01*
X562061Y-31517D01*
X564545Y-34755D01*
X567783Y-37239D01*
X571554Y-38801D01*
X575600Y-39334D01*
X579646Y-38801D01*
X583417Y-37239D01*
X586655Y-34755D01*
X589139Y-31517D01*
X590701Y-27746D01*
X591234Y-23700D01*
X590701Y-19654D01*
X589139Y-15883D01*
X586655Y-12645D01*
X583417Y-10161D01*
X579646Y-8599D01*
X575600Y-8066D01*
D02*
G37*
G36*
X302550Y-40799D02*
X302298Y-40903D01*
X300123Y-42573D01*
X298453Y-44748D01*
X298349Y-45000D01*
X302550D01*
Y-40799D01*
D02*
G37*
G36*
Y-55000D02*
X298349D01*
X298453Y-55252D01*
X300123Y-57427D01*
X302298Y-59097D01*
X302550Y-59201D01*
Y-55000D01*
D02*
G37*
G36*
X408250Y-17802D02*
X405287Y-18192D01*
X402526Y-19336D01*
X400155Y-21155D01*
X398336Y-23526D01*
X397192Y-26287D01*
X396802Y-29250D01*
X397192Y-32213D01*
X398336Y-34974D01*
X400155Y-37345D01*
X402526Y-39164D01*
X405287Y-40308D01*
X408250Y-40698D01*
X411213Y-40308D01*
X413974Y-39164D01*
X416345Y-37345D01*
X418164Y-34974D01*
X419308Y-32213D01*
X419698Y-29250D01*
X419308Y-26287D01*
X418164Y-23526D01*
X416345Y-21155D01*
X413974Y-19336D01*
X411213Y-18192D01*
X408250Y-17802D01*
D02*
G37*
G36*
X358350Y-37015D02*
X354989Y-37457D01*
X351857Y-38755D01*
X349168Y-40818D01*
X347324Y-43221D01*
X345650Y-43407D01*
X343976Y-43221D01*
X342132Y-40818D01*
X339443Y-38755D01*
X336311Y-37457D01*
X332950Y-37015D01*
X329589Y-37457D01*
X326457Y-38755D01*
X323768Y-40818D01*
X321705Y-43507D01*
X320468Y-46494D01*
X319893Y-46624D01*
X317393Y-46550D01*
X316647Y-44748D01*
X314977Y-42573D01*
X312802Y-40903D01*
X312550Y-40799D01*
Y-50000D01*
Y-59201D01*
X312802Y-59097D01*
X314977Y-57427D01*
X316647Y-55252D01*
X317393Y-53450D01*
X319893Y-53376D01*
X320468Y-53506D01*
X321705Y-56493D01*
X323768Y-59182D01*
X326457Y-61245D01*
X329589Y-62543D01*
X332950Y-62985D01*
X336311Y-62543D01*
X339443Y-61245D01*
X342132Y-59182D01*
X343976Y-56779D01*
X345650Y-56593D01*
X347324Y-56779D01*
X349168Y-59182D01*
X351857Y-61245D01*
X354989Y-62543D01*
X358350Y-62985D01*
X361711Y-62543D01*
X364843Y-61245D01*
X367532Y-59182D01*
X367887Y-58719D01*
X371095Y-59467D01*
X371166Y-59825D01*
X372271Y-61479D01*
X373925Y-62584D01*
X375876Y-62972D01*
X391624D01*
X393575Y-62584D01*
X395229Y-61479D01*
X396334Y-59825D01*
X396722Y-57874D01*
Y-42126D01*
X396334Y-40175D01*
X395229Y-38521D01*
X393575Y-37416D01*
X391624Y-37028D01*
X375876D01*
X373925Y-37416D01*
X372271Y-38521D01*
X371166Y-40175D01*
X371095Y-40533D01*
X367887Y-41281D01*
X367532Y-40818D01*
X364843Y-38755D01*
X361711Y-37457D01*
X358350Y-37015D01*
D02*
G37*
G36*
X78454Y-29600D02*
X70870D01*
Y-37185D01*
X72698Y-36427D01*
X75527Y-34257D01*
X77697Y-31428D01*
X78454Y-29600D01*
D02*
G37*
G36*
X111670Y-12016D02*
X109842Y-12773D01*
X107013Y-14943D01*
X104843Y-17772D01*
X104086Y-19600D01*
X111670D01*
Y-12016D01*
D02*
G37*
G36*
X948000Y-17631D02*
Y-20000D01*
X950369D01*
X949340Y-18660D01*
X948000Y-17631D01*
D02*
G37*
G36*
X121670Y-12016D02*
Y-19600D01*
X129255D01*
X128497Y-17772D01*
X126327Y-14943D01*
X123498Y-12773D01*
X121670Y-12016D01*
D02*
G37*
G36*
X60870D02*
X59042Y-12773D01*
X56213Y-14943D01*
X54043Y-17772D01*
X53285Y-19600D01*
X60870D01*
Y-12016D01*
D02*
G37*
G36*
X938000Y-17631D02*
X936660Y-18660D01*
X935631Y-20000D01*
X938000D01*
Y-17631D01*
D02*
G37*
G36*
Y-30000D02*
X935631D01*
X936660Y-31340D01*
X938000Y-32369D01*
Y-30000D01*
D02*
G37*
G36*
X129255Y-29600D02*
X121670D01*
Y-37185D01*
X123498Y-36427D01*
X126327Y-34257D01*
X128497Y-31428D01*
X129255Y-29600D01*
D02*
G37*
G36*
X1147500Y1448D02*
X1144537Y1058D01*
X1141776Y-86D01*
X1139405Y-1905D01*
X1137586Y-4276D01*
X1136442Y-7037D01*
X1136052Y-10000D01*
X1136442Y-12963D01*
X1137586Y-15724D01*
X1139405Y-18095D01*
X1141776Y-19914D01*
X1144537Y-21058D01*
X1147500Y-21448D01*
X1150463Y-21058D01*
X1153224Y-19914D01*
X1155595Y-18095D01*
X1157414Y-15724D01*
X1158558Y-12963D01*
X1158948Y-10000D01*
X1158558Y-7037D01*
X1157414Y-4276D01*
X1155595Y-1905D01*
X1153224Y-86D01*
X1150463Y1058D01*
X1147500Y1448D01*
D02*
G37*
G36*
X950369Y-30000D02*
X948000D01*
Y-32369D01*
X949340Y-31340D01*
X950369Y-30000D01*
D02*
G37*
G36*
X209000Y-60631D02*
Y-63000D01*
X211369D01*
X210340Y-61660D01*
X209000Y-60631D01*
D02*
G37*
G36*
X211369Y-73000D02*
X209000D01*
Y-75369D01*
X210340Y-74340D01*
X211369Y-73000D01*
D02*
G37*
G36*
X199000D02*
X196631D01*
X197660Y-74340D01*
X199000Y-75369D01*
Y-73000D01*
D02*
G37*
G36*
X261750Y-72131D02*
Y-74500D01*
X264119D01*
X263090Y-73160D01*
X261750Y-72131D01*
D02*
G37*
G36*
X251750D02*
X250410Y-73160D01*
X249381Y-74500D01*
X251750D01*
Y-72131D01*
D02*
G37*
G36*
X237369Y-74500D02*
X235000D01*
Y-76869D01*
X236340Y-75840D01*
X237369Y-74500D01*
D02*
G37*
G36*
X489000Y-78250D02*
X486631D01*
X487660Y-79590D01*
X489000Y-80619D01*
Y-78250D01*
D02*
G37*
G36*
X752000Y-13002D02*
X736000D01*
X734049Y-13390D01*
X732395Y-14495D01*
X731290Y-16149D01*
X730902Y-18100D01*
Y-34100D01*
X731290Y-36051D01*
X732395Y-37705D01*
X732532Y-37796D01*
X733341Y-41379D01*
X733273Y-41625D01*
X732645Y-42444D01*
X731335Y-45606D01*
X730888Y-49000D01*
X731335Y-52394D01*
X732645Y-55556D01*
X734728Y-58272D01*
X735103Y-58559D01*
Y-62341D01*
X734728Y-62628D01*
X732645Y-65344D01*
X731335Y-68506D01*
X730888Y-71900D01*
X731335Y-75294D01*
X732645Y-78456D01*
X734728Y-81172D01*
X737444Y-83256D01*
X740606Y-84565D01*
X744000Y-85012D01*
X747394Y-84565D01*
X750556Y-83256D01*
X753272Y-81172D01*
X755356Y-78456D01*
X756665Y-75294D01*
X757112Y-71900D01*
X756665Y-68506D01*
X755356Y-65344D01*
X753272Y-62628D01*
X752897Y-62341D01*
Y-58559D01*
X753272Y-58272D01*
X755356Y-55556D01*
X756665Y-52394D01*
X757112Y-49000D01*
X756665Y-45606D01*
X755356Y-42444D01*
X754727Y-41625D01*
X754659Y-41379D01*
X755468Y-37796D01*
X755605Y-37705D01*
X756710Y-36051D01*
X757098Y-34100D01*
Y-18100D01*
X756710Y-16149D01*
X755605Y-14495D01*
X753951Y-13390D01*
X752000Y-13002D01*
D02*
G37*
G36*
X225000Y-74500D02*
X222631D01*
X223660Y-75840D01*
X225000Y-76869D01*
Y-74500D01*
D02*
G37*
G36*
X501369Y-78250D02*
X499000D01*
Y-80619D01*
X500340Y-79590D01*
X501369Y-78250D01*
D02*
G37*
G36*
X60870Y-62815D02*
X59042Y-63573D01*
X56213Y-65743D01*
X54043Y-68572D01*
X53285Y-70400D01*
X60870D01*
Y-62815D01*
D02*
G37*
G36*
X225000Y-62131D02*
X223660Y-63160D01*
X222631Y-64500D01*
X225000D01*
Y-62131D01*
D02*
G37*
G36*
X91270Y-35350D02*
X87478Y-35849D01*
X83945Y-37312D01*
X80911Y-39641D01*
X78582Y-42675D01*
X77119Y-46208D01*
X76620Y-50000D01*
X77119Y-53792D01*
X78582Y-57325D01*
X80911Y-60359D01*
X83945Y-62688D01*
X87478Y-64151D01*
X91270Y-64650D01*
X95062Y-64151D01*
X98595Y-62688D01*
X101629Y-60359D01*
X103958Y-57325D01*
X105421Y-53792D01*
X105920Y-50000D01*
X105421Y-46208D01*
X103958Y-42675D01*
X101629Y-39641D01*
X98595Y-37312D01*
X95062Y-35849D01*
X91270Y-35350D01*
D02*
G37*
G36*
X199000Y-60631D02*
X197660Y-61660D01*
X196631Y-63000D01*
X199000D01*
Y-60631D01*
D02*
G37*
G36*
X235000Y-62131D02*
Y-64500D01*
X237369D01*
X236340Y-63160D01*
X235000Y-62131D01*
D02*
G37*
G36*
X499000Y-65881D02*
Y-68250D01*
X501369D01*
X500340Y-66910D01*
X499000Y-65881D01*
D02*
G37*
G36*
X70870Y-62815D02*
Y-70400D01*
X78454D01*
X77697Y-68572D01*
X75527Y-65743D01*
X72698Y-63573D01*
X70870Y-62815D01*
D02*
G37*
G36*
X111670D02*
X109842Y-63573D01*
X107013Y-65743D01*
X104843Y-68572D01*
X104086Y-70400D01*
X111670D01*
Y-62815D01*
D02*
G37*
G36*
X489000Y-65881D02*
X487660Y-66910D01*
X486631Y-68250D01*
X489000D01*
Y-65881D01*
D02*
G37*
G36*
X121670Y-62815D02*
Y-70400D01*
X129255D01*
X128497Y-68572D01*
X126327Y-65743D01*
X123498Y-63573D01*
X121670Y-62815D01*
D02*
G37*
G36*
X70870Y-12016D02*
Y-19600D01*
X78454D01*
X77697Y-17772D01*
X75527Y-14943D01*
X72698Y-12773D01*
X70870Y-12016D01*
D02*
G37*
G36*
X1009000Y37619D02*
X1007660Y36590D01*
X1006631Y35250D01*
X1009000D01*
Y37619D01*
D02*
G37*
G36*
X119369Y34000D02*
X117000D01*
Y31631D01*
X118340Y32660D01*
X119369Y34000D01*
D02*
G37*
G36*
X168750Y60828D02*
X166401Y60518D01*
X164211Y59612D01*
X162331Y58169D01*
X160889Y56289D01*
X159982Y54099D01*
X159672Y51750D01*
X159982Y49401D01*
X160889Y47211D01*
X162331Y45331D01*
X164211Y43889D01*
X166401Y42982D01*
X168750Y42672D01*
X171099Y42982D01*
X173289Y43889D01*
X175169Y45331D01*
X176611Y47211D01*
X177518Y49401D01*
X177828Y51750D01*
X177518Y54099D01*
X176611Y56289D01*
X175169Y58169D01*
X173289Y59612D01*
X171099Y60518D01*
X168750Y60828D01*
D02*
G37*
G36*
X1019000Y37619D02*
Y35250D01*
X1021369D01*
X1020340Y36590D01*
X1019000Y37619D01*
D02*
G37*
G36*
X107000Y34000D02*
X104631D01*
X105660Y32660D01*
X107000Y31631D01*
Y34000D01*
D02*
G37*
G36*
X904000Y25619D02*
Y23250D01*
X906369D01*
X905340Y24590D01*
X904000Y25619D01*
D02*
G37*
G36*
X894000D02*
X892660Y24590D01*
X891631Y23250D01*
X894000D01*
Y25619D01*
D02*
G37*
G36*
X386500Y58448D02*
X383537Y58058D01*
X380776Y56914D01*
X378405Y55095D01*
X376586Y52724D01*
X375442Y49963D01*
X375052Y47000D01*
X375442Y44037D01*
X376586Y41276D01*
X378405Y38905D01*
X380776Y37086D01*
X383537Y35942D01*
X386500Y35552D01*
X386792Y35591D01*
X387072Y35240D01*
X387160Y31590D01*
X386131Y30250D01*
X400869D01*
X399840Y31590D01*
X397983Y33015D01*
X395821Y33911D01*
X393500Y34217D01*
X392967Y34147D01*
X392184Y37069D01*
X392224Y37086D01*
X394595Y38905D01*
X396414Y41276D01*
X397558Y44037D01*
X397948Y47000D01*
X397558Y49963D01*
X396414Y52724D01*
X394595Y55095D01*
X392224Y56914D01*
X389463Y58058D01*
X386500Y58448D01*
D02*
G37*
G36*
X50000Y75119D02*
X45100Y74637D01*
X40387Y73207D01*
X36044Y70886D01*
X32238Y67762D01*
X29114Y63955D01*
X26793Y59613D01*
X25363Y54900D01*
X24881Y50000D01*
X25363Y45100D01*
X26793Y40387D01*
X29114Y36044D01*
X32238Y32238D01*
X36044Y29114D01*
X40387Y26793D01*
X45100Y25363D01*
X50000Y24881D01*
X54900Y25363D01*
X59613Y26793D01*
X63955Y29114D01*
X67762Y32238D01*
X70886Y36044D01*
X73207Y40387D01*
X74637Y45100D01*
X75119Y50000D01*
X74637Y54900D01*
X73207Y59613D01*
X70886Y63955D01*
X67762Y67762D01*
X63955Y70886D01*
X59613Y73207D01*
X54900Y74637D01*
X50000Y75119D01*
D02*
G37*
G36*
X107000Y46369D02*
X105660Y45340D01*
X104631Y44000D01*
X107000D01*
Y46369D01*
D02*
G37*
G36*
X396000Y78750D02*
X393631D01*
X394660Y77410D01*
X396000Y76381D01*
Y78750D01*
D02*
G37*
G36*
X364250Y97448D02*
X361287Y97058D01*
X358526Y95914D01*
X356155Y94095D01*
X354336Y91724D01*
X353192Y88963D01*
X352802Y86000D01*
X353192Y83037D01*
X354336Y80276D01*
X356155Y77905D01*
X358526Y76086D01*
X361287Y74942D01*
X364250Y74552D01*
X367213Y74942D01*
X369974Y76086D01*
X372345Y77905D01*
X374164Y80276D01*
X375308Y83037D01*
X375698Y86000D01*
X375308Y88963D01*
X374164Y91724D01*
X372345Y94095D01*
X369974Y95914D01*
X367213Y97058D01*
X364250Y97448D01*
D02*
G37*
G36*
X152250Y101198D02*
X149287Y100808D01*
X146526Y99664D01*
X144155Y97845D01*
X142336Y95474D01*
X141192Y92713D01*
X140802Y89750D01*
X141192Y86787D01*
X142336Y84026D01*
X144155Y81655D01*
X146526Y79836D01*
X149287Y78692D01*
X152250Y78302D01*
X155213Y78692D01*
X157974Y79836D01*
X160345Y81655D01*
X160385Y81707D01*
X162331Y83331D01*
X164211Y81889D01*
X166401Y80982D01*
X168750Y80672D01*
X171099Y80982D01*
X173289Y81889D01*
X175169Y83331D01*
X176611Y85211D01*
X177518Y87401D01*
X177828Y89750D01*
X177518Y92100D01*
X176611Y94289D01*
X175169Y96169D01*
X173289Y97612D01*
X171099Y98518D01*
X168750Y98828D01*
X166401Y98518D01*
X164211Y97612D01*
X162331Y96169D01*
X160385Y97793D01*
X160345Y97845D01*
X157974Y99664D01*
X155213Y100808D01*
X152250Y101198D01*
D02*
G37*
G36*
X408369Y78750D02*
X406000D01*
Y76381D01*
X407340Y77410D01*
X408369Y78750D01*
D02*
G37*
G36*
X1056619Y71750D02*
X1054250D01*
Y69381D01*
X1055590Y70410D01*
X1056619Y71750D01*
D02*
G37*
G36*
X273000Y72078D02*
X270651Y71768D01*
X268461Y70862D01*
X266581Y69419D01*
X265138Y67539D01*
X264232Y65349D01*
X263922Y63000D01*
X264232Y60651D01*
X265138Y58461D01*
X266581Y56581D01*
X268461Y55139D01*
X270651Y54232D01*
X273000Y53922D01*
X275350Y54232D01*
X277539Y55139D01*
X279419Y56581D01*
X280861Y58461D01*
X281768Y60651D01*
X282078Y63000D01*
X281768Y65349D01*
X280861Y67539D01*
X279419Y69419D01*
X277539Y70862D01*
X275350Y71768D01*
X273000Y72078D01*
D02*
G37*
G36*
X117000Y46369D02*
Y44000D01*
X119369D01*
X118340Y45340D01*
X117000Y46369D01*
D02*
G37*
G36*
X1044250Y71750D02*
X1041881D01*
X1042910Y70410D01*
X1044250Y69381D01*
Y71750D01*
D02*
G37*
G36*
X294000Y81078D02*
X291651Y80768D01*
X289461Y79861D01*
X287581Y78419D01*
X286138Y76539D01*
X285232Y74349D01*
X284922Y72000D01*
X285232Y69651D01*
X286138Y67461D01*
X287581Y65581D01*
X289461Y64139D01*
X291651Y63232D01*
X294000Y62922D01*
X296350Y63232D01*
X298539Y64139D01*
X300419Y65581D01*
X301861Y67461D01*
X302768Y69651D01*
X303078Y72000D01*
X302768Y74349D01*
X301861Y76539D01*
X300419Y78419D01*
X298539Y79861D01*
X296350Y80768D01*
X294000Y81078D01*
D02*
G37*
G36*
X1021369Y25250D02*
X1019000D01*
Y22881D01*
X1020340Y23910D01*
X1021369Y25250D01*
D02*
G37*
G36*
X270750Y27198D02*
X267787Y26808D01*
X265026Y25664D01*
X262655Y23845D01*
X260836Y21474D01*
X259692Y18713D01*
X259302Y15750D01*
X259692Y12787D01*
X260836Y10026D01*
X262655Y7655D01*
X265026Y5836D01*
X267787Y4692D01*
X270750Y4302D01*
X273713Y4692D01*
X276474Y5836D01*
X278845Y7655D01*
X280664Y10026D01*
X281808Y12787D01*
X282198Y15750D01*
X281808Y18713D01*
X280664Y21474D01*
X278845Y23845D01*
X276474Y25664D01*
X273713Y26808D01*
X270750Y27198D01*
D02*
G37*
G36*
X1043250Y24948D02*
X1040287Y24558D01*
X1037526Y23414D01*
X1035155Y21595D01*
X1033336Y19224D01*
X1032192Y16463D01*
X1031802Y13500D01*
X1032192Y10537D01*
X1033336Y7776D01*
X1035155Y5405D01*
X1037526Y3586D01*
X1040287Y2442D01*
X1043250Y2052D01*
X1046213Y2442D01*
X1048974Y3586D01*
X1051345Y5405D01*
X1053164Y7776D01*
X1054308Y10537D01*
X1054698Y13500D01*
X1054308Y16463D01*
X1053164Y19224D01*
X1051345Y21595D01*
X1048974Y23414D01*
X1046213Y24558D01*
X1043250Y24948D01*
D02*
G37*
G36*
X349619Y8250D02*
X347250D01*
Y5881D01*
X348590Y6910D01*
X349619Y8250D01*
D02*
G37*
G36*
X337250D02*
X334881D01*
X335910Y6910D01*
X337250Y5881D01*
Y8250D01*
D02*
G37*
G36*
X770198Y110882D02*
X754202D01*
X750869Y110554D01*
X747665Y109582D01*
X744711Y108003D01*
X742123Y105879D01*
X739998Y103290D01*
X738420Y100337D01*
X737448Y97133D01*
X737120Y93800D01*
X737448Y90467D01*
X738420Y87263D01*
X739998Y84310D01*
X742123Y81721D01*
Y80479D01*
X739998Y77890D01*
X738420Y74937D01*
X737448Y71733D01*
X737120Y68400D01*
X737448Y65067D01*
X738420Y61863D01*
X739998Y58910D01*
X742123Y56321D01*
Y55079D01*
X739998Y52490D01*
X738420Y49537D01*
X737448Y46333D01*
X737120Y43000D01*
X737448Y39667D01*
X738420Y36463D01*
X739998Y33510D01*
X742123Y30921D01*
Y29679D01*
X739998Y27090D01*
X738420Y24137D01*
X737448Y20933D01*
X737120Y17600D01*
X737448Y14267D01*
X738420Y11063D01*
X739998Y8110D01*
X742123Y5521D01*
X744711Y3397D01*
X747665Y1818D01*
X750869Y846D01*
X754202Y518D01*
X770198D01*
X773531Y846D01*
X776735Y1818D01*
X779689Y3397D01*
X782277Y5521D01*
X784402Y8110D01*
X785980Y11063D01*
X786952Y14267D01*
X787281Y17600D01*
X786952Y20933D01*
X785980Y24137D01*
X784402Y27090D01*
X782277Y29679D01*
Y30921D01*
X784402Y33510D01*
X785980Y36463D01*
X786952Y39667D01*
X787281Y43000D01*
X786952Y46333D01*
X785980Y49537D01*
X784402Y52490D01*
X782277Y55079D01*
Y56321D01*
X784402Y58910D01*
X785980Y61863D01*
X786952Y65067D01*
X787281Y68400D01*
X786952Y71733D01*
X785980Y74937D01*
X784402Y77890D01*
X782277Y80479D01*
Y81721D01*
X784402Y84310D01*
X785980Y87263D01*
X786952Y90467D01*
X787281Y93800D01*
X786952Y97133D01*
X785980Y100337D01*
X784402Y103290D01*
X782277Y105879D01*
X779689Y108003D01*
X776735Y109582D01*
X773531Y110554D01*
X770198Y110882D01*
D02*
G37*
G36*
X465998Y109482D02*
X450002D01*
X446669Y109154D01*
X443465Y108182D01*
X440511Y106603D01*
X437923Y104479D01*
X435798Y101890D01*
X434220Y98937D01*
X433248Y95733D01*
X432920Y92400D01*
X433248Y89067D01*
X434220Y85863D01*
X435798Y82910D01*
X437923Y80321D01*
Y79079D01*
X435798Y76490D01*
X434220Y73537D01*
X433248Y70333D01*
X432920Y67000D01*
X433248Y63667D01*
X434220Y60463D01*
X435798Y57510D01*
X436629Y56498D01*
X437923Y53679D01*
X435798Y51090D01*
X434220Y48137D01*
X433248Y44933D01*
X432920Y41600D01*
X433248Y38267D01*
X434220Y35063D01*
X435798Y32110D01*
X437923Y29521D01*
Y28279D01*
X435798Y25690D01*
X434220Y22737D01*
X433248Y19533D01*
X432920Y16200D01*
X433248Y12867D01*
X434220Y9663D01*
X435798Y6710D01*
X437923Y4121D01*
X440511Y1997D01*
X443465Y418D01*
X446669Y-554D01*
X450002Y-882D01*
X465998D01*
X469331Y-554D01*
X472535Y418D01*
X475489Y1997D01*
X478077Y4121D01*
X480202Y6710D01*
X481780Y9663D01*
X482752Y12867D01*
X483080Y16200D01*
X482752Y19533D01*
X481780Y22737D01*
X480202Y25690D01*
X478077Y28279D01*
Y29521D01*
X480202Y32110D01*
X481780Y35063D01*
X482752Y38267D01*
X483080Y41600D01*
X482752Y44933D01*
X481780Y48137D01*
X480202Y51090D01*
X478077Y53679D01*
X479371Y56498D01*
X480202Y57510D01*
X481780Y60463D01*
X482752Y63667D01*
X483080Y67000D01*
X482752Y70333D01*
X481780Y73537D01*
X480202Y76490D01*
X478077Y79079D01*
Y80321D01*
X480202Y82910D01*
X481780Y85863D01*
X482752Y89067D01*
X483080Y92400D01*
X482752Y95733D01*
X481780Y98937D01*
X480202Y101890D01*
X478077Y104479D01*
X475489Y106603D01*
X472535Y108182D01*
X469331Y109154D01*
X465998Y109482D01*
D02*
G37*
G36*
X890000Y512D02*
X886606Y65D01*
X883444Y-1244D01*
X880728Y-3328D01*
X880441Y-3703D01*
X876659D01*
X876372Y-3328D01*
X873656Y-1244D01*
X870494Y65D01*
X867100Y512D01*
X863706Y65D01*
X860544Y-1244D01*
X857828Y-3328D01*
X855744Y-6044D01*
X854435Y-9206D01*
X853988Y-12600D01*
X854435Y-15994D01*
X855744Y-19156D01*
X857828Y-21872D01*
X860544Y-23956D01*
X863706Y-25265D01*
X867100Y-25712D01*
X870494Y-25265D01*
X873656Y-23956D01*
X876372Y-21872D01*
X876659Y-21497D01*
X880441D01*
X880728Y-21872D01*
X883444Y-23956D01*
X886606Y-25265D01*
X890000Y-25712D01*
X893394Y-25265D01*
X896556Y-23956D01*
X897375Y-23327D01*
X897621Y-23259D01*
X901204Y-24068D01*
X901295Y-24205D01*
X902949Y-25310D01*
X904900Y-25698D01*
X920900D01*
X922851Y-25310D01*
X924505Y-24205D01*
X925610Y-22551D01*
X925998Y-20600D01*
Y-4600D01*
X925610Y-2649D01*
X924505Y-995D01*
X922851Y110D01*
X920900Y498D01*
X904900D01*
X902949Y110D01*
X901295Y-995D01*
X901204Y-1132D01*
X897621Y-1941D01*
X897375Y-1873D01*
X896556Y-1244D01*
X893394Y65D01*
X890000Y512D01*
D02*
G37*
G36*
X693998Y110882D02*
X678002D01*
X674669Y110554D01*
X671465Y109582D01*
X668511Y108003D01*
X665923Y105879D01*
X663798Y103290D01*
X662220Y100337D01*
X661248Y97133D01*
X660919Y93800D01*
X661248Y90467D01*
X662220Y87263D01*
X663798Y84310D01*
X665923Y81721D01*
X664629Y78902D01*
X663798Y77890D01*
X662220Y74937D01*
X661248Y71733D01*
X660919Y68400D01*
X661248Y65067D01*
X662220Y61863D01*
X663798Y58910D01*
X665923Y56321D01*
X664629Y53502D01*
X663798Y52490D01*
X662220Y49537D01*
X661248Y46333D01*
X660919Y43000D01*
X661248Y39667D01*
X662220Y36463D01*
X663798Y33510D01*
X665923Y30921D01*
Y29679D01*
X663798Y27090D01*
X662220Y24137D01*
X661248Y20933D01*
X660919Y17600D01*
X661248Y14267D01*
X662220Y11063D01*
X663798Y8110D01*
X665923Y5521D01*
X668511Y3397D01*
X671465Y1818D01*
X674669Y846D01*
X678002Y518D01*
X693998D01*
X697331Y846D01*
X700535Y1818D01*
X703489Y3397D01*
X706077Y5521D01*
X708202Y8110D01*
X709780Y11063D01*
X710752Y14267D01*
X711080Y17600D01*
X710752Y20933D01*
X709780Y24137D01*
X708202Y27090D01*
X706077Y29679D01*
Y30921D01*
X708202Y33510D01*
X709780Y36463D01*
X710752Y39667D01*
X711080Y43000D01*
X710752Y46333D01*
X709780Y49537D01*
X708202Y52490D01*
X707371Y53502D01*
X706077Y56321D01*
X708202Y58910D01*
X709780Y61863D01*
X710752Y65067D01*
X711080Y68400D01*
X710752Y71733D01*
X709780Y74937D01*
X708202Y77890D01*
X707371Y78902D01*
X706077Y81721D01*
X708202Y84310D01*
X709780Y87263D01*
X710752Y90467D01*
X711080Y93800D01*
X710752Y97133D01*
X709780Y100337D01*
X708202Y103290D01*
X706077Y105879D01*
X703489Y108003D01*
X700535Y109582D01*
X697331Y110554D01*
X693998Y110882D01*
D02*
G37*
G36*
X542198Y109482D02*
X526202D01*
X522869Y109154D01*
X519665Y108182D01*
X516711Y106603D01*
X514123Y104479D01*
X511998Y101890D01*
X510420Y98937D01*
X509448Y95733D01*
X509119Y92400D01*
X509448Y89067D01*
X510420Y85863D01*
X511998Y82910D01*
X514123Y80321D01*
Y79079D01*
X511998Y76490D01*
X510420Y73537D01*
X509448Y70333D01*
X509119Y67000D01*
X509448Y63667D01*
X510420Y60463D01*
X511998Y57510D01*
X512829Y56498D01*
X514123Y53679D01*
X511998Y51090D01*
X510420Y48137D01*
X509448Y44933D01*
X509119Y41600D01*
X509448Y38267D01*
X510420Y35063D01*
X511998Y32110D01*
X514123Y29521D01*
Y28279D01*
X511998Y25690D01*
X510420Y22737D01*
X509448Y19533D01*
X509119Y16200D01*
X509448Y12867D01*
X510420Y9663D01*
X511998Y6710D01*
X514123Y4121D01*
X516711Y1997D01*
X519665Y418D01*
X522869Y-554D01*
X526202Y-882D01*
X542198D01*
X545531Y-554D01*
X548735Y418D01*
X551689Y1997D01*
X554277Y4121D01*
X556402Y6710D01*
X557980Y9663D01*
X558952Y12867D01*
X559281Y16200D01*
X558952Y19533D01*
X557980Y22737D01*
X556402Y25690D01*
X554277Y28279D01*
Y29521D01*
X556402Y32110D01*
X557980Y35063D01*
X558952Y38267D01*
X559281Y41600D01*
X558952Y44933D01*
X557980Y48137D01*
X556402Y51090D01*
X554277Y53679D01*
X555571Y56498D01*
X556402Y57510D01*
X557980Y60463D01*
X558952Y63667D01*
X559281Y67000D01*
X558952Y70333D01*
X557980Y73537D01*
X556402Y76490D01*
X554277Y79079D01*
Y80321D01*
X556402Y82910D01*
X557980Y85863D01*
X558952Y89067D01*
X559281Y92400D01*
X558952Y95733D01*
X557980Y98937D01*
X556402Y101890D01*
X554277Y104479D01*
X551689Y106603D01*
X548735Y108182D01*
X545531Y109154D01*
X542198Y109482D01*
D02*
G37*
G36*
X941000Y82012D02*
X937606Y81565D01*
X934444Y80255D01*
X931728Y78172D01*
X929644Y75456D01*
X928335Y72294D01*
X927888Y68900D01*
X928335Y65506D01*
X929644Y62344D01*
X931728Y59628D01*
X932103Y59341D01*
Y55559D01*
X931728Y55272D01*
X929644Y52556D01*
X928335Y49394D01*
X927888Y46000D01*
X928335Y42606D01*
X929644Y39444D01*
X930273Y38625D01*
X930341Y38379D01*
X929532Y34796D01*
X929395Y34705D01*
X928290Y33051D01*
X927902Y31100D01*
Y15100D01*
X928290Y13149D01*
X929395Y11495D01*
X931049Y10390D01*
X933000Y10002D01*
X949000D01*
X950951Y10390D01*
X952605Y11495D01*
X953710Y13149D01*
X954098Y15100D01*
Y31100D01*
X953710Y33051D01*
X952605Y34705D01*
X952468Y34796D01*
X951659Y38379D01*
X951727Y38625D01*
X952355Y39444D01*
X953665Y42606D01*
X954112Y46000D01*
X953665Y49394D01*
X952355Y52556D01*
X950272Y55272D01*
X949897Y55559D01*
Y59341D01*
X950272Y59628D01*
X952355Y62344D01*
X953665Y65506D01*
X954112Y68900D01*
X953665Y72294D01*
X952355Y75456D01*
X950272Y78172D01*
X947556Y80255D01*
X944394Y81565D01*
X941000Y82012D01*
D02*
G37*
G36*
X173000Y37078D02*
X170651Y36768D01*
X168461Y35861D01*
X166581Y34419D01*
X165139Y32539D01*
X164232Y30350D01*
X163922Y28000D01*
X164232Y25650D01*
X165139Y23461D01*
X166581Y21581D01*
X168461Y20138D01*
X170651Y19232D01*
X173000Y18922D01*
X175350Y19232D01*
X177539Y20138D01*
X179419Y21581D01*
X180861Y23461D01*
X181768Y25650D01*
X182078Y28000D01*
X181768Y30350D01*
X180861Y32539D01*
X179419Y34419D01*
X177539Y35861D01*
X175350Y36768D01*
X173000Y37078D01*
D02*
G37*
G36*
X347250Y20619D02*
Y18250D01*
X349619D01*
X348590Y19590D01*
X347250Y20619D01*
D02*
G37*
G36*
X1009000Y25250D02*
X1006631D01*
X1007660Y23910D01*
X1009000Y22881D01*
Y25250D01*
D02*
G37*
G36*
X290750Y37578D02*
X288400Y37268D01*
X286211Y36361D01*
X284331Y34919D01*
X282889Y33039D01*
X281982Y30849D01*
X281672Y28500D01*
X281982Y26151D01*
X282889Y23961D01*
X284331Y22081D01*
X286211Y20638D01*
X288400Y19732D01*
X290750Y19422D01*
X293099Y19732D01*
X295289Y20638D01*
X297169Y22081D01*
X298611Y23961D01*
X299518Y26151D01*
X299828Y28500D01*
X299518Y30849D01*
X298611Y33039D01*
X297169Y34919D01*
X295289Y36361D01*
X293099Y37268D01*
X290750Y37578D01*
D02*
G37*
G36*
X337250Y20619D02*
X335910Y19590D01*
X334881Y18250D01*
X337250D01*
Y20619D01*
D02*
G37*
G36*
X906369Y13250D02*
X904000D01*
Y10881D01*
X905340Y11910D01*
X906369Y13250D01*
D02*
G37*
G36*
X894000D02*
X891631D01*
X892660Y11910D01*
X894000Y10881D01*
Y13250D01*
D02*
G37*
G36*
X400869Y20250D02*
X398500D01*
Y17881D01*
X399840Y18910D01*
X400869Y20250D01*
D02*
G37*
G36*
X388500D02*
X386131D01*
X387160Y18910D01*
X388500Y17881D01*
Y20250D01*
D02*
G37*
G36*
X50000Y450385D02*
X46639Y449943D01*
X43507Y448645D01*
X40818Y446582D01*
X38755Y443893D01*
X37457Y440761D01*
X37015Y437400D01*
X37457Y434039D01*
X38755Y430907D01*
X40818Y428218D01*
X43221Y426374D01*
X43407Y424700D01*
X43221Y423026D01*
X40818Y421182D01*
X38755Y418493D01*
X37457Y415361D01*
X37015Y412000D01*
X37457Y408639D01*
X38755Y405507D01*
X40818Y402818D01*
X43507Y400755D01*
X46494Y399518D01*
X46624Y398943D01*
X46550Y396443D01*
X44748Y395697D01*
X42573Y394027D01*
X40903Y391852D01*
X40799Y391600D01*
X50000D01*
X59201D01*
X59097Y391852D01*
X57427Y394027D01*
X55252Y395697D01*
X53450Y396443D01*
X53376Y398943D01*
X53506Y399518D01*
X56493Y400755D01*
X59182Y402818D01*
X61245Y405507D01*
X62543Y408639D01*
X62985Y412000D01*
X62543Y415361D01*
X61245Y418493D01*
X59182Y421182D01*
X56779Y423026D01*
X56593Y424700D01*
X56779Y426374D01*
X59182Y428218D01*
X61245Y430907D01*
X62543Y434039D01*
X62985Y437400D01*
X62543Y440761D01*
X61245Y443893D01*
X59182Y446582D01*
X56493Y448645D01*
X53361Y449943D01*
X50000Y450385D01*
D02*
G37*
G36*
X1407500Y867369D02*
X1406160Y866340D01*
X1405131Y865000D01*
X1407500D01*
Y867369D01*
D02*
G37*
G36*
X238750Y867119D02*
Y864750D01*
X241119D01*
X240090Y866090D01*
X238750Y867119D01*
D02*
G37*
G36*
X376750Y895448D02*
X373787Y895058D01*
X371026Y893914D01*
X368655Y892095D01*
X366836Y889724D01*
X365692Y886963D01*
X365302Y884000D01*
X365692Y881037D01*
X366836Y878276D01*
X368655Y875905D01*
X371026Y874086D01*
X373787Y872942D01*
X376750Y872552D01*
X379713Y872942D01*
X382474Y874086D01*
X384845Y875905D01*
X386664Y878276D01*
X387808Y881037D01*
X388198Y884000D01*
X387808Y886963D01*
X386664Y889724D01*
X384845Y892095D01*
X382474Y893914D01*
X379713Y895058D01*
X376750Y895448D01*
D02*
G37*
G36*
X1417500Y867369D02*
Y865000D01*
X1419869D01*
X1418840Y866340D01*
X1417500Y867369D01*
D02*
G37*
G36*
X228750Y867119D02*
X227410Y866090D01*
X226381Y864750D01*
X228750D01*
Y867119D01*
D02*
G37*
G36*
X351500Y884198D02*
X348537Y883808D01*
X345776Y882664D01*
X343405Y880845D01*
X341586Y878474D01*
X340442Y875713D01*
X340052Y872750D01*
X340442Y869787D01*
X341586Y867026D01*
X343405Y864655D01*
X345776Y862836D01*
X348537Y861692D01*
X351500Y861302D01*
X354463Y861692D01*
X357224Y862836D01*
X359595Y864655D01*
X361414Y867026D01*
X362558Y869787D01*
X362948Y872750D01*
X362558Y875713D01*
X361414Y878474D01*
X359595Y880845D01*
X357224Y882664D01*
X354463Y883808D01*
X351500Y884198D01*
D02*
G37*
G36*
X482036Y875000D02*
X465000D01*
Y857964D01*
X468667Y859077D01*
X472582Y861169D01*
X476014Y863986D01*
X478830Y867418D01*
X480923Y871333D01*
X482036Y875000D01*
D02*
G37*
G36*
X397000Y866119D02*
Y863750D01*
X399369D01*
X398340Y865090D01*
X397000Y866119D01*
D02*
G37*
G36*
X387000D02*
X385660Y865090D01*
X384631Y863750D01*
X387000D01*
Y866119D01*
D02*
G37*
G36*
X396000Y875500D02*
X393631D01*
X394660Y874160D01*
X396000Y873131D01*
Y875500D01*
D02*
G37*
G36*
X50250Y889000D02*
X47881D01*
X48910Y887660D01*
X50250Y886631D01*
Y889000D01*
D02*
G37*
G36*
X406000Y887869D02*
Y885500D01*
X408369D01*
X407340Y886841D01*
X406000Y887869D01*
D02*
G37*
G36*
X193000Y890369D02*
X191660Y889340D01*
X190631Y888000D01*
X193000D01*
Y890369D01*
D02*
G37*
G36*
X62619Y889000D02*
X60250D01*
Y886631D01*
X61590Y887660D01*
X62619Y889000D01*
D02*
G37*
G36*
X396000Y887869D02*
X394660Y886841D01*
X393631Y885500D01*
X396000D01*
Y887869D01*
D02*
G37*
G36*
X193000Y878000D02*
X190631D01*
X191660Y876660D01*
X193000Y875631D01*
Y878000D01*
D02*
G37*
G36*
X408369Y875500D02*
X406000D01*
Y873131D01*
X407340Y874160D01*
X408369Y875500D01*
D02*
G37*
G36*
X465000Y902036D02*
Y885000D01*
X482036D01*
X480923Y888667D01*
X478830Y892582D01*
X476014Y896014D01*
X472582Y898830D01*
X468667Y900923D01*
X465000Y902036D01*
D02*
G37*
G36*
X455000D02*
X451333Y900923D01*
X447418Y898830D01*
X443986Y896014D01*
X441170Y892582D01*
X439077Y888667D01*
X437964Y885000D01*
X455000D01*
Y902036D01*
D02*
G37*
G36*
Y875000D02*
X437964D01*
X439077Y871333D01*
X441170Y867418D01*
X443986Y863986D01*
X447418Y861169D01*
X451333Y859077D01*
X455000Y857964D01*
Y875000D01*
D02*
G37*
G36*
X327500Y817500D02*
X325131D01*
X326160Y816160D01*
X327500Y815131D01*
Y817500D01*
D02*
G37*
G36*
X356500Y830698D02*
X353537Y830308D01*
X350776Y829164D01*
X348405Y827345D01*
X346586Y824974D01*
X345442Y822213D01*
X345052Y819250D01*
X345442Y816287D01*
X346586Y813526D01*
X348405Y811155D01*
X350776Y809336D01*
X353537Y808192D01*
X356500Y807802D01*
X359463Y808192D01*
X362224Y809336D01*
X364595Y811155D01*
X366414Y813526D01*
X367558Y816287D01*
X367948Y819250D01*
X367558Y822213D01*
X366414Y824974D01*
X364595Y827345D01*
X362224Y829164D01*
X359463Y830308D01*
X356500Y830698D01*
D02*
G37*
G36*
X330000Y851448D02*
X327037Y851058D01*
X324276Y849914D01*
X321905Y848095D01*
X320086Y845724D01*
X318942Y842963D01*
X318552Y840000D01*
X318942Y837037D01*
X320086Y834276D01*
X321905Y831905D01*
X324276Y830086D01*
X324658Y827500D01*
X339869D01*
X338840Y828840D01*
X338634Y829690D01*
X338688Y832678D01*
X339914Y834276D01*
X341058Y837037D01*
X341448Y840000D01*
X341058Y842963D01*
X339914Y845724D01*
X338095Y848095D01*
X335724Y849914D01*
X332963Y851058D01*
X330000Y851448D01*
D02*
G37*
G36*
X339869Y817500D02*
X337500D01*
Y815131D01*
X338840Y816160D01*
X339869Y817500D01*
D02*
G37*
G36*
X73750Y806869D02*
Y804500D01*
X76119D01*
X75090Y805840D01*
X73750Y806869D01*
D02*
G37*
G36*
X63750Y794500D02*
X61381D01*
X62410Y793160D01*
X63750Y792131D01*
Y794500D01*
D02*
G37*
G36*
X339000Y790369D02*
Y788000D01*
X341369D01*
X340340Y789340D01*
X339000Y790369D01*
D02*
G37*
G36*
X63750Y806869D02*
X62410Y805840D01*
X61381Y804500D01*
X63750D01*
Y806869D01*
D02*
G37*
G36*
X76119Y794500D02*
X73750D01*
Y792131D01*
X75090Y793160D01*
X76119Y794500D01*
D02*
G37*
G36*
X1407250Y833750D02*
X1404881D01*
X1405910Y832410D01*
X1407250Y831381D01*
Y833750D01*
D02*
G37*
G36*
X241119Y854750D02*
X238750D01*
Y852381D01*
X240090Y853410D01*
X241119Y854750D01*
D02*
G37*
G36*
X228750D02*
X226381D01*
X227410Y853410D01*
X228750Y852381D01*
Y854750D01*
D02*
G37*
G36*
X1419869Y855000D02*
X1417500D01*
Y852631D01*
X1418840Y853660D01*
X1419869Y855000D01*
D02*
G37*
G36*
X1407500D02*
X1405131D01*
X1406160Y853660D01*
X1407500Y852631D01*
Y855000D01*
D02*
G37*
G36*
X399369Y853750D02*
X397000D01*
Y851381D01*
X398340Y852410D01*
X399369Y853750D01*
D02*
G37*
G36*
X1407250Y846119D02*
X1405910Y845090D01*
X1404881Y843750D01*
X1407250D01*
Y846119D01*
D02*
G37*
G36*
X1419619Y833750D02*
X1417250D01*
Y831381D01*
X1418590Y832410D01*
X1419619Y833750D01*
D02*
G37*
G36*
X387000Y853750D02*
X384631D01*
X385660Y852410D01*
X387000Y851381D01*
Y853750D01*
D02*
G37*
G36*
X1417250Y846119D02*
Y843750D01*
X1419619D01*
X1418590Y845090D01*
X1417250Y846119D01*
D02*
G37*
G36*
X314869Y1015000D02*
X312500D01*
Y1012631D01*
X313840Y1013660D01*
X314869Y1015000D01*
D02*
G37*
G36*
X302500D02*
X300131D01*
X301160Y1013660D01*
X302500Y1012631D01*
Y1015000D01*
D02*
G37*
G36*
Y1027369D02*
X301160Y1026340D01*
X300131Y1025000D01*
X302500D01*
Y1027369D01*
D02*
G37*
G36*
X410000Y1096012D02*
X406606Y1095565D01*
X403444Y1094255D01*
X400728Y1092172D01*
X398644Y1089456D01*
X397335Y1086294D01*
X396888Y1082900D01*
X397335Y1079506D01*
X398644Y1076344D01*
X400728Y1073628D01*
X401103Y1073341D01*
Y1069559D01*
X400728Y1069272D01*
X398644Y1066556D01*
X397335Y1063394D01*
X396888Y1060000D01*
X397335Y1056606D01*
X398644Y1053444D01*
X399273Y1052625D01*
X399341Y1052378D01*
X398532Y1048796D01*
X398395Y1048705D01*
X397290Y1047051D01*
X396902Y1045100D01*
Y1029100D01*
X397290Y1027149D01*
X398395Y1025495D01*
X400049Y1024390D01*
X402000Y1024002D01*
X418000D01*
X419951Y1024390D01*
X421605Y1025495D01*
X422710Y1027149D01*
X423098Y1029100D01*
Y1045100D01*
X422710Y1047051D01*
X421605Y1048705D01*
X421468Y1048796D01*
X420659Y1052378D01*
X420727Y1052625D01*
X421355Y1053444D01*
X422665Y1056606D01*
X423112Y1060000D01*
X422665Y1063394D01*
X421355Y1066556D01*
X419272Y1069272D01*
X418897Y1069559D01*
Y1073341D01*
X419272Y1073628D01*
X421355Y1076344D01*
X422665Y1079506D01*
X423112Y1082900D01*
X422665Y1086294D01*
X421355Y1089456D01*
X419272Y1092172D01*
X416556Y1094255D01*
X413394Y1095565D01*
X410000Y1096012D01*
D02*
G37*
G36*
X270000Y1007369D02*
Y1005000D01*
X272369D01*
X271340Y1006340D01*
X270000Y1007369D01*
D02*
G37*
G36*
X272369Y995000D02*
X270000D01*
Y992631D01*
X271340Y993660D01*
X272369Y995000D01*
D02*
G37*
G36*
X260000D02*
X257631D01*
X258660Y993660D01*
X260000Y992631D01*
Y995000D01*
D02*
G37*
G36*
Y1007369D02*
X258660Y1006340D01*
X257631Y1005000D01*
X260000D01*
Y1007369D01*
D02*
G37*
G36*
X331000Y1026448D02*
X328037Y1026058D01*
X325276Y1024914D01*
X322905Y1023095D01*
X321086Y1020724D01*
X319942Y1017963D01*
X319552Y1015000D01*
X319942Y1012037D01*
X321086Y1009276D01*
X322905Y1006905D01*
X325276Y1005086D01*
X328037Y1003942D01*
X331000Y1003552D01*
X333963Y1003942D01*
X336724Y1005086D01*
X339095Y1006905D01*
X340914Y1009276D01*
X342058Y1012037D01*
X342448Y1015000D01*
X342058Y1017963D01*
X340914Y1020724D01*
X339095Y1023095D01*
X336724Y1024914D01*
X333963Y1026058D01*
X331000Y1026448D01*
D02*
G37*
G36*
X312500Y1027369D02*
Y1025000D01*
X314869D01*
X313840Y1026340D01*
X312500Y1027369D01*
D02*
G37*
G36*
X713000Y1172088D02*
X709871Y1171676D01*
X706956Y1170469D01*
X704452Y1168548D01*
X702531Y1166044D01*
X701323Y1163129D01*
X700912Y1160000D01*
X701323Y1156871D01*
X702531Y1153956D01*
X704452Y1151452D01*
X706956Y1149531D01*
X709871Y1148324D01*
X713000Y1147912D01*
X716129Y1148324D01*
X719044Y1149531D01*
X721548Y1151452D01*
X723469Y1153956D01*
X724677Y1156871D01*
X725088Y1160000D01*
X724677Y1163129D01*
X723469Y1166044D01*
X721548Y1168548D01*
X719044Y1170469D01*
X716129Y1171676D01*
X713000Y1172088D01*
D02*
G37*
G36*
X459000D02*
X455871Y1171676D01*
X452956Y1170469D01*
X450452Y1168548D01*
X448531Y1166044D01*
X447323Y1163129D01*
X446912Y1160000D01*
X447323Y1156871D01*
X448531Y1153956D01*
X450452Y1151452D01*
X452956Y1149531D01*
X455871Y1148324D01*
X459000Y1147912D01*
X462129Y1148324D01*
X465044Y1149531D01*
X467548Y1151452D01*
X469469Y1153956D01*
X470676Y1156871D01*
X471088Y1160000D01*
X470676Y1163129D01*
X469469Y1166044D01*
X467548Y1168548D01*
X465044Y1170469D01*
X462129Y1171676D01*
X459000Y1172088D01*
D02*
G37*
G36*
X950000Y1192098D02*
X890000D01*
X888049Y1191710D01*
X886395Y1190605D01*
X885290Y1188951D01*
X884902Y1187000D01*
Y1167000D01*
X885290Y1165049D01*
X886395Y1163395D01*
X888049Y1162290D01*
X890000Y1161902D01*
X950000D01*
X951951Y1162290D01*
X953605Y1163395D01*
X954710Y1165049D01*
X955098Y1167000D01*
Y1187000D01*
X954710Y1188951D01*
X953605Y1190605D01*
X951951Y1191710D01*
X950000Y1192098D01*
D02*
G37*
G36*
X840000Y1205119D02*
X835099Y1204637D01*
X830387Y1203207D01*
X826044Y1200886D01*
X822238Y1197762D01*
X819114Y1193956D01*
X816793Y1189613D01*
X815363Y1184901D01*
X814881Y1180000D01*
X815363Y1175099D01*
X816793Y1170387D01*
X819114Y1166044D01*
X822238Y1162238D01*
X826044Y1159114D01*
X830387Y1156793D01*
X835099Y1155363D01*
X840000Y1154881D01*
X844901Y1155363D01*
X849613Y1156793D01*
X853956Y1159114D01*
X857762Y1162238D01*
X860886Y1166044D01*
X863207Y1170387D01*
X864637Y1175099D01*
X865119Y1180000D01*
X864637Y1184901D01*
X863207Y1189613D01*
X860886Y1193956D01*
X857762Y1197762D01*
X853956Y1200886D01*
X849613Y1203207D01*
X844901Y1204637D01*
X840000Y1205119D01*
D02*
G37*
G36*
X50000Y1195119D02*
X45100Y1194637D01*
X40387Y1193207D01*
X36044Y1190886D01*
X32238Y1187762D01*
X29114Y1183956D01*
X26793Y1179613D01*
X25363Y1174901D01*
X24881Y1170000D01*
X25363Y1165099D01*
X26793Y1160387D01*
X29114Y1156044D01*
X32238Y1152238D01*
X36044Y1149114D01*
X40387Y1146793D01*
X45100Y1145363D01*
X50000Y1144881D01*
X54900Y1145363D01*
X59613Y1146793D01*
X63955Y1149114D01*
X67762Y1152238D01*
X70886Y1156044D01*
X73207Y1160387D01*
X74637Y1165099D01*
X75119Y1170000D01*
X74637Y1174901D01*
X73207Y1179613D01*
X70886Y1183956D01*
X67762Y1187762D01*
X63955Y1190886D01*
X59613Y1193207D01*
X54900Y1194637D01*
X50000Y1195119D01*
D02*
G37*
G36*
X333119Y1070000D02*
X330750D01*
Y1067631D01*
X332090Y1068660D01*
X333119Y1070000D01*
D02*
G37*
G36*
X320750D02*
X318381D01*
X319410Y1068660D01*
X320750Y1067631D01*
Y1070000D01*
D02*
G37*
G36*
X330750Y1082369D02*
Y1080000D01*
X333119D01*
X332090Y1081340D01*
X330750Y1082369D01*
D02*
G37*
G36*
X320750D02*
X319410Y1081340D01*
X318381Y1080000D01*
X320750D01*
Y1082369D01*
D02*
G37*
G36*
X336500Y978159D02*
Y975790D01*
X338869D01*
X337840Y977130D01*
X336500Y978159D01*
D02*
G37*
G36*
X217500Y917369D02*
Y915000D01*
X219869D01*
X218840Y916340D01*
X217500Y917369D01*
D02*
G37*
G36*
X207500D02*
X206160Y916340D01*
X205131Y915000D01*
X207500D01*
Y917369D01*
D02*
G37*
G36*
X410000Y1006012D02*
X406606Y1005565D01*
X403444Y1004255D01*
X400728Y1002172D01*
X398644Y999456D01*
X397335Y996294D01*
X396888Y992900D01*
X397335Y989506D01*
X398644Y986344D01*
X400728Y983628D01*
X401103Y983341D01*
Y979559D01*
X400728Y979272D01*
X398644Y976556D01*
X397335Y973394D01*
X396888Y970000D01*
X397335Y966606D01*
X398644Y963444D01*
X399273Y962625D01*
X399341Y962378D01*
X398532Y958796D01*
X398395Y958705D01*
X397290Y957051D01*
X396902Y955100D01*
Y939100D01*
X397290Y937149D01*
X398395Y935495D01*
X400049Y934390D01*
X402000Y934002D01*
X418000D01*
X419951Y934390D01*
X421605Y935495D01*
X422710Y937149D01*
X423098Y939100D01*
Y955100D01*
X422710Y957051D01*
X421605Y958705D01*
X421468Y958796D01*
X420659Y962378D01*
X420727Y962625D01*
X421355Y963444D01*
X422665Y966606D01*
X423112Y970000D01*
X422665Y973394D01*
X421355Y976556D01*
X419272Y979272D01*
X418897Y979559D01*
Y983341D01*
X419272Y983628D01*
X421355Y986344D01*
X422665Y989506D01*
X423112Y992900D01*
X422665Y996294D01*
X421355Y999456D01*
X419272Y1002172D01*
X416556Y1004255D01*
X413394Y1005565D01*
X410000Y1006012D01*
D02*
G37*
G36*
X290000Y938948D02*
X287037Y938558D01*
X284276Y937414D01*
X281905Y935595D01*
X280086Y933224D01*
X278942Y930463D01*
X278552Y927500D01*
X278942Y924537D01*
X280086Y921776D01*
X281905Y919405D01*
X284276Y917586D01*
X287037Y916442D01*
X290000Y916052D01*
X292963Y916442D01*
X295724Y917586D01*
X298095Y919405D01*
X299914Y921776D01*
X301058Y924537D01*
X301448Y927500D01*
X301058Y930463D01*
X299914Y933224D01*
X298095Y935595D01*
X295724Y937414D01*
X292963Y938558D01*
X290000Y938948D01*
D02*
G37*
G36*
X169750Y936948D02*
X166787Y936558D01*
X164026Y935414D01*
X161655Y933595D01*
X159836Y931224D01*
X158692Y928463D01*
X158302Y925500D01*
X158692Y922537D01*
X159836Y919776D01*
X161655Y917405D01*
X164026Y915586D01*
X166787Y914442D01*
X169750Y914052D01*
X172713Y914442D01*
X175474Y915586D01*
X177845Y917405D01*
X179664Y919776D01*
X180808Y922537D01*
X181198Y925500D01*
X180808Y928463D01*
X179664Y931224D01*
X177845Y933595D01*
X175474Y935414D01*
X172713Y936558D01*
X169750Y936948D01*
D02*
G37*
G36*
X50250Y901369D02*
X48910Y900340D01*
X47881Y899000D01*
X50250D01*
Y901369D01*
D02*
G37*
G36*
X219869Y905000D02*
X205131D01*
X206160Y903660D01*
X208017Y902235D01*
X209941Y901438D01*
X210317Y900528D01*
X210707Y898243D01*
X210513Y898095D01*
X208694Y895724D01*
X207550Y892963D01*
X207227Y890507D01*
X205768Y889737D01*
X204207Y889443D01*
X203000Y890369D01*
Y883000D01*
Y875631D01*
X204340Y876660D01*
X205765Y878517D01*
X206661Y880679D01*
X206809Y881804D01*
X209924Y882673D01*
X210513Y881905D01*
X212884Y880086D01*
X215645Y878942D01*
X218608Y878552D01*
X221571Y878942D01*
X224332Y880086D01*
X226703Y881905D01*
X228522Y884276D01*
X229666Y887037D01*
X230056Y890000D01*
X229666Y892963D01*
X228522Y895724D01*
X226703Y898095D01*
X224332Y899914D01*
X221571Y901058D01*
X220553Y901192D01*
X219999Y901990D01*
X219387Y904371D01*
X219869Y905000D01*
D02*
G37*
G36*
X137500Y923948D02*
X134537Y923558D01*
X131776Y922414D01*
X129405Y920595D01*
X127586Y918224D01*
X126442Y915463D01*
X126052Y912500D01*
X126442Y909537D01*
X127586Y906776D01*
X129405Y904405D01*
X131776Y902586D01*
X134537Y901442D01*
X137500Y901052D01*
X140463Y901442D01*
X143224Y902586D01*
X145595Y904405D01*
X147414Y906776D01*
X148558Y909537D01*
X148948Y912500D01*
X148558Y915463D01*
X147414Y918224D01*
X145595Y920595D01*
X143224Y922414D01*
X140463Y923558D01*
X137500Y923948D01*
D02*
G37*
G36*
X60250Y901369D02*
Y899000D01*
X62619D01*
X61590Y900340D01*
X60250Y901369D01*
D02*
G37*
G36*
X125000Y937000D02*
X122631D01*
X123660Y935660D01*
X125000Y934631D01*
Y937000D01*
D02*
G37*
G36*
X284250Y977369D02*
X282910Y976340D01*
X281881Y975000D01*
X284250D01*
Y977369D01*
D02*
G37*
G36*
X338869Y965790D02*
X336500D01*
Y963421D01*
X337840Y964450D01*
X338869Y965790D01*
D02*
G37*
G36*
X326500Y978159D02*
X325160Y977130D01*
X324131Y975790D01*
X326500D01*
Y978159D01*
D02*
G37*
G36*
X294250Y977369D02*
Y975000D01*
X296619D01*
X295590Y976340D01*
X294250Y977369D01*
D02*
G37*
G36*
X326500Y965790D02*
X324131D01*
X325160Y964450D01*
X326500Y963421D01*
Y965790D01*
D02*
G37*
G36*
X296619Y965000D02*
X281881D01*
X282910Y963660D01*
X283085Y963193D01*
X282795Y959966D01*
X282081Y959419D01*
X280639Y957539D01*
X279732Y955350D01*
X279422Y953000D01*
X279732Y950650D01*
X280639Y948461D01*
X282081Y946581D01*
X283961Y945138D01*
X286150Y944232D01*
X288500Y943922D01*
X290849Y944232D01*
X293039Y945138D01*
X294919Y946581D01*
X296362Y948461D01*
X297268Y950650D01*
X297578Y953000D01*
X297268Y955350D01*
X296362Y957539D01*
X294919Y959419D01*
X294868Y959458D01*
X294687Y959901D01*
X294955Y963172D01*
X295590Y963660D01*
X296619Y965000D01*
D02*
G37*
G36*
X137369Y937000D02*
X135000D01*
Y934631D01*
X136340Y935660D01*
X137369Y937000D01*
D02*
G37*
G36*
X135000Y949369D02*
Y947000D01*
X137369D01*
X136340Y948340D01*
X135000Y949369D01*
D02*
G37*
G36*
X125000D02*
X123660Y948340D01*
X122631Y947000D01*
X125000D01*
Y949369D01*
D02*
G37*
G36*
X329000Y790369D02*
X327660Y789340D01*
X326631Y788000D01*
X329000D01*
Y790369D01*
D02*
G37*
G36*
X144750Y516000D02*
X142381D01*
X143410Y514660D01*
X144750Y513631D01*
Y516000D01*
D02*
G37*
G36*
X650000Y555119D02*
X645099Y554637D01*
X640387Y553207D01*
X636045Y550886D01*
X632238Y547762D01*
X629114Y543955D01*
X626793Y539613D01*
X625363Y534901D01*
X624881Y530000D01*
X625363Y525099D01*
X626793Y520387D01*
X629114Y516045D01*
X632238Y512238D01*
X636045Y509114D01*
X640387Y506793D01*
X645099Y505364D01*
X650000Y504881D01*
X654901Y505364D01*
X659613Y506793D01*
X663956Y509114D01*
X667762Y512238D01*
X670886Y516045D01*
X673207Y520387D01*
X674637Y525099D01*
X675119Y530000D01*
X674637Y534901D01*
X673207Y539613D01*
X670886Y543955D01*
X667762Y547762D01*
X663956Y550886D01*
X659613Y553207D01*
X654901Y554637D01*
X650000Y555119D01*
D02*
G37*
G36*
X144750Y528369D02*
X143410Y527340D01*
X142381Y526000D01*
X144750D01*
Y528369D01*
D02*
G37*
G36*
X157119Y516000D02*
X154750D01*
Y513631D01*
X156090Y514660D01*
X157119Y516000D01*
D02*
G37*
G36*
X1079300Y524588D02*
X1076171Y524176D01*
X1073256Y522969D01*
X1070752Y521048D01*
X1068831Y518544D01*
X1067624Y515629D01*
X1067212Y512500D01*
X1067624Y509371D01*
X1068831Y506456D01*
X1070752Y503952D01*
X1073256Y502031D01*
X1076171Y500824D01*
X1079300Y500412D01*
X1082429Y500824D01*
X1085344Y502031D01*
X1087848Y503952D01*
X1089769Y506456D01*
X1090976Y509371D01*
X1091388Y512500D01*
X1090976Y515629D01*
X1089769Y518544D01*
X1087848Y521048D01*
X1085344Y522969D01*
X1082429Y524176D01*
X1079300Y524588D01*
D02*
G37*
G36*
X591000Y492369D02*
X589660Y491340D01*
X588631Y490000D01*
X591000D01*
Y492369D01*
D02*
G37*
G36*
X50000Y581785D02*
X46639Y581343D01*
X43507Y580045D01*
X40818Y577982D01*
X38755Y575293D01*
X37457Y572161D01*
X37015Y568800D01*
X37457Y565439D01*
X38755Y562308D01*
X40818Y559618D01*
X43221Y557774D01*
X43407Y556100D01*
X43221Y554426D01*
X40818Y552582D01*
X38755Y549893D01*
X37457Y546761D01*
X37015Y543400D01*
X37457Y540039D01*
X38755Y536908D01*
X40818Y534218D01*
X43221Y532374D01*
X43407Y530700D01*
X43221Y529026D01*
X40818Y527182D01*
X38755Y524493D01*
X37457Y521361D01*
X37015Y518000D01*
X37457Y514639D01*
X38755Y511507D01*
X40818Y508818D01*
X41281Y508463D01*
X40533Y505255D01*
X40175Y505184D01*
X38521Y504079D01*
X37416Y502425D01*
X37028Y500474D01*
Y484726D01*
X37416Y482775D01*
X38521Y481121D01*
X40175Y480016D01*
X42126Y479628D01*
X57874D01*
X59825Y480016D01*
X61479Y481121D01*
X62584Y482775D01*
X62972Y484726D01*
Y500474D01*
X62584Y502425D01*
X61479Y504079D01*
X59825Y505184D01*
X59467Y505255D01*
X58719Y508463D01*
X59182Y508818D01*
X61245Y511507D01*
X62543Y514639D01*
X62985Y518000D01*
X62543Y521361D01*
X61245Y524493D01*
X59182Y527182D01*
X56779Y529026D01*
X56593Y530700D01*
X56779Y532374D01*
X59182Y534218D01*
X61245Y536908D01*
X62543Y540039D01*
X62985Y543400D01*
X62543Y546761D01*
X61245Y549893D01*
X59182Y552582D01*
X56779Y554426D01*
X56593Y556100D01*
X56779Y557774D01*
X59182Y559618D01*
X61245Y562308D01*
X62543Y565439D01*
X62985Y568800D01*
X62543Y572161D01*
X61245Y575293D01*
X59182Y577982D01*
X56493Y580045D01*
X53361Y581343D01*
X50000Y581785D01*
D02*
G37*
G36*
X105000Y513948D02*
X102037Y513558D01*
X99276Y512414D01*
X96905Y510595D01*
X95086Y508224D01*
X93942Y505463D01*
X93552Y502500D01*
X93942Y499537D01*
X95086Y496776D01*
X96905Y494405D01*
X99276Y492586D01*
X102037Y491442D01*
X105000Y491052D01*
X107963Y491442D01*
X110724Y492586D01*
X113095Y494405D01*
X114914Y496776D01*
X116058Y499537D01*
X116448Y502500D01*
X116058Y505463D01*
X114914Y508224D01*
X113095Y510595D01*
X110724Y512414D01*
X107963Y513558D01*
X105000Y513948D01*
D02*
G37*
G36*
X601000Y492369D02*
Y490000D01*
X603369D01*
X602340Y491340D01*
X601000Y492369D01*
D02*
G37*
G36*
X154750Y528369D02*
Y526000D01*
X157119D01*
X156090Y527340D01*
X154750Y528369D01*
D02*
G37*
G36*
X141119Y589000D02*
X138750D01*
Y586631D01*
X140090Y587660D01*
X141119Y589000D01*
D02*
G37*
G36*
X128750D02*
X126381D01*
X127410Y587660D01*
X128750Y586631D01*
Y589000D01*
D02*
G37*
G36*
X650250Y596369D02*
Y594000D01*
X652619D01*
X651590Y595340D01*
X650250Y596369D01*
D02*
G37*
G36*
X640250D02*
X638910Y595340D01*
X637881Y594000D01*
X640250D01*
Y596369D01*
D02*
G37*
G36*
X652619Y584000D02*
X650250D01*
Y581631D01*
X651590Y582660D01*
X652619Y584000D01*
D02*
G37*
G36*
X1420000Y634108D02*
X1414508Y633676D01*
X1409151Y632390D01*
X1404061Y630282D01*
X1399364Y627403D01*
X1395175Y623825D01*
X1391597Y619636D01*
X1388718Y614939D01*
X1386610Y609849D01*
X1385324Y604492D01*
X1384892Y599000D01*
Y579000D01*
X1385324Y573508D01*
X1386610Y568151D01*
X1388718Y563061D01*
X1391597Y558364D01*
X1395175Y554175D01*
X1399364Y550597D01*
X1404061Y547718D01*
X1409151Y545610D01*
X1414508Y544324D01*
X1420000Y543892D01*
X1425492Y544324D01*
X1430849Y545610D01*
X1435939Y547718D01*
X1440636Y550597D01*
X1444825Y554175D01*
X1448403Y558364D01*
X1451282Y563061D01*
X1453390Y568151D01*
X1454676Y573508D01*
X1455108Y579000D01*
Y599000D01*
X1454676Y604492D01*
X1453390Y609849D01*
X1451282Y614939D01*
X1448403Y619636D01*
X1444825Y623825D01*
X1440636Y627403D01*
X1435939Y630282D01*
X1430849Y632390D01*
X1425492Y633676D01*
X1420000Y634108D01*
D02*
G37*
G36*
X1340000D02*
X1334508Y633676D01*
X1329151Y632390D01*
X1324061Y630282D01*
X1319364Y627403D01*
X1315175Y623825D01*
X1311597Y619636D01*
X1308718Y614939D01*
X1306610Y609849D01*
X1305324Y604492D01*
X1304892Y599000D01*
Y579000D01*
X1305324Y573508D01*
X1306610Y568151D01*
X1308718Y563061D01*
X1311597Y558364D01*
X1315175Y554175D01*
X1317428Y552250D01*
Y549250D01*
X1315175Y547325D01*
X1311597Y543136D01*
X1308718Y538439D01*
X1306610Y533349D01*
X1306060Y531058D01*
X1302795Y530308D01*
X1301674Y531674D01*
X1297565Y535046D01*
X1292877Y537551D01*
X1287790Y539095D01*
X1282500Y539616D01*
X1277210Y539095D01*
X1272123Y537551D01*
X1267435Y535046D01*
X1263326Y531674D01*
X1259954Y527565D01*
X1257449Y522877D01*
X1255905Y517790D01*
X1255384Y512500D01*
X1255905Y507210D01*
X1257449Y502123D01*
X1259954Y497435D01*
X1263326Y493326D01*
X1267435Y489954D01*
X1272123Y487449D01*
X1277210Y485905D01*
X1279852Y485645D01*
X1281401Y482478D01*
X1280324Y477992D01*
X1279892Y472500D01*
X1280324Y467008D01*
X1281610Y461651D01*
X1283718Y456561D01*
X1286597Y451864D01*
X1290175Y447675D01*
X1294364Y444097D01*
X1299061Y441218D01*
X1304151Y439110D01*
X1309508Y437824D01*
X1315000Y437392D01*
X1320492Y437824D01*
X1325849Y439110D01*
X1330939Y441218D01*
X1335636Y444097D01*
X1337746Y445899D01*
X1340000Y447547D01*
X1342254Y445899D01*
X1344364Y444097D01*
X1349061Y441218D01*
X1354151Y439110D01*
X1359508Y437824D01*
X1365000Y437392D01*
X1370492Y437824D01*
X1375849Y439110D01*
X1380939Y441218D01*
X1385636Y444097D01*
X1389825Y447675D01*
X1393403Y451864D01*
X1396282Y456561D01*
X1398390Y461651D01*
X1399676Y467008D01*
X1400108Y472500D01*
X1399676Y477992D01*
X1398390Y483349D01*
X1396282Y488439D01*
X1393403Y493136D01*
X1389825Y497325D01*
X1385636Y500903D01*
X1380939Y503782D01*
X1375849Y505890D01*
X1373688Y506409D01*
X1372326Y509082D01*
X1373390Y511651D01*
X1374676Y517008D01*
X1375108Y522500D01*
X1374676Y527992D01*
X1373390Y533349D01*
X1371282Y538439D01*
X1368403Y543136D01*
X1364825Y547325D01*
X1362572Y549250D01*
Y552250D01*
X1364825Y554175D01*
X1368403Y558364D01*
X1371282Y563061D01*
X1373390Y568151D01*
X1374676Y573508D01*
X1375108Y579000D01*
Y599000D01*
X1374676Y604492D01*
X1373390Y609849D01*
X1371282Y614939D01*
X1368403Y619636D01*
X1364825Y623825D01*
X1360636Y627403D01*
X1355939Y630282D01*
X1350849Y632390D01*
X1345492Y633676D01*
X1340000Y634108D01*
D02*
G37*
G36*
X640250Y584000D02*
X637881D01*
X638910Y582660D01*
X640250Y581631D01*
Y584000D01*
D02*
G37*
G36*
X950000Y595098D02*
X890000D01*
X888049Y594710D01*
X886395Y593605D01*
X885290Y591951D01*
X884902Y590000D01*
Y570000D01*
X885290Y568049D01*
X886395Y566395D01*
X888049Y565290D01*
X890000Y564902D01*
X950000D01*
X951951Y565290D01*
X953605Y566395D01*
X954710Y568049D01*
X955098Y570000D01*
Y590000D01*
X954710Y591951D01*
X953605Y593605D01*
X951951Y594710D01*
X950000Y595098D01*
D02*
G37*
G36*
X603369Y480000D02*
X601000D01*
Y477631D01*
X602340Y478660D01*
X603369Y480000D01*
D02*
G37*
G36*
X422123Y471101D02*
X409677D01*
X407726Y470713D01*
X406072Y469608D01*
X404967Y467954D01*
X404579Y466003D01*
Y453557D01*
X404967Y451606D01*
X406072Y449952D01*
X407726Y448847D01*
X409677Y448459D01*
X422123D01*
X424074Y448847D01*
X425728Y449952D01*
X426833Y451606D01*
X427221Y453557D01*
Y466003D01*
X426833Y467954D01*
X425728Y469608D01*
X424074Y470713D01*
X422123Y471101D01*
D02*
G37*
G36*
X528943Y471001D02*
X516497D01*
X514546Y470613D01*
X512892Y469508D01*
X511787Y467854D01*
X511399Y465903D01*
Y453457D01*
X511787Y451506D01*
X512892Y449852D01*
X514546Y448747D01*
X516497Y448359D01*
X528943D01*
X530894Y448747D01*
X532548Y449852D01*
X533653Y451506D01*
X534041Y453457D01*
Y465903D01*
X533653Y467854D01*
X532548Y469508D01*
X530894Y470613D01*
X528943Y471001D01*
D02*
G37*
G36*
X479129Y454680D02*
X476920D01*
Y452471D01*
X478170Y453430D01*
X479129Y454680D01*
D02*
G37*
G36*
X466920D02*
X464711D01*
X465670Y453430D01*
X466920Y452471D01*
Y454680D01*
D02*
G37*
G36*
X258500Y439698D02*
X255537Y439308D01*
X252776Y438164D01*
X250405Y436345D01*
X248586Y433974D01*
X247442Y431213D01*
X247052Y428250D01*
X247442Y425287D01*
X248586Y422526D01*
X250405Y420155D01*
X252776Y418336D01*
X255537Y417192D01*
X258500Y416802D01*
X261463Y417192D01*
X264224Y418336D01*
X266595Y420155D01*
X268414Y422526D01*
X269558Y425287D01*
X269948Y428250D01*
X269558Y431213D01*
X268414Y433974D01*
X266595Y436345D01*
X264224Y438164D01*
X261463Y439308D01*
X258500Y439698D01*
D02*
G37*
G36*
X1124750Y437338D02*
X1121621Y436926D01*
X1118706Y435719D01*
X1116202Y433798D01*
X1114281Y431294D01*
X1113074Y428379D01*
X1112662Y425250D01*
X1113074Y422121D01*
X1114281Y419206D01*
X1116202Y416702D01*
X1118706Y414781D01*
X1121621Y413573D01*
X1124750Y413162D01*
X1127879Y413573D01*
X1130794Y414781D01*
X1133298Y416702D01*
X1135219Y419206D01*
X1136426Y422121D01*
X1136838Y425250D01*
X1136426Y428379D01*
X1135219Y431294D01*
X1133298Y433798D01*
X1130794Y435719D01*
X1127879Y436926D01*
X1124750Y437338D01*
D02*
G37*
G36*
X174750Y434698D02*
X171787Y434308D01*
X169026Y433164D01*
X166655Y431345D01*
X164836Y428974D01*
X163692Y426213D01*
X163302Y423250D01*
X163692Y420287D01*
X164836Y417526D01*
X166655Y415155D01*
X169026Y413336D01*
X171787Y412192D01*
X174750Y411802D01*
X177713Y412192D01*
X180474Y413336D01*
X182845Y415155D01*
X184664Y417526D01*
X185808Y420287D01*
X186198Y423250D01*
X185808Y426213D01*
X184664Y428974D01*
X182845Y431345D01*
X180474Y433164D01*
X177713Y434308D01*
X174750Y434698D01*
D02*
G37*
G36*
X1227500Y475093D02*
X1222792Y474722D01*
X1218201Y473620D01*
X1213838Y471813D01*
X1209812Y469346D01*
X1206221Y466279D01*
X1203154Y462688D01*
X1202500Y461620D01*
Y412170D01*
X1204052Y415073D01*
X1205595Y420160D01*
X1205608Y420299D01*
X1208747Y421564D01*
X1209812Y420654D01*
X1213838Y418187D01*
X1218201Y416380D01*
X1222792Y415278D01*
X1227500Y414907D01*
X1232208Y415278D01*
X1236799Y416380D01*
X1241162Y418187D01*
X1245188Y420654D01*
X1248779Y423721D01*
X1251846Y427312D01*
X1254313Y431338D01*
X1256120Y435701D01*
X1257222Y440292D01*
X1257593Y445000D01*
X1257222Y449708D01*
X1256120Y454299D01*
X1254313Y458662D01*
X1251846Y462688D01*
X1248779Y466279D01*
X1245188Y469346D01*
X1241162Y471813D01*
X1236799Y473620D01*
X1232208Y474722D01*
X1227500Y475093D01*
D02*
G37*
G36*
X1179000Y437538D02*
X1175871Y437127D01*
X1172956Y435919D01*
X1170452Y433998D01*
X1168531Y431494D01*
X1167324Y428579D01*
X1166912Y425450D01*
X1167324Y422321D01*
X1168531Y419406D01*
X1170452Y416902D01*
X1172956Y414981D01*
X1175871Y413773D01*
X1179000Y413362D01*
X1182129Y413773D01*
X1185044Y414981D01*
X1187548Y416902D01*
X1189469Y419406D01*
X1190676Y422321D01*
X1191088Y425450D01*
X1190676Y428579D01*
X1189469Y431494D01*
X1187548Y433998D01*
X1185044Y435919D01*
X1182129Y437127D01*
X1179000Y437538D01*
D02*
G37*
G36*
X360100Y454780D02*
X357891D01*
X358850Y453530D01*
X360100Y452571D01*
Y454780D01*
D02*
G37*
G36*
X497320Y496400D02*
X494390Y496014D01*
X491660Y494883D01*
X489316Y493084D01*
X487517Y490740D01*
X486386Y488010D01*
X486000Y485080D01*
X486386Y482150D01*
X487517Y479420D01*
X489316Y477076D01*
X491660Y475277D01*
X494390Y474146D01*
X497320Y473760D01*
X500250Y474146D01*
X502980Y475277D01*
X505324Y477076D01*
X507123Y479420D01*
X508254Y482150D01*
X508640Y485080D01*
X508254Y488010D01*
X507123Y490740D01*
X505324Y493084D01*
X502980Y494883D01*
X500250Y496014D01*
X497320Y496400D01*
D02*
G37*
G36*
X370100Y466989D02*
Y464780D01*
X372309D01*
X371350Y466030D01*
X370100Y466989D01*
D02*
G37*
G36*
X591000Y480000D02*
X588631D01*
X589660Y478660D01*
X591000Y477631D01*
Y480000D01*
D02*
G37*
G36*
X390500Y496500D02*
X387570Y496114D01*
X384840Y494983D01*
X382496Y493184D01*
X380697Y490840D01*
X379566Y488110D01*
X379180Y485180D01*
X379566Y482250D01*
X380697Y479520D01*
X382496Y477176D01*
X384840Y475377D01*
X387570Y474246D01*
X390500Y473860D01*
X393430Y474246D01*
X396160Y475377D01*
X398504Y477176D01*
X400303Y479520D01*
X401434Y482250D01*
X401820Y485180D01*
X401434Y488110D01*
X400303Y490840D01*
X398504Y493184D01*
X396160Y494983D01*
X393430Y496114D01*
X390500Y496500D01*
D02*
G37*
G36*
X360100Y466989D02*
X358850Y466030D01*
X357891Y464780D01*
X360100D01*
Y466989D01*
D02*
G37*
G36*
X216250Y484198D02*
X213287Y483808D01*
X210526Y482664D01*
X208155Y480845D01*
X206336Y478474D01*
X205192Y475713D01*
X204802Y472750D01*
X205192Y469787D01*
X206336Y467026D01*
X208155Y464655D01*
X210526Y462836D01*
X213287Y461692D01*
X216250Y461302D01*
X219213Y461692D01*
X221974Y462836D01*
X224345Y464655D01*
X226164Y467026D01*
X227308Y469787D01*
X227698Y472750D01*
X227308Y475713D01*
X226164Y478474D01*
X224345Y480845D01*
X221974Y482664D01*
X219213Y483808D01*
X216250Y484198D01*
D02*
G37*
G36*
X372309Y454780D02*
X370100D01*
Y452571D01*
X371350Y453530D01*
X372309Y454780D01*
D02*
G37*
G36*
X476920Y466889D02*
Y464680D01*
X479129D01*
X478170Y465930D01*
X476920Y466889D01*
D02*
G37*
G36*
X466920D02*
X465670Y465930D01*
X464711Y464680D01*
X466920D01*
Y466889D01*
D02*
G37*
G36*
X327000Y695000D02*
X324631D01*
X325660Y693660D01*
X327000Y692631D01*
Y695000D01*
D02*
G37*
G36*
X121671Y688092D02*
Y680508D01*
X129255D01*
X128498Y682336D01*
X126327Y685165D01*
X123499Y687335D01*
X121671Y688092D01*
D02*
G37*
G36*
X327000Y707369D02*
X325660Y706340D01*
X324631Y705000D01*
X327000D01*
Y707369D01*
D02*
G37*
G36*
X339369Y695000D02*
X337000D01*
Y692631D01*
X338340Y693660D01*
X339369Y695000D01*
D02*
G37*
G36*
X70870Y688092D02*
Y680508D01*
X78455D01*
X77698Y682336D01*
X75527Y685165D01*
X72699Y687335D01*
X70870Y688092D01*
D02*
G37*
G36*
X330000Y686448D02*
X327037Y686058D01*
X324276Y684914D01*
X321905Y683095D01*
X320086Y680724D01*
X318942Y677963D01*
X318552Y675000D01*
X318942Y672037D01*
X320086Y669276D01*
X321905Y666905D01*
X324276Y665086D01*
X327037Y663942D01*
X330000Y663552D01*
X332963Y663942D01*
X335724Y665086D01*
X338095Y666905D01*
X339914Y669276D01*
X341058Y672037D01*
X341448Y675000D01*
X341058Y677963D01*
X339914Y680724D01*
X338095Y683095D01*
X335724Y684914D01*
X332963Y686058D01*
X330000Y686448D01*
D02*
G37*
G36*
X129255Y670508D02*
X121671D01*
Y662923D01*
X123499Y663681D01*
X126327Y665851D01*
X128498Y668680D01*
X129255Y670508D01*
D02*
G37*
G36*
X111671Y688092D02*
X109842Y687335D01*
X107014Y685165D01*
X104843Y682336D01*
X104086Y680508D01*
X111671D01*
Y688092D01*
D02*
G37*
G36*
X60870D02*
X59042Y687335D01*
X56214Y685165D01*
X54043Y682336D01*
X53286Y680508D01*
X60870D01*
Y688092D01*
D02*
G37*
G36*
X337000Y707369D02*
Y705000D01*
X339369D01*
X338340Y706340D01*
X337000Y707369D01*
D02*
G37*
G36*
X227500Y798948D02*
X224537Y798558D01*
X221776Y797414D01*
X219405Y795595D01*
X217586Y793224D01*
X216442Y790463D01*
X216052Y787500D01*
X216442Y784537D01*
X217586Y781776D01*
X219405Y779405D01*
X221776Y777586D01*
X224537Y776442D01*
X226067Y776241D01*
X226473Y773161D01*
X225517Y772765D01*
X223660Y771340D01*
X222631Y770000D01*
X237369D01*
X236340Y771340D01*
X234483Y772765D01*
X232321Y773661D01*
X231765Y773734D01*
X231360Y776814D01*
X233224Y777586D01*
X235595Y779405D01*
X237414Y781776D01*
X238558Y784537D01*
X238948Y787500D01*
X238558Y790463D01*
X237414Y793224D01*
X235595Y795595D01*
X233224Y797414D01*
X230463Y798558D01*
X227500Y798948D01*
D02*
G37*
G36*
X111000Y789448D02*
X108037Y789058D01*
X105276Y787914D01*
X102905Y786095D01*
X101086Y783724D01*
X99942Y780963D01*
X99552Y778000D01*
X99942Y775037D01*
X101086Y772276D01*
X102905Y769905D01*
X105276Y768086D01*
X108037Y766942D01*
X111000Y766552D01*
X113963Y766942D01*
X116724Y768086D01*
X119095Y769905D01*
X120914Y772276D01*
X122058Y775037D01*
X122448Y778000D01*
X122058Y780963D01*
X120914Y783724D01*
X119095Y786095D01*
X116724Y787914D01*
X113963Y789058D01*
X111000Y789448D01*
D02*
G37*
G36*
X341369Y778000D02*
X339000D01*
Y775631D01*
X340340Y776660D01*
X341369Y778000D01*
D02*
G37*
G36*
X329000D02*
X326631D01*
X327660Y776660D01*
X329000Y775631D01*
Y778000D01*
D02*
G37*
G36*
X68000Y785448D02*
X65037Y785058D01*
X62276Y783914D01*
X59905Y782095D01*
X58086Y779724D01*
X56942Y776963D01*
X56552Y774000D01*
X56942Y771037D01*
X58086Y768276D01*
X59905Y765905D01*
X62276Y764086D01*
X65037Y762942D01*
X68000Y762552D01*
X70963Y762942D01*
X73724Y764086D01*
X76095Y765905D01*
X77914Y768276D01*
X79058Y771037D01*
X79448Y774000D01*
X79058Y776963D01*
X77914Y779724D01*
X76095Y782095D01*
X73724Y783914D01*
X70963Y785058D01*
X68000Y785448D01*
D02*
G37*
G36*
X418000Y825998D02*
X402000D01*
X400049Y825610D01*
X398395Y824505D01*
X397290Y822851D01*
X396902Y820900D01*
Y804900D01*
X397290Y802949D01*
X398395Y801295D01*
X398532Y801204D01*
X399341Y797621D01*
X399273Y797375D01*
X398644Y796556D01*
X397335Y793394D01*
X396888Y790000D01*
X397335Y786606D01*
X398644Y783444D01*
X400728Y780728D01*
X401103Y780441D01*
Y776659D01*
X400728Y776372D01*
X398644Y773656D01*
X397335Y770494D01*
X396888Y767100D01*
X397335Y763706D01*
X398644Y760544D01*
X400728Y757828D01*
X403444Y755744D01*
X406606Y754435D01*
X410000Y753988D01*
X413394Y754435D01*
X416556Y755744D01*
X419272Y757828D01*
X421355Y760544D01*
X422665Y763706D01*
X423112Y767100D01*
X422665Y770494D01*
X421355Y773656D01*
X419272Y776372D01*
X418897Y776659D01*
Y780441D01*
X419272Y780728D01*
X421355Y783444D01*
X422665Y786606D01*
X423112Y790000D01*
X422665Y793394D01*
X421355Y796556D01*
X420727Y797375D01*
X420659Y797621D01*
X421468Y801204D01*
X421605Y801295D01*
X422710Y802949D01*
X423098Y804900D01*
Y820900D01*
X422710Y822851D01*
X421605Y824505D01*
X419951Y825610D01*
X418000Y825998D01*
D02*
G37*
G36*
X326000Y738448D02*
X323037Y738058D01*
X320276Y736914D01*
X317905Y735095D01*
X316086Y732724D01*
X314942Y729963D01*
X314552Y727000D01*
X314942Y724037D01*
X316086Y721276D01*
X317905Y718905D01*
X320276Y717086D01*
X323037Y715942D01*
X326000Y715552D01*
X328963Y715942D01*
X331724Y717086D01*
X334095Y718905D01*
X335914Y721276D01*
X337058Y724037D01*
X337448Y727000D01*
X337058Y729963D01*
X335914Y732724D01*
X334095Y735095D01*
X331724Y736914D01*
X328963Y738058D01*
X326000Y738448D01*
D02*
G37*
G36*
X237369Y760000D02*
X235000D01*
Y757631D01*
X236340Y758660D01*
X237369Y760000D01*
D02*
G37*
G36*
X225000D02*
X222631D01*
X223660Y758660D01*
X225000Y757631D01*
Y760000D01*
D02*
G37*
G36*
X78455Y670508D02*
X70870D01*
Y662923D01*
X72699Y663681D01*
X75527Y665851D01*
X77698Y668680D01*
X78455Y670508D01*
D02*
G37*
G36*
X111671Y619708D02*
X104086D01*
X104843Y617879D01*
X107014Y615051D01*
X109842Y612881D01*
X111671Y612123D01*
Y619708D01*
D02*
G37*
G36*
X60870D02*
X53286D01*
X54043Y617879D01*
X56214Y615051D01*
X59042Y612881D01*
X60870Y612123D01*
Y619708D01*
D02*
G37*
G36*
X129255D02*
X121671D01*
Y612123D01*
X123499Y612881D01*
X126327Y615051D01*
X128498Y617879D01*
X129255Y619708D01*
D02*
G37*
G36*
X78455D02*
X70870D01*
Y612123D01*
X72699Y612881D01*
X75527Y615051D01*
X77698Y617879D01*
X78455Y619708D01*
D02*
G37*
G36*
X227750Y632698D02*
X224787Y632308D01*
X222026Y631164D01*
X219655Y629345D01*
X217836Y626974D01*
X216692Y624213D01*
X216302Y621250D01*
X216692Y618287D01*
X217836Y615526D01*
X219655Y613155D01*
X222026Y611336D01*
X224787Y610192D01*
X227750Y609802D01*
X230713Y610192D01*
X233474Y611336D01*
X235845Y613155D01*
X237664Y615526D01*
X238808Y618287D01*
X239198Y621250D01*
X238808Y624213D01*
X237664Y626974D01*
X235845Y629345D01*
X233474Y631164D01*
X230713Y632308D01*
X227750Y632698D01*
D02*
G37*
G36*
X724000Y622088D02*
X720871Y621676D01*
X717956Y620469D01*
X715452Y618548D01*
X713531Y616044D01*
X712324Y613129D01*
X711912Y610000D01*
X712324Y606871D01*
X713531Y603956D01*
X715452Y601452D01*
X717956Y599531D01*
X720871Y598324D01*
X724000Y597912D01*
X727129Y598324D01*
X730044Y599531D01*
X732548Y601452D01*
X734469Y603956D01*
X735676Y606871D01*
X736088Y610000D01*
X735676Y613129D01*
X734469Y616044D01*
X732548Y618548D01*
X730044Y620469D01*
X727129Y621676D01*
X724000Y622088D01*
D02*
G37*
G36*
X470000D02*
X466871Y621676D01*
X463956Y620469D01*
X461452Y618548D01*
X459531Y616044D01*
X458324Y613129D01*
X457912Y610000D01*
X458324Y606871D01*
X459531Y603956D01*
X461452Y601452D01*
X463956Y599531D01*
X466871Y598324D01*
X470000Y597912D01*
X473129Y598324D01*
X476044Y599531D01*
X478548Y601452D01*
X480469Y603956D01*
X481676Y606871D01*
X482088Y610000D01*
X481676Y613129D01*
X480469Y616044D01*
X478548Y618548D01*
X476044Y620469D01*
X473129Y621676D01*
X470000Y622088D01*
D02*
G37*
G36*
X138750Y601369D02*
Y599000D01*
X141119D01*
X140090Y600340D01*
X138750Y601369D01*
D02*
G37*
G36*
X128750D02*
X127410Y600340D01*
X126381Y599000D01*
X128750D01*
Y601369D01*
D02*
G37*
G36*
X265000Y644448D02*
X262037Y644058D01*
X259276Y642914D01*
X256905Y641095D01*
X255086Y638724D01*
X253942Y635963D01*
X253552Y633000D01*
X253942Y630037D01*
X255086Y627276D01*
X256905Y624905D01*
X259276Y623086D01*
X262037Y621942D01*
X265000Y621552D01*
X267963Y621942D01*
X270724Y623086D01*
X273095Y624905D01*
X274914Y627276D01*
X276058Y630037D01*
X276448Y633000D01*
X276058Y635963D01*
X274914Y638724D01*
X273095Y641095D01*
X270724Y642914D01*
X267963Y644058D01*
X265000Y644448D01*
D02*
G37*
G36*
X418000Y733498D02*
X402000D01*
X400049Y733110D01*
X398395Y732005D01*
X397290Y730351D01*
X396902Y728400D01*
Y712400D01*
X397290Y710449D01*
X398395Y708795D01*
X398532Y708704D01*
X399341Y705121D01*
X399273Y704875D01*
X398644Y704056D01*
X397335Y700894D01*
X396888Y697500D01*
X397335Y694106D01*
X398644Y690944D01*
X400728Y688228D01*
X401103Y687941D01*
Y684159D01*
X400728Y683872D01*
X398644Y681156D01*
X397335Y677994D01*
X396888Y674600D01*
X397335Y671206D01*
X398644Y668044D01*
X400728Y665328D01*
X403444Y663244D01*
X406606Y661935D01*
X410000Y661488D01*
X413394Y661935D01*
X416556Y663244D01*
X419272Y665328D01*
X421355Y668044D01*
X422665Y671206D01*
X423112Y674600D01*
X422665Y677994D01*
X421355Y681156D01*
X419272Y683872D01*
X418897Y684159D01*
Y687941D01*
X419272Y688228D01*
X421355Y690944D01*
X422665Y694106D01*
X423112Y697500D01*
X422665Y700894D01*
X421355Y704056D01*
X420727Y704875D01*
X420659Y705121D01*
X421468Y708704D01*
X421605Y708795D01*
X422710Y710449D01*
X423098Y712400D01*
Y728400D01*
X422710Y730351D01*
X421605Y732005D01*
X419951Y733110D01*
X418000Y733498D01*
D02*
G37*
G36*
X690000Y1110098D02*
X510000D01*
X508049Y1109710D01*
X506395Y1108605D01*
X505290Y1106951D01*
X504902Y1105000D01*
Y655000D01*
X505290Y653049D01*
X506395Y651395D01*
X508049Y650290D01*
X510000Y649902D01*
X690000D01*
X691951Y650290D01*
X693605Y651395D01*
X694710Y653049D01*
X695098Y655000D01*
Y1105000D01*
X694710Y1106951D01*
X693605Y1108605D01*
X691951Y1109710D01*
X690000Y1110098D01*
D02*
G37*
G36*
X111671Y670508D02*
X104086D01*
X104843Y668680D01*
X107014Y665851D01*
X109842Y663681D01*
X111671Y662923D01*
Y670508D01*
D02*
G37*
G36*
X60870D02*
X53286D01*
X54043Y668680D01*
X56214Y665851D01*
X59042Y663681D01*
X60870Y662923D01*
Y670508D01*
D02*
G37*
G36*
X91271Y664758D02*
X87479Y664259D01*
X83945Y662795D01*
X80911Y660467D01*
X78583Y657433D01*
X77119Y653900D01*
X76620Y650108D01*
X77119Y646316D01*
X78583Y642783D01*
X80911Y639749D01*
X83945Y637420D01*
X87479Y635957D01*
X91271Y635458D01*
X95062Y635957D01*
X98596Y637420D01*
X101630Y639749D01*
X103958Y642783D01*
X105422Y646316D01*
X105921Y650108D01*
X105422Y653900D01*
X103958Y657433D01*
X101630Y660467D01*
X98596Y662795D01*
X95062Y664259D01*
X91271Y664758D01*
D02*
G37*
G36*
X111671Y637293D02*
X109842Y636535D01*
X107014Y634365D01*
X104843Y631536D01*
X104086Y629708D01*
X111671D01*
Y637293D01*
D02*
G37*
G36*
X60870D02*
X59042Y636535D01*
X56214Y634365D01*
X54043Y631536D01*
X53286Y629708D01*
X60870D01*
Y637293D01*
D02*
G37*
G36*
X121671D02*
Y629708D01*
X129255D01*
X128498Y631536D01*
X126327Y634365D01*
X123499Y636535D01*
X121671Y637293D01*
D02*
G37*
G36*
X70870D02*
Y629708D01*
X78455D01*
X77698Y631536D01*
X75527Y634365D01*
X72699Y636535D01*
X70870Y637293D01*
D02*
G37*
%LPD*%
D38*
X1500000Y-100000D02*
Y1220000D01*
X0Y-101000D02*
X1500000D01*
X0Y-100000D02*
Y1220000D01*
X1500000D01*
D42*
X418000Y287900D02*
D03*
D44*
X307550Y-50000D02*
D03*
X50000Y386600D02*
D03*
Y201400D02*
D03*
Y252200D02*
D03*
Y303000D02*
D03*
D48*
X65870Y624708D02*
D03*
Y675508D02*
D03*
X116671D02*
D03*
Y624708D02*
D03*
X116670Y-75400D02*
D03*
X65870D02*
D03*
Y-24600D02*
D03*
X116670D02*
D03*
D55*
X471920Y459680D02*
D03*
X365100Y459780D02*
D03*
D58*
X149750Y521000D02*
D03*
X138750Y217250D02*
D03*
X139750Y155500D02*
D03*
X283250Y217250D02*
D03*
X256750Y-79500D02*
D03*
X331500Y970790D02*
D03*
X401000Y83750D02*
D03*
X494000Y-73250D02*
D03*
X1014000Y30250D02*
D03*
X283710Y286210D02*
D03*
X68750Y799500D02*
D03*
X232500Y386500D02*
D03*
X332000Y700000D02*
D03*
X233750Y859750D02*
D03*
X198000Y883000D02*
D03*
X230000Y765000D02*
D03*
X265000Y1000000D02*
D03*
X332500Y822500D02*
D03*
X307500Y1020000D02*
D03*
X596000Y485000D02*
D03*
X212500Y910000D02*
D03*
X130000Y942000D02*
D03*
X334000Y783000D02*
D03*
X55250Y894000D02*
D03*
X133750Y594000D02*
D03*
X235750Y287250D02*
D03*
X140500Y304500D02*
D03*
X110000Y132500D02*
D03*
X112000Y39000D02*
D03*
X645250Y589000D02*
D03*
X481250Y220750D02*
D03*
X384750Y189250D02*
D03*
X393500Y25250D02*
D03*
X342250Y13250D02*
D03*
X899000Y18250D02*
D03*
X1049250Y76750D02*
D03*
X1200450Y76550D02*
D03*
X1067250Y189250D02*
D03*
X1412500Y860000D02*
D03*
X1412250Y838750D02*
D03*
X401000Y880500D02*
D03*
X943000Y-25000D02*
D03*
X204000Y-68000D02*
D03*
X230000Y-69500D02*
D03*
X289250Y970000D02*
D03*
X392000Y858750D02*
D03*
X325750Y1075000D02*
D03*
D59*
X188000Y169000D02*
D03*
X334750Y117000D02*
D03*
X274000Y153750D02*
D03*
X276000Y40000D02*
D03*
D60*
X440000Y350000D02*
D03*
X460000Y880000D02*
D03*
M02*
