G04 Layer_Physical_Order=4*
G04 Layer_Color=16711680*
%FSLAX44Y44*%
%MOMM*%
G71*
G01*
G75*
%ADD12R,1.2700X1.2700*%
%ADD13R,1.2700X1.2700*%
%ADD17R,1.6256X2.5400*%
%ADD18R,1.0000X1.4000*%
%ADD19R,2.5400X1.6256*%
%ADD29R,0.9000X0.7000*%
%ADD30R,3.4000X1.3500*%
%ADD33C,0.5000*%
%ADD34C,1.0000*%
%ADD35C,3.0000*%
%ADD36C,0.3000*%
%ADD37C,2.0000*%
%ADD38C,0.2540*%
%ADD39R,2.1000X2.1000*%
%ADD40C,2.1000*%
%ADD41C,1.6000*%
%ADD42R,1.6000X1.6000*%
%ADD43R,1.5748X1.5748*%
%ADD44C,1.5748*%
%ADD45R,1.5748X1.5748*%
%ADD46C,1.3970*%
%ADD47C,2.4994*%
%ADD48C,2.2000*%
%ADD49C,3.0000*%
%ADD50C,2.0000*%
%ADD51O,3.0000X5.0000*%
%ADD52C,6.9994*%
%ADD53C,1.9050*%
%ADD54O,3.9996X2.4000*%
%ADD55C,1.2446*%
%ADD56R,1.2446X1.2446*%
%ADD57R,1.6000X1.6000*%
%ADD58C,1.2700*%
%ADD59C,0.8000*%
%ADD61R,1.4000X1.0000*%
%ADD62O,1.9000X0.6000*%
%ADD63R,1.0000X0.6000*%
%ADD64R,1.4000X2.4000*%
G36*
X785000Y1000D02*
X665270Y1000D01*
X653667Y-36333D01*
X645000Y-45000D01*
X615000Y-45000D01*
X607500Y-37500D01*
Y15000D01*
X607500D01*
Y105000D01*
X779000Y105000D01*
X785000D01*
Y1000D01*
D02*
G37*
G36*
X938500Y124750D02*
X936500Y126750D01*
X560000D01*
Y107500D01*
Y34500D01*
X590750Y3750D01*
Y-38750D01*
X582000Y-47500D01*
X483000D01*
X435000Y500D01*
X435000Y113720D01*
X501709Y113720D01*
Y127500D01*
X509500Y128577D01*
Y146250D01*
X510000Y146750D01*
X938500D01*
Y124750D01*
D02*
G37*
G36*
X892500Y271000D02*
X927250Y236250D01*
X922250Y231250D01*
X518250Y231250D01*
X518000Y231000D01*
X517250D01*
X511625Y236625D01*
X548000Y273000D01*
X892500Y273000D01*
Y271000D01*
D02*
G37*
G36*
X1293250Y1120750D02*
X1293250Y662000D01*
X1141250Y662000D01*
X938750Y459500D01*
Y252250D01*
X914912D01*
X905756Y261407D01*
X905806Y262676D01*
X906625Y263375D01*
X910462Y267868D01*
X913549Y272906D01*
X915810Y278365D01*
X916203Y280000D01*
X843797D01*
X844190Y278365D01*
X844902Y276646D01*
X844196Y275590D01*
X775804Y275590D01*
X775098Y276646D01*
X775810Y278365D01*
X776203Y280000D01*
X703797D01*
X704190Y278365D01*
X704902Y276646D01*
X704196Y275590D01*
X685750D01*
X685750Y367250D01*
X791750Y473250D01*
Y1120750D01*
X1293250Y1120750D01*
D02*
G37*
G36*
X1478627Y78800D02*
X1475627Y77477D01*
X1472132Y80462D01*
X1467094Y83549D01*
X1465000Y84417D01*
Y50000D01*
Y15583D01*
X1467094Y16451D01*
X1472132Y19538D01*
X1475627Y22523D01*
X1478627Y21200D01*
Y-79627D01*
X1244000D01*
Y172426D01*
X1245188Y173154D01*
X1248779Y176221D01*
X1251846Y179812D01*
X1254313Y183838D01*
X1256120Y188201D01*
X1257222Y192792D01*
X1257593Y197500D01*
X1257222Y202208D01*
X1256120Y206799D01*
X1254313Y211162D01*
X1251846Y215188D01*
X1248779Y218779D01*
X1245188Y221846D01*
X1244000Y222574D01*
Y419926D01*
X1245188Y420654D01*
X1248779Y423721D01*
X1251846Y427312D01*
X1254313Y431338D01*
X1256120Y435701D01*
X1257222Y440292D01*
X1257593Y445000D01*
X1257222Y449708D01*
X1256120Y454299D01*
X1254313Y458662D01*
X1251846Y462688D01*
X1248779Y466279D01*
X1245188Y469346D01*
X1244000Y470074D01*
Y619000D01*
X1297860Y619962D01*
X1300000Y617859D01*
Y536447D01*
X1297000Y535348D01*
X1292877Y537551D01*
X1287790Y539095D01*
X1282500Y539616D01*
X1277210Y539095D01*
X1272123Y537551D01*
X1267435Y535046D01*
X1263326Y531674D01*
X1259954Y527565D01*
X1257449Y522877D01*
X1255905Y517790D01*
X1255384Y512500D01*
X1255905Y507210D01*
X1257449Y502123D01*
X1259954Y497435D01*
X1263326Y493326D01*
X1267435Y489954D01*
X1272123Y487449D01*
X1277210Y485905D01*
X1282500Y485384D01*
X1287790Y485905D01*
X1292877Y487449D01*
X1297565Y489954D01*
X1301674Y493326D01*
X1305046Y497435D01*
X1306417Y500000D01*
X1313189D01*
X1315175Y497675D01*
X1319364Y494097D01*
X1324061Y491218D01*
X1329151Y489110D01*
X1334508Y487824D01*
X1340000Y487392D01*
X1345492Y487824D01*
X1350849Y489110D01*
X1355939Y491218D01*
X1360636Y494097D01*
X1364825Y497675D01*
X1366811Y500000D01*
X1373857D01*
X1380000Y501472D01*
Y551000D01*
Y620000D01*
X1478627D01*
Y78800D01*
D02*
G37*
%LPC*%
G36*
X890000Y326203D02*
Y300000D01*
X916203D01*
X915810Y301635D01*
X913549Y307094D01*
X910462Y312132D01*
X906625Y316625D01*
X902132Y320462D01*
X897094Y323549D01*
X891635Y325810D01*
X890000Y326203D01*
D02*
G37*
G36*
X950000Y592590D02*
X890000D01*
X889009Y592393D01*
X888169Y591831D01*
X887607Y590991D01*
X887410Y590000D01*
Y570000D01*
X887607Y569009D01*
X888169Y568169D01*
X889009Y567607D01*
X890000Y567410D01*
X950000D01*
X950991Y567607D01*
X951831Y568169D01*
X952393Y569009D01*
X952590Y570000D01*
Y590000D01*
X952393Y590991D01*
X951831Y591831D01*
X950991Y592393D01*
X950000Y592590D01*
D02*
G37*
G36*
X870000Y326203D02*
X868365Y325810D01*
X862906Y323549D01*
X857868Y320462D01*
X853375Y316625D01*
X849538Y312132D01*
X846451Y307094D01*
X844190Y301635D01*
X843797Y300000D01*
X870000D01*
Y326203D01*
D02*
G37*
G36*
X730000D02*
X728365Y325810D01*
X722906Y323549D01*
X717868Y320462D01*
X713375Y316625D01*
X709538Y312132D01*
X706451Y307094D01*
X704190Y301635D01*
X703797Y300000D01*
X730000D01*
Y326203D01*
D02*
G37*
G36*
X750000D02*
Y300000D01*
X776203D01*
X775810Y301635D01*
X773549Y307094D01*
X770462Y312132D01*
X766625Y316625D01*
X762132Y320462D01*
X757094Y323549D01*
X751635Y325810D01*
X750000Y326203D01*
D02*
G37*
G36*
X1323000Y21096D02*
X1318136Y20713D01*
X1313391Y19574D01*
X1308883Y17707D01*
X1304722Y15157D01*
X1301012Y11988D01*
X1297843Y8278D01*
X1295293Y4117D01*
X1293426Y-391D01*
X1292287Y-5135D01*
X1291904Y-10000D01*
X1292287Y-14864D01*
X1293426Y-19609D01*
X1295293Y-24117D01*
X1297843Y-28278D01*
X1301012Y-31988D01*
X1304722Y-35157D01*
X1308883Y-37707D01*
X1313391Y-39574D01*
X1318136Y-40713D01*
X1323000Y-41096D01*
X1327865Y-40713D01*
X1332609Y-39574D01*
X1337117Y-37707D01*
X1341278Y-35157D01*
X1344988Y-31988D01*
X1348157Y-28278D01*
X1350707Y-24117D01*
X1352574Y-19609D01*
X1353713Y-14864D01*
X1354096Y-10000D01*
X1353713Y-5135D01*
X1352574Y-391D01*
X1350707Y4117D01*
X1348157Y8278D01*
X1344988Y11988D01*
X1341278Y15157D01*
X1337117Y17707D01*
X1332609Y19574D01*
X1327865Y20713D01*
X1323000Y21096D01*
D02*
G37*
G36*
X1435000Y35000D02*
X1415583D01*
X1416451Y32906D01*
X1419538Y27868D01*
X1423375Y23375D01*
X1427868Y19538D01*
X1432906Y16451D01*
X1435000Y15583D01*
Y35000D01*
D02*
G37*
G36*
Y84417D02*
X1432906Y83549D01*
X1427868Y80462D01*
X1423375Y76625D01*
X1419538Y72132D01*
X1416451Y67094D01*
X1415583Y65000D01*
X1435000D01*
Y84417D01*
D02*
G37*
G36*
X1365000Y205108D02*
X1359508Y204676D01*
X1354151Y203390D01*
X1349061Y201282D01*
X1344364Y198403D01*
X1342254Y196601D01*
X1340000Y194953D01*
X1337746Y196601D01*
X1335636Y198403D01*
X1330939Y201282D01*
X1325849Y203390D01*
X1320492Y204676D01*
X1315000Y205108D01*
X1309508Y204676D01*
X1304151Y203390D01*
X1299061Y201282D01*
X1294364Y198403D01*
X1290175Y194825D01*
X1286597Y190636D01*
X1283718Y185939D01*
X1281610Y180849D01*
X1280324Y175492D01*
X1279892Y170000D01*
X1280324Y164508D01*
X1281610Y159151D01*
X1283718Y154061D01*
X1286597Y149364D01*
X1290175Y145175D01*
X1294364Y141597D01*
X1299061Y138718D01*
X1304151Y136610D01*
X1306312Y136091D01*
X1307674Y133418D01*
X1306610Y130849D01*
X1305324Y125492D01*
X1304892Y120000D01*
X1305324Y114508D01*
X1306610Y109151D01*
X1308718Y104061D01*
X1311597Y99364D01*
X1315175Y95175D01*
X1319364Y91597D01*
X1324061Y88718D01*
X1329151Y86610D01*
X1334508Y85324D01*
X1340000Y84892D01*
X1345492Y85324D01*
X1350849Y86610D01*
X1355939Y88718D01*
X1360636Y91597D01*
X1364825Y95175D01*
X1368403Y99364D01*
X1371282Y104061D01*
X1373390Y109151D01*
X1374676Y114508D01*
X1375108Y120000D01*
X1374676Y125492D01*
X1373390Y130849D01*
X1372326Y133418D01*
X1373688Y136091D01*
X1375849Y136610D01*
X1380939Y138718D01*
X1385636Y141597D01*
X1389825Y145175D01*
X1393403Y149364D01*
X1396282Y154061D01*
X1398390Y159151D01*
X1399676Y164508D01*
X1400108Y170000D01*
X1399676Y175492D01*
X1398390Y180849D01*
X1396282Y185939D01*
X1393403Y190636D01*
X1389825Y194825D01*
X1385636Y198403D01*
X1380939Y201282D01*
X1375849Y203390D01*
X1370492Y204676D01*
X1365000Y205108D01*
D02*
G37*
%LPD*%
D12*
X922000Y231000D02*
D03*
Y209664D02*
D03*
X877111Y231000D02*
D03*
Y209664D02*
D03*
X832222Y231000D02*
D03*
Y209664D02*
D03*
X787333Y231000D02*
D03*
Y209664D02*
D03*
X742444Y231000D02*
D03*
Y209664D02*
D03*
X697556Y231000D02*
D03*
Y209664D02*
D03*
X652667Y231000D02*
D03*
Y209664D02*
D03*
X607778Y231000D02*
D03*
Y209664D02*
D03*
X562889Y231000D02*
D03*
Y209664D02*
D03*
X307250Y-3250D02*
D03*
Y-24586D02*
D03*
X376750Y101250D02*
D03*
Y122586D02*
D03*
X481000Y202336D02*
D03*
Y181000D02*
D03*
X352750Y115000D02*
D03*
Y136336D02*
D03*
X518000Y231000D02*
D03*
Y209664D02*
D03*
X310000Y817500D02*
D03*
Y838836D02*
D03*
X307500Y930000D02*
D03*
Y951336D02*
D03*
X272500Y932729D02*
D03*
Y954064D02*
D03*
X482000Y136293D02*
D03*
Y157629D02*
D03*
X399883Y121994D02*
D03*
Y100658D02*
D03*
X423000D02*
D03*
Y121994D02*
D03*
X79750Y343336D02*
D03*
Y322000D02*
D03*
D13*
X332750Y-74250D02*
D03*
X311414D02*
D03*
X381500Y-73750D02*
D03*
X360164D02*
D03*
X456000Y-76000D02*
D03*
X477336D02*
D03*
X420000Y206000D02*
D03*
X441336D02*
D03*
X351884Y837500D02*
D03*
X373219D02*
D03*
X411000Y-76000D02*
D03*
X432336D02*
D03*
Y-51000D02*
D03*
X411000D02*
D03*
X378500Y1093500D02*
D03*
X357164D02*
D03*
X361500Y666250D02*
D03*
X382836D02*
D03*
D17*
X350710Y700000D02*
D03*
X385000D02*
D03*
X350250Y1060000D02*
D03*
X384540D02*
D03*
X385000Y968000D02*
D03*
X350710D02*
D03*
X246790Y932500D02*
D03*
X212500D02*
D03*
X281790Y837500D02*
D03*
X247500D02*
D03*
X387290Y792000D02*
D03*
X353000D02*
D03*
D18*
X373250Y-2750D02*
D03*
X382750Y-24750D02*
D03*
X392250Y-2750D02*
D03*
X330750D02*
D03*
X340250Y-24750D02*
D03*
X349750Y-2750D02*
D03*
D19*
X162000Y321000D02*
D03*
Y286710D02*
D03*
X255750Y189000D02*
D03*
Y154710D02*
D03*
X213750Y188500D02*
D03*
Y154210D02*
D03*
X162000Y189500D02*
D03*
Y155210D02*
D03*
X257000Y252000D02*
D03*
Y217710D02*
D03*
X216750Y252000D02*
D03*
Y217710D02*
D03*
X159000Y252000D02*
D03*
Y217710D02*
D03*
X258500Y320500D02*
D03*
Y286210D02*
D03*
X212500Y286710D02*
D03*
Y321000D02*
D03*
D29*
X549500Y604500D02*
D03*
Y617500D02*
D03*
X568500Y611000D02*
D03*
X645500Y615500D02*
D03*
Y602500D02*
D03*
X626500Y609000D02*
D03*
X547500Y496000D02*
D03*
X528500Y502500D02*
D03*
Y489500D02*
D03*
D30*
X922000Y181520D02*
D03*
Y122020D02*
D03*
X876981Y181520D02*
D03*
Y122020D02*
D03*
X831962Y181520D02*
D03*
Y122020D02*
D03*
X786943Y181520D02*
D03*
Y122020D02*
D03*
X741924Y181520D02*
D03*
Y122020D02*
D03*
X696906Y181520D02*
D03*
Y122020D02*
D03*
X651887Y181520D02*
D03*
Y122020D02*
D03*
X606868Y181520D02*
D03*
Y122020D02*
D03*
X561849Y181520D02*
D03*
Y122020D02*
D03*
X515750Y182000D02*
D03*
Y122500D02*
D03*
D33*
X392750Y-2250D02*
Y25750D01*
X392250Y-2750D02*
X392750Y-2250D01*
X407500Y-29000D02*
X420250D01*
X432336Y-41086D01*
Y-51000D02*
Y-41086D01*
X373250Y33750D02*
X386250Y46750D01*
X373250Y-2750D02*
Y33750D01*
X298500Y13750D02*
X314250D01*
X292500Y-88500D02*
X1068500D01*
X313750Y120750D02*
X332750Y139750D01*
X313750Y14250D02*
Y120750D01*
X332750Y139750D02*
Y347500D01*
X331500Y970790D02*
X343210D01*
X327250Y1072750D02*
X331750Y1068250D01*
X346000D01*
X365000Y257500D02*
X397500Y225000D01*
X365000Y257500D02*
Y361250D01*
X95750Y90000D02*
X149250D01*
X28000Y157750D02*
X95750Y90000D01*
X233750Y859750D02*
X247500Y846000D01*
Y837500D02*
Y846000D01*
X227750Y621250D02*
Y721750D01*
X209390Y740110D02*
X227750Y721750D01*
X465350Y171350D02*
X467000Y173000D01*
X451500Y171350D02*
X465350D01*
X467000Y173000D02*
Y195000D01*
X377342Y121994D02*
X399883D01*
X332000Y394250D02*
X365000Y361250D01*
X322000Y358250D02*
X332750Y347500D01*
X355000Y140000D02*
Y161500D01*
X354000Y106000D02*
Y111664D01*
Y106000D02*
X362500Y97500D01*
X477336Y-76000D02*
X492000D01*
X411000D02*
Y-51000D01*
X432336Y-76000D02*
X456000D01*
X332000Y700000D02*
X350710D01*
X341750Y11500D02*
X349750Y3500D01*
Y-2750D02*
Y3500D01*
X307250Y-51150D02*
Y-24586D01*
X332750Y-76250D02*
X360250D01*
X314250Y13750D02*
X330750Y-2750D01*
X1070000Y-87500D02*
X1147500Y-10000D01*
X362499Y12750D02*
Y97499D01*
X362500Y97500D01*
X358150Y-51250D02*
Y-42650D01*
X340250Y-24750D02*
X358150Y-42650D01*
X386800Y-51000D02*
X411000D01*
X382750Y-50450D02*
X383550Y-51250D01*
X382750Y-50450D02*
Y-24750D01*
X358150Y-51250D02*
X360250Y-53350D01*
Y-76250D02*
Y-53350D01*
X419675Y173675D02*
X422000Y176000D01*
X417350Y171350D02*
X419675Y173675D01*
X423000Y121994D02*
X424000Y122993D01*
Y169350D01*
X419675Y173675D02*
X424000Y169350D01*
X399883Y121994D02*
X423000D01*
X431258Y92400D02*
X458000D01*
X423000Y100658D02*
X431258Y92400D01*
X399883Y87116D02*
X400000Y87000D01*
X399883Y87116D02*
Y100658D01*
X481000Y202336D02*
Y218000D01*
X480979Y158650D02*
X481000Y158671D01*
Y181000D01*
X451500Y158650D02*
X480979D01*
X456000Y206000D02*
X467000Y195000D01*
X441336Y206000D02*
X456000D01*
X404500Y171350D02*
X417350D01*
X422000Y176000D02*
Y204000D01*
X420000Y206000D02*
X422000Y204000D01*
X404150Y159000D02*
X404500Y158650D01*
X365500Y161500D02*
X368000Y159000D01*
X355000Y161500D02*
X365500D01*
X403550Y185000D02*
X404500Y184050D01*
X362500Y180500D02*
X367000Y185000D01*
X355000Y180500D02*
X362500D01*
X607778Y231000D02*
X652667D01*
X877111D02*
X922000D01*
X832222D02*
X877111D01*
X787333D02*
X832222D01*
X742444D02*
X787333D01*
X697556D02*
X742444D01*
X652667D02*
X697556D01*
X562889D02*
X607778D01*
X518000D02*
X562889D01*
X212500Y910000D02*
Y932500D01*
X645500Y591500D02*
X646000Y591000D01*
X645500Y591500D02*
Y602500D01*
X549500Y617500D02*
X555000Y623000D01*
X638000D01*
X645500Y615500D01*
X516830Y181520D02*
X518000Y182690D01*
X310000Y817500D02*
X315000Y822500D01*
X332500D01*
X308664Y837500D02*
X310000Y838836D01*
X281790Y837500D02*
X308664D01*
X272271Y932500D02*
X272500Y932729D01*
X246790Y932500D02*
X272271D01*
X330000Y840000D02*
X349384D01*
X328836Y838836D02*
X330000Y840000D01*
X310000Y838836D02*
X328836D01*
X272500Y954064D02*
X285935D01*
X272500Y932729D02*
X277729Y927500D01*
X290000D01*
X305000D02*
X307500Y930000D01*
X290000Y927500D02*
X305000D01*
X349384Y840000D02*
X351884Y837500D01*
X384540Y1060000D02*
X410000D01*
X407500Y695000D02*
X410000Y697500D01*
X385000Y700000D02*
X407500D01*
X410000Y697500D01*
X387290Y792500D02*
X407500D01*
X410000Y790000D01*
X384000Y970000D02*
X410000D01*
X528500Y465460D02*
Y489500D01*
X522720Y459680D02*
X528500Y465460D01*
X541000Y502500D02*
X547500Y496000D01*
X528500Y502500D02*
X541000D01*
X528500D02*
Y553500D01*
X549500Y574500D02*
Y604500D01*
X528500Y553500D02*
X549500Y574500D01*
X326000Y727000D02*
X405000D01*
X404200Y726200D02*
X405000Y727000D01*
X404200Y726200D02*
X410000Y720400D01*
X344000Y783000D02*
X353000Y792000D01*
X334000Y783000D02*
X344000D01*
X383000Y969000D02*
X384000Y970000D01*
X28000Y445500D02*
X46750Y464250D01*
X28000Y157750D02*
Y445500D01*
X385750Y185000D02*
Y192500D01*
X367000Y185000D02*
X385750D01*
X403550D01*
X362250Y-31250D02*
Y18750D01*
Y-31250D02*
X370457Y-39457D01*
X379000Y140500D02*
Y159000D01*
X368000D02*
X404150D01*
X307500Y145000D02*
Y162000D01*
X320750Y175250D01*
Y209750D01*
X309750Y220750D02*
X320750Y209750D01*
X155000Y599000D02*
Y895000D01*
Y599000D02*
X309750Y444250D01*
Y220750D02*
Y444250D01*
X209390Y740110D02*
Y863390D01*
X218608Y872608D01*
Y890000D01*
X105000Y465500D02*
Y502500D01*
X46750Y464250D02*
X135250D01*
X174500Y425000D01*
X397500Y225000D02*
X425750D01*
X441336Y209414D01*
Y206000D02*
Y209414D01*
X278750Y-74750D02*
X292500Y-88500D01*
X278750Y-74750D02*
Y-6000D01*
X298500Y13750D01*
X291250Y-18000D02*
X304492Y-4758D01*
X307250D01*
X291250Y-59250D02*
Y-18000D01*
Y-59250D02*
X308250Y-76250D01*
X311414D01*
X288836Y970000D02*
X289250D01*
X288836D02*
X307500Y951336D01*
X227500Y787500D02*
X230750D01*
X265000Y753250D01*
Y633000D02*
Y753250D01*
X370219Y837500D02*
X373219D01*
X137500Y912500D02*
X155000Y895000D01*
X50000Y361200D02*
X61886D01*
X79750Y343336D01*
X50000Y303000D02*
X60750D01*
X79750Y322000D01*
X378500Y1093500D02*
X384540Y1087460D01*
Y1060000D02*
Y1087460D01*
X350250Y1086586D02*
X357164Y1093500D01*
X350250Y1060000D02*
Y1086586D01*
X361500Y666250D02*
Y674000D01*
X350710Y684790D02*
X361500Y674000D01*
X350710Y684790D02*
Y700000D01*
X382836Y666250D02*
Y697836D01*
D34*
X373219Y826720D02*
Y837500D01*
X365750Y819250D02*
X373219Y826720D01*
X356500Y819250D02*
X365750D01*
X257710Y153750D02*
X274000D01*
X257210Y153250D02*
X257710Y153750D01*
X255750Y154710D02*
X257210Y153250D01*
X159000Y252000D02*
X190000D01*
X127500Y320500D02*
X258500D01*
X105500Y298500D02*
X127500Y320500D01*
X106000Y227500D02*
X130500Y252000D01*
X901020Y122020D02*
X922000D01*
X899500Y120500D02*
X901020Y122020D01*
X899500Y71500D02*
Y120500D01*
Y71500D02*
X925000Y46000D01*
X375000Y101164D02*
X399377D01*
X257000Y217710D02*
X283460D01*
X137517Y217768D02*
X162000D01*
X162500Y286210D02*
X258500D01*
X283710D01*
X105000Y167750D02*
X126250Y189000D01*
X59000Y175000D02*
X76000D01*
X50000Y226800D02*
X79300D01*
X50000Y277600D02*
X77100D01*
X925000Y46000D02*
X941000D01*
X573600Y122020D02*
X606868D01*
X573600D02*
X576800Y118820D01*
X651887Y122020D02*
X696906D01*
X561849D02*
X573600D01*
X876981D02*
X922000D01*
X831962D02*
X876981D01*
X786943D02*
X831962D01*
X741924D02*
X786943D01*
X696906D02*
X741924D01*
X606868D02*
X651887D01*
X516830D02*
X561849D01*
X922000Y181520D02*
Y209664D01*
X877111Y181650D02*
Y209664D01*
X832222Y181780D02*
Y209664D01*
X787333Y181910D02*
Y209664D01*
X746136Y181520D02*
X746700Y182084D01*
X742444Y185211D02*
Y209664D01*
X700275Y181520D02*
X700980Y182225D01*
X697556Y184239D02*
Y209664D01*
X654413Y181520D02*
X655260Y182367D01*
X652667Y183267D02*
Y209664D01*
X608552Y181520D02*
X609540Y182508D01*
X607778Y182295D02*
Y209664D01*
X562889Y181718D02*
Y209664D01*
X518000Y182690D02*
Y209664D01*
X162500Y154710D02*
X255750D01*
X161710Y155500D02*
X162000Y155210D01*
X141250Y155500D02*
X161710D01*
X258500Y320500D02*
Y428250D01*
X105500Y280000D02*
X114250Y271250D01*
X124000D01*
X466750Y136000D02*
X481707D01*
X126250Y189000D02*
X255750D01*
X258250Y189500D02*
X302250D01*
X162540Y287250D02*
X235750D01*
X162000Y286710D02*
X162540Y287250D01*
X258500Y428250D02*
Y432500D01*
X217250Y473750D02*
X258500Y432500D01*
X130500Y252000D02*
X159000D01*
X190000D02*
X216750D01*
X257000D01*
X162057Y217710D02*
X257000D01*
X88250Y379500D02*
X105500Y362250D01*
Y280000D02*
Y362250D01*
D35*
X1125750Y285550D02*
X1260300D01*
D36*
X273000Y63000D02*
Y100250D01*
Y63000D02*
X285000D01*
X294000Y72000D01*
X168750Y51750D02*
Y89750D01*
X370457Y-65121D02*
Y-39457D01*
Y-65121D02*
X381586Y-76250D01*
X173000Y28000D02*
X173500Y28500D01*
X294000Y31750D02*
Y72000D01*
X290750Y28500D02*
X294000Y31750D01*
X173500Y28500D02*
X290750D01*
D37*
X188500Y250500D02*
X190000Y252000D01*
X188500Y241000D02*
Y250500D01*
X188000Y254000D02*
X190000Y252000D01*
X188000Y254000D02*
Y264250D01*
D38*
X1500000Y-100000D02*
Y1220000D01*
X0Y-101000D02*
X1500000D01*
X0Y-100000D02*
Y1220000D01*
X1500000D01*
D39*
X684400Y-23700D02*
D03*
D40*
X630000D02*
D03*
X575600D02*
D03*
D41*
X410000Y674600D02*
D03*
Y697500D02*
D03*
X418000Y242100D02*
D03*
Y265000D02*
D03*
X941000Y68900D02*
D03*
Y46000D02*
D03*
X744000Y-71900D02*
D03*
Y-49000D02*
D03*
X410000Y1082900D02*
D03*
Y1060000D02*
D03*
Y767100D02*
D03*
Y790000D02*
D03*
Y992900D02*
D03*
Y970000D02*
D03*
X867100Y-12600D02*
D03*
X890000D02*
D03*
D42*
X410000Y720400D02*
D03*
X418000Y287900D02*
D03*
X941000Y23100D02*
D03*
X744000Y-26100D02*
D03*
X410000Y1037100D02*
D03*
Y812900D02*
D03*
Y947100D02*
D03*
D43*
X383750Y-50000D02*
D03*
D44*
X358350D02*
D03*
X332950D02*
D03*
X307550D02*
D03*
X50000Y386600D02*
D03*
Y412000D02*
D03*
Y437400D02*
D03*
Y518000D02*
D03*
Y543400D02*
D03*
Y568800D02*
D03*
Y201400D02*
D03*
Y226800D02*
D03*
Y252200D02*
D03*
Y277600D02*
D03*
Y303000D02*
D03*
D45*
Y361200D02*
D03*
Y492600D02*
D03*
Y176000D02*
D03*
D46*
X1179000Y222250D02*
D03*
Y425450D02*
D03*
X1282500Y512500D02*
D03*
X1079300D02*
D03*
X1124750Y425250D02*
D03*
Y285550D02*
D03*
X459000Y1160000D02*
D03*
X713000D02*
D03*
X470000Y610000D02*
D03*
X724000D02*
D03*
D47*
X1373800Y-60800D02*
D03*
X1272200D02*
D03*
Y40800D02*
D03*
X1373800D02*
D03*
D48*
X1323000Y-10000D02*
D03*
X65870Y624708D02*
D03*
Y675508D02*
D03*
X116671D02*
D03*
Y624708D02*
D03*
X116670Y-75400D02*
D03*
X65870D02*
D03*
Y-24600D02*
D03*
X116670D02*
D03*
D49*
X1340000Y120000D02*
D03*
X1365000Y170000D02*
D03*
X1315000D02*
D03*
X1340000Y522500D02*
D03*
X1365000Y472500D02*
D03*
X1315000D02*
D03*
D50*
X1227500Y197500D02*
D03*
Y445000D02*
D03*
D51*
X1420000Y589000D02*
D03*
X1340000D02*
D03*
D52*
X1450000Y50000D02*
D03*
X880000Y290000D02*
D03*
X50000Y1170000D02*
D03*
X840000Y1180000D02*
D03*
X1450000Y1170000D02*
D03*
X570000Y290000D02*
D03*
X440000Y350000D02*
D03*
X650000Y530000D02*
D03*
X460000Y880000D02*
D03*
X50000Y50000D02*
D03*
X740000Y290000D02*
D03*
X1450000Y690000D02*
D03*
D53*
X91271Y650108D02*
D03*
X91270Y-50000D02*
D03*
D54*
X686000Y93800D02*
D03*
Y68400D02*
D03*
Y43000D02*
D03*
Y17600D02*
D03*
X762200D02*
D03*
Y43000D02*
D03*
Y68400D02*
D03*
Y93800D02*
D03*
X534200Y92400D02*
D03*
Y67000D02*
D03*
Y41600D02*
D03*
Y16200D02*
D03*
X458000D02*
D03*
Y41600D02*
D03*
Y67000D02*
D03*
Y92400D02*
D03*
D55*
X471920Y459680D02*
D03*
X497320Y485080D02*
D03*
X365100Y459780D02*
D03*
X390500Y485180D02*
D03*
D56*
X522720Y459680D02*
D03*
X415900Y459780D02*
D03*
D57*
X912900Y-12600D02*
D03*
D58*
X68000Y774000D02*
D03*
X356500Y819250D02*
D03*
X149750Y521000D02*
D03*
X138750Y217250D02*
D03*
X139750Y155500D02*
D03*
X283250Y217250D02*
D03*
X256750Y-79500D02*
D03*
X122750Y315000D02*
D03*
X169750Y925500D02*
D03*
X331500Y970790D02*
D03*
X364250Y86000D02*
D03*
X401000Y83750D02*
D03*
X494000Y-73250D02*
D03*
X1014000Y30250D02*
D03*
X283710Y286210D02*
D03*
X265000Y633000D02*
D03*
X227750Y621250D02*
D03*
X68750Y799500D02*
D03*
X232500Y386500D02*
D03*
X332000Y700000D02*
D03*
X233750Y859750D02*
D03*
X326000Y727000D02*
D03*
X198000Y883000D02*
D03*
X218608Y890000D02*
D03*
X230000Y765000D02*
D03*
X265000Y1000000D02*
D03*
X332500Y822500D02*
D03*
X307500Y1020000D02*
D03*
X330000Y840000D02*
D03*
X290000Y927500D02*
D03*
X330000Y675000D02*
D03*
X227500Y787500D02*
D03*
X596000Y485000D02*
D03*
X111000Y778000D02*
D03*
X212500Y910000D02*
D03*
X130000Y942000D02*
D03*
X334000Y783000D02*
D03*
X124000Y271250D02*
D03*
X376750Y884000D02*
D03*
X55250Y894000D02*
D03*
X133750Y594000D02*
D03*
X105000Y502500D02*
D03*
X88250Y379500D02*
D03*
X235750Y287250D02*
D03*
X140500Y304500D02*
D03*
X110000Y132500D02*
D03*
X152250Y89750D02*
D03*
X112000Y39000D02*
D03*
X331500Y394250D02*
D03*
X322000Y358250D02*
D03*
X645250Y589000D02*
D03*
X481250Y220750D02*
D03*
X384750Y189250D02*
D03*
X380500Y140750D02*
D03*
X386500Y47000D02*
D03*
X393500Y25250D02*
D03*
X342250Y13250D02*
D03*
X408250Y-29250D02*
D03*
X899000Y18250D02*
D03*
X1043250Y13500D02*
D03*
X1049250Y76750D02*
D03*
X1147500Y-10000D02*
D03*
X1200450Y76550D02*
D03*
X1129750Y147500D02*
D03*
X1067250Y189250D02*
D03*
X1412500Y860000D02*
D03*
X1412250Y838750D02*
D03*
X174750Y423250D02*
D03*
X258500Y428250D02*
D03*
X216250Y472750D02*
D03*
X401000Y880500D02*
D03*
X331000Y1015000D02*
D03*
X270750Y15750D02*
D03*
X943000Y-25000D02*
D03*
X188500Y241000D02*
D03*
X188000Y264250D02*
D03*
X285250Y190000D02*
D03*
X302250Y189500D02*
D03*
X204000Y-68000D02*
D03*
X230000Y-69500D02*
D03*
X289250Y970000D02*
D03*
X351500Y872750D02*
D03*
X392000Y858750D02*
D03*
X137500Y912500D02*
D03*
X325750Y1075000D02*
D03*
D59*
X188000Y169000D02*
D03*
X288500Y953000D02*
D03*
X334750Y117000D02*
D03*
X274000Y153750D02*
D03*
X465000Y171000D02*
D03*
X1147500Y-87500D02*
D03*
X307500Y145000D02*
D03*
X466750Y136000D02*
D03*
X294000Y72000D02*
D03*
X273000Y63000D02*
D03*
X168750Y89750D02*
D03*
X276000Y40000D02*
D03*
X290750Y28500D02*
D03*
X168750Y51750D02*
D03*
X273250Y100500D02*
D03*
X173000Y28000D02*
D03*
D61*
X105500Y280000D02*
D03*
X79500D02*
D03*
X106000Y174750D02*
D03*
X80000D02*
D03*
X106000Y227500D02*
D03*
X80000D02*
D03*
D62*
X451500Y184050D02*
D03*
Y171350D02*
D03*
Y158650D02*
D03*
Y145950D02*
D03*
X404500Y184050D02*
D03*
Y171350D02*
D03*
Y158650D02*
D03*
Y145950D02*
D03*
D63*
X379000Y171000D02*
D03*
X355000Y180500D02*
D03*
Y161500D02*
D03*
D64*
X79500Y280000D02*
D03*
X105500D02*
D03*
X79989Y174750D02*
D03*
X105989D02*
D03*
X80000Y227500D02*
D03*
X106000D02*
D03*
M02*
