G04 Layer_Color=16711935*
%FSLAX44Y44*%
%MOMM*%
G71*
G01*
G75*
%ADD61R,1.4000X1.0000*%
%ADD74R,1.4732X1.4732*%
%ADD75R,1.4732X1.4732*%
%ADD79R,1.8288X2.7432*%
%ADD80R,1.2032X1.6032*%
%ADD81R,2.7432X1.8288*%
%ADD91R,1.1032X0.9032*%
%ADD92R,3.6032X1.5532*%
%ADD95R,2.3032X2.3032*%
%ADD96C,2.3032*%
%ADD97C,1.8032*%
%ADD98R,1.8032X1.8032*%
%ADD99R,1.7780X1.7780*%
%ADD100C,1.7780*%
%ADD101R,1.7780X1.7780*%
%ADD102C,1.6002*%
%ADD103C,2.7026*%
%ADD104C,2.4032*%
%ADD105C,3.2032*%
%ADD106C,2.2032*%
%ADD107O,3.2032X5.2032*%
%ADD108C,7.2026*%
%ADD109C,2.1082*%
%ADD110O,4.2028X2.6032*%
%ADD111C,1.4478*%
%ADD112R,1.4478X1.4478*%
%ADD113R,1.8032X1.8032*%
%ADD114C,1.4732*%
%ADD115C,1.0032*%
%ADD116O,2.1032X0.8032*%
%ADD117R,1.2032X0.8032*%
D61*
X105500Y280000D02*
D03*
X79500D02*
D03*
X106000Y174750D02*
D03*
X80000D02*
D03*
X106000Y227500D02*
D03*
X80000D02*
D03*
D74*
X922000Y231000D02*
D03*
Y209664D02*
D03*
X877111Y231000D02*
D03*
Y209664D02*
D03*
X832222Y231000D02*
D03*
Y209664D02*
D03*
X787333Y231000D02*
D03*
Y209664D02*
D03*
X742444Y231000D02*
D03*
Y209664D02*
D03*
X697556Y231000D02*
D03*
Y209664D02*
D03*
X652667Y231000D02*
D03*
Y209664D02*
D03*
X607778Y231000D02*
D03*
Y209664D02*
D03*
X562889Y231000D02*
D03*
Y209664D02*
D03*
X307250Y-3250D02*
D03*
Y-24586D02*
D03*
X376750Y101250D02*
D03*
Y122586D02*
D03*
X481000Y202336D02*
D03*
Y181000D02*
D03*
X352750Y115000D02*
D03*
Y136336D02*
D03*
X518000Y231000D02*
D03*
Y209664D02*
D03*
X310000Y817500D02*
D03*
Y838836D02*
D03*
X307500Y930000D02*
D03*
Y951336D02*
D03*
X272500Y932729D02*
D03*
Y954064D02*
D03*
X482000Y136293D02*
D03*
Y157629D02*
D03*
X399883Y121994D02*
D03*
Y100658D02*
D03*
X423000D02*
D03*
Y121994D02*
D03*
X79750Y343336D02*
D03*
Y322000D02*
D03*
D75*
X332750Y-74250D02*
D03*
X311414D02*
D03*
X381500Y-73750D02*
D03*
X360164D02*
D03*
X456000Y-76000D02*
D03*
X477336D02*
D03*
X420000Y206000D02*
D03*
X441336D02*
D03*
X351884Y837500D02*
D03*
X373219D02*
D03*
X411000Y-76000D02*
D03*
X432336D02*
D03*
Y-51000D02*
D03*
X411000D02*
D03*
X378500Y1093500D02*
D03*
X357164D02*
D03*
X361500Y666250D02*
D03*
X382836D02*
D03*
D79*
X350710Y700000D02*
D03*
X385000D02*
D03*
X350250Y1060000D02*
D03*
X384540D02*
D03*
X385000Y968000D02*
D03*
X350710D02*
D03*
X246790Y932500D02*
D03*
X212500D02*
D03*
X281790Y837500D02*
D03*
X247500D02*
D03*
X387290Y792000D02*
D03*
X353000D02*
D03*
D80*
X373250Y-2750D02*
D03*
X382750Y-24750D02*
D03*
X392250Y-2750D02*
D03*
X330750D02*
D03*
X340250Y-24750D02*
D03*
X349750Y-2750D02*
D03*
D81*
X162000Y321000D02*
D03*
Y286710D02*
D03*
X255750Y189000D02*
D03*
Y154710D02*
D03*
X213750Y188500D02*
D03*
Y154210D02*
D03*
X162000Y189500D02*
D03*
Y155210D02*
D03*
X257000Y252000D02*
D03*
Y217710D02*
D03*
X216750Y252000D02*
D03*
Y217710D02*
D03*
X159000Y252000D02*
D03*
Y217710D02*
D03*
X258500Y320500D02*
D03*
Y286210D02*
D03*
X212500Y286710D02*
D03*
Y321000D02*
D03*
D91*
X549500Y604500D02*
D03*
Y617500D02*
D03*
X568500Y611000D02*
D03*
X645500Y615500D02*
D03*
Y602500D02*
D03*
X626500Y609000D02*
D03*
X547500Y496000D02*
D03*
X528500Y502500D02*
D03*
Y489500D02*
D03*
D92*
X922000Y181520D02*
D03*
Y122020D02*
D03*
X876981Y181520D02*
D03*
Y122020D02*
D03*
X831962Y181520D02*
D03*
Y122020D02*
D03*
X786943Y181520D02*
D03*
Y122020D02*
D03*
X741924Y181520D02*
D03*
Y122020D02*
D03*
X696906Y181520D02*
D03*
Y122020D02*
D03*
X651887Y181520D02*
D03*
Y122020D02*
D03*
X606868Y181520D02*
D03*
Y122020D02*
D03*
X561849Y181520D02*
D03*
Y122020D02*
D03*
X515750Y182000D02*
D03*
Y122500D02*
D03*
D95*
X684400Y-23700D02*
D03*
D96*
X630000D02*
D03*
X575600D02*
D03*
D97*
X410000Y674600D02*
D03*
Y697500D02*
D03*
X418000Y242100D02*
D03*
Y265000D02*
D03*
X941000Y68900D02*
D03*
Y46000D02*
D03*
X744000Y-71900D02*
D03*
Y-49000D02*
D03*
X410000Y1082900D02*
D03*
Y1060000D02*
D03*
Y767100D02*
D03*
Y790000D02*
D03*
Y992900D02*
D03*
Y970000D02*
D03*
X867100Y-12600D02*
D03*
X890000D02*
D03*
D98*
X410000Y720400D02*
D03*
X418000Y287900D02*
D03*
X941000Y23100D02*
D03*
X744000Y-26100D02*
D03*
X410000Y1037100D02*
D03*
Y812900D02*
D03*
Y947100D02*
D03*
D99*
X383750Y-50000D02*
D03*
D100*
X358350D02*
D03*
X332950D02*
D03*
X307550D02*
D03*
X50000Y386600D02*
D03*
Y412000D02*
D03*
Y437400D02*
D03*
Y518000D02*
D03*
Y543400D02*
D03*
Y568800D02*
D03*
Y201400D02*
D03*
Y226800D02*
D03*
Y252200D02*
D03*
Y277600D02*
D03*
Y303000D02*
D03*
D101*
Y361200D02*
D03*
Y492600D02*
D03*
Y176000D02*
D03*
D102*
X1179000Y222250D02*
D03*
Y425450D02*
D03*
X1282500Y512500D02*
D03*
X1079300D02*
D03*
X1124750Y425250D02*
D03*
Y285550D02*
D03*
X459000Y1160000D02*
D03*
X713000D02*
D03*
X470000Y610000D02*
D03*
X724000D02*
D03*
D103*
X1373800Y-60800D02*
D03*
X1272200D02*
D03*
Y40800D02*
D03*
X1373800D02*
D03*
D104*
X1323000Y-10000D02*
D03*
X65870Y624708D02*
D03*
Y675508D02*
D03*
X116671D02*
D03*
Y624708D02*
D03*
X116670Y-75400D02*
D03*
X65870D02*
D03*
Y-24600D02*
D03*
X116670D02*
D03*
D105*
X1340000Y120000D02*
D03*
X1365000Y170000D02*
D03*
X1315000D02*
D03*
X1340000Y522500D02*
D03*
X1365000Y472500D02*
D03*
X1315000D02*
D03*
D106*
X1227500Y197500D02*
D03*
Y445000D02*
D03*
D107*
X1420000Y589000D02*
D03*
X1340000D02*
D03*
D108*
X1450000Y50000D02*
D03*
X880000Y290000D02*
D03*
X50000Y1170000D02*
D03*
X840000Y1180000D02*
D03*
X1450000Y1170000D02*
D03*
X570000Y290000D02*
D03*
X440000Y350000D02*
D03*
X650000Y530000D02*
D03*
X460000Y880000D02*
D03*
X50000Y50000D02*
D03*
X740000Y290000D02*
D03*
X1450000Y690000D02*
D03*
D109*
X91271Y650108D02*
D03*
X91270Y-50000D02*
D03*
D110*
X686000Y93800D02*
D03*
Y68400D02*
D03*
Y43000D02*
D03*
Y17600D02*
D03*
X762200D02*
D03*
Y43000D02*
D03*
Y68400D02*
D03*
Y93800D02*
D03*
X534200Y92400D02*
D03*
Y67000D02*
D03*
Y41600D02*
D03*
Y16200D02*
D03*
X458000D02*
D03*
Y41600D02*
D03*
Y67000D02*
D03*
Y92400D02*
D03*
D111*
X471920Y459680D02*
D03*
X497320Y485080D02*
D03*
X365100Y459780D02*
D03*
X390500Y485180D02*
D03*
D112*
X522720Y459680D02*
D03*
X415900Y459780D02*
D03*
D113*
X912900Y-12600D02*
D03*
D114*
X68000Y774000D02*
D03*
X356500Y819250D02*
D03*
X149750Y521000D02*
D03*
X138750Y217250D02*
D03*
X139750Y155500D02*
D03*
X283250Y217250D02*
D03*
X256750Y-79500D02*
D03*
X122750Y315000D02*
D03*
X169750Y925500D02*
D03*
X331500Y970790D02*
D03*
X364250Y86000D02*
D03*
X401000Y83750D02*
D03*
X494000Y-73250D02*
D03*
X1014000Y30250D02*
D03*
X283710Y286210D02*
D03*
X265000Y633000D02*
D03*
X227750Y621250D02*
D03*
X68750Y799500D02*
D03*
X232500Y386500D02*
D03*
X332000Y700000D02*
D03*
X233750Y859750D02*
D03*
X326000Y727000D02*
D03*
X198000Y883000D02*
D03*
X218608Y890000D02*
D03*
X230000Y765000D02*
D03*
X265000Y1000000D02*
D03*
X332500Y822500D02*
D03*
X307500Y1020000D02*
D03*
X330000Y840000D02*
D03*
X290000Y927500D02*
D03*
X330000Y675000D02*
D03*
X227500Y787500D02*
D03*
X596000Y485000D02*
D03*
X111000Y778000D02*
D03*
X212500Y910000D02*
D03*
X130000Y942000D02*
D03*
X334000Y783000D02*
D03*
X124000Y271250D02*
D03*
X376750Y884000D02*
D03*
X55250Y894000D02*
D03*
X133750Y594000D02*
D03*
X105000Y502500D02*
D03*
X88250Y379500D02*
D03*
X235750Y287250D02*
D03*
X140500Y304500D02*
D03*
X110000Y132500D02*
D03*
X152250Y89750D02*
D03*
X112000Y39000D02*
D03*
X331500Y394250D02*
D03*
X322000Y358250D02*
D03*
X645250Y589000D02*
D03*
X481250Y220750D02*
D03*
X384750Y189250D02*
D03*
X380500Y140750D02*
D03*
X386500Y47000D02*
D03*
X393500Y25250D02*
D03*
X342250Y13250D02*
D03*
X408250Y-29250D02*
D03*
X899000Y18250D02*
D03*
X1043250Y13500D02*
D03*
X1049250Y76750D02*
D03*
X1147500Y-10000D02*
D03*
X1200450Y76550D02*
D03*
X1129750Y147500D02*
D03*
X1067250Y189250D02*
D03*
X1412500Y860000D02*
D03*
X1412250Y838750D02*
D03*
X174750Y423250D02*
D03*
X258500Y428250D02*
D03*
X216250Y472750D02*
D03*
X401000Y880500D02*
D03*
X331000Y1015000D02*
D03*
X270750Y15750D02*
D03*
X943000Y-25000D02*
D03*
X188500Y241000D02*
D03*
X188000Y264250D02*
D03*
X285250Y190000D02*
D03*
X302250Y189500D02*
D03*
X204000Y-68000D02*
D03*
X230000Y-69500D02*
D03*
X289250Y970000D02*
D03*
X351500Y872750D02*
D03*
X392000Y858750D02*
D03*
X137500Y912500D02*
D03*
X325750Y1075000D02*
D03*
D115*
X188000Y169000D02*
D03*
X288500Y953000D02*
D03*
X334750Y117000D02*
D03*
X274000Y153750D02*
D03*
X465000Y171000D02*
D03*
X1147500Y-87500D02*
D03*
X307500Y145000D02*
D03*
X466750Y136000D02*
D03*
X294000Y72000D02*
D03*
X273000Y63000D02*
D03*
X168750Y89750D02*
D03*
X276000Y40000D02*
D03*
X290750Y28500D02*
D03*
X168750Y51750D02*
D03*
X273250Y100500D02*
D03*
X173000Y28000D02*
D03*
D116*
X451500Y184050D02*
D03*
Y171350D02*
D03*
Y158650D02*
D03*
Y145950D02*
D03*
X404500Y184050D02*
D03*
Y171350D02*
D03*
Y158650D02*
D03*
Y145950D02*
D03*
D117*
X379000Y171000D02*
D03*
X355000Y180500D02*
D03*
Y161500D02*
D03*
M02*
