G04 Layer_Color=32896*
%FSLAX44Y44*%
%MOMM*%
G71*
G01*
G75*
%ADD38C,0.2540*%
%ADD65C,0.2500*%
%ADD68C,0.4000*%
%ADD69C,0.2000*%
%ADD70C,0.1524*%
D38*
X359250Y205246D02*
Y195249D01*
X357251Y193250D01*
X353252D01*
X351253Y195249D01*
Y205246D01*
X347254Y203247D02*
X345255Y205246D01*
X341256D01*
X339257Y203247D01*
Y201247D01*
X341256Y199248D01*
X339257Y197249D01*
Y195249D01*
X341256Y193250D01*
X345255D01*
X347254Y195249D01*
Y197249D01*
X345255Y199248D01*
X347254Y201247D01*
Y203247D01*
X345255Y199248D02*
X341256D01*
X405250Y215746D02*
Y205749D01*
X403251Y203750D01*
X399252D01*
X397253Y205749D01*
Y215746D01*
X393254D02*
X385257D01*
Y213747D01*
X393254Y205749D01*
Y203750D01*
X445750Y218750D02*
Y230746D01*
X439752D01*
X437753Y228747D01*
Y224748D01*
X439752Y222749D01*
X445750D01*
X441751D02*
X437753Y218750D01*
X433754Y220749D02*
X431754Y218750D01*
X427756D01*
X425756Y220749D01*
Y228747D01*
X427756Y230746D01*
X431754D01*
X433754Y228747D01*
Y226747D01*
X431754Y224748D01*
X425756D01*
X421758Y230746D02*
X413760D01*
Y228747D01*
X421758Y220749D01*
Y218750D01*
X395000Y42500D02*
X406996D01*
Y48498D01*
X404997Y50497D01*
X400998D01*
X398999Y48498D01*
Y42500D01*
Y46499D02*
X395000Y50497D01*
X396999Y54496D02*
X395000Y56495D01*
Y60494D01*
X396999Y62494D01*
X404997D01*
X406996Y60494D01*
Y56495D01*
X404997Y54496D01*
X402997D01*
X400998Y56495D01*
Y62494D01*
X395000Y74490D02*
Y66492D01*
X402997Y74490D01*
X404997D01*
X406996Y72490D01*
Y68492D01*
X404997Y66492D01*
X417250Y47000D02*
X429246D01*
Y52998D01*
X427247Y54997D01*
X423248D01*
X421249Y52998D01*
Y47000D01*
Y50999D02*
X417250Y54997D01*
X427247Y58996D02*
X429246Y60995D01*
Y64994D01*
X427247Y66993D01*
X425247D01*
X423248Y64994D01*
X421249Y66993D01*
X419249D01*
X417250Y64994D01*
Y60995D01*
X419249Y58996D01*
X421249D01*
X423248Y60995D01*
X425247Y58996D01*
X427247D01*
X423248Y60995D02*
Y64994D01*
X427247Y70992D02*
X429246Y72992D01*
Y76990D01*
X427247Y78990D01*
X425247D01*
X423248Y76990D01*
X421249Y78990D01*
X419249D01*
X417250Y76990D01*
Y72992D01*
X419249Y70992D01*
X421249D01*
X423248Y72992D01*
X425247Y70992D01*
X427247D01*
X423248Y72992D02*
Y76990D01*
X327250Y128750D02*
X339246D01*
Y134748D01*
X337247Y136747D01*
X333248D01*
X331249Y134748D01*
Y128750D01*
Y132749D02*
X327250Y136747D01*
X337247Y140746D02*
X339246Y142746D01*
Y146744D01*
X337247Y148743D01*
X335247D01*
X333248Y146744D01*
X331249Y148743D01*
X329249D01*
X327250Y146744D01*
Y142746D01*
X329249Y140746D01*
X331249D01*
X333248Y142746D01*
X335247Y140746D01*
X337247D01*
X333248Y142746D02*
Y146744D01*
X339246Y160740D02*
Y152742D01*
X333248D01*
X335247Y156741D01*
Y158740D01*
X333248Y160740D01*
X329249D01*
X327250Y158740D01*
Y154742D01*
X329249Y152742D01*
X495750Y111250D02*
Y123246D01*
X489752D01*
X487753Y121247D01*
Y117248D01*
X489752Y115249D01*
X495750D01*
X491751D02*
X487753Y111250D01*
X483754Y121247D02*
X481754Y123246D01*
X477756D01*
X475756Y121247D01*
Y119247D01*
X477756Y117248D01*
X475756Y115249D01*
Y113249D01*
X477756Y111250D01*
X481754D01*
X483754Y113249D01*
Y115249D01*
X481754Y117248D01*
X483754Y119247D01*
Y121247D01*
X481754Y117248D02*
X477756D01*
X463760Y111250D02*
X471758D01*
X463760Y119247D01*
Y121247D01*
X465760Y123246D01*
X469758D01*
X471758Y121247D01*
X301250Y11500D02*
X313246D01*
Y17498D01*
X311247Y19497D01*
X307248D01*
X305249Y17498D01*
Y11500D01*
Y15499D02*
X301250Y19497D01*
X313246Y23496D02*
Y31493D01*
X311247D01*
X303249Y23496D01*
X301250D01*
Y41490D02*
X313246D01*
X307248Y35492D01*
Y43490D01*
X534250Y-83000D02*
Y-71004D01*
X528252D01*
X526253Y-73003D01*
Y-77002D01*
X528252Y-79001D01*
X534250D01*
X530251D02*
X526253Y-83000D01*
X522254Y-71004D02*
X514257D01*
Y-73003D01*
X522254Y-81001D01*
Y-83000D01*
X510258Y-73003D02*
X508258Y-71004D01*
X504260D01*
X502260Y-73003D01*
Y-75003D01*
X504260Y-77002D01*
X506259D01*
X504260D01*
X502260Y-79001D01*
Y-81001D01*
X504260Y-83000D01*
X508258D01*
X510258Y-81001D01*
X336750Y-97250D02*
Y-85254D01*
X330752D01*
X328753Y-87253D01*
Y-91252D01*
X330752Y-93251D01*
X336750D01*
X332751D02*
X328753Y-97250D01*
X324754Y-85254D02*
X316756D01*
Y-87253D01*
X324754Y-95251D01*
Y-97250D01*
X312758D02*
X308759D01*
X310758D01*
Y-85254D01*
X312758Y-87253D01*
X437500Y-97750D02*
Y-85754D01*
X431502D01*
X429503Y-87753D01*
Y-91752D01*
X431502Y-93751D01*
X437500D01*
X433501D02*
X429503Y-97750D01*
X425504Y-85754D02*
X417506D01*
Y-87753D01*
X425504Y-95751D01*
Y-97750D01*
X413508Y-87753D02*
X411508Y-85754D01*
X407510D01*
X405510Y-87753D01*
Y-95751D01*
X407510Y-97750D01*
X411508D01*
X413508Y-95751D01*
Y-87753D01*
X386914Y-96000D02*
Y-84004D01*
X380916D01*
X378917Y-86003D01*
Y-90002D01*
X380916Y-92001D01*
X386914D01*
X382915D02*
X378917Y-96000D01*
X366920Y-84004D02*
X370919Y-86003D01*
X374918Y-90002D01*
Y-94001D01*
X372919Y-96000D01*
X368920D01*
X366920Y-94001D01*
Y-92001D01*
X368920Y-90002D01*
X374918D01*
X354924Y-84004D02*
X358923Y-86003D01*
X362922Y-90002D01*
Y-94001D01*
X360922Y-96000D01*
X356924D01*
X354924Y-94001D01*
Y-92001D01*
X356924Y-90002D01*
X362922D01*
X465250Y-36500D02*
Y-24504D01*
X459252D01*
X457253Y-26503D01*
Y-30502D01*
X459252Y-32501D01*
X465250D01*
X461251D02*
X457253Y-36500D01*
X445257Y-24504D02*
X449255Y-26503D01*
X453254Y-30502D01*
Y-34501D01*
X451255Y-36500D01*
X447256D01*
X445257Y-34501D01*
Y-32501D01*
X447256Y-30502D01*
X453254D01*
X433260Y-24504D02*
X441258D01*
Y-30502D01*
X437259Y-28503D01*
X435260D01*
X433260Y-30502D01*
Y-34501D01*
X435260Y-36500D01*
X439258D01*
X441258Y-34501D01*
X345753Y26749D02*
Y34747D01*
X347752Y36746D01*
X351751D01*
X353750Y34747D01*
Y26749D01*
X351751Y24750D01*
X347752D01*
X349751Y28749D02*
X345753Y24750D01*
X347752D02*
X345753Y26749D01*
X341754Y24750D02*
X337755D01*
X339754D01*
Y36746D01*
X341754Y34747D01*
X331757D02*
X329758Y36746D01*
X325759D01*
X323760Y34747D01*
Y32747D01*
X325759Y30748D01*
X327758D01*
X325759D01*
X323760Y28749D01*
Y26749D01*
X325759Y24750D01*
X329758D01*
X331757Y26749D01*
X390753Y9999D02*
Y17997D01*
X392752Y19996D01*
X396751D01*
X398750Y17997D01*
Y9999D01*
X396751Y8000D01*
X392752D01*
X394751Y11999D02*
X390753Y8000D01*
X392752D02*
X390753Y9999D01*
X386754Y8000D02*
X382755D01*
X384754D01*
Y19996D01*
X386754Y17997D01*
X368760Y8000D02*
X376757D01*
X368760Y15997D01*
Y17997D01*
X370759Y19996D01*
X374758D01*
X376757Y17997D01*
X100003Y261246D02*
X108000D01*
Y255248D01*
X104001D01*
X108000D01*
Y249250D01*
X96004Y261246D02*
Y249250D01*
X90006D01*
X88006Y251249D01*
Y253249D01*
X90006Y255248D01*
X96004D01*
X90006D01*
X88006Y257247D01*
Y259247D01*
X90006Y261246D01*
X96004D01*
X84008Y259247D02*
X82008Y261246D01*
X78010D01*
X76010Y259247D01*
Y257247D01*
X78010Y255248D01*
X80009D01*
X78010D01*
X76010Y253249D01*
Y251249D01*
X78010Y249250D01*
X82008D01*
X84008Y251249D01*
X379497Y57747D02*
X381496Y55748D01*
Y51749D01*
X379497Y49750D01*
X371499D01*
X369500Y51749D01*
Y55748D01*
X371499Y57747D01*
X381496Y69743D02*
X379497Y65745D01*
X375498Y61746D01*
X371499D01*
X369500Y63745D01*
Y67744D01*
X371499Y69743D01*
X373499D01*
X375498Y67744D01*
Y61746D01*
X369500Y81740D02*
Y73742D01*
X377497Y81740D01*
X379497D01*
X381496Y79740D01*
Y75742D01*
X379497Y73742D01*
X484247Y237997D02*
X486246Y235998D01*
Y231999D01*
X484247Y230000D01*
X476249D01*
X474250Y231999D01*
Y235998D01*
X476249Y237997D01*
X486246Y249993D02*
Y241996D01*
X480248D01*
X482247Y245995D01*
Y247994D01*
X480248Y249993D01*
X476249D01*
X474250Y247994D01*
Y243995D01*
X476249Y241996D01*
Y253992D02*
X474250Y255992D01*
Y259990D01*
X476249Y261990D01*
X484247D01*
X486246Y259990D01*
Y255992D01*
X484247Y253992D01*
X482247D01*
X480248Y255992D01*
Y261990D01*
X253247Y340003D02*
X251248Y338004D01*
X247249D01*
X245250Y340003D01*
Y348001D01*
X247249Y350000D01*
X251248D01*
X253247Y348001D01*
X265243Y338004D02*
X257246D01*
Y344002D01*
X261245Y342003D01*
X263244D01*
X265243Y344002D01*
Y348001D01*
X263244Y350000D01*
X259245D01*
X257246Y348001D01*
X269242Y340003D02*
X271242Y338004D01*
X275240D01*
X277240Y340003D01*
Y342003D01*
X275240Y344002D01*
X273241D01*
X275240D01*
X277240Y346001D01*
Y348001D01*
X275240Y350000D01*
X271242D01*
X269242Y348001D01*
X219503Y349247D02*
X221502Y351246D01*
X225501D01*
X227500Y349247D01*
Y341249D01*
X225501Y339250D01*
X221502D01*
X219503Y341249D01*
X207507Y351246D02*
X215504D01*
Y345248D01*
X211505Y347247D01*
X209506D01*
X207507Y345248D01*
Y341249D01*
X209506Y339250D01*
X213505D01*
X215504Y341249D01*
X195510Y339250D02*
X203508D01*
X195510Y347247D01*
Y349247D01*
X197510Y351246D01*
X201508D01*
X203508Y349247D01*
X166753Y347997D02*
X168752Y349996D01*
X172751D01*
X174750Y347997D01*
Y339999D01*
X172751Y338000D01*
X168752D01*
X166753Y339999D01*
X154756Y349996D02*
X162754D01*
Y343998D01*
X158755Y345997D01*
X156756D01*
X154756Y343998D01*
Y339999D01*
X156756Y338000D01*
X160755D01*
X162754Y339999D01*
X150758Y338000D02*
X146759D01*
X148758D01*
Y349996D01*
X150758Y347997D01*
X100503Y211246D02*
X108500D01*
Y205248D01*
X104501D01*
X108500D01*
Y199250D01*
X96504Y211246D02*
Y199250D01*
X90506D01*
X88506Y201249D01*
Y203249D01*
X90506Y205248D01*
X96504D01*
X90506D01*
X88506Y207247D01*
Y209247D01*
X90506Y211246D01*
X96504D01*
X76510Y199250D02*
X84508D01*
X76510Y207247D01*
Y209247D01*
X78510Y211246D01*
X82508D01*
X84508Y209247D01*
X98003Y158746D02*
X106000D01*
Y152748D01*
X102001D01*
X106000D01*
Y146750D01*
X94004Y158746D02*
Y146750D01*
X88006D01*
X86006Y148749D01*
Y150749D01*
X88006Y152748D01*
X94004D01*
X88006D01*
X86006Y154747D01*
Y156747D01*
X88006Y158746D01*
X94004D01*
X82008Y146750D02*
X78009D01*
X80008D01*
Y158746D01*
X82008Y156747D01*
X277503Y250253D02*
X275504Y252252D01*
Y256251D01*
X277503Y258250D01*
X285501D01*
X287500Y256251D01*
Y252252D01*
X285501Y250253D01*
X287500Y240256D02*
X275504D01*
X281502Y246254D01*
Y238256D01*
X285501Y234258D02*
X287500Y232258D01*
Y228260D01*
X285501Y226260D01*
X277503D01*
X275504Y228260D01*
Y232258D01*
X277503Y234258D01*
X279503D01*
X281502Y232258D01*
Y226260D01*
X187253Y235753D02*
X185254Y237752D01*
Y241751D01*
X187253Y243750D01*
X195251D01*
X197250Y241751D01*
Y237752D01*
X195251Y235753D01*
X197250Y225756D02*
X185254D01*
X191252Y231754D01*
Y223757D01*
X187253Y219758D02*
X185254Y217758D01*
Y213760D01*
X187253Y211760D01*
X189253D01*
X191252Y213760D01*
X193251Y211760D01*
X195251D01*
X197250Y213760D01*
Y217758D01*
X195251Y219758D01*
X193251D01*
X191252Y217758D01*
X189253Y219758D01*
X187253D01*
X191252Y217758D02*
Y213760D01*
X263253Y135247D02*
X265252Y137246D01*
X269251D01*
X271250Y135247D01*
Y127249D01*
X269251Y125250D01*
X265252D01*
X263253Y127249D01*
X253256Y125250D02*
Y137246D01*
X259254Y131248D01*
X251257D01*
X247258Y137246D02*
X239260D01*
Y135247D01*
X247258Y127249D01*
Y125250D01*
X219503Y135247D02*
X221502Y137246D01*
X225501D01*
X227500Y135247D01*
Y127249D01*
X225501Y125250D01*
X221502D01*
X219503Y127249D01*
X209506Y125250D02*
Y137246D01*
X215504Y131248D01*
X207507D01*
X195510Y137246D02*
X199509Y135247D01*
X203508Y131248D01*
Y127249D01*
X201508Y125250D01*
X197510D01*
X195510Y127249D01*
Y129249D01*
X197510Y131248D01*
X203508D01*
X169253Y136997D02*
X171252Y138996D01*
X175251D01*
X177250Y136997D01*
Y128999D01*
X175251Y127000D01*
X171252D01*
X169253Y128999D01*
X159256Y127000D02*
Y138996D01*
X165254Y132998D01*
X157256D01*
X145260Y138996D02*
X153258D01*
Y132998D01*
X149259Y134997D01*
X147260D01*
X145260Y132998D01*
Y128999D01*
X147260Y127000D01*
X151258D01*
X153258Y128999D01*
X277750Y917250D02*
X265754D01*
Y911252D01*
X267753Y909253D01*
X271752D01*
X273751Y911252D01*
Y917250D01*
Y913251D02*
X277750Y909253D01*
X265754Y897256D02*
Y905254D01*
X271752D01*
X269753Y901255D01*
Y899256D01*
X271752Y897256D01*
X275751D01*
X277750Y899256D01*
Y903254D01*
X275751Y905254D01*
X277750Y885260D02*
Y893258D01*
X269753Y885260D01*
X267753D01*
X265754Y887260D01*
Y891258D01*
X267753Y893258D01*
X379250Y850750D02*
Y862746D01*
X373252D01*
X371253Y860747D01*
Y856748D01*
X373252Y854749D01*
X379250D01*
X375251D02*
X371253Y850750D01*
X367254Y860747D02*
X365255Y862746D01*
X361256D01*
X359257Y860747D01*
Y858747D01*
X361256Y856748D01*
X363255D01*
X361256D01*
X359257Y854749D01*
Y852749D01*
X361256Y850750D01*
X365255D01*
X367254Y852749D01*
X355258Y860747D02*
X353258Y862746D01*
X349260D01*
X347260Y860747D01*
Y858747D01*
X349260Y856748D01*
X351259D01*
X349260D01*
X347260Y854749D01*
Y852749D01*
X349260Y850750D01*
X353258D01*
X355258Y852749D01*
X746500Y164750D02*
X734504D01*
Y158752D01*
X736503Y156753D01*
X740502D01*
X742501Y158752D01*
Y164750D01*
Y160751D02*
X746500Y156753D01*
Y152754D02*
Y148755D01*
Y150754D01*
X734504D01*
X736503Y152754D01*
X746500Y134760D02*
Y142757D01*
X738503Y134760D01*
X736503D01*
X734504Y136759D01*
Y140758D01*
X736503Y142757D01*
X807500Y101250D02*
Y113246D01*
X801502D01*
X799503Y111247D01*
Y107248D01*
X801502Y105249D01*
X807500D01*
X803501D02*
X799503Y101250D01*
X795504D02*
X791505D01*
X793504D01*
Y113246D01*
X795504Y111247D01*
X785507Y101250D02*
X781508D01*
X783508D01*
Y113246D01*
X785507Y111247D01*
X848500Y99500D02*
Y111496D01*
X842502D01*
X840503Y109497D01*
Y105498D01*
X842502Y103499D01*
X848500D01*
X844501D02*
X840503Y99500D01*
X836504D02*
X832505D01*
X834504D01*
Y111496D01*
X836504Y109497D01*
X826507D02*
X824508Y111496D01*
X820509D01*
X818510Y109497D01*
Y101499D01*
X820509Y99500D01*
X824508D01*
X826507Y101499D01*
Y109497D01*
X885750Y98750D02*
Y110746D01*
X879752D01*
X877753Y108747D01*
Y104748D01*
X879752Y102749D01*
X885750D01*
X881751D02*
X877753Y98750D01*
X873754Y100749D02*
X871755Y98750D01*
X867756D01*
X865757Y100749D01*
Y108747D01*
X867756Y110746D01*
X871755D01*
X873754Y108747D01*
Y106747D01*
X871755Y104748D01*
X865757D01*
X932000Y96500D02*
Y108496D01*
X926002D01*
X924003Y106497D01*
Y102498D01*
X926002Y100499D01*
X932000D01*
X928001D02*
X924003Y96500D01*
X920004Y106497D02*
X918005Y108496D01*
X914006D01*
X912007Y106497D01*
Y104497D01*
X914006Y102498D01*
X912007Y100499D01*
Y98499D01*
X914006Y96500D01*
X918005D01*
X920004Y98499D01*
Y100499D01*
X918005Y102498D01*
X920004Y104497D01*
Y106497D01*
X918005Y102498D02*
X914006D01*
X521000Y163000D02*
X509004D01*
Y157002D01*
X511003Y155003D01*
X515002D01*
X517001Y157002D01*
Y163000D01*
Y159001D02*
X521000Y155003D01*
X509004Y151004D02*
Y143006D01*
X511003D01*
X519001Y151004D01*
X521000D01*
X576750Y99500D02*
Y111496D01*
X570752D01*
X568753Y109497D01*
Y105498D01*
X570752Y103499D01*
X576750D01*
X572751D02*
X568753Y99500D01*
X556757Y111496D02*
X560755Y109497D01*
X564754Y105498D01*
Y101499D01*
X562755Y99500D01*
X558756D01*
X556757Y101499D01*
Y103499D01*
X558756Y105498D01*
X564754D01*
X617000Y98750D02*
Y110746D01*
X611002D01*
X609003Y108747D01*
Y104748D01*
X611002Y102749D01*
X617000D01*
X613001D02*
X609003Y98750D01*
X597006Y110746D02*
X605004D01*
Y104748D01*
X601005Y106747D01*
X599006D01*
X597006Y104748D01*
Y100749D01*
X599006Y98750D01*
X603004D01*
X605004Y100749D01*
X658750Y98250D02*
Y110246D01*
X652752D01*
X650753Y108247D01*
Y104248D01*
X652752Y102249D01*
X658750D01*
X654751D02*
X650753Y98250D01*
X640756D02*
Y110246D01*
X646754Y104248D01*
X638756D01*
X702750Y163000D02*
X690754D01*
Y157002D01*
X692753Y155003D01*
X696752D01*
X698751Y157002D01*
Y163000D01*
Y159001D02*
X702750Y155003D01*
X692753Y151004D02*
X690754Y149004D01*
Y145006D01*
X692753Y143006D01*
X694753D01*
X696752Y145006D01*
Y147005D01*
Y145006D01*
X698751Y143006D01*
X700751D01*
X702750Y145006D01*
Y149004D01*
X700751Y151004D01*
X633843Y-66661D02*
Y-56504D01*
X636382Y-53965D01*
X641461D01*
X644000Y-56504D01*
Y-66661D01*
X641461Y-69200D01*
X636382D01*
X638922Y-64122D02*
X633843Y-69200D01*
X636382D02*
X633843Y-66661D01*
X618608Y-69200D02*
X628765D01*
X618608Y-59043D01*
Y-56504D01*
X621147Y-53965D01*
X626226D01*
X628765Y-56504D01*
X688000Y612996D02*
Y601000D01*
X682002D01*
X680003Y602999D01*
Y610997D01*
X682002Y612996D01*
X688000D01*
X670006Y601000D02*
Y612996D01*
X676004Y606998D01*
X668007D01*
X532000Y614996D02*
Y603000D01*
X526002D01*
X524003Y604999D01*
Y612997D01*
X526002Y614996D01*
X532000D01*
X512006Y603000D02*
X520004D01*
X512006Y610997D01*
Y612997D01*
X514006Y614996D01*
X518005D01*
X520004Y612997D01*
X378003Y1121247D02*
X380002Y1123246D01*
X384001D01*
X386000Y1121247D01*
Y1113249D01*
X384001Y1111250D01*
X380002D01*
X378003Y1113249D01*
X368006Y1111250D02*
Y1123246D01*
X374004Y1117248D01*
X366007D01*
X362008Y1121247D02*
X360008Y1123246D01*
X356010D01*
X354010Y1121247D01*
Y1119247D01*
X356010Y1117248D01*
X358009D01*
X356010D01*
X354010Y1115249D01*
Y1113249D01*
X356010Y1111250D01*
X360008D01*
X362008Y1113249D01*
X373753Y1032997D02*
X375752Y1034996D01*
X379751D01*
X381750Y1032997D01*
Y1024999D01*
X379751Y1023000D01*
X375752D01*
X373753Y1024999D01*
X363756Y1023000D02*
Y1034996D01*
X369754Y1028998D01*
X361757D01*
X357758Y1032997D02*
X355758Y1034996D01*
X351760D01*
X349760Y1032997D01*
Y1024999D01*
X351760Y1023000D01*
X355758D01*
X357758Y1024999D01*
Y1032997D01*
X301253Y905753D02*
X299254Y907752D01*
Y911751D01*
X301253Y913750D01*
X309251D01*
X311250Y911751D01*
Y907752D01*
X309251Y905753D01*
X301253Y901754D02*
X299254Y899754D01*
Y895756D01*
X301253Y893756D01*
X303253D01*
X305252Y895756D01*
Y897755D01*
Y895756D01*
X307251Y893756D01*
X309251D01*
X311250Y895756D01*
Y899754D01*
X309251Y901754D01*
Y889758D02*
X311250Y887758D01*
Y883760D01*
X309251Y881760D01*
X301253D01*
X299254Y883760D01*
Y887758D01*
X301253Y889758D01*
X303253D01*
X305252Y887758D01*
Y881760D01*
X236253Y964997D02*
X238252Y966996D01*
X242251D01*
X244250Y964997D01*
Y956999D01*
X242251Y955000D01*
X238252D01*
X236253Y956999D01*
X232254Y964997D02*
X230254Y966996D01*
X226256D01*
X224256Y964997D01*
Y962997D01*
X226256Y960998D01*
X228255D01*
X226256D01*
X224256Y958999D01*
Y956999D01*
X226256Y955000D01*
X230254D01*
X232254Y956999D01*
X220258Y966996D02*
X212260D01*
Y964997D01*
X220258Y956999D01*
Y955000D01*
X271753Y804997D02*
X273752Y806996D01*
X277751D01*
X279750Y804997D01*
Y796999D01*
X277751Y795000D01*
X273752D01*
X271753Y796999D01*
X259757Y795000D02*
X267754D01*
X259757Y802997D01*
Y804997D01*
X261756Y806996D01*
X265755D01*
X267754Y804997D01*
X255758Y796999D02*
X253758Y795000D01*
X249760D01*
X247760Y796999D01*
Y804997D01*
X249760Y806996D01*
X253758D01*
X255758Y804997D01*
Y802997D01*
X253758Y800998D01*
X247760D01*
X322003Y863997D02*
X324002Y865996D01*
X328001D01*
X330000Y863997D01*
Y855999D01*
X328001Y854000D01*
X324002D01*
X322003Y855999D01*
X310007Y854000D02*
X318004D01*
X310007Y861997D01*
Y863997D01*
X312006Y865996D01*
X316005D01*
X318004Y863997D01*
X306008Y865996D02*
X298010D01*
Y863997D01*
X306008Y855999D01*
Y854000D01*
X372003Y943497D02*
X374002Y945496D01*
X378001D01*
X380000Y943497D01*
Y935499D01*
X378001Y933500D01*
X374002D01*
X372003Y935499D01*
X360006Y933500D02*
X368004D01*
X360006Y941497D01*
Y943497D01*
X362006Y945496D01*
X366004D01*
X368004Y943497D01*
X348010Y945496D02*
X352009Y943497D01*
X356008Y939498D01*
Y935499D01*
X354008Y933500D01*
X350010D01*
X348010Y935499D01*
Y937499D01*
X350010Y939498D01*
X356008D01*
X379253Y649497D02*
X381252Y651496D01*
X385251D01*
X387250Y649497D01*
Y641499D01*
X385251Y639500D01*
X381252D01*
X379253Y641499D01*
X367257Y639500D02*
X375254D01*
X367257Y647497D01*
Y649497D01*
X369256Y651496D01*
X373255D01*
X375254Y649497D01*
X355260Y651496D02*
X363258D01*
Y645498D01*
X359259Y647497D01*
X357260D01*
X355260Y645498D01*
Y641499D01*
X357260Y639500D01*
X361258D01*
X363258Y641499D01*
X764247Y215497D02*
X766246Y213498D01*
Y209499D01*
X764247Y207500D01*
X756249D01*
X754250Y209499D01*
Y213498D01*
X756249Y215497D01*
X754250Y219496D02*
Y223495D01*
Y221495D01*
X766246D01*
X764247Y219496D01*
X754250Y229493D02*
Y233492D01*
Y231492D01*
X766246D01*
X764247Y229493D01*
X809997Y215497D02*
X811996Y213498D01*
Y209499D01*
X809997Y207500D01*
X801999D01*
X800000Y209499D01*
Y213498D01*
X801999Y215497D01*
X800000Y219496D02*
Y223495D01*
Y221495D01*
X811996D01*
X809997Y219496D01*
Y229493D02*
X811996Y231492D01*
Y235491D01*
X809997Y237490D01*
X801999D01*
X800000Y235491D01*
Y231492D01*
X801999Y229493D01*
X809997D01*
X855747Y217747D02*
X857746Y215748D01*
Y211749D01*
X855747Y209750D01*
X847749D01*
X845750Y211749D01*
Y215748D01*
X847749Y217747D01*
Y221746D02*
X845750Y223745D01*
Y227744D01*
X847749Y229743D01*
X855747D01*
X857746Y227744D01*
Y223745D01*
X855747Y221746D01*
X853747D01*
X851748Y223745D01*
Y229743D01*
X900747Y216997D02*
X902746Y214998D01*
Y210999D01*
X900747Y209000D01*
X892749D01*
X890750Y210999D01*
Y214998D01*
X892749Y216997D01*
X900747Y220996D02*
X902746Y222995D01*
Y226994D01*
X900747Y228993D01*
X898747D01*
X896748Y226994D01*
X894749Y228993D01*
X892749D01*
X890750Y226994D01*
Y222995D01*
X892749Y220996D01*
X894749D01*
X896748Y222995D01*
X898747Y220996D01*
X900747D01*
X896748Y222995D02*
Y226994D01*
X945747Y219247D02*
X947746Y217248D01*
Y213249D01*
X945747Y211250D01*
X937749D01*
X935750Y213249D01*
Y217248D01*
X937749Y219247D01*
X947746Y223246D02*
Y231243D01*
X945747D01*
X937749Y223246D01*
X935750D01*
X540997Y219247D02*
X542996Y217248D01*
Y213249D01*
X540997Y211250D01*
X532999D01*
X531000Y213249D01*
Y217248D01*
X532999Y219247D01*
X542996Y231243D02*
X540997Y227245D01*
X536998Y223246D01*
X532999D01*
X531000Y225245D01*
Y229244D01*
X532999Y231243D01*
X534999D01*
X536998Y229244D01*
Y223246D01*
X587497Y219997D02*
X589496Y217998D01*
Y213999D01*
X587497Y212000D01*
X579499D01*
X577500Y213999D01*
Y217998D01*
X579499Y219997D01*
X589496Y231994D02*
Y223996D01*
X583498D01*
X585497Y227995D01*
Y229994D01*
X583498Y231994D01*
X579499D01*
X577500Y229994D01*
Y225996D01*
X579499Y223996D01*
X632497Y219247D02*
X634496Y217248D01*
Y213249D01*
X632497Y211250D01*
X624499D01*
X622500Y213249D01*
Y217248D01*
X624499Y219247D01*
X622500Y229244D02*
X634496D01*
X628498Y223246D01*
Y231243D01*
X675997Y218497D02*
X677996Y216498D01*
Y212499D01*
X675997Y210500D01*
X667999D01*
X666000Y212499D01*
Y216498D01*
X667999Y218497D01*
X675997Y222496D02*
X677996Y224496D01*
Y228494D01*
X675997Y230494D01*
X673997D01*
X671998Y228494D01*
Y226495D01*
Y228494D01*
X669999Y230494D01*
X667999D01*
X666000Y228494D01*
Y224496D01*
X667999Y222496D01*
X720997Y218497D02*
X722996Y216498D01*
Y212499D01*
X720997Y210500D01*
X712999D01*
X711000Y212499D01*
Y216498D01*
X712999Y218497D01*
X711000Y230494D02*
Y222496D01*
X718997Y230494D01*
X720997D01*
X722996Y228494D01*
Y224496D01*
X720997Y222496D01*
X379253Y731247D02*
X381252Y733246D01*
X385251D01*
X387250Y731247D01*
Y723249D01*
X385251Y721250D01*
X381252D01*
X379253Y723249D01*
X375254Y721250D02*
X371255D01*
X373255D01*
Y733246D01*
X375254Y731247D01*
X357260Y721250D02*
X365257D01*
X357260Y729247D01*
Y731247D01*
X359259Y733246D01*
X363258D01*
X365257Y731247D01*
X345264Y733246D02*
X349262Y731247D01*
X353261Y727248D01*
Y723249D01*
X351262Y721250D01*
X347263D01*
X345264Y723249D01*
Y725249D01*
X347263Y727248D01*
X353261D01*
X382003Y768747D02*
X384002Y770746D01*
X388001D01*
X390000Y768747D01*
Y760749D01*
X388001Y758750D01*
X384002D01*
X382003Y760749D01*
X378004Y758750D02*
X374005D01*
X376004D01*
Y770746D01*
X378004Y768747D01*
X362009Y758750D02*
Y770746D01*
X368007Y764748D01*
X360010D01*
X356011Y768747D02*
X354012Y770746D01*
X350013D01*
X348014Y768747D01*
Y760749D01*
X350013Y758750D01*
X354012D01*
X356011Y760749D01*
Y768747D01*
X128753Y250253D02*
X126754Y252252D01*
Y256251D01*
X128753Y258250D01*
X136751D01*
X138750Y256251D01*
Y252252D01*
X136751Y250253D01*
X126754Y238256D02*
Y246254D01*
X132752D01*
X130753Y242255D01*
Y240256D01*
X132752Y238256D01*
X136751D01*
X138750Y240256D01*
Y244254D01*
X136751Y246254D01*
X128753Y234258D02*
X126754Y232258D01*
Y228260D01*
X128753Y226260D01*
X136751D01*
X138750Y228260D01*
Y232258D01*
X136751Y234258D01*
X128753D01*
X541000Y530496D02*
Y518500D01*
X535002D01*
X533003Y520499D01*
Y528497D01*
X535002Y530496D01*
X541000D01*
X529004Y520499D02*
X527005Y518500D01*
X523006D01*
X521007Y520499D01*
Y528497D01*
X523006Y530496D01*
X527005D01*
X529004Y528497D01*
Y526497D01*
X527005Y524498D01*
X521007D01*
X892243Y-46811D02*
Y-36654D01*
X894782Y-34115D01*
X899861D01*
X902400Y-36654D01*
Y-46811D01*
X899861Y-49350D01*
X894782D01*
X897322Y-44272D02*
X892243Y-49350D01*
X894782D02*
X892243Y-46811D01*
X879547Y-49350D02*
Y-34115D01*
X887165Y-41733D01*
X877008D01*
X77453Y374052D02*
X79992Y376591D01*
X85071D01*
X87610Y374052D01*
Y363895D01*
X85071Y361356D01*
X79992D01*
X77453Y363895D01*
X62218Y376591D02*
X67297Y374052D01*
X72375Y368974D01*
Y363895D01*
X69836Y361356D01*
X64757D01*
X62218Y363895D01*
Y366434D01*
X64757Y368974D01*
X72375D01*
X57140Y376591D02*
X46983D01*
Y374052D01*
X57140Y363895D01*
Y361356D01*
D65*
X718750Y-23700D02*
G03*
X718750Y-23700I-1250J0D01*
G01*
X364000Y-2750D02*
G03*
X364000Y-2750I-1250J0D01*
G01*
X321500D02*
G03*
X321500Y-2750I-1250J0D01*
G01*
X405750Y137450D02*
G03*
X405750Y137450I-1250J0D01*
G01*
X550750Y595500D02*
G03*
X550750Y595500I-1250J0D01*
G01*
X646750Y624500D02*
G03*
X646750Y624500I-1250J0D01*
G01*
X529750Y480500D02*
G03*
X529750Y480500I-1250J0D01*
G01*
X936750Y-12600D02*
G03*
X936750Y-12600I-1250J0D01*
G01*
X356250Y153000D02*
G03*
X356250Y153000I-1250J0D01*
G01*
D68*
X428000Y148000D02*
G03*
X428000Y148000I-2000J0D01*
G01*
D69*
X711000Y-49250D02*
Y3750D01*
X549000Y-49250D02*
Y3750D01*
Y-49250D02*
X711000D01*
X549000Y3750D02*
X711000D01*
X549000Y-1250D02*
X711000D01*
X368150Y-20250D02*
X373750D01*
X368150D02*
Y-13750D01*
X397350Y-20250D02*
Y-13750D01*
X391750Y-20250D02*
X397350D01*
X325650D02*
X331250D01*
X325650D02*
Y-13750D01*
X354850Y-20250D02*
Y-13750D01*
X349250Y-20250D02*
X354850D01*
X418000Y190000D02*
X438000D01*
X418000Y140000D02*
X438000D01*
Y190000D01*
X418000Y140000D02*
Y190000D01*
X906000Y132770D02*
Y170770D01*
X938000Y132770D02*
Y170770D01*
X860981Y132770D02*
Y170770D01*
X892981Y132770D02*
Y170770D01*
X815962Y132770D02*
Y170770D01*
X847962Y132770D02*
Y170770D01*
X770943Y132770D02*
Y170770D01*
X802943Y132770D02*
Y170770D01*
X725924Y132770D02*
Y170770D01*
X757924Y132770D02*
Y170770D01*
X680906Y132770D02*
Y170770D01*
X712906Y132770D02*
Y170770D01*
X635887Y132770D02*
Y170770D01*
X667887Y132770D02*
Y170770D01*
X590868Y132770D02*
Y170770D01*
X622868Y132770D02*
Y170770D01*
X545849Y132770D02*
Y170770D01*
X577849Y132770D02*
Y170770D01*
X499750Y133250D02*
Y171250D01*
X531750Y133250D02*
Y171250D01*
X557870Y600000D02*
X565250D01*
Y603500D01*
X557870Y622000D02*
X565250D01*
Y618500D02*
Y622000D01*
X629750Y620000D02*
X637130D01*
X629750Y616500D02*
Y620000D01*
Y598000D02*
X637130D01*
X629750D02*
Y601500D01*
X544250Y503500D02*
Y507000D01*
X536870D02*
X544250D01*
Y485000D02*
Y488500D01*
X536870Y485000D02*
X544250D01*
X851000Y-600D02*
X929000D01*
X851000Y2500D02*
X929000D01*
X851000Y-27500D02*
X929000D01*
X851000D02*
Y2500D01*
X929000Y-27500D02*
Y2500D01*
X374000Y178000D02*
Y186000D01*
X364000D02*
X374000D01*
Y156000D02*
Y164000D01*
X364000Y156000D02*
X374000D01*
D70*
X178510Y275153D02*
Y332938D01*
Y332303D02*
Y332938D01*
X145490Y332303D02*
X178510D01*
X145490Y275153D02*
Y332303D01*
Y275153D02*
X178510D01*
X301762Y-83775D02*
X342402D01*
Y-64725D01*
X301762D02*
X342402D01*
X301762Y-83775D02*
Y-64725D01*
X931525Y200012D02*
Y240652D01*
X912475D02*
X931525D01*
X912475Y200012D02*
Y240652D01*
Y200012D02*
X931525D01*
X886636D02*
Y240652D01*
X867586D02*
X886636D01*
X867586Y200012D02*
Y240652D01*
Y200012D02*
X886636D01*
X841747D02*
Y240652D01*
X822697D02*
X841747D01*
X822697Y200012D02*
Y240652D01*
Y200012D02*
X841747D01*
X796858D02*
Y240652D01*
X777808D02*
X796858D01*
X777808Y200012D02*
Y240652D01*
Y200012D02*
X796858D01*
X751969D02*
Y240652D01*
X732919D02*
X751969D01*
X732919Y200012D02*
Y240652D01*
Y200012D02*
X751969D01*
X707081D02*
Y240652D01*
X688031D02*
X707081D01*
X688031Y200012D02*
Y240652D01*
Y200012D02*
X707081D01*
X662192D02*
Y240652D01*
X643142D02*
X662192D01*
X643142Y200012D02*
Y240652D01*
Y200012D02*
X662192D01*
X617303D02*
Y240652D01*
X598253D02*
X617303D01*
X598253Y200012D02*
Y240652D01*
Y200012D02*
X617303D01*
X572414D02*
Y240652D01*
X553364D02*
X572414D01*
X553364Y200012D02*
Y240652D01*
Y200012D02*
X572414D01*
X350512Y-83275D02*
X391152D01*
Y-64225D01*
X350512D02*
X391152D01*
X350512Y-83275D02*
Y-64225D01*
X316775Y-34238D02*
Y6402D01*
X297725D02*
X316775D01*
X297725Y-34238D02*
Y6402D01*
Y-34238D02*
X316775D01*
X446348Y-66475D02*
X486988D01*
X446348Y-85525D02*
Y-66475D01*
Y-85525D02*
X486988D01*
Y-66475D01*
X367225Y91598D02*
Y132238D01*
Y91598D02*
X386275D01*
Y132238D01*
X367225D02*
X386275D01*
X490525Y171348D02*
Y211988D01*
X471475D02*
X490525D01*
X471475Y171348D02*
Y211988D01*
Y171348D02*
X490525D01*
X410348Y215525D02*
X450988D01*
X410348Y196475D02*
Y215525D01*
Y196475D02*
X450988D01*
Y215525D01*
X343225Y105348D02*
Y145988D01*
Y105348D02*
X362275D01*
Y145988D01*
X343225D02*
X362275D01*
X272260Y143153D02*
Y200938D01*
Y200303D02*
Y200938D01*
X239240Y200303D02*
X272260D01*
X239240Y143153D02*
Y200303D01*
Y143153D02*
X272260D01*
X230260Y142653D02*
Y200438D01*
Y199803D02*
Y200438D01*
X197240Y199803D02*
X230260D01*
X197240Y142653D02*
Y199803D01*
Y142653D02*
X230260D01*
X178510Y143653D02*
Y201438D01*
Y200803D02*
Y201438D01*
X145490Y200803D02*
X178510D01*
X145490Y143653D02*
Y200803D01*
Y143653D02*
X178510D01*
X273510Y206153D02*
Y263938D01*
Y263303D02*
Y263938D01*
X240490Y263303D02*
X273510D01*
X240490Y206153D02*
Y263303D01*
Y206153D02*
X273510D01*
X233260D02*
Y263938D01*
Y263303D02*
Y263938D01*
X200240Y263303D02*
X233260D01*
X200240Y206153D02*
Y263303D01*
Y206153D02*
X233260D01*
X175510D02*
Y263938D01*
Y263303D02*
Y263938D01*
X142490Y263303D02*
X175510D01*
X142490Y206153D02*
Y263303D01*
Y206153D02*
X175510D01*
X275010Y274653D02*
Y332438D01*
Y331803D02*
Y332438D01*
X241990Y331803D02*
X275010D01*
X241990Y274653D02*
Y331803D01*
Y274653D02*
X275010D01*
X229010Y275153D02*
Y332938D01*
Y332303D02*
Y332938D01*
X195990Y332303D02*
X229010D01*
X195990Y275153D02*
Y332303D01*
Y275153D02*
X229010D01*
X527525Y200012D02*
Y240652D01*
X508475D02*
X527525D01*
X508475Y200012D02*
Y240652D01*
Y200012D02*
X527525D01*
X339153Y683490D02*
Y716510D01*
X396303D01*
Y683490D02*
Y716510D01*
Y683490D02*
X396938D01*
X339153D02*
X396938D01*
X300475Y807848D02*
Y848488D01*
Y807848D02*
X319525D01*
Y848488D01*
X300475D02*
X319525D01*
X338312Y1076510D02*
X396097D01*
X338312D02*
X338947D01*
Y1043490D02*
Y1076510D01*
Y1043490D02*
X396097D01*
Y1076510D01*
X339153Y951490D02*
X396938D01*
X396303D02*
X396938D01*
X396303D02*
Y984510D01*
X339153D02*
X396303D01*
X339153Y951490D02*
Y984510D01*
X200943Y915990D02*
X258728D01*
X258093D02*
X258728D01*
X258093D02*
Y949010D01*
X200943D02*
X258093D01*
X200943Y915990D02*
Y949010D01*
X235943Y820990D02*
X293728D01*
X293093D02*
X293728D01*
X293093D02*
Y854010D01*
X235943D02*
X293093D01*
X235943Y820990D02*
Y854010D01*
X342231Y847025D02*
X382872D01*
X342231Y827975D02*
Y847025D01*
Y827975D02*
X382872D01*
Y847025D01*
X297975Y920348D02*
Y960988D01*
Y920348D02*
X317025D01*
Y960988D01*
X297975D02*
X317025D01*
X262975Y923076D02*
Y963717D01*
Y923076D02*
X282025D01*
Y963717D01*
X262975D02*
X282025D01*
X398847Y775490D02*
Y808510D01*
X341697Y775490D02*
X398847D01*
X341697D02*
Y808510D01*
X341062D02*
X341697D01*
X341062D02*
X398847D01*
X472475Y126642D02*
Y167281D01*
Y126642D02*
X491525D01*
Y167281D01*
X472475D02*
X491525D01*
X409408Y91005D02*
Y131645D01*
X390359D02*
X409408D01*
X390359Y91005D02*
Y131645D01*
Y91005D02*
X409408D01*
X413475D02*
Y131645D01*
Y91005D02*
X432525D01*
Y131645D01*
X413475D02*
X432525D01*
X401348Y-66475D02*
X441988D01*
X401348Y-85525D02*
Y-66475D01*
Y-85525D02*
X441988D01*
Y-66475D01*
X401348Y-60525D02*
X441988D01*
Y-41475D01*
X401348D02*
X441988D01*
X401348Y-60525D02*
Y-41475D01*
X70225Y352988D02*
X89275D01*
Y312348D02*
Y352988D01*
X70225Y312348D02*
X89275D01*
X70225D02*
Y352988D01*
X347512Y1083975D02*
X388152D01*
Y1103025D01*
X347512D02*
X388152D01*
X347512Y1083975D02*
Y1103025D01*
X351848Y675775D02*
X392488D01*
X351848Y656725D02*
Y675775D01*
Y656725D02*
X392488D01*
Y675775D01*
M02*
