G04 Layer_Color=32768*
%FSLAX44Y44*%
%MOMM*%
G71*
G01*
G75*
%ADD38C,0.2540*%
%ADD67C,0.1000*%
%ADD119C,0.1016*%
D38*
X890000Y1187000D02*
X950000D01*
Y1167000D02*
Y1187000D01*
X890000Y1167000D02*
X950000D01*
X890000D02*
Y1187000D01*
Y590000D02*
X950000D01*
Y570000D02*
Y590000D01*
X890000Y570000D02*
X950000D01*
X890000D02*
Y590000D01*
D67*
X511000Y655000D02*
X691000D01*
Y1105000D01*
X511000D02*
X691000D01*
X511000Y655000D02*
Y1105000D01*
D119*
X162000Y306903D02*
G03*
X158825Y303728I0J-3175D01*
G01*
D02*
G03*
X162000Y300553I3175J0D01*
G01*
D02*
G03*
X165175Y303728I0J3175D01*
G01*
D02*
G03*
X162000Y306903I-3175J0D01*
G01*
X325257Y-74250D02*
G03*
X322082Y-71075I-3175J0D01*
G01*
D02*
G03*
X318907Y-74250I0J-3175D01*
G01*
D02*
G03*
X322082Y-77425I3175J0D01*
G01*
D02*
G03*
X325257Y-74250I0J3175D01*
G01*
X922000Y223507D02*
G03*
X918825Y220332I0J-3175D01*
G01*
D02*
G03*
X922000Y217157I3175J0D01*
G01*
D02*
G03*
X925175Y220332I0J3175D01*
G01*
D02*
G03*
X922000Y223507I-3175J0D01*
G01*
X877111D02*
G03*
X873936Y220332I0J-3175D01*
G01*
D02*
G03*
X877111Y217157I3175J0D01*
G01*
D02*
G03*
X880286Y220332I0J3175D01*
G01*
D02*
G03*
X877111Y223507I-3175J0D01*
G01*
X832222D02*
G03*
X829047Y220332I0J-3175D01*
G01*
D02*
G03*
X832222Y217157I3175J0D01*
G01*
D02*
G03*
X835397Y220332I0J3175D01*
G01*
D02*
G03*
X832222Y223507I-3175J0D01*
G01*
X787333D02*
G03*
X784158Y220332I0J-3175D01*
G01*
D02*
G03*
X787333Y217157I3175J0D01*
G01*
D02*
G03*
X790508Y220332I0J3175D01*
G01*
D02*
G03*
X787333Y223507I-3175J0D01*
G01*
X742444D02*
G03*
X739269Y220332I0J-3175D01*
G01*
D02*
G03*
X742444Y217157I3175J0D01*
G01*
D02*
G03*
X745619Y220332I0J3175D01*
G01*
D02*
G03*
X742444Y223507I-3175J0D01*
G01*
X697556D02*
G03*
X694381Y220332I0J-3175D01*
G01*
D02*
G03*
X697556Y217157I3175J0D01*
G01*
D02*
G03*
X700731Y220332I0J3175D01*
G01*
D02*
G03*
X697556Y223507I-3175J0D01*
G01*
X652667D02*
G03*
X649492Y220332I0J-3175D01*
G01*
D02*
G03*
X652667Y217157I3175J0D01*
G01*
D02*
G03*
X655842Y220332I0J3175D01*
G01*
D02*
G03*
X652667Y223507I-3175J0D01*
G01*
X607778D02*
G03*
X604603Y220332I0J-3175D01*
G01*
D02*
G03*
X607778Y217157I3175J0D01*
G01*
D02*
G03*
X610953Y220332I0J3175D01*
G01*
D02*
G03*
X607778Y223507I-3175J0D01*
G01*
X562889D02*
G03*
X559714Y220332I0J-3175D01*
G01*
D02*
G03*
X562889Y217157I3175J0D01*
G01*
D02*
G03*
X566064Y220332I0J3175D01*
G01*
D02*
G03*
X562889Y223507I-3175J0D01*
G01*
X293675Y144832D02*
G03*
X290500Y148007I-3175J0D01*
G01*
Y141657D02*
G03*
X293675Y144832I0J3175D01*
G01*
X287325D02*
G03*
X290500Y141657I3175J0D01*
G01*
Y148007D02*
G03*
X287325Y144832I0J-3175D01*
G01*
X324582Y126825D02*
G03*
X327757Y130000I0J3175D01*
G01*
X321407D02*
G03*
X324582Y126825I3175J0D01*
G01*
Y133175D02*
G03*
X321407Y130000I0J-3175D01*
G01*
X327757D02*
G03*
X324582Y133175I-3175J0D01*
G01*
X453175Y691832D02*
G03*
X450000Y695007I-3175J0D01*
G01*
Y688657D02*
G03*
X453175Y691832I0J3175D01*
G01*
X446825D02*
G03*
X450000Y688657I3175J0D01*
G01*
Y695007D02*
G03*
X446825Y691832I0J-3175D01*
G01*
X352559Y676832D02*
G03*
X349384Y680007I-3175J0D01*
G01*
Y673657D02*
G03*
X352559Y676832I0J3175D01*
G01*
X346208D02*
G03*
X349384Y673657I3175J0D01*
G01*
Y680007D02*
G03*
X346208Y676832I0J-3175D01*
G01*
X89490Y700825D02*
G03*
X92665Y704000I0J3175D01*
G01*
X86315D02*
G03*
X89490Y700825I3175J0D01*
G01*
Y707175D02*
G03*
X86315Y704000I0J-3175D01*
G01*
X92665D02*
G03*
X89490Y707175I-3175J0D01*
G01*
Y728825D02*
G03*
X92665Y732000I0J3175D01*
G01*
X86315D02*
G03*
X89490Y728825I3175J0D01*
G01*
Y735175D02*
G03*
X86315Y732000I0J-3175D01*
G01*
X92665D02*
G03*
X89490Y735175I-3175J0D01*
G01*
X171240Y537325D02*
G03*
X174415Y540500I0J3175D01*
G01*
X168065D02*
G03*
X171240Y537325I3175J0D01*
G01*
Y543675D02*
G03*
X168065Y540500I0J-3175D01*
G01*
X174415D02*
G03*
X171240Y543675I-3175J0D01*
G01*
X171490Y485325D02*
G03*
X174665Y488500I0J3175D01*
G01*
X168315D02*
G03*
X171490Y485325I3175J0D01*
G01*
Y491675D02*
G03*
X168315Y488500I0J-3175D01*
G01*
X174665D02*
G03*
X171490Y491675I-3175J0D01*
G01*
X221832Y424825D02*
G03*
X225007Y428000I0J3175D01*
G01*
X218657D02*
G03*
X221832Y424825I3175J0D01*
G01*
Y431175D02*
G03*
X218657Y428000I0J-3175D01*
G01*
X225007D02*
G03*
X221832Y431175I-3175J0D01*
G01*
Y400825D02*
G03*
X225007Y404000I0J3175D01*
G01*
X218657D02*
G03*
X221832Y400825I3175J0D01*
G01*
Y407175D02*
G03*
X218657Y404000I0J-3175D01*
G01*
X225007D02*
G03*
X221832Y407175I-3175J0D01*
G01*
X167925Y143832D02*
G03*
X164750Y147007I-3175J0D01*
G01*
Y140657D02*
G03*
X167925Y143832I0J3175D01*
G01*
X161575D02*
G03*
X164750Y140657I3175J0D01*
G01*
Y147007D02*
G03*
X161575Y143832I0J-3175D01*
G01*
X191175D02*
G03*
X188000Y147007I-3175J0D01*
G01*
Y140657D02*
G03*
X191175Y143832I0J3175D01*
G01*
X184825D02*
G03*
X188000Y140657I3175J0D01*
G01*
Y147007D02*
G03*
X184825Y143832I0J-3175D01*
G01*
X1174325Y-6510D02*
G03*
X1177500Y-9685I3175J0D01*
G01*
Y-3335D02*
G03*
X1174325Y-6510I0J-3175D01*
G01*
X1180675D02*
G03*
X1177500Y-3335I-3175J0D01*
G01*
Y-9685D02*
G03*
X1180675Y-6510I0J3175D01*
G01*
X1083325Y415168D02*
G03*
X1086500Y411993I3175J0D01*
G01*
Y418343D02*
G03*
X1083325Y415168I0J-3175D01*
G01*
X1089675D02*
G03*
X1086500Y418343I-3175J0D01*
G01*
Y411993D02*
G03*
X1089675Y415168I0J3175D01*
G01*
X374007Y-73750D02*
G03*
X370832Y-70575I-3175J0D01*
G01*
D02*
G03*
X367657Y-73750I0J-3175D01*
G01*
D02*
G03*
X370832Y-76925I3175J0D01*
G01*
D02*
G03*
X374007Y-73750I0J3175D01*
G01*
X307250Y-10743D02*
G03*
X304075Y-13918I0J-3175D01*
G01*
D02*
G03*
X307250Y-17093I3175J0D01*
G01*
D02*
G03*
X310425Y-13918I0J3175D01*
G01*
D02*
G03*
X307250Y-10743I-3175J0D01*
G01*
X463493Y-76000D02*
G03*
X466668Y-79175I3175J0D01*
G01*
D02*
G03*
X469843Y-76000I0J3175D01*
G01*
D02*
G03*
X466668Y-72825I-3175J0D01*
G01*
D02*
G03*
X463493Y-76000I0J-3175D01*
G01*
X376750Y108743D02*
G03*
X379925Y111918I0J3175D01*
G01*
D02*
G03*
X376750Y115093I-3175J0D01*
G01*
D02*
G03*
X373575Y111918I0J-3175D01*
G01*
D02*
G03*
X376750Y108743I3175J0D01*
G01*
X207522Y2925D02*
G03*
X204347Y-250I0J-3175D01*
G01*
X210697D02*
G03*
X207522Y2925I-3175J0D01*
G01*
Y-3425D02*
G03*
X210697Y-250I0J3175D01*
G01*
X204347D02*
G03*
X207522Y-3425I3175J0D01*
G01*
X221575Y-41332D02*
G03*
X224750Y-44507I3175J0D01*
G01*
Y-38157D02*
G03*
X221575Y-41332I0J-3175D01*
G01*
X227925D02*
G03*
X224750Y-38157I-3175J0D01*
G01*
Y-44507D02*
G03*
X227925Y-41332I0J3175D01*
G01*
X260175Y-43272D02*
G03*
X257000Y-40097I-3175J0D01*
G01*
Y-46447D02*
G03*
X260175Y-43272I0J3175D01*
G01*
X253825D02*
G03*
X257000Y-46447I3175J0D01*
G01*
Y-40097D02*
G03*
X253825Y-43272I0J-3175D01*
G01*
X260582Y-3425D02*
G03*
X263757Y-250I0J3175D01*
G01*
X257407D02*
G03*
X260582Y-3425I3175J0D01*
G01*
Y2925D02*
G03*
X257407Y-250I0J-3175D01*
G01*
X263757D02*
G03*
X260582Y2925I-3175J0D01*
G01*
X105825Y342668D02*
G03*
X109000Y339493I3175J0D01*
G01*
Y345843D02*
G03*
X105825Y342668I0J-3175D01*
G01*
X112175D02*
G03*
X109000Y345843I-3175J0D01*
G01*
Y339493D02*
G03*
X112175Y342668I0J3175D01*
G01*
X481000Y194843D02*
G03*
X477825Y191668I0J-3175D01*
G01*
D02*
G03*
X481000Y188493I3175J0D01*
G01*
D02*
G03*
X484175Y191668I0J3175D01*
G01*
D02*
G03*
X481000Y194843I-3175J0D01*
G01*
X427493Y206000D02*
G03*
X430668Y202825I3175J0D01*
G01*
D02*
G03*
X433843Y206000I0J3175D01*
G01*
D02*
G03*
X430668Y209175I-3175J0D01*
G01*
D02*
G03*
X427493Y206000I0J-3175D01*
G01*
X352750Y122493D02*
G03*
X355925Y125668I0J3175D01*
G01*
D02*
G03*
X352750Y128843I-3175J0D01*
G01*
D02*
G03*
X349575Y125668I0J-3175D01*
G01*
D02*
G03*
X352750Y122493I3175J0D01*
G01*
X344874Y104175D02*
G03*
X341699Y101000I0J-3175D01*
G01*
X348050D02*
G03*
X344874Y104175I-3175J0D01*
G01*
Y97825D02*
G03*
X348050Y101000I0J3175D01*
G01*
X341699D02*
G03*
X344874Y97825I3175J0D01*
G01*
X345668Y68175D02*
G03*
X342493Y65000I0J-3175D01*
G01*
X348843D02*
G03*
X345668Y68175I-3175J0D01*
G01*
Y61825D02*
G03*
X348843Y65000I0J3175D01*
G01*
X342493D02*
G03*
X345668Y61825I3175J0D01*
G01*
X221668Y105175D02*
G03*
X218493Y102000I0J-3175D01*
G01*
X224843D02*
G03*
X221668Y105175I-3175J0D01*
G01*
Y98825D02*
G03*
X224843Y102000I0J3175D01*
G01*
X218493D02*
G03*
X221668Y98825I3175J0D01*
G01*
Y55175D02*
G03*
X218493Y52000I0J-3175D01*
G01*
X224843D02*
G03*
X221668Y55175I-3175J0D01*
G01*
Y48825D02*
G03*
X224843Y52000I0J3175D01*
G01*
X218493D02*
G03*
X221668Y48825I3175J0D01*
G01*
X221996Y121941D02*
G03*
X225171Y125117I0J3175D01*
G01*
X218821D02*
G03*
X221996Y121941I3175J0D01*
G01*
Y128292D02*
G03*
X218821Y125117I0J-3175D01*
G01*
X225171D02*
G03*
X221996Y128292I-3175J0D01*
G01*
X221668Y73825D02*
G03*
X224843Y77000I0J3175D01*
G01*
X218493D02*
G03*
X221668Y73825I3175J0D01*
G01*
Y80175D02*
G03*
X218493Y77000I0J-3175D01*
G01*
X224843D02*
G03*
X221668Y80175I-3175J0D01*
G01*
X1167832Y151675D02*
G03*
X1164657Y148500I0J-3175D01*
G01*
X1171007D02*
G03*
X1167832Y151675I-3175J0D01*
G01*
Y145325D02*
G03*
X1171007Y148500I0J3175D01*
G01*
X1164657D02*
G03*
X1167832Y145325I3175J0D01*
G01*
Y121325D02*
G03*
X1171007Y124500I0J3175D01*
G01*
X1164657D02*
G03*
X1167832Y121325I3175J0D01*
G01*
Y127675D02*
G03*
X1164657Y124500I0J-3175D01*
G01*
X1171007D02*
G03*
X1167832Y127675I-3175J0D01*
G01*
Y96325D02*
G03*
X1171007Y99500I0J3175D01*
G01*
X1164657D02*
G03*
X1167832Y96325I3175J0D01*
G01*
Y102675D02*
G03*
X1164657Y99500I0J-3175D01*
G01*
X1171007D02*
G03*
X1167832Y102675I-3175J0D01*
G01*
X1078168Y15675D02*
G03*
X1074993Y12500I0J-3175D01*
G01*
X1081343D02*
G03*
X1078168Y15675I-3175J0D01*
G01*
Y9325D02*
G03*
X1081343Y12500I0J3175D01*
G01*
X1074993D02*
G03*
X1078168Y9325I3175J0D01*
G01*
Y41675D02*
G03*
X1074993Y38500I0J-3175D01*
G01*
X1081343D02*
G03*
X1078168Y41675I-3175J0D01*
G01*
Y35325D02*
G03*
X1081343Y38500I0J3175D01*
G01*
X1074993D02*
G03*
X1078168Y35325I3175J0D01*
G01*
X1221260Y560425D02*
G03*
X1218085Y557250I0J-3175D01*
G01*
X1224435D02*
G03*
X1221260Y560425I-3175J0D01*
G01*
Y554075D02*
G03*
X1224435Y557250I0J3175D01*
G01*
X1218085D02*
G03*
X1221260Y554075I3175J0D01*
G01*
X1078168Y66675D02*
G03*
X1074993Y63500I0J-3175D01*
G01*
X1081343D02*
G03*
X1078168Y66675I-3175J0D01*
G01*
Y60325D02*
G03*
X1081343Y63500I0J3175D01*
G01*
X1074993D02*
G03*
X1078168Y60325I3175J0D01*
G01*
Y92675D02*
G03*
X1074993Y89500I0J-3175D01*
G01*
X1081343D02*
G03*
X1078168Y92675I-3175J0D01*
G01*
Y86325D02*
G03*
X1081343Y89500I0J3175D01*
G01*
X1074993D02*
G03*
X1078168Y86325I3175J0D01*
G01*
X1077832Y112825D02*
G03*
X1081007Y116000I0J3175D01*
G01*
X1074657D02*
G03*
X1077832Y112825I3175J0D01*
G01*
Y119175D02*
G03*
X1074657Y116000I0J-3175D01*
G01*
X1081007D02*
G03*
X1077832Y119175I-3175J0D01*
G01*
Y139075D02*
G03*
X1081007Y142250I0J3175D01*
G01*
X1074657D02*
G03*
X1077832Y139075I3175J0D01*
G01*
Y145425D02*
G03*
X1074657Y142250I0J-3175D01*
G01*
X1081007D02*
G03*
X1077832Y145425I-3175J0D01*
G01*
Y171675D02*
G03*
X1074657Y168500I0J-3175D01*
G01*
X1081007D02*
G03*
X1077832Y171675I-3175J0D01*
G01*
Y165325D02*
G03*
X1081007Y168500I0J3175D01*
G01*
X1074657D02*
G03*
X1077832Y165325I3175J0D01*
G01*
X153168Y-48825D02*
G03*
X149993Y-52000I0J-3175D01*
G01*
X156343D02*
G03*
X153168Y-48825I-3175J0D01*
G01*
Y-55175D02*
G03*
X156343Y-52000I0J3175D01*
G01*
X149993D02*
G03*
X153168Y-55175I3175J0D01*
G01*
X255750Y174903D02*
G03*
X252575Y171728I0J-3175D01*
G01*
D02*
G03*
X255750Y168553I3175J0D01*
G01*
D02*
G03*
X258925Y171728I0J3175D01*
G01*
D02*
G03*
X255750Y174903I-3175J0D01*
G01*
X213750Y174403D02*
G03*
X210575Y171228I0J-3175D01*
G01*
D02*
G03*
X213750Y168053I3175J0D01*
G01*
D02*
G03*
X216925Y171228I0J3175D01*
G01*
D02*
G03*
X213750Y174403I-3175J0D01*
G01*
X162000Y175403D02*
G03*
X158825Y172228I0J-3175D01*
G01*
D02*
G03*
X162000Y169053I3175J0D01*
G01*
D02*
G03*
X165175Y172228I0J3175D01*
G01*
D02*
G03*
X162000Y175403I-3175J0D01*
G01*
X257000Y237903D02*
G03*
X253825Y234728I0J-3175D01*
G01*
D02*
G03*
X257000Y231553I3175J0D01*
G01*
D02*
G03*
X260175Y234728I0J3175D01*
G01*
D02*
G03*
X257000Y237903I-3175J0D01*
G01*
X216750D02*
G03*
X213575Y234728I0J-3175D01*
G01*
D02*
G03*
X216750Y231553I3175J0D01*
G01*
D02*
G03*
X219925Y234728I0J3175D01*
G01*
D02*
G03*
X216750Y237903I-3175J0D01*
G01*
X159000D02*
G03*
X155825Y234728I0J-3175D01*
G01*
D02*
G03*
X159000Y231553I3175J0D01*
G01*
D02*
G03*
X162175Y234728I0J3175D01*
G01*
D02*
G03*
X159000Y237903I-3175J0D01*
G01*
X258500Y306403D02*
G03*
X255325Y303228I0J-3175D01*
G01*
D02*
G03*
X258500Y300053I3175J0D01*
G01*
D02*
G03*
X261675Y303228I0J3175D01*
G01*
D02*
G03*
X258500Y306403I-3175J0D01*
G01*
X212500Y306903D02*
G03*
X209325Y303728I0J-3175D01*
G01*
D02*
G03*
X212500Y300553I3175J0D01*
G01*
D02*
G03*
X215675Y303728I0J3175D01*
G01*
D02*
G03*
X212500Y306903I-3175J0D01*
G01*
X1415175Y980332D02*
G03*
X1412000Y983507I-3175J0D01*
G01*
Y977157D02*
G03*
X1415175Y980332I0J3175D01*
G01*
X1408825D02*
G03*
X1412000Y977157I3175J0D01*
G01*
Y983507D02*
G03*
X1408825Y980332I0J-3175D01*
G01*
X250000Y826179D02*
G03*
X246825Y823004I0J-3175D01*
G01*
D02*
G03*
X250000Y819829I3175J0D01*
G01*
D02*
G03*
X253175Y823004I0J3175D01*
G01*
D02*
G03*
X250000Y826179I-3175J0D01*
G01*
X327522Y750157D02*
G03*
X330696Y753332I0J3175D01*
G01*
D02*
G03*
X327522Y756507I-3175J0D01*
G01*
D02*
G03*
X324347Y753332I0J-3175D01*
G01*
D02*
G03*
X327522Y750157I3175J0D01*
G01*
X367193Y269000D02*
G03*
X364018Y272175I-3175J0D01*
G01*
D02*
G03*
X360843Y269000I0J-3175D01*
G01*
D02*
G03*
X364018Y265825I3175J0D01*
G01*
D02*
G03*
X367193Y269000I0J3175D01*
G01*
Y231000D02*
G03*
X364018Y234175I-3175J0D01*
G01*
D02*
G03*
X360843Y231000I0J-3175D01*
G01*
D02*
G03*
X364018Y227825I3175J0D01*
G01*
D02*
G03*
X367193Y231000I0J3175D01*
G01*
X451208Y1080668D02*
G03*
X454384Y1077493I3175J0D01*
G01*
Y1083843D02*
G03*
X451208Y1080668I0J-3175D01*
G01*
X457559D02*
G03*
X454384Y1083843I-3175J0D01*
G01*
Y1077493D02*
G03*
X457559Y1080668I0J3175D01*
G01*
X585911Y442932D02*
G03*
X582737Y439757I0J-3175D01*
G01*
X589086D02*
G03*
X585911Y442932I-3175J0D01*
G01*
Y436581D02*
G03*
X589086Y439757I0J3175D01*
G01*
X582737D02*
G03*
X585911Y436581I3175J0D01*
G01*
X518000Y223507D02*
G03*
X514825Y220332I0J-3175D01*
G01*
D02*
G03*
X518000Y217157I3175J0D01*
G01*
D02*
G03*
X521175Y220332I0J3175D01*
G01*
D02*
G03*
X518000Y223507I-3175J0D01*
G01*
X367728Y696825D02*
G03*
X370903Y700000I0J3175D01*
G01*
X364553D02*
G03*
X367728Y696825I3175J0D01*
G01*
Y703175D02*
G03*
X364553Y700000I0J-3175D01*
G01*
X370903D02*
G03*
X367728Y703175I-3175J0D01*
G01*
X310000Y824993D02*
G03*
X313175Y828168I0J3175D01*
G01*
D02*
G03*
X310000Y831343I-3175J0D01*
G01*
D02*
G03*
X306825Y828168I0J-3175D01*
G01*
D02*
G03*
X310000Y824993I3175J0D01*
G01*
X364347Y1060000D02*
G03*
X367522Y1056825I3175J0D01*
G01*
D02*
G03*
X370697Y1060000I0J3175D01*
G01*
D02*
G03*
X367522Y1063175I-3175J0D01*
G01*
D02*
G03*
X364347Y1060000I0J-3175D01*
G01*
X370903Y968000D02*
G03*
X367728Y971175I-3175J0D01*
G01*
D02*
G03*
X364553Y968000I0J-3175D01*
G01*
D02*
G03*
X367728Y964825I3175J0D01*
G01*
D02*
G03*
X370903Y968000I0J3175D01*
G01*
X363018Y303825D02*
G03*
X366193Y307000I0J3175D01*
G01*
X359843D02*
G03*
X363018Y303825I3175J0D01*
G01*
Y310175D02*
G03*
X359843Y307000I0J-3175D01*
G01*
X366193D02*
G03*
X363018Y310175I-3175J0D01*
G01*
X420175Y199625D02*
G03*
X417000Y202801I-3175J0D01*
G01*
Y196451D02*
G03*
X420175Y199625I0J3175D01*
G01*
X413825D02*
G03*
X417000Y196451I3175J0D01*
G01*
Y202801D02*
G03*
X413825Y199625I0J-3175D01*
G01*
X636175Y234668D02*
G03*
X633000Y237843I-3175J0D01*
G01*
Y231493D02*
G03*
X636175Y234668I0J3175D01*
G01*
X629825D02*
G03*
X633000Y231493I3175J0D01*
G01*
Y237843D02*
G03*
X629825Y234668I0J-3175D01*
G01*
X636175Y281332D02*
G03*
X633000Y284507I-3175J0D01*
G01*
Y278157D02*
G03*
X636175Y281332I0J3175D01*
G01*
X629825D02*
G03*
X633000Y278157I3175J0D01*
G01*
Y284507D02*
G03*
X629825Y281332I0J-3175D01*
G01*
X894825Y56982D02*
G03*
X898000Y53807I3175J0D01*
G01*
Y60157D02*
G03*
X894825Y56982I0J-3175D01*
G01*
X901175D02*
G03*
X898000Y60157I-3175J0D01*
G01*
Y53807D02*
G03*
X901175Y56982I0J3175D01*
G01*
X808728Y-54175D02*
G03*
X811903Y-51000I0J3175D01*
G01*
X805553D02*
G03*
X808728Y-54175I3175J0D01*
G01*
Y-47825D02*
G03*
X805553Y-51000I0J-3175D01*
G01*
X811903D02*
G03*
X808728Y-47825I-3175J0D01*
G01*
X834332Y29825D02*
G03*
X837507Y33000I0J3175D01*
G01*
X831157D02*
G03*
X834332Y29825I3175J0D01*
G01*
Y36175D02*
G03*
X831157Y33000I0J-3175D01*
G01*
X837507D02*
G03*
X834332Y36175I-3175J0D01*
G01*
X44175Y669332D02*
G03*
X41000Y672507I-3175J0D01*
G01*
Y666157D02*
G03*
X44175Y669332I0J3175D01*
G01*
X37825D02*
G03*
X41000Y666157I3175J0D01*
G01*
Y672507D02*
G03*
X37825Y669332I0J-3175D01*
G01*
X65825Y826418D02*
G03*
X69000Y823243I3175J0D01*
G01*
Y829593D02*
G03*
X65825Y826418I0J-3175D01*
G01*
X72175D02*
G03*
X69000Y829593I-3175J0D01*
G01*
Y823243D02*
G03*
X72175Y826418I0J3175D01*
G01*
X45675Y814010D02*
G03*
X42500Y817185I-3175J0D01*
G01*
Y810835D02*
G03*
X45675Y814010I0J3175D01*
G01*
X39325D02*
G03*
X42500Y810835I3175J0D01*
G01*
Y817185D02*
G03*
X39325Y814010I0J-3175D01*
G01*
X45675Y743490D02*
G03*
X42500Y746665I-3175J0D01*
G01*
Y740315D02*
G03*
X45675Y743490I0J3175D01*
G01*
X39325D02*
G03*
X42500Y740315I3175J0D01*
G01*
Y746665D02*
G03*
X39325Y743490I0J-3175D01*
G01*
X99175Y803082D02*
G03*
X96000Y806257I-3175J0D01*
G01*
Y799907D02*
G03*
X99175Y803082I0J3175D01*
G01*
X92825D02*
G03*
X96000Y799907I3175J0D01*
G01*
Y806257D02*
G03*
X92825Y803082I0J-3175D01*
G01*
X555175Y452668D02*
G03*
X552000Y455843I-3175J0D01*
G01*
Y449493D02*
G03*
X555175Y452668I0J3175D01*
G01*
X548825D02*
G03*
X552000Y449493I3175J0D01*
G01*
Y455843D02*
G03*
X548825Y452668I0J-3175D01*
G01*
X578292Y474332D02*
G03*
X575117Y477507I-3175J0D01*
G01*
Y471157D02*
G03*
X578292Y474332I0J3175D01*
G01*
X571941D02*
G03*
X575117Y471157I3175J0D01*
G01*
Y477507D02*
G03*
X571941Y474332I0J-3175D01*
G01*
X501175Y531168D02*
G03*
X498000Y534343I-3175J0D01*
G01*
Y527993D02*
G03*
X501175Y531168I0J3175D01*
G01*
X494825D02*
G03*
X498000Y527993I3175J0D01*
G01*
Y534343D02*
G03*
X494825Y531168I0J-3175D01*
G01*
X381175Y528668D02*
G03*
X378000Y531843I-3175J0D01*
G01*
Y525493D02*
G03*
X381175Y528668I0J3175D01*
G01*
X374825D02*
G03*
X378000Y525493I3175J0D01*
G01*
Y531843D02*
G03*
X374825Y528668I0J-3175D01*
G01*
X480675Y691832D02*
G03*
X477500Y695007I-3175J0D01*
G01*
Y688657D02*
G03*
X480675Y691832I0J3175D01*
G01*
X474325D02*
G03*
X477500Y688657I3175J0D01*
G01*
Y695007D02*
G03*
X474325Y691832I0J-3175D01*
G01*
X460668Y733175D02*
G03*
X457493Y730000I0J-3175D01*
G01*
X463843D02*
G03*
X460668Y733175I-3175J0D01*
G01*
Y726825D02*
G03*
X463843Y730000I0J3175D01*
G01*
X457493D02*
G03*
X460668Y726825I3175J0D01*
G01*
Y763175D02*
G03*
X457493Y760000I0J-3175D01*
G01*
X463843D02*
G03*
X460668Y763175I-3175J0D01*
G01*
Y756825D02*
G03*
X463843Y760000I0J3175D01*
G01*
X457493D02*
G03*
X460668Y756825I3175J0D01*
G01*
Y793175D02*
G03*
X457493Y790000I0J-3175D01*
G01*
X463843D02*
G03*
X460668Y793175I-3175J0D01*
G01*
Y786825D02*
G03*
X463843Y790000I0J3175D01*
G01*
X457493D02*
G03*
X460668Y786825I3175J0D01*
G01*
Y823175D02*
G03*
X457493Y820000I0J-3175D01*
G01*
X463843D02*
G03*
X460668Y823175I-3175J0D01*
G01*
Y816825D02*
G03*
X463843Y820000I0J3175D01*
G01*
X457493D02*
G03*
X460668Y816825I3175J0D01*
G01*
X354175Y901332D02*
G03*
X351000Y904507I-3175J0D01*
G01*
Y898157D02*
G03*
X354175Y901332I0J3175D01*
G01*
X347825D02*
G03*
X351000Y898157I3175J0D01*
G01*
Y904507D02*
G03*
X347825Y901332I0J-3175D01*
G01*
X363332Y989965D02*
G03*
X366507Y993140I0J3175D01*
G01*
X360157D02*
G03*
X363332Y989965I3175J0D01*
G01*
Y996315D02*
G03*
X360157Y993140I0J-3175D01*
G01*
X366507D02*
G03*
X363332Y996315I-3175J0D01*
G01*
X310675Y944332D02*
G03*
X307500Y947507I-3175J0D01*
G01*
Y941157D02*
G03*
X310675Y944332I0J3175D01*
G01*
X304325D02*
G03*
X307500Y941157I3175J0D01*
G01*
Y947507D02*
G03*
X304325Y944332I0J-3175D01*
G01*
X363168Y1044192D02*
G03*
X366343Y1047366I0J3175D01*
G01*
X359993D02*
G03*
X363168Y1044192I3175J0D01*
G01*
Y1050542D02*
G03*
X359993Y1047366I0J-3175D01*
G01*
X366343D02*
G03*
X363168Y1050542I-3175J0D01*
G01*
X460248Y944245D02*
G03*
X457073Y941070I0J-3175D01*
G01*
X463423D02*
G03*
X460248Y944245I-3175J0D01*
G01*
Y937895D02*
G03*
X463423Y941070I0J3175D01*
G01*
X457073D02*
G03*
X460248Y937895I3175J0D01*
G01*
X397825Y905668D02*
G03*
X401000Y902493I3175J0D01*
G01*
Y908843D02*
G03*
X397825Y905668I0J-3175D01*
G01*
X404175D02*
G03*
X401000Y908843I-3175J0D01*
G01*
Y902493D02*
G03*
X404175Y905668I0J3175D01*
G01*
X460248Y977265D02*
G03*
X457073Y974090I0J-3175D01*
G01*
X463423D02*
G03*
X460248Y977265I-3175J0D01*
G01*
Y970915D02*
G03*
X463423Y974090I0J3175D01*
G01*
X457073D02*
G03*
X460248Y970915I3175J0D01*
G01*
Y1010285D02*
G03*
X457073Y1007110I0J-3175D01*
G01*
X463423D02*
G03*
X460248Y1010285I-3175J0D01*
G01*
Y1003935D02*
G03*
X463423Y1007110I0J3175D01*
G01*
X457073D02*
G03*
X460248Y1003935I3175J0D01*
G01*
Y1043305D02*
G03*
X457073Y1040130I0J-3175D01*
G01*
X463423D02*
G03*
X460248Y1043305I-3175J0D01*
G01*
Y1036955D02*
G03*
X463423Y1040130I0J3175D01*
G01*
X457073D02*
G03*
X460248Y1036955I3175J0D01*
G01*
X474325Y1080668D02*
G03*
X477500Y1077493I3175J0D01*
G01*
Y1083843D02*
G03*
X474325Y1080668I0J-3175D01*
G01*
X480675D02*
G03*
X477500Y1083843I-3175J0D01*
G01*
Y1077493D02*
G03*
X480675Y1080668I0J3175D01*
G01*
X370205Y1081278D02*
G03*
X373380Y1078103I3175J0D01*
G01*
Y1084453D02*
G03*
X370205Y1081278I0J-3175D01*
G01*
X376555D02*
G03*
X373380Y1084453I-3175J0D01*
G01*
Y1078103D02*
G03*
X376555Y1081278I0J3175D01*
G01*
X353175D02*
G03*
X350000Y1084453I-3175J0D01*
G01*
Y1078103D02*
G03*
X353175Y1081278I0J3175D01*
G01*
X346825D02*
G03*
X350000Y1078103I3175J0D01*
G01*
Y1084453D02*
G03*
X346825Y1081278I0J-3175D01*
G01*
X369325Y676832D02*
G03*
X372500Y673657I3175J0D01*
G01*
Y680007D02*
G03*
X369325Y676832I0J-3175D01*
G01*
X375675D02*
G03*
X372500Y680007I-3175J0D01*
G01*
Y673657D02*
G03*
X375675Y676832I0J3175D01*
G01*
X361832Y708025D02*
G03*
X365007Y711200I0J3175D01*
G01*
X358657D02*
G03*
X361832Y708025I3175J0D01*
G01*
Y714375D02*
G03*
X358657Y711200I0J-3175D01*
G01*
X365007D02*
G03*
X361832Y714375I-3175J0D01*
G01*
X354925Y848332D02*
G03*
X351750Y851507I-3175J0D01*
G01*
Y845157D02*
G03*
X354925Y848332I0J3175D01*
G01*
X348575D02*
G03*
X351750Y845157I3175J0D01*
G01*
Y851507D02*
G03*
X348575Y848332I0J-3175D01*
G01*
X371825Y801832D02*
G03*
X375000Y798657I3175J0D01*
G01*
Y805007D02*
G03*
X371825Y801832I0J-3175D01*
G01*
X378175D02*
G03*
X375000Y805007I-3175J0D01*
G01*
Y798657D02*
G03*
X378175Y801832I0J3175D01*
G01*
X361832Y764325D02*
G03*
X365007Y767500I0J3175D01*
G01*
X358657D02*
G03*
X361832Y764325I3175J0D01*
G01*
Y770675D02*
G03*
X358657Y767500I0J-3175D01*
G01*
X365007D02*
G03*
X361832Y770675I-3175J0D01*
G01*
X299325Y814010D02*
G03*
X302500Y810835I3175J0D01*
G01*
Y817185D02*
G03*
X299325Y814010I0J-3175D01*
G01*
X305675D02*
G03*
X302500Y817185I-3175J0D01*
G01*
Y810835D02*
G03*
X305675Y814010I0J3175D01*
G01*
X278748D02*
G03*
X275574Y817185I-3175J0D01*
G01*
Y810835D02*
G03*
X278748Y814010I0J3175D01*
G01*
X272398D02*
G03*
X275574Y810835I3175J0D01*
G01*
Y817185D02*
G03*
X272398Y814010I0J-3175D01*
G01*
X299325Y753490D02*
G03*
X302500Y750315I3175J0D01*
G01*
Y756665D02*
G03*
X299325Y753490I0J-3175D01*
G01*
X305675D02*
G03*
X302500Y756665I-3175J0D01*
G01*
Y750315D02*
G03*
X305675Y753490I0J3175D01*
G01*
X271825Y761684D02*
G03*
X275000Y758509I3175J0D01*
G01*
Y764858D02*
G03*
X271825Y761684I0J-3175D01*
G01*
X278175D02*
G03*
X275000Y764858I-3175J0D01*
G01*
Y758509D02*
G03*
X278175Y761684I0J3175D01*
G01*
X246825Y775962D02*
G03*
X250000Y772786I3175J0D01*
G01*
Y779137D02*
G03*
X246825Y775962I0J-3175D01*
G01*
X253175D02*
G03*
X250000Y779137I-3175J0D01*
G01*
Y772786D02*
G03*
X253175Y775962I0J3175D01*
G01*
X230058Y823668D02*
G03*
X226884Y826843I-3175J0D01*
G01*
Y820493D02*
G03*
X230058Y823668I0J3175D01*
G01*
X223708D02*
G03*
X226884Y820493I3175J0D01*
G01*
Y826843D02*
G03*
X223708Y823668I0J-3175D01*
G01*
X257626Y866825D02*
G03*
X260800Y870000I0J3175D01*
G01*
X254450D02*
G03*
X257626Y866825I3175J0D01*
G01*
Y873175D02*
G03*
X254450Y870000I0J-3175D01*
G01*
X260800D02*
G03*
X257626Y873175I-3175J0D01*
G01*
Y889942D02*
G03*
X260800Y893117I0J3175D01*
G01*
X254450D02*
G03*
X257626Y889942I3175J0D01*
G01*
Y896292D02*
G03*
X254450Y893117I0J-3175D01*
G01*
X260800D02*
G03*
X257626Y896292I-3175J0D01*
G01*
X261825Y927028D02*
G03*
X265000Y923853I3175J0D01*
G01*
Y930203D02*
G03*
X261825Y927028I0J-3175D01*
G01*
X268175D02*
G03*
X265000Y930203I-3175J0D01*
G01*
Y923853D02*
G03*
X268175Y927028I0J3175D01*
G01*
Y971735D02*
G03*
X265000Y974910I-3175J0D01*
G01*
Y968560D02*
G03*
X268175Y971735I0J3175D01*
G01*
X261825D02*
G03*
X265000Y968560I3175J0D01*
G01*
Y974910D02*
G03*
X261825Y971735I0J-3175D01*
G01*
X168375Y909292D02*
G03*
X165200Y906117I0J-3175D01*
G01*
X171549D02*
G03*
X168375Y909292I-3175J0D01*
G01*
Y902942D02*
G03*
X171549Y906117I0J3175D01*
G01*
X165200D02*
G03*
X168375Y902942I3175J0D01*
G01*
Y879825D02*
G03*
X171549Y883000I0J3175D01*
G01*
X165200D02*
G03*
X168375Y879825I3175J0D01*
G01*
Y886175D02*
G03*
X165200Y883000I0J-3175D01*
G01*
X171549D02*
G03*
X168375Y886175I-3175J0D01*
G01*
X101832Y921555D02*
G03*
X98657Y918380I0J-3175D01*
G01*
X105007D02*
G03*
X101832Y921555I-3175J0D01*
G01*
Y915205D02*
G03*
X105007Y918380I0J3175D01*
G01*
X98657D02*
G03*
X101832Y915205I3175J0D01*
G01*
X101332Y939825D02*
G03*
X104507Y943000I0J3175D01*
G01*
X98157D02*
G03*
X101332Y939825I3175J0D01*
G01*
Y946175D02*
G03*
X98157Y943000I0J-3175D01*
G01*
X104507D02*
G03*
X101332Y946175I-3175J0D01*
G01*
X232693Y932500D02*
G03*
X229518Y935675I-3175J0D01*
G01*
D02*
G03*
X226343Y932500I0J-3175D01*
G01*
D02*
G03*
X229518Y929325I3175J0D01*
G01*
D02*
G03*
X232693Y932500I0J3175D01*
G01*
X267693Y837500D02*
G03*
X264518Y840675I-3175J0D01*
G01*
D02*
G03*
X261343Y837500I0J-3175D01*
G01*
D02*
G03*
X264518Y834325I3175J0D01*
G01*
D02*
G03*
X267693Y837500I0J3175D01*
G01*
X359376D02*
G03*
X362551Y834325I3175J0D01*
G01*
D02*
G03*
X365727Y837500I0J3175D01*
G01*
D02*
G03*
X362551Y840675I-3175J0D01*
G01*
D02*
G03*
X359376Y837500I0J-3175D01*
G01*
X307500Y937493D02*
G03*
X310675Y940668I0J3175D01*
G01*
D02*
G03*
X307500Y943843I-3175J0D01*
G01*
D02*
G03*
X304325Y940668I0J-3175D01*
G01*
D02*
G03*
X307500Y937493I3175J0D01*
G01*
X310675Y991832D02*
G03*
X307500Y995007I-3175J0D01*
G01*
Y988657D02*
G03*
X310675Y991832I0J3175D01*
G01*
X304325D02*
G03*
X307500Y988657I3175J0D01*
G01*
Y995007D02*
G03*
X304325Y991832I0J-3175D01*
G01*
X272500Y940221D02*
G03*
X275675Y943397I0J3175D01*
G01*
D02*
G03*
X272500Y946572I-3175J0D01*
G01*
D02*
G03*
X269325Y943397I0J-3175D01*
G01*
D02*
G03*
X272500Y940221I3175J0D01*
G01*
X378175Y912082D02*
G03*
X375000Y915257I-3175J0D01*
G01*
Y908907D02*
G03*
X378175Y912082I0J3175D01*
G01*
X371825D02*
G03*
X375000Y908907I3175J0D01*
G01*
Y915257D02*
G03*
X371825Y912082I0J-3175D01*
G01*
X370825Y956832D02*
G03*
X374000Y953657I3175J0D01*
G01*
Y960007D02*
G03*
X370825Y956832I0J-3175D01*
G01*
X377175D02*
G03*
X374000Y960007I-3175J0D01*
G01*
Y953657D02*
G03*
X377175Y956832I0J3175D01*
G01*
X370272Y795175D02*
G03*
X367097Y792000I0J-3175D01*
G01*
X373447D02*
G03*
X370272Y795175I-3175J0D01*
G01*
Y788825D02*
G03*
X373447Y792000I0J3175D01*
G01*
X367097D02*
G03*
X370272Y788825I3175J0D01*
G01*
X371825Y848168D02*
G03*
X375000Y844993I3175J0D01*
G01*
Y851343D02*
G03*
X371825Y848168I0J-3175D01*
G01*
X378175D02*
G03*
X375000Y851343I-3175J0D01*
G01*
Y844993D02*
G03*
X378175Y848168I0J3175D01*
G01*
X107082Y834075D02*
G03*
X110257Y837250I0J3175D01*
G01*
X103907D02*
G03*
X107082Y834075I3175J0D01*
G01*
Y840425D02*
G03*
X103907Y837250I0J-3175D01*
G01*
X110257D02*
G03*
X107082Y840425I-3175J0D01*
G01*
X927490Y-51175D02*
G03*
X930665Y-48000I0J3175D01*
G01*
X924315D02*
G03*
X927490Y-51175I3175J0D01*
G01*
Y-44825D02*
G03*
X924315Y-48000I0J-3175D01*
G01*
X930665D02*
G03*
X927490Y-44825I-3175J0D01*
G01*
X1167832Y169325D02*
G03*
X1171007Y172500I0J3175D01*
G01*
X1164657D02*
G03*
X1167832Y169325I3175J0D01*
G01*
Y175675D02*
G03*
X1164657Y172500I0J-3175D01*
G01*
X1171007D02*
G03*
X1167832Y175675I-3175J0D01*
G01*
X104825Y397510D02*
G03*
X108000Y394335I3175J0D01*
G01*
Y400685D02*
G03*
X104825Y397510I0J-3175D01*
G01*
X111175D02*
G03*
X108000Y400685I-3175J0D01*
G01*
Y394335D02*
G03*
X111175Y397510I0J3175D01*
G01*
X482000Y143786D02*
G03*
X485175Y146961I0J3175D01*
G01*
D02*
G03*
X482000Y150136I-3175J0D01*
G01*
D02*
G03*
X478825Y146961I0J-3175D01*
G01*
D02*
G03*
X482000Y143786I3175J0D01*
G01*
X399883Y114501D02*
G03*
X396708Y111326I0J-3175D01*
G01*
D02*
G03*
X399883Y108151I3175J0D01*
G01*
D02*
G03*
X403059Y111326I0J3175D01*
G01*
D02*
G03*
X399883Y114501I-3175J0D01*
G01*
X423000Y108151D02*
G03*
X426175Y111326I0J3175D01*
G01*
D02*
G03*
X423000Y114501I-3175J0D01*
G01*
D02*
G03*
X419825Y111326I0J-3175D01*
G01*
D02*
G03*
X423000Y108151I3175J0D01*
G01*
X418493Y-76000D02*
G03*
X421668Y-79175I3175J0D01*
G01*
D02*
G03*
X424843Y-76000I0J3175D01*
G01*
D02*
G03*
X421668Y-72825I-3175J0D01*
G01*
D02*
G03*
X418493Y-76000I0J-3175D01*
G01*
X424843Y-51000D02*
G03*
X421668Y-47825I-3175J0D01*
G01*
D02*
G03*
X418493Y-51000I0J-3175D01*
G01*
D02*
G03*
X421668Y-54175I3175J0D01*
G01*
D02*
G03*
X424843Y-51000I0J3175D01*
G01*
X979374Y51410D02*
G03*
X982550Y48235I3175J0D01*
G01*
Y54585D02*
G03*
X979374Y51410I0J-3175D01*
G01*
X985724D02*
G03*
X982550Y54585I-3175J0D01*
G01*
Y48235D02*
G03*
X985724Y51410I0J3175D01*
G01*
X76575Y332668D02*
G03*
X79750Y329493I3175J0D01*
G01*
Y335843D02*
G03*
X76575Y332668I0J-3175D01*
G01*
X82925D02*
G03*
X79750Y335843I-3175J0D01*
G01*
Y329493D02*
G03*
X82925Y332668I0J3175D01*
G01*
X371007Y1093500D02*
G03*
X367832Y1096675I-3175J0D01*
G01*
D02*
G03*
X364657Y1093500I0J-3175D01*
G01*
D02*
G03*
X367832Y1090325I3175J0D01*
G01*
D02*
G03*
X371007Y1093500I0J3175D01*
G01*
X368993Y666250D02*
G03*
X372168Y663075I3175J0D01*
G01*
D02*
G03*
X375343Y666250I0J3175D01*
G01*
D02*
G03*
X372168Y669425I-3175J0D01*
G01*
D02*
G03*
X368993Y666250I0J-3175D01*
G01*
M02*
